<svg xmlns="http://www.w3.org/2000/svg" xmlns:xlink="http://www.w3.org/1999/xlink" width="300" zoomAndPan="magnify" viewBox="0 0 224.87999 225" height="300" preserveAspectRatio="xMidYMid meet" version="1.0"><defs><clipPath id="d43643f0cb"><path d="M 19.03125 36.925781 L 205.683594 36.925781 L 205.683594 188.34375 L 19.03125 188.34375 Z M 19.03125 36.925781 " clip-rule="nonzero"/></clipPath><clipPath id="c235a25778"><path d="M 48 36.925781 L 184 36.925781 L 184 160 L 48 160 Z M 48 36.925781 " clip-rule="nonzero"/></clipPath><clipPath id="a10a8880cd"><path d="M 19.03125 152 L 205.683594 152 L 205.683594 188.34375 L 19.03125 188.34375 Z M 19.03125 152 " clip-rule="nonzero"/></clipPath></defs><g clip-path="url(#d43643f0cb)"><path fill="#ce6f09" d="M 174.34375 184.507812 C 174.207031 182.101562 173.878906 178.65625 173.546875 175.097656 C 175.25 176.5625 177.101562 177.195312 179.199219 176.667969 C 181.09375 176.007812 182.632812 174.601562 183.46875 172.773438 C 184.304688 170.945312 184.359375 168.851562 183.621094 166.984375 C 183.605469 166.949219 183.59375 166.921875 183.582031 166.890625 C 182.636719 156.097656 182.902344 142.332031 182.71875 139.875 C 182.457031 136.847656 182.207031 133.820312 181.828125 130.800781 C 181.679688 129.59375 181.265625 128.488281 180.65625 127.527344 L 183.644531 127.527344 L 183.644531 36.992188 L 48.082031 36.992188 L 48.082031 127.527344 L 54.6875 127.527344 C 54.625 129.769531 54.859375 132.046875 54.917969 134.136719 C 54.929688 134.464844 55.042969 134.761719 55.25 135.035156 C 55.226562 135.128906 55.203125 135.21875 55.183594 135.3125 L 51.742188 152.433594 L 41.425781 152.433594 L 41.425781 158.070312 C 41.140625 158.050781 40.855469 158.039062 40.5625 158.039062 C 34.675781 158.039062 29.847656 162.285156 29.421875 167.660156 L 27.085938 167.660156 L 27.085938 184.507812 L 19.03125 184.507812 L 19.03125 188.261719 L 205.695312 188.261719 L 205.695312 184.507812 Z M 86.96875 129.050781 C 86.949219 129.105469 86.925781 129.160156 86.902344 129.214844 C 86.921875 129.167969 86.941406 129.117188 86.960938 129.066406 C 86.964844 129.0625 86.96875 129.058594 86.96875 129.050781 Z M 86.65625 129.503906 C 86.675781 129.476562 86.699219 129.449219 86.71875 129.425781 C 86.695312 129.453125 86.675781 129.476562 86.65625 129.503906 Z M 86.605469 129.957031 C 86.585938 130.011719 86.566406 130.066406 86.546875 130.121094 C 86.566406 130.066406 86.585938 130.011719 86.605469 129.957031 Z M 81.09375 132.367188 C 81.269531 132.363281 81.445312 132.347656 81.617188 132.328125 C 81.445312 132.347656 81.269531 132.363281 81.09375 132.367188 Z M 81.757812 132.316406 C 81.960938 132.289062 82.164062 132.253906 82.363281 132.210938 C 82.164062 132.253906 81.960938 132.289062 81.757812 132.316406 Z M 85.472656 133.972656 C 85.5 133.824219 85.535156 133.675781 85.5625 133.527344 C 85.535156 133.675781 85.503906 133.824219 85.476562 133.972656 C 85.476562 133.972656 85.472656 133.972656 85.472656 133.972656 Z M 82.554688 132.167969 C 82.695312 132.132812 82.835938 132.09375 82.972656 132.054688 C 82.835938 132.09375 82.695312 132.132812 82.554688 132.167969 Z M 83.1875 131.984375 C 83.367188 131.925781 83.542969 131.863281 83.714844 131.789062 C 83.542969 131.863281 83.367188 131.925781 83.1875 131.984375 Z M 83.933594 131.6875 C 84.039062 131.640625 84.144531 131.589844 84.242188 131.539062 C 84.144531 131.589844 84.039062 131.640625 83.933594 131.6875 Z M 84.511719 131.390625 C 84.589844 131.347656 84.667969 131.296875 84.746094 131.25 C 84.667969 131.296875 84.589844 131.347656 84.511719 131.390625 Z M 85.25 130.90625 C 85.296875 130.871094 85.34375 130.835938 85.390625 130.800781 C 85.34375 130.835938 85.296875 130.871094 85.25 130.90625 Z M 85.683594 130.554688 C 85.722656 130.519531 85.761719 130.484375 85.800781 130.445312 C 85.761719 130.484375 85.722656 130.519531 85.683594 130.554688 Z M 85.808594 132.496094 C 85.765625 132.65625 85.722656 132.816406 85.683594 132.980469 C 85.722656 132.816406 85.765625 132.65625 85.808594 132.496094 Z M 80.910156 132.375 C 80.691406 132.378906 80.472656 132.375 80.25 132.363281 C 80.011719 132.347656 79.78125 132.316406 79.554688 132.28125 C 79.78125 132.316406 80.011719 132.347656 80.25 132.363281 C 80.472656 132.378906 80.691406 132.378906 80.910156 132.375 Z M 75.519531 130.082031 C 75.628906 130.203125 75.738281 130.324219 75.855469 130.4375 C 75.738281 130.324219 75.628906 130.203125 75.519531 130.082031 Z M 76.070312 130.628906 C 76.15625 130.707031 76.242188 130.785156 76.332031 130.855469 C 76.242188 130.785156 76.15625 130.707031 76.070312 130.628906 Z M 76.558594 131.027344 C 76.652344 131.097656 76.746094 131.164062 76.84375 131.230469 C 76.746094 131.164062 76.652344 131.097656 76.558594 131.027344 Z M 77.089844 131.378906 C 77.191406 131.441406 77.292969 131.5 77.402344 131.558594 C 77.292969 131.5 77.191406 131.441406 77.089844 131.378906 Z M 77.652344 131.683594 C 77.765625 131.738281 77.878906 131.789062 77.996094 131.835938 C 77.878906 131.789062 77.765625 131.738281 77.652344 131.683594 Z M 78.253906 131.9375 C 78.378906 131.984375 78.507812 132.023438 78.636719 132.0625 C 78.507812 132.023438 78.378906 131.984375 78.253906 131.9375 Z M 78.886719 132.136719 C 79.035156 132.175781 79.183594 132.207031 79.332031 132.234375 C 79.183594 132.207031 79.035156 132.175781 78.886719 132.136719 Z M 144.457031 159.800781 C 144.457031 159.800781 144.460938 159.800781 144.460938 159.800781 C 144.460938 159.800781 144.457031 159.800781 144.457031 159.800781 Z M 143.089844 159.925781 Z M 158.667969 151.171875 C 158.722656 151.277344 158.78125 151.386719 158.84375 151.5 C 158.84375 151.5 158.84375 151.5 158.84375 151.496094 C 158.78125 151.382812 158.722656 151.277344 158.667969 151.171875 Z M 158.320312 150.511719 C 158.359375 150.589844 158.40625 150.679688 158.453125 150.769531 C 158.40625 150.675781 158.359375 150.589844 158.320312 150.511719 Z M 158.5 150.855469 C 158.535156 150.925781 158.574219 150.996094 158.613281 151.070312 C 158.574219 150.996094 158.535156 150.925781 158.5 150.855469 Z M 172.222656 173.757812 C 172.207031 173.742188 172.195312 173.726562 172.183594 173.710938 C 172.195312 173.726562 172.207031 173.742188 172.222656 173.757812 Z M 171.847656 173.304688 C 171.796875 173.242188 171.742188 173.175781 171.691406 173.109375 C 171.742188 173.175781 171.796875 173.242188 171.847656 173.304688 Z M 171.410156 172.738281 C 171.335938 172.640625 171.265625 172.542969 171.195312 172.445312 C 171.265625 172.542969 171.335938 172.640625 171.410156 172.738281 Z M 170.957031 172.109375 C 170.867188 171.976562 170.773438 171.839844 170.683594 171.703125 C 170.773438 171.839844 170.867188 171.976562 170.957031 172.109375 Z M 170.503906 171.429688 C 170.347656 171.191406 170.195312 170.949219 170.046875 170.699219 C 169.933594 170.515625 169.820312 170.328125 169.703125 170.136719 C 169.820312 170.328125 169.933594 170.515625 170.046875 170.699219 C 170.195312 170.949219 170.351562 171.191406 170.503906 171.429688 Z M 169.578125 169.925781 C 169.496094 169.792969 169.417969 169.65625 169.335938 169.523438 C 169.417969 169.660156 169.496094 169.792969 169.578125 169.925781 Z M 169.226562 169.339844 C 169.136719 169.191406 169.050781 169.046875 168.960938 168.898438 C 169.050781 169.046875 169.136719 169.191406 169.226562 169.339844 Z M 168.828125 168.675781 C 168.75 168.546875 168.671875 168.414062 168.589844 168.28125 C 168.671875 168.414062 168.75 168.546875 168.828125 168.675781 Z M 168.417969 167.992188 C 168.34375 167.867188 168.265625 167.738281 168.191406 167.609375 C 168.265625 167.738281 168.34375 167.863281 168.417969 167.992188 Z M 168.03125 167.34375 C 167.949219 167.207031 167.867188 167.066406 167.785156 166.929688 C 167.867188 167.066406 167.949219 167.207031 168.03125 167.34375 Z M 167.628906 166.667969 C 167.53125 166.503906 167.433594 166.335938 167.332031 166.167969 C 167.433594 166.335938 167.53125 166.503906 167.628906 166.667969 Z M 167.234375 166.003906 C 167.113281 165.800781 166.992188 165.597656 166.871094 165.394531 C 166.992188 165.597656 167.113281 165.800781 167.234375 166.003906 Z M 166.816406 165.296875 C 166.382812 164.566406 165.941406 163.824219 165.503906 163.074219 C 165.945312 163.824219 166.382812 164.566406 166.816406 165.296875 Z M 165.503906 163.074219 C 165.363281 162.835938 165.222656 162.597656 165.082031 162.355469 C 165.222656 162.597656 165.363281 162.835938 165.503906 163.074219 Z M 164.996094 162.214844 C 164.882812 162.023438 164.769531 161.828125 164.660156 161.636719 C 164.769531 161.828125 164.882812 162.023438 164.996094 162.214844 Z M 164.539062 161.433594 C 164.433594 161.253906 164.328125 161.074219 164.226562 160.898438 C 164.328125 161.074219 164.433594 161.253906 164.539062 161.433594 Z M 164.109375 160.699219 C 164.007812 160.527344 163.910156 160.355469 163.808594 160.183594 C 163.910156 160.355469 164.007812 160.527344 164.109375 160.699219 Z M 163.683594 159.972656 C 163.582031 159.792969 163.476562 159.617188 163.375 159.4375 C 163.476562 159.617188 163.582031 159.792969 163.683594 159.972656 Z M 163.269531 159.257812 C 163.167969 159.082031 163.066406 158.910156 162.964844 158.738281 C 163.066406 158.910156 163.167969 159.082031 163.269531 159.257812 Z M 162.851562 158.539062 C 162.746094 158.359375 162.640625 158.179688 162.539062 158 C 162.640625 158.179688 162.746094 158.359375 162.851562 158.539062 Z M 162.453125 157.855469 C 162.183594 157.390625 161.921875 156.9375 161.667969 156.496094 C 161.921875 156.9375 162.183594 157.390625 162.453125 157.855469 Z M 161.65625 156.472656 C 161.535156 156.265625 161.417969 156.058594 161.300781 155.859375 C 161.417969 156.058594 161.535156 156.265625 161.65625 156.472656 Z M 161.210938 155.699219 C 161.121094 155.542969 161.03125 155.390625 160.945312 155.238281 C 161.03125 155.390625 161.121094 155.542969 161.210938 155.699219 Z M 160.832031 155.039062 C 160.757812 154.910156 160.6875 154.78125 160.613281 154.660156 C 160.6875 154.78125 160.757812 154.910156 160.832031 155.039062 Z M 160.480469 154.421875 C 160.414062 154.304688 160.347656 154.1875 160.28125 154.070312 C 160.347656 154.1875 160.414062 154.304688 160.480469 154.421875 Z M 160.164062 153.867188 C 160.101562 153.753906 160.035156 153.640625 159.972656 153.527344 C 160.035156 153.640625 160.101562 153.753906 160.164062 153.867188 Z M 159.859375 153.328125 C 159.800781 153.21875 159.738281 153.113281 159.679688 153.007812 C 159.738281 153.113281 159.800781 153.21875 159.859375 153.328125 Z M 159.574219 152.816406 C 159.519531 152.71875 159.464844 152.625 159.414062 152.53125 C 159.46875 152.625 159.519531 152.71875 159.574219 152.816406 Z M 159.308594 152.339844 C 159.253906 152.246094 159.207031 152.15625 159.15625 152.070312 C 159.207031 152.15625 159.253906 152.246094 159.308594 152.339844 Z M 159.066406 151.902344 C 159.011719 151.804688 158.960938 151.714844 158.910156 151.621094 C 158.960938 151.714844 159.011719 151.804688 159.066406 151.902344 Z M 74.09375 127.527344 Z M 75.234375 129.730469 C 75.179688 129.664062 75.125 129.597656 75.078125 129.527344 C 75.125 129.597656 75.179688 129.664062 75.234375 129.730469 Z M 74.875 129.222656 C 74.828125 129.152344 74.785156 129.082031 74.742188 129.011719 C 74.785156 129.082031 74.828125 129.152344 74.875 129.222656 Z M 74.5625 128.683594 C 74.527344 128.613281 74.492188 128.542969 74.457031 128.46875 C 74.492188 128.542969 74.527344 128.613281 74.5625 128.683594 Z M 74.304688 128.117188 C 74.273438 128.046875 74.25 127.976562 74.222656 127.90625 C 74.25 127.976562 74.273438 128.046875 74.304688 128.117188 Z M 61.796875 129.117188 C 62.007812 129.089844 62.21875 129.070312 62.433594 129.058594 C 62.21875 129.070312 62.007812 129.089844 61.796875 129.117188 Z M 61.171875 129.226562 C 61.300781 129.199219 61.429688 129.179688 61.558594 129.160156 C 61.429688 129.179688 61.300781 129.199219 61.171875 129.226562 Z M 102.324219 151.539062 C 102.988281 151.242188 103.648438 150.9375 104.304688 150.625 C 103.648438 150.9375 102.988281 151.242188 102.324219 151.539062 Z M 141.703125 159.96875 C 141.703125 159.96875 141.703125 159.96875 141.699219 159.96875 C 141.699219 159.96875 141.703125 159.96875 141.703125 159.96875 Z M 140.296875 159.925781 Z M 60.867188 129.304688 C 60.765625 129.332031 60.664062 129.355469 60.566406 129.386719 C 60.664062 129.355469 60.765625 129.332031 60.867188 129.304688 Z M 60.21875 129.503906 C 60.136719 129.535156 60.054688 129.558594 59.976562 129.589844 C 60.054688 129.558594 60.136719 129.535156 60.21875 129.503906 Z M 59.601562 129.753906 C 59.535156 129.785156 59.472656 129.808594 59.410156 129.839844 C 59.472656 129.808594 59.535156 129.785156 59.601562 129.753906 Z M 59.011719 130.054688 C 58.964844 130.078125 58.914062 130.105469 58.871094 130.132812 C 58.914062 130.105469 58.964844 130.078125 59.011719 130.054688 Z M 58.453125 130.398438 C 58.421875 130.417969 58.386719 130.441406 58.355469 130.460938 C 58.386719 130.441406 58.421875 130.421875 58.453125 130.398438 Z M 57.929688 130.785156 C 57.910156 130.800781 57.886719 130.816406 57.867188 130.832031 C 57.886719 130.816406 57.910156 130.800781 57.929688 130.785156 Z M 57.445312 131.210938 C 57.433594 131.222656 57.421875 131.230469 57.410156 131.242188 C 57.421875 131.230469 57.433594 131.222656 57.445312 131.210938 Z M 57 131.671875 C 56.996094 131.675781 56.992188 131.679688 56.988281 131.683594 C 56.992188 131.679688 56.996094 131.675781 57 131.671875 Z M 47.21875 160.085938 C 47.03125 159.957031 46.839844 159.835938 46.644531 159.71875 C 46.839844 159.835938 47.03125 159.957031 47.21875 160.085938 Z M 42.105469 158.136719 C 42.109375 158.136719 42.109375 158.136719 42.109375 158.136719 C 42.398438 158.175781 42.679688 158.226562 42.960938 158.28125 C 42.679688 158.226562 42.398438 158.175781 42.109375 158.136719 C 42.109375 158.136719 42.109375 158.136719 42.105469 158.136719 C 42.050781 158.128906 41.988281 158.128906 41.929688 158.121094 C 41.988281 158.125 42.050781 158.128906 42.105469 158.136719 Z M 46.304688 159.523438 C 46.179688 159.453125 46.050781 159.382812 45.921875 159.316406 C 46.050781 159.382812 46.179688 159.453125 46.304688 159.523438 Z M 45.582031 159.152344 C 45.417969 159.074219 45.253906 159 45.082031 158.933594 C 45.25 159 45.417969 159.074219 45.582031 159.152344 Z M 44.835938 158.828125 C 44.589844 158.734375 44.339844 158.648438 44.082031 158.570312 C 44.339844 158.648438 44.589844 158.734375 44.835938 158.828125 Z M 43.816406 158.492188 C 43.621094 158.4375 43.421875 158.386719 43.222656 158.339844 C 43.421875 158.386719 43.621094 158.4375 43.816406 158.492188 Z M 112.460938 184.507812 C 112.164062 179.53125 109.746094 155.308594 109.042969 148.308594 C 108.984375 148.339844 108.921875 148.367188 108.863281 148.398438 C 109.941406 147.855469 111.015625 147.316406 112.089844 146.777344 L 109.363281 140.167969 L 111.632812 138.644531 L 107.015625 134.476562 L 105.972656 131.945312 C 105.929688 131.839844 105.871094 131.710938 105.824219 131.605469 C 105.257812 130.402344 104.40625 129.433594 103.398438 128.71875 C 103.277344 128.332031 103.121094 127.933594 102.953125 127.527344 L 125.800781 127.527344 L 138.417969 139.695312 L 126.007812 127.726562 C 123.4375 128.898438 121.617188 131.4375 121.527344 134.464844 L 118.65625 162.148438 C 118.5 163.648438 119.554688 165 121.042969 165.214844 L 132.175781 166.808594 L 123.003906 165.496094 L 120.578125 184.507812 Z M 105.019531 150.285156 C 105.550781 150.03125 106.082031 149.773438 106.613281 149.515625 C 106.082031 149.773438 105.550781 150.03125 105.019531 150.285156 Z M 101.113281 127.613281 C 101.335938 127.675781 101.554688 127.753906 101.769531 127.835938 C 101.554688 127.753906 101.335938 127.675781 101.113281 127.613281 Z M 102.097656 127.980469 C 102.191406 128.019531 102.285156 128.0625 102.375 128.109375 C 102.285156 128.0625 102.191406 128.019531 102.097656 127.980469 Z M 102.796875 128.332031 C 102.839844 128.359375 102.886719 128.386719 102.929688 128.414062 C 102.886719 128.386719 102.839844 128.359375 102.796875 128.332031 Z M 102.796875 128.332031 " fill-opacity="1" fill-rule="nonzero"/></g><path fill="#ce6f09" d="M 117.8125 83.167969 L 74.933594 83.167969 L 74.933594 43.613281 L 117.8125 43.613281 Z M 142.886719 73.105469 L 143.238281 75.082031 L 147.113281 74.390625 L 147.347656 78.332031 L 149.347656 78.214844 L 148.984375 72.011719 Z M 151.066406 54.304688 L 151.066406 56.3125 L 125 56.3125 L 125 54.304688 Z M 139.171875 61.867188 L 125.164062 61.867188 L 125.164062 59.855469 L 139.171875 59.855469 Z M 145.089844 75.234375 L 146.613281 76.542969 L 128.757812 97.484375 L 115.09375 88.023438 L 97.542969 109.53125 L 88.058594 103.957031 L 79.089844 113.964844 L 79.089844 116.371094 L 128.585938 116.371094 L 128.585938 118.382812 L 77.082031 118.382812 L 77.082031 92.222656 L 79.089844 92.222656 L 79.089844 110.957031 L 87.660156 101.394531 L 97.074219 106.925781 L 114.710938 85.316406 L 128.410156 94.800781 Z M 145.089844 75.234375 " fill-opacity="1" fill-rule="evenodd"/><g clip-path="url(#c235a25778)"><path fill="#e0e0e0" d="M 183.644531 36.992188 L 48.082031 36.992188 L 48.082031 127.527344 L 87.671875 127.527344 C 86.230469 130.359375 85.324219 133.523438 85.09375 136.894531 C 84.679688 142.917969 86.496094 148.578125 89.832031 153.074219 L 110.890625 138.671875 L 98.609375 127.527344 L 125.800781 127.527344 L 138.417969 139.695312 L 122.332031 148.75 C 122.835938 149.476562 123.378906 150.257812 123.964844 151.023438 C 127.292969 155.65625 132.597656 158.988281 138.878906 159.789062 C 140.78125 160.03125 142.652344 160.027344 144.460938 159.800781 C 143.5625 159.796875 142.652344 159.738281 141.738281 159.621094 C 138.253906 159.175781 135.070312 157.945312 132.363281 156.148438 C 133.234375 156.324219 134.136719 156.460938 135.070312 156.578125 C 144.992188 157.839844 154.015625 151.234375 155.207031 141.832031 C 155.832031 136.886719 154.097656 131.609375 150.875 127.527344 L 183.644531 127.527344 Z M 94.539062 46.488281 C 99.140625 46.488281 103.324219 48.277344 106.441406 51.199219 C 109.84375 54.386719 111.96875 58.929688 111.96875 63.964844 C 111.96875 65.558594 111.753906 67.101562 111.355469 68.570312 L 95 63.46875 L 94.539062 63.964844 L 94.359375 64.550781 L 110.992188 69.734375 C 108.617188 76.550781 102.148438 81.441406 94.539062 81.441406 C 84.910156 81.441406 77.109375 73.617188 77.109375 63.964844 C 77.109375 54.3125 84.910156 46.488281 94.539062 46.488281 Z M 128.757812 97.484375 L 115.09375 88.023438 L 97.542969 109.53125 L 88.058594 103.957031 L 79.089844 113.964844 L 79.089844 116.371094 L 128.585938 116.371094 L 128.585938 118.382812 L 77.082031 118.382812 L 77.082031 92.222656 L 79.089844 92.222656 L 79.089844 110.957031 L 87.660156 101.394531 L 97.074219 106.925781 L 114.710938 85.316406 L 128.410156 94.800781 L 145.089844 75.234375 L 146.613281 76.542969 Z M 125.164062 61.867188 L 125.164062 59.855469 L 139.171875 59.855469 L 139.171875 61.867188 Z M 147.347656 78.332031 L 147.113281 74.390625 L 143.238281 75.082031 L 142.886719 73.105469 L 148.984375 72.011719 L 149.347656 78.214844 Z M 151.066406 56.3125 L 125 56.3125 L 125 54.304688 L 151.066406 54.304688 Z M 151.066406 56.3125 " fill-opacity="1" fill-rule="evenodd"/></g><path fill="#1d3863" d="M 117.898438 87.609375 C 117.898438 89.324219 116.507812 90.71875 114.796875 90.71875 C 113.082031 90.71875 111.695312 89.324219 111.695312 87.609375 C 111.695312 85.890625 113.082031 84.5 114.796875 84.5 C 116.507812 84.5 117.898438 85.890625 117.898438 87.609375 Z M 94.539062 46.488281 L 94.539062 63.964844 L 106.441406 51.199219 C 103.324219 48.277344 99.140625 46.488281 94.539062 46.488281 Z M 170.046875 170.699219 C 166.632812 165.0625 160.9375 155.34375 158.84375 151.5 C 155.535156 156 150.335938 159.066406 144.460938 159.800781 C 144.460938 159.800781 144.457031 159.800781 144.457031 159.800781 C 142.648438 160.027344 140.777344 160.03125 138.878906 159.789062 C 132.597656 158.988281 127.292969 155.65625 123.960938 151.023438 C 123.375 150.261719 122.835938 149.476562 122.328125 148.75 L 138.417969 139.695312 L 126.007812 127.726562 C 123.4375 128.898438 121.617188 131.4375 121.527344 134.464844 L 118.65625 162.148438 C 118.5 163.648438 119.554688 165 121.042969 165.214844 L 132.175781 166.808594 C 131.613281 172.414062 130.269531 180.089844 129.851562 184.507812 L 174.34375 184.507812 C 174.207031 182.101562 173.875 178.65625 173.546875 175.101562 C 172.3125 174.035156 171.15625 172.53125 170.046875 170.699219 Z M 146.652344 121.929688 L 146.671875 119.519531 C 144.523438 119.78125 142.371094 120.1875 140.214844 120.714844 C 142.722656 121.214844 145.042969 122.3125 147.078125 123.824219 C 146.847656 123.226562 146.695312 122.59375 146.652344 121.929688 Z M 182.71875 139.875 C 182.457031 136.847656 182.207031 133.820312 181.828125 130.800781 C 181.472656 127.953125 179.664062 125.652344 177.242188 124.535156 C 177.246094 124.515625 177.25 124.5 177.25 124.5 C 171.640625 122.070312 166.160156 120.464844 160.726562 119.683594 L 160.816406 120.886719 C 161.078125 124.65625 158.375 127.996094 154.371094 128.265625 C 153.191406 128.347656 152.0625 128.148438 151.042969 127.746094 C 152.308594 129.390625 153.335938 131.222656 154.066406 133.144531 C 154.40625 133.148438 154.742188 133.160156 155.082031 133.175781 C 155.660156 133.207031 156.449219 133.460938 157.273438 133.804688 C 159.699219 134.824219 161.851562 136.398438 163.558594 138.398438 C 165.449219 140.621094 168.101562 143.730469 168.734375 144.472656 L 168.738281 144.46875 L 168.757812 144.5 C 168.828125 144.582031 168.875 144.632812 168.875 144.632812 L 168.855469 144.644531 L 173.589844 151.71875 C 173.59375 151.722656 173.601562 151.722656 173.605469 151.730469 L 173.769531 151.992188 L 183.359375 166.328125 C 183.359375 166.328125 183.445312 166.539062 183.582031 166.890625 C 182.636719 156.097656 182.902344 142.332031 182.71875 139.875 Z M 105.824219 131.605469 C 104.863281 129.574219 103.109375 128.183594 101.113281 127.613281 C 101.105469 127.609375 101.101562 127.605469 101.097656 127.601562 C 100.070312 127.289062 98.953125 127.011719 97.777344 126.769531 L 107.464844 135.5625 L 105.972656 131.945312 C 105.929688 131.839844 105.871094 131.710938 105.824219 131.605469 Z M 112.089844 146.777344 L 109.21875 139.816406 L 89.832031 153.074219 C 86.492188 148.578125 84.679688 142.917969 85.09375 136.894531 C 85.28125 134.121094 85.933594 131.492188 86.960938 129.066406 C 85.609375 131.199219 83.066406 132.554688 80.25 132.363281 C 76.71875 132.121094 74.199219 129.496094 73.835938 126.289062 C 69.644531 126.863281 65.695312 127.78125 62.433594 129.058594 C 58.957031 129.230469 55.902344 131.730469 55.183594 135.3125 L 51.523438 153.519531 C 54.414062 154.027344 57.273438 154.675781 60.136719 155.335938 C 60.488281 167.449219 61.515625 180.183594 63.445312 184.507812 L 102.417969 184.507812 C 101.8125 178.730469 101.980469 164.46875 102.042969 151.667969 C 105.445312 150.15625 108.761719 148.445312 112.089844 146.777344 Z M 88.722656 125.675781 C 88.46875 125.660156 88.21875 125.648438 87.96875 125.636719 L 87.972656 126.023438 C 87.9375 126.527344 87.839844 127.011719 87.695312 127.480469 C 88.011719 126.859375 88.355469 126.257812 88.722656 125.675781 Z M 42.109375 158.136719 C 36.839844 158.714844 32.691406 162.703125 32.285156 167.65625 L 51.703125 167.65625 C 51.320312 162.761719 47.277344 158.804688 42.109375 158.136719 Z M 42.109375 158.136719 " fill-opacity="1" fill-rule="evenodd"/><g clip-path="url(#a10a8880cd)"><path fill="#e0e0e0" d="M 39.28125 184.507812 L 39.28125 167.65625 L 27.085938 167.65625 L 27.085938 184.507812 L 19.03125 184.507812 L 19.03125 188.261719 L 205.695312 188.261719 L 205.695312 184.507812 Z M 53.859375 179.820312 L 41.65625 179.820312 L 41.65625 172.902344 L 53.859375 172.902344 Z M 52.226562 165.589844 L 62.921875 164.765625 L 59 154.625 C 61.742188 153.710938 65.269531 153.128906 67.980469 154.835938 C 72.140625 157.457031 73.695312 163.140625 72.320312 167.65625 L 52.648438 167.65625 C 52.464844 166.960938 52.34375 166.242188 52.226562 165.589844 Z M 42.105469 158.136719 C 41.882812 158.109375 41.65625 158.085938 41.425781 158.070312 L 41.425781 152.433594 L 47.234375 152.433594 L 47.234375 160.097656 C 45.761719 159.078125 44.011719 158.382812 42.109375 158.136719 C 42.109375 158.136719 42.109375 158.136719 42.105469 158.136719 Z M 42.105469 158.136719 " fill-opacity="1" fill-rule="evenodd"/></g><path fill="#ce6f09" d="M 54.152344 167.65625 C 53.574219 167.128906 53.167969 166.714844 52.230469 165.589844 L 62.925781 164.765625 L 59 154.625 C 61.632812 153.746094 64.992188 153.183594 67.65625 154.652344 C 67.679688 154.65625 67.699219 154.660156 67.722656 154.664062 L 67.722656 152.433594 L 47.234375 152.433594 L 47.199219 167.65625 L 39.28125 167.65625 L 39.28125 185.046875 L 78.675781 185.046875 L 78.675781 167.65625 Z M 53.859375 179.820312 L 41.65625 179.820312 L 41.65625 172.902344 L 53.859375 172.902344 Z M 53.859375 179.820312 " fill-opacity="1" fill-rule="evenodd"/><path fill="#293237" d="M 61.585938 151.882812 L 61.039062 141.921875 C 61.027344 141.753906 61.15625 141.609375 61.324219 141.601562 C 61.484375 141.582031 61.636719 141.722656 61.644531 141.890625 L 62.183594 151.679688 L 61.859375 152.167969 C 61.710938 152.152344 61.59375 152.035156 61.585938 151.882812 Z M 70.652344 155.695312 C 70.46875 155.578125 70.285156 155.46875 70.097656 155.367188 C 67.078125 154.140625 63.804688 154.152344 60.980469 155.257812 L 65.148438 166.019531 L 53.964844 166.90625 C 53.996094 167.15625 54.03125 167.410156 54.074219 167.65625 L 76.5 167.65625 C 77.074219 163.148438 74.929688 158.390625 70.652344 155.695312 Z M 29.421875 167.65625 L 32.285156 167.65625 C 32.691406 162.703125 36.839844 158.714844 42.109375 158.136719 C 41.605469 158.074219 41.089844 158.039062 40.5625 158.039062 C 34.675781 158.039062 29.847656 162.285156 29.421875 167.65625 Z M 130.527344 136.175781 C 130.511719 136.007812 130.363281 135.886719 130.195312 135.898438 C 130.027344 135.914062 129.90625 136.0625 129.921875 136.230469 L 130.648438 144.066406 L 131.230469 143.738281 Z M 167.011719 93.820312 C 167.066406 88.851562 164.394531 86.4375 159.414062 86.195312 C 159.414062 86.195312 148.15625 85.238281 145.652344 85.082031 C 142.089844 84.863281 141.941406 87.957031 143 92.136719 C 143.0625 92.378906 143.144531 92.589844 143.25 92.78125 C 142.613281 94.046875 142.203125 95.453125 142.078125 96.953125 C 141.917969 98.914062 142.261719 100.796875 143.003906 102.472656 C 143.0625 101.199219 143.328125 97.542969 144.539062 93.777344 C 146.949219 93.488281 149.074219 94.765625 152.730469 95.671875 C 155.726562 96.414062 159.871094 96.042969 161.003906 94.921875 C 159.714844 100.265625 160.382812 105.523438 160.382812 105.523438 C 160.554688 105.527344 160.710938 105.578125 160.847656 105.65625 C 161.15625 104.214844 161.632812 102.769531 162.296875 102.828125 C 163.613281 102.9375 164.542969 104.636719 164.375 106.617188 C 164.246094 108.160156 163.171875 109.394531 161.664062 109.777344 C 161.164062 109.90625 160.695312 109.601562 160.5 109.117188 L 160.035156 110.53125 L 160.058594 110.820312 C 161.597656 110.550781 167.664062 109.125 166.976562 103.597656 C 166.976562 103.601562 171.753906 98.101562 167.011719 93.820312 Z M 172.222656 135.023438 C 172.21875 134.855469 172.085938 134.722656 171.910156 134.726562 C 171.742188 134.734375 171.609375 134.875 171.613281 135.042969 L 172.070312 149.449219 L 172.710938 150.40625 Z M 145.304688 133.863281 C 147.953125 133.398438 151.628906 133.003906 155.078125 133.175781 C 155.660156 133.207031 156.449219 133.460938 157.273438 133.804688 C 159.152344 134.59375 160.867188 135.722656 162.339844 137.121094 C 160.945312 128.390625 153.585938 121.164062 143.921875 119.9375 C 143.554688 119.890625 143.191406 119.851562 142.824219 119.824219 C 137.230469 120.105469 132.125 122.5 128.523438 126.277344 L 142.792969 140.039062 L 125.992188 149.539062 C 129.199219 154.851562 134.886719 158.75 141.734375 159.621094 C 142.652344 159.738281 143.5625 159.796875 144.460938 159.800781 C 150.339844 159.066406 155.539062 156 158.84375 151.5 C 158.628906 151.105469 158.453125 150.773438 158.320312 150.511719 L 156.492188 147.542969 C 154.34375 146.609375 148.464844 145.691406 147.320312 145.238281 C 146.359375 144.855469 145.925781 143.371094 146.546875 142.742188 C 146.34375 142.695312 146.148438 142.640625 145.960938 142.582031 L 145.582031 142.53125 C 145.53125 142.523438 145.496094 142.472656 145.503906 142.421875 C 145.320312 142.347656 145.152344 142.269531 145.015625 142.179688 C 144.601562 141.910156 144.636719 141.269531 144.695312 140.964844 C 144.777344 140.515625 144.988281 140.113281 145.414062 139.839844 C 145.414062 139.832031 145.40625 139.828125 145.410156 139.820312 C 145.050781 139.757812 144.746094 139.660156 144.582031 139.496094 C 143.589844 138.496094 144.023438 136.835938 144.949219 136.511719 C 145.140625 136.445312 145.332031 136.40625 145.511719 136.390625 C 143.6875 135.6875 143.242188 134.222656 145.304688 133.863281 Z M 98.699219 126.96875 C 99.539062 127.160156 100.34375 127.371094 101.097656 127.601562 C 101.101562 127.605469 101.105469 127.609375 101.113281 127.613281 C 101.929688 127.84375 102.699219 128.222656 103.398438 128.71875 C 103.050781 127.628906 102.53125 126.445312 101.773438 125.1875 C 99.824219 121.9375 101.023438 119.324219 100.746094 114.808594 C 100.59375 112.347656 98.992188 109.464844 97.121094 106.71875 C 94.03125 102.195312 97.054688 97.105469 94.035156 92.675781 C 90.589844 87.621094 84.023438 86.460938 78.390625 87.75 C 76.613281 88.15625 75.085938 88.738281 73.753906 89.480469 C 69.457031 91.863281 67.167969 95.886719 64.925781 101.007812 C 64.269531 102.503906 63.609375 104.203125 62.984375 106.140625 C 62.140625 108.742188 62.917969 112.175781 61.226562 115.398438 C 60.191406 117.375 57.925781 117.996094 56.117188 121.324219 C 54.007812 125.214844 54.796875 130.027344 54.917969 134.136719 C 54.925781 134.464844 55.042969 134.761719 55.25 135.035156 C 56.066406 131.605469 59.046875 129.226562 62.433594 129.058594 C 65.695312 127.78125 69.640625 126.859375 73.835938 126.285156 C 73.785156 125.859375 73.773438 125.421875 73.804688 124.980469 L 74.582031 114.625 L 74.121094 113.210938 C 73.921875 113.695312 73.457031 114 72.953125 113.871094 C 71.449219 113.488281 70.375 112.253906 70.246094 110.710938 C 70.078125 108.730469 71.007812 107.03125 72.324219 106.921875 C 72.988281 106.863281 73.464844 108.308594 73.773438 109.75 C 73.90625 109.671875 74.066406 109.621094 74.238281 109.617188 C 74.238281 109.617188 74.90625 104.359375 73.617188 99.015625 C 74.75 100.136719 78.890625 100.507812 81.886719 99.765625 C 85.546875 98.859375 87.671875 97.582031 90.082031 97.871094 C 91.582031 102.539062 91.632812 107.042969 91.632812 107.042969 L 91.523438 113.320312 C 91.476562 116.160156 90.070312 118.722656 87.917969 120.285156 L 87.964844 125.636719 C 88.21875 125.648438 88.46875 125.660156 88.71875 125.671875 C 89.660156 124.167969 90.757812 122.777344 91.992188 121.519531 L 93.773438 123.136719 C 90.378906 126.761719 88.375 131.664062 88.007812 137.015625 C 87.632812 142.527344 89.230469 147.523438 92.289062 151.636719 L 101.558594 145.410156 L 101.738281 152.554688 C 101.742188 152.722656 101.878906 152.851562 102.042969 152.851562 C 102.042969 152.851562 102.046875 152.851562 102.050781 152.851562 C 102.21875 152.847656 102.351562 152.707031 102.347656 152.539062 L 102.160156 145.003906 L 111.632812 138.640625 Z M 98.699219 126.96875 " fill-opacity="1" fill-rule="evenodd"/><path fill="#f5c0a2" d="M 132.175781 166.808594 C 131.613281 172.414062 130.269531 180.089844 129.851562 184.507812 L 120.578125 184.507812 L 123.003906 165.496094 Z M 90.082031 97.871094 C 87.671875 97.582031 85.546875 98.859375 81.890625 99.765625 C 78.894531 100.511719 74.75 100.140625 73.617188 99.015625 C 74.90625 104.363281 74.238281 109.617188 74.238281 109.617188 C 74.066406 109.621094 73.910156 109.671875 73.773438 109.753906 C 73.464844 108.308594 72.988281 106.867188 72.324219 106.921875 C 71.007812 107.035156 70.078125 108.730469 70.246094 110.714844 C 70.375 112.257812 71.449219 113.488281 72.957031 113.871094 C 73.457031 114 73.925781 113.699219 74.121094 113.214844 L 74.585938 114.625 L 73.804688 124.980469 C 73.542969 128.753906 76.246094 132.089844 80.25 132.363281 C 84.253906 132.632812 87.710938 129.792969 87.972656 126.023438 L 87.921875 120.285156 C 90.074219 118.722656 91.480469 116.160156 91.527344 113.320312 L 91.632812 107.042969 C 91.632812 107.042969 91.582031 102.539062 90.082031 97.871094 Z M 109.042969 148.308594 C 106.726562 149.46875 104.40625 150.617188 102.042969 151.667969 C 101.980469 164.46875 101.8125 178.730469 102.417969 184.507812 L 112.460938 184.507812 C 112.164062 179.53125 109.746094 155.308594 109.042969 148.308594 Z M 183.621094 166.984375 C 183.457031 166.574219 183.359375 166.328125 183.359375 166.328125 L 173.769531 151.992188 L 173.605469 151.730469 C 173.601562 151.726562 173.59375 151.726562 173.585938 151.71875 L 168.855469 144.648438 L 168.871094 144.636719 C 168.871094 144.636719 168.828125 144.585938 168.757812 144.5 L 168.738281 144.46875 L 168.734375 144.472656 C 168.101562 143.730469 165.449219 140.621094 163.558594 138.402344 C 161.851562 136.398438 159.699219 134.824219 157.273438 133.808594 C 156.449219 133.460938 155.660156 133.207031 155.078125 133.179688 C 151.628906 133.007812 147.953125 133.402344 145.300781 133.863281 C 143.242188 134.222656 143.6875 135.691406 145.511719 136.390625 C 145.328125 136.40625 145.140625 136.445312 144.949219 136.511719 C 144.023438 136.835938 143.585938 138.496094 144.582031 139.496094 C 144.742188 139.660156 145.050781 139.753906 145.410156 139.820312 C 145.410156 139.820312 145.40625 139.820312 145.40625 139.820312 C 145.40625 139.828125 145.414062 139.835938 145.414062 139.839844 C 144.988281 140.113281 144.777344 140.519531 144.695312 140.964844 C 144.636719 141.269531 144.601562 141.910156 145.015625 142.179688 C 145.152344 142.269531 145.320312 142.347656 145.5 142.421875 C 145.492188 142.476562 145.53125 142.523438 145.582031 142.53125 L 145.957031 142.582031 C 146.148438 142.640625 146.34375 142.695312 146.542969 142.742188 C 145.921875 143.371094 146.359375 144.855469 147.320312 145.238281 C 148.460938 145.691406 154.34375 146.609375 156.492188 147.546875 L 158.320312 150.515625 C 159.75 153.3125 166.285156 164.488281 170.046875 170.699219 C 172.679688 175.050781 175.574219 177.578125 179.199219 176.671875 C 181.089844 176.007812 182.632812 174.601562 183.46875 172.773438 C 184.304688 170.945312 184.359375 168.851562 183.621094 166.984375 Z M 67.722656 152.433594 L 67.722656 154.664062 C 68.523438 154.816406 69.320312 155.050781 70.097656 155.367188 C 70.285156 155.46875 70.46875 155.578125 70.652344 155.695312 C 71.628906 156.308594 72.488281 157.039062 73.238281 157.84375 C 74.96875 154.84375 76.390625 152.332031 76.96875 151.195312 L 78.796875 148.226562 C 80.945312 147.289062 86.824219 146.375 87.96875 145.921875 C 88.929688 145.539062 89.363281 144.054688 88.746094 143.421875 C 88.945312 143.378906 89.140625 143.324219 89.328125 143.265625 L 89.707031 143.210938 C 89.757812 143.203125 89.796875 143.15625 89.789062 143.101562 C 89.96875 143.03125 90.136719 142.949219 90.273438 142.863281 C 90.6875 142.589844 90.652344 141.949219 90.59375 141.644531 C 90.511719 141.199219 90.300781 140.796875 89.875 140.523438 C 89.875 140.515625 89.882812 140.511719 89.882812 140.503906 C 89.882812 140.503906 89.878906 140.5 89.878906 140.5 C 90.238281 140.4375 90.546875 140.339844 90.707031 140.179688 C 91.703125 139.179688 91.269531 137.515625 90.339844 137.191406 C 90.148438 137.125 89.960938 137.089844 89.777344 137.070312 C 91.601562 136.371094 92.046875 134.90625 89.988281 134.546875 C 87.335938 134.082031 83.660156 133.6875 80.210938 133.859375 C 79.628906 133.886719 78.839844 134.140625 78.015625 134.488281 C 75.589844 135.507812 73.441406 137.078125 71.730469 139.082031 C 69.839844 141.300781 67.1875 144.414062 66.554688 145.152344 L 66.550781 145.152344 L 66.53125 145.183594 C 66.460938 145.265625 66.417969 145.316406 66.417969 145.316406 L 66.433594 145.328125 L 61.703125 152.402344 C 61.695312 152.40625 61.6875 152.40625 61.683594 152.414062 L 61.671875 152.433594 Z M 162.296875 102.828125 C 161.632812 102.769531 161.15625 104.214844 160.847656 105.65625 C 160.710938 105.578125 160.554688 105.527344 160.382812 105.523438 C 160.382812 105.523438 159.714844 100.265625 161.003906 94.921875 C 159.871094 96.042969 155.726562 96.414062 152.734375 95.671875 C 149.074219 94.765625 146.949219 93.488281 144.539062 93.777344 C 143.039062 98.445312 142.988281 102.949219 142.988281 102.949219 L 143.097656 109.226562 C 143.144531 112.066406 144.546875 114.628906 146.703125 116.191406 L 146.664062 120.460938 C 151.082031 121.589844 154.882812 124.007812 157.660156 127.214844 C 159.761719 125.890625 161 123.492188 160.816406 120.886719 L 160.039062 110.53125 L 160.5 109.117188 C 160.699219 109.605469 161.164062 109.90625 161.667969 109.777344 C 163.171875 109.394531 164.246094 108.160156 164.375 106.621094 C 164.542969 104.636719 163.613281 102.9375 162.296875 102.828125 Z M 162.296875 102.828125 " fill-opacity="1" fill-rule="evenodd"/></svg>