<svg xmlns="http://www.w3.org/2000/svg" xmlns:xlink="http://www.w3.org/1999/xlink" width="300" zoomAndPan="magnify" viewBox="0 0 224.87999 225" height="300" preserveAspectRatio="xMidYMid meet" version="1.0"><defs><clipPath id="ca3516afce"><path d="M 25.628906 117 L 120 117 L 120 191.3125 L 25.628906 191.3125 Z M 25.628906 117 " clip-rule="nonzero"/></clipPath><clipPath id="45d2e3ad2a"><path d="M 52 34 L 199.535156 34 L 199.535156 191 L 52 191 Z M 52 34 " clip-rule="nonzero"/></clipPath><clipPath id="f9d68c5a32"><path d="M 29 52 L 192 52 L 192 191.3125 L 29 191.3125 Z M 29 52 " clip-rule="nonzero"/></clipPath><clipPath id="4639d31528"><path d="M 29 49 L 199.535156 49 L 199.535156 191.3125 L 29 191.3125 Z M 29 49 " clip-rule="nonzero"/></clipPath><clipPath id="d56e92e277"><path d="M 42 48 L 188 48 L 188 191.3125 L 42 191.3125 Z M 42 48 " clip-rule="nonzero"/></clipPath><clipPath id="8d8b63fb07"><path d="M 25.628906 34 L 183 34 L 183 191.3125 L 25.628906 191.3125 Z M 25.628906 34 " clip-rule="nonzero"/></clipPath></defs><path fill="#1d3863" d="M 31.195312 103.957031 L 61.261719 103.957031 C 61.996094 103.957031 62.59375 103.359375 62.59375 102.625 L 62.59375 80.371094 C 62.59375 79.640625 61.996094 79.042969 61.261719 79.042969 L 31.195312 79.042969 C 30.460938 79.042969 29.863281 79.640625 29.863281 80.371094 L 29.863281 102.625 C 29.863281 103.359375 30.460938 103.957031 31.195312 103.957031 Z M 31.195312 103.957031 " fill-opacity="1" fill-rule="nonzero"/><g clip-path="url(#ca3516afce)"><path fill="#1d3863" d="M 113.894531 146.691406 C 113.972656 146.671875 114.039062 146.605469 114.050781 146.519531 L 114.167969 145.636719 C 114.183594 145.507812 114.085938 145.394531 113.957031 145.394531 L 113.914062 145.394531 C 113.957031 145.230469 113.980469 145.0625 113.980469 144.882812 C 113.980469 143.726562 113.042969 142.789062 111.886719 142.789062 C 110.730469 142.789062 109.789062 143.726562 109.789062 144.882812 C 109.789062 145.058594 109.816406 145.230469 109.855469 145.394531 L 109.8125 145.394531 C 109.683594 145.394531 109.585938 145.507812 109.601562 145.636719 L 109.722656 146.519531 C 109.734375 146.605469 109.796875 146.671875 109.878906 146.691406 L 110.214844 149.21875 L 106.273438 149.21875 L 106.335938 148.214844 C 107.449219 147.980469 108.289062 146.992188 108.289062 145.808594 C 108.289062 144.730469 107.589844 143.8125 106.621094 143.480469 L 106.699219 142.175781 L 101.574219 142.175781 L 102 149.21875 L 77.492188 149.21875 L 77.527344 149.203125 L 77.527344 149.21875 L 91.039062 149.21875 L 91.039062 148.691406 C 89.859375 148.335938 88.683594 148.078125 87.507812 147.90625 L 87.507812 142.71875 L 96.675781 142.71875 C 96.960938 142.71875 97.226562 142.484375 97.261719 142.195312 L 99.675781 123.355469 C 99.714844 123.070312 99.507812 122.835938 99.222656 122.835938 L 71.890625 122.835938 C 71.601562 122.835938 71.339844 123.070312 71.300781 123.355469 L 68.886719 142.195312 C 68.851562 142.484375 69.054688 142.71875 69.34375 142.71875 L 80.613281 142.71875 L 80.613281 147.972656 L 80.652344 147.972656 C 80.558594 147.988281 80.460938 148.003906 80.363281 148.019531 C 80.390625 148.015625 80.414062 148.011719 80.441406 148.003906 L 80.460938 147.996094 L 80.5 146.667969 C 80.484375 146.652344 80.46875 146.636719 80.453125 146.621094 C 80.386719 146.539062 80.304688 146.472656 80.210938 146.425781 C 80.175781 146.40625 80.140625 146.394531 80.109375 146.382812 L 77.539062 145.300781 C 77.519531 145.289062 77.496094 145.277344 77.472656 145.265625 C 77.238281 145.164062 76.992188 145.101562 76.734375 145.136719 L 73.355469 145.757812 L 73.964844 145.644531 C 73.800781 145.585938 73.632812 145.535156 73.453125 145.519531 L 63.867188 144.015625 L 60.523438 134.953125 C 60.457031 134.773438 60.378906 134.605469 60.285156 134.449219 C 60.023438 133.621094 59.433594 132.765625 58.117188 132.539062 C 57.894531 132.5 57.683594 132.464844 57.476562 132.429688 L 57.605469 130.390625 C 59.046875 129.769531 59.898438 128.328125 59.835938 126.835938 L 59.816406 126.417969 L 59.816406 126.464844 C 60.132812 126.871094 60.3125 127.371094 60.3125 127.898438 C 60.3125 127.957031 60.304688 128.019531 60.300781 128.082031 C 60.105469 128.101562 59.949219 128.261719 59.949219 128.464844 C 59.949219 128.679688 60.125 128.855469 60.339844 128.855469 C 60.558594 128.855469 60.730469 128.679688 60.730469 128.464844 C 60.730469 128.316406 60.644531 128.1875 60.519531 128.121094 C 60.527344 128.046875 60.535156 127.972656 60.535156 127.898438 C 60.535156 127.292969 60.316406 126.71875 59.9375 126.261719 C 60.1875 125.941406 60.339844 125.542969 60.339844 125.105469 C 60.339844 124.535156 60.085938 124.027344 59.691406 123.675781 L 59.800781 126.109375 L 59.621094 122.164062 C 59.605469 121.804688 59.542969 121.457031 59.445312 121.125 C 59.445312 120.734375 59.382812 120.351562 59.273438 119.996094 C 59.273438 120 59.273438 120 59.273438 120 C 59.273438 120 59.273438 120 59.273438 119.996094 C 59.285156 119.953125 59.304688 119.914062 59.316406 119.867188 C 59.261719 119.796875 59.207031 119.730469 59.152344 119.660156 C 58.570312 118.273438 57.203125 117.296875 55.605469 117.296875 L 54.027344 117.296875 C 51.90625 117.296875 50.183594 119.019531 50.183594 121.140625 C 50.183594 121.089844 50.191406 121.039062 50.191406 120.988281 C 49.871094 121.800781 49.753906 122.683594 49.859375 123.554688 C 49.375 123.902344 49.054688 124.464844 49.054688 125.105469 C 49.054688 125.398438 49.125 125.667969 49.238281 125.917969 C 49.238281 125.914062 49.238281 125.914062 49.238281 125.910156 L 47.46875 126.707031 C 45.382812 127.644531 44.453125 130.097656 45.390625 132.183594 C 45.710938 132.894531 46.210938 133.46875 46.808594 133.882812 C 46.324219 134.320312 45.949219 134.882812 45.730469 135.570312 L 32.011719 135.570312 L 34.261719 149.21875 L 25.628906 149.21875 L 25.628906 151.175781 L 32.367188 151.175781 L 25.9375 191.109375 L 28.570312 191.109375 L 34.863281 152.855469 L 37.597656 169.464844 L 37.597656 191.109375 L 40.453125 191.109375 L 40.453125 171.726562 L 48.015625 171.726562 L 48.015625 191.109375 L 50.871094 191.109375 L 50.871094 171.726562 L 51.382812 171.726562 L 54.570312 191.109375 L 57.203125 191.109375 L 54.082031 171.726562 L 64.253906 171.726562 L 64.253906 184.710938 L 64.203125 185.074219 L 64.242188 185.074219 C 63.878906 187.441406 63.28125 188.640625 63.898438 191.109375 L 77.527344 191.109375 L 77.527344 174.34375 L 79.324219 180.25 C 79.257812 180.273438 79.203125 180.332031 79.203125 180.410156 C 79.203125 180.503906 79.28125 180.578125 79.375 180.578125 L 79.425781 180.578125 L 80.796875 185.074219 L 85.867188 185.074219 C 86.132812 187.753906 85.320312 188.636719 85.9375 191.109375 L 97.914062 191.109375 C 97.914062 191.109375 98.195312 189.789062 96.566406 189.003906 C 95.246094 188.367188 93.332031 187.460938 92.203125 186.113281 C 92.140625 186.035156 92.082031 185.957031 92.023438 185.878906 L 97.730469 151.175781 L 110.59375 151.175781 L 117.164062 191.109375 L 119.796875 191.109375 L 113.367188 151.175781 L 119.796875 151.175781 L 119.796875 149.21875 L 113.554688 149.21875 Z M 106.578125 144.167969 C 107.199219 144.453125 107.632812 145.082031 107.632812 145.808594 C 107.632812 146.613281 107.105469 147.296875 106.375 147.53125 Z M 49.683594 126.519531 C 49.722656 126.554688 49.765625 126.589844 49.8125 126.625 C 49.765625 126.589844 49.722656 126.554688 49.683594 126.519531 Z M 52.136719 126.910156 L 52.402344 127.574219 L 52.109375 126.921875 C 52.117188 126.917969 52.128906 126.914062 52.136719 126.910156 Z M 52.398438 126.796875 C 52.40625 126.792969 52.414062 126.789062 52.421875 126.785156 C 52.414062 126.789062 52.40625 126.792969 52.398438 126.796875 Z M 52.335938 129.664062 L 52.488281 127.785156 L 52.328125 129.746094 Z M 53.019531 126.277344 C 53.035156 126.257812 53.054688 126.238281 53.070312 126.21875 C 53.054688 126.238281 53.035156 126.257812 53.019531 126.277344 Z M 53.394531 125.457031 C 53.414062 125.34375 53.429688 125.226562 53.429688 125.105469 C 53.429688 125.226562 53.414062 125.34375 53.394531 125.457031 Z M 53.160156 126.070312 C 53.1875 126.019531 53.21875 125.96875 53.242188 125.917969 C 53.21875 125.96875 53.191406 126.023438 53.160156 126.070312 Z M 53.300781 125.78125 C 53.328125 125.714844 53.347656 125.644531 53.367188 125.570312 C 53.347656 125.644531 53.328125 125.714844 53.300781 125.78125 Z M 52.960938 123.855469 C 52.976562 123.550781 52.976562 123.269531 52.972656 123.035156 C 52.976562 123.269531 52.976562 123.550781 52.960938 123.855469 Z M 52.742188 118.488281 C 52.898438 118.339844 53.070312 118.210938 53.257812 118.101562 C 53.070312 118.210938 52.898438 118.339844 52.742188 118.488281 Z M 52.742188 125.851562 C 52.839844 125.625 52.894531 125.371094 52.894531 125.105469 C 52.894531 125.371094 52.839844 125.621094 52.742188 125.851562 Z M 51.828125 126.992188 C 51.726562 127.011719 51.617188 127.023438 51.507812 127.023438 C 51.617188 127.023438 51.726562 127.011719 51.828125 126.992188 Z M 51.722656 126.875 C 51.722656 126.875 51.726562 126.871094 51.726562 126.871094 C 51.726562 126.871094 51.722656 126.875 51.722656 126.875 Z M 67.328125 164.480469 L 69.34375 162.144531 Z M 66.941406 164.480469 L 65.84375 164.480469 L 66.941406 164.476562 C 66.941406 164.476562 66.941406 164.472656 66.941406 164.472656 C 66.941406 164.476562 66.941406 164.480469 66.941406 164.480469 Z M 66.953125 164.417969 C 66.957031 164.398438 66.96875 164.382812 66.980469 164.363281 C 66.96875 164.382812 66.957031 164.398438 66.953125 164.417969 Z M 76.921875 149.21875 L 77.140625 149.21875 Z M 79.109375 148.273438 C 79.097656 148.277344 79.082031 148.28125 79.070312 148.28125 C 79.082031 148.277344 79.097656 148.277344 79.109375 148.273438 Z M 78.328125 148.464844 C 78.0625 148.535156 77.796875 148.609375 77.53125 148.691406 C 77.796875 148.609375 78.0625 148.535156 78.328125 148.464844 Z M 77.542969 147.941406 C 77.539062 147.9375 77.535156 147.9375 77.53125 147.9375 L 77.523438 147.914062 C 77.53125 147.921875 77.539062 147.929688 77.542969 147.941406 Z M 59.050781 120.574219 C 59.050781 120.574219 59.046875 120.574219 59.050781 120.574219 C 59.015625 120.644531 58.984375 120.714844 58.949219 120.777344 C 59.023438 120.648438 59.09375 120.511719 59.152344 120.367188 C 59.214844 120.488281 59.269531 120.613281 59.316406 120.742188 C 59.269531 120.613281 59.214844 120.488281 59.152344 120.367188 C 58.261719 122.523438 55.28125 122.785156 53.328125 122.8125 C 55.214844 122.785156 58.054688 122.53125 59.050781 120.574219 C 59.089844 120.492188 59.128906 120.402344 59.167969 120.3125 C 59.132812 120.402344 59.089844 120.492188 59.050781 120.574219 Z M 56.027344 117.777344 C 55.945312 117.761719 55.863281 117.753906 55.785156 117.746094 C 55.902344 117.761719 56.019531 117.777344 56.136719 117.800781 C 56.101562 117.792969 56.0625 117.785156 56.027344 117.777344 Z M 56.210938 117.820312 C 56.375 117.859375 56.535156 117.898438 56.695312 117.953125 C 56.660156 117.941406 56.628906 117.929688 56.597656 117.921875 C 56.46875 117.878906 56.339844 117.851562 56.210938 117.820312 Z M 56.980469 118.0625 C 57.0625 118.09375 57.144531 118.121094 57.222656 118.15625 C 57.210938 118.152344 57.203125 118.148438 57.191406 118.140625 C 57.121094 118.109375 57.050781 118.089844 56.980469 118.0625 Z M 58.730469 119.191406 C 58.589844 119.054688 58.445312 118.929688 58.296875 118.8125 C 58.445312 118.929688 58.589844 119.054688 58.730469 119.191406 Z M 57.230469 118.160156 C 57.59375 118.324219 57.941406 118.535156 58.261719 118.78125 C 57.941406 118.535156 57.59375 118.324219 57.230469 118.160156 Z M 55.515625 117.707031 C 55.496094 117.707031 55.476562 117.703125 55.460938 117.703125 C 55.480469 117.703125 55.496094 117.707031 55.515625 117.707031 Z M 54.761719 117.683594 L 54.867188 117.683594 L 54.867188 117.6875 C 54.558594 117.699219 54.246094 117.738281 53.9375 117.804688 C 54.199219 117.726562 54.476562 117.683594 54.761719 117.683594 Z M 53.273438 118.089844 C 53.335938 118.054688 53.394531 118.023438 53.457031 117.992188 C 53.394531 118.023438 53.335938 118.054688 53.273438 118.089844 Z M 53.503906 117.96875 C 53.5625 117.941406 53.625 117.914062 53.691406 117.890625 C 53.625 117.914062 53.5625 117.941406 53.503906 117.96875 Z M 53.734375 117.875 C 53.800781 117.847656 53.867188 117.824219 53.9375 117.804688 C 53.867188 117.824219 53.800781 117.847656 53.734375 117.875 Z M 52.6875 118.535156 C 52.648438 118.574219 52.609375 118.613281 52.574219 118.65625 C 52.609375 118.613281 52.648438 118.574219 52.6875 118.535156 Z M 52.503906 118.730469 C 52.472656 118.769531 52.4375 118.808594 52.40625 118.847656 C 52.4375 118.808594 52.472656 118.769531 52.503906 118.730469 Z M 52.335938 118.945312 C 52.308594 118.984375 52.28125 119.019531 52.253906 119.058594 C 52.28125 119.019531 52.308594 118.984375 52.335938 118.945312 Z M 52.175781 119.191406 C 52.15625 119.226562 52.132812 119.265625 52.113281 119.304688 C 52.132812 119.265625 52.15625 119.226562 52.175781 119.191406 Z M 52.011719 119.519531 C 51.996094 119.550781 51.984375 119.582031 51.972656 119.613281 C 51.984375 119.582031 51.996094 119.550781 52.011719 119.519531 Z M 51.914062 119.777344 C 51.902344 119.808594 51.894531 119.84375 51.882812 119.878906 C 51.894531 119.84375 51.902344 119.808594 51.914062 119.777344 Z M 51.839844 120.046875 C 51.832031 120.082031 51.824219 120.113281 51.820312 120.148438 C 51.824219 120.113281 51.832031 120.082031 51.839844 120.046875 Z M 51.789062 120.335938 C 51.785156 120.367188 51.78125 120.398438 51.777344 120.425781 C 51.78125 120.398438 51.785156 120.367188 51.789062 120.335938 Z M 51.765625 123.207031 C 52.050781 123.246094 52.3125 123.355469 52.546875 123.507812 C 52.3125 123.355469 52.050781 123.25 51.765625 123.210938 Z M 50.976562 127.023438 C 50.976562 127.023438 50.976562 127.023438 50.972656 127.023438 C 50.855469 127.023438 50.742188 127.011719 50.628906 126.988281 C 50.742188 127.011719 50.855469 127.023438 50.972656 127.023438 C 50.976562 127.023438 50.976562 127.023438 50.976562 127.023438 Z M 50.195312 126.855469 C 50.101562 126.816406 50.011719 126.765625 49.925781 126.710938 C 50.011719 126.765625 50.101562 126.816406 50.195312 126.855469 Z M 50.527344 126.96875 C 50.449219 126.949219 50.371094 126.925781 50.296875 126.894531 C 50.371094 126.925781 50.449219 126.949219 50.527344 126.96875 Z M 50.183594 123.359375 C 50.121094 123.390625 50.058594 123.425781 50 123.460938 C 50.058594 123.421875 50.121094 123.390625 50.183594 123.359375 Z M 49.558594 126.390625 C 49.527344 126.359375 49.503906 126.328125 49.480469 126.296875 C 49.503906 126.328125 49.53125 126.359375 49.558594 126.390625 Z M 47.960938 133.164062 C 47.929688 133.175781 47.902344 133.1875 47.875 133.199219 C 47.902344 133.1875 47.933594 133.175781 47.960938 133.164062 Z M 47.53125 133.367188 C 47.527344 133.367188 47.523438 133.371094 47.519531 133.371094 C 47.523438 133.371094 47.527344 133.367188 47.53125 133.367188 Z M 47.148438 133.605469 Z M 70.609375 186.113281 C 70.257812 185.613281 70.050781 185.289062 69.925781 185.074219 L 74.671875 185.074219 L 74.671875 189.082031 C 74.625 189.054688 74.578125 189.027344 74.527344 189.003906 C 73.207031 188.367188 71.617188 187.554688 70.609375 186.113281 Z M 90.394531 179.535156 L 85.605469 158.324219 C 84.992188 155.609375 83.335938 153.625 80.5625 153.445312 L 74.023438 153.011719 C 73.921875 152.996094 73.816406 152.984375 73.710938 152.976562 L 60.382812 152.101562 C 60.136719 151.777344 59.867188 151.46875 59.585938 151.175781 L 94.957031 151.175781 Z M 90.394531 179.535156 " fill-opacity="1" fill-rule="nonzero"/></g><path fill="#1d3863" d="M 166.117188 73.402344 L 178.84375 73.402344 C 179.664062 74.78125 181.164062 75.707031 182.882812 75.707031 C 185.480469 75.707031 187.585938 73.601562 187.585938 71.007812 C 187.585938 68.753906 186 66.875 183.886719 66.417969 L 183.886719 51.082031 C 183.886719 50.265625 183.222656 49.601562 182.402344 49.601562 L 166.117188 49.601562 C 165.300781 49.601562 164.636719 50.265625 164.636719 51.082031 L 164.636719 71.921875 C 164.636719 72.738281 165.300781 73.402344 166.117188 73.402344 Z M 181.070312 67.605469 C 181.175781 67.550781 181.28125 67.5 181.394531 67.453125 C 181.285156 67.5 181.175781 67.550781 181.070312 67.605469 Z M 181.4375 67.4375 C 181.535156 67.394531 181.640625 67.355469 181.746094 67.324219 C 181.640625 67.355469 181.535156 67.394531 181.4375 67.4375 Z M 181.84375 67.300781 C 181.933594 67.273438 182.019531 67.25 182.113281 67.230469 C 182.019531 67.25 181.933594 67.273438 181.84375 67.300781 Z M 180.175781 68.265625 C 180.4375 68.007812 180.734375 67.785156 181.058594 67.613281 C 180.734375 67.789062 180.4375 68.007812 180.175781 68.265625 Z M 179.070312 68.265625 Z M 179.425781 67.832031 C 179.417969 67.839844 179.410156 67.847656 179.402344 67.855469 C 179.410156 67.847656 179.417969 67.839844 179.425781 67.832031 Z M 179.796875 67.46875 C 179.800781 67.464844 179.804688 67.460938 179.808594 67.457031 C 179.804688 67.460938 179.800781 67.464844 179.796875 67.46875 Z M 178.496094 69.332031 Z M 182.304688 67.203125 C 182.367188 67.191406 182.429688 67.179688 182.492188 67.171875 C 182.429688 67.179688 182.367188 67.191406 182.304688 67.203125 Z M 180.699219 66.847656 C 180.710938 66.839844 180.726562 66.835938 180.738281 66.828125 C 180.726562 66.835938 180.710938 66.839844 180.699219 66.847656 Z M 181.160156 66.636719 C 181.207031 66.621094 181.25 66.605469 181.296875 66.589844 C 181.25 66.605469 181.207031 66.621094 181.160156 66.636719 Z M 181.652344 66.476562 C 181.707031 66.460938 181.761719 66.445312 181.820312 66.433594 C 181.761719 66.445312 181.707031 66.460938 181.652344 66.476562 Z M 182.1875 66.363281 C 182.242188 66.355469 182.292969 66.347656 182.347656 66.339844 C 182.292969 66.347656 182.242188 66.355469 182.1875 66.363281 Z M 178.207031 70.554688 C 178.191406 70.703125 178.183594 70.855469 178.183594 71.007812 C 178.183594 71.148438 178.191406 71.289062 178.203125 71.429688 C 178.191406 71.289062 178.183594 71.148438 178.183594 71.007812 C 178.183594 70.855469 178.191406 70.703125 178.207031 70.554688 Z M 178.363281 69.726562 C 178.363281 69.730469 178.359375 69.738281 178.359375 69.742188 C 178.359375 69.738281 178.363281 69.730469 178.363281 69.726562 Z M 178.265625 70.132812 C 178.257812 70.167969 178.257812 70.207031 178.25 70.246094 C 178.257812 70.207031 178.257812 70.167969 178.265625 70.132812 Z M 178.4375 72.527344 C 178.453125 72.5625 178.464844 72.601562 178.480469 72.636719 C 178.464844 72.601562 178.453125 72.5625 178.4375 72.527344 Z M 178.21875 71.554688 C 178.230469 71.660156 178.246094 71.765625 178.265625 71.867188 C 178.246094 71.765625 178.230469 71.660156 178.21875 71.554688 Z M 178.304688 72.058594 C 178.324219 72.140625 178.34375 72.226562 178.371094 72.308594 C 178.34375 72.226562 178.324219 72.140625 178.304688 72.058594 Z M 179.054688 70.578125 C 179.039062 70.71875 179.027344 70.863281 179.027344 71.007812 C 179.027344 70.863281 179.039062 70.71875 179.054688 70.578125 Z M 179.414062 69.332031 C 179.355469 69.453125 179.304688 69.582031 179.257812 69.710938 C 179.304688 69.582031 179.355469 69.453125 179.414062 69.332031 Z M 179.25 69.734375 C 179.207031 69.851562 179.171875 69.972656 179.140625 70.09375 C 179.171875 69.972656 179.207031 69.851562 179.25 69.734375 Z M 179.128906 70.152344 C 179.101562 70.265625 179.082031 70.378906 179.066406 70.496094 C 179.082031 70.378906 179.101562 70.265625 179.128906 70.152344 Z M 183.40625 66.335938 C 183.402344 66.335938 183.394531 66.335938 183.390625 66.335938 C 183.394531 66.335938 183.402344 66.335938 183.40625 66.335938 Z M 183.40625 66.335938 " fill-opacity="1" fill-rule="nonzero"/><g clip-path="url(#45d2e3ad2a)"><path fill="#1d3863" d="M 191.898438 181.410156 L 182.226562 181.410156 L 181.199219 175.351562 L 182.074219 175.351562 L 177.582031 144.304688 L 176.613281 128.410156 C 176.613281 128.414062 176.613281 128.414062 176.609375 128.414062 C 176.9375 128.339844 177.265625 128.261719 177.597656 128.171875 C 177.597656 128.171875 177.878906 122.601562 178.007812 121.023438 C 178.171875 119.058594 178.957031 113.199219 178.957031 113.195312 L 178.828125 113.667969 L 178.957031 113.195312 L 180.238281 108.769531 C 180.558594 107.65625 180.277344 106.453125 179.496094 105.597656 C 178.300781 104.289062 175.949219 102.820312 172.964844 100.804688 C 172.964844 100.804688 172.90625 100.847656 172.808594 100.914062 C 172.828125 100.902344 172.847656 100.886719 172.867188 100.875 L 172.875 98.414062 L 172.875 97.960938 L 172.878906 98.375 C 173.035156 98.078125 173.179688 97.734375 173.308594 97.398438 C 173.316406 97.398438 173.324219 97.398438 173.335938 97.398438 C 173.546875 97.378906 173.804688 97.304688 174.042969 97.097656 C 174.628906 96.582031 175.089844 95.761719 174.449219 95.085938 C 174.449219 95.085938 174.445312 95.082031 174.445312 95.082031 C 174.445312 95.082031 174.441406 95.082031 174.441406 95.078125 C 174.3125 94.980469 173.484375 94.410156 172.945312 95.730469 C 172.945312 95.730469 172.851562 95.660156 172.730469 95.550781 C 172.832031 95.640625 172.910156 95.691406 172.910156 95.691406 C 173.476562 94.25 174.414062 95.035156 174.414062 95.035156 C 177.480469 90.289062 174.070312 89.871094 174.070312 89.871094 C 170.578125 86.257812 170.445312 88.824219 170.445312 88.824219 C 166.164062 86.277344 166.757812 89.003906 166.757812 89.003906 C 164.898438 89.398438 166.066406 90.5625 166.066406 90.5625 C 165.328125 91.316406 166.0625 91.773438 167.257812 92.050781 C 166.519531 94.1875 165.214844 98.921875 168.125 99.023438 L 168.121094 99.039062 L 168.121094 99.046875 L 167.886719 100.007812 L 167.648438 100.976562 C 168.082031 102.730469 169.601562 102.535156 170.90625 101.988281 C 169.558594 102.554688 167.980469 102.746094 167.605469 100.804688 C 167.605469 100.804688 165.472656 101.484375 163.015625 102.863281 C 162.527344 103.136719 162.222656 103.652344 162.074219 104.191406 L 161.460938 106.375 C 161.386719 106.339844 161.308594 106.3125 161.222656 106.3125 L 158.167969 106.3125 L 158.167969 56.648438 L 134.253906 56.648438 L 133.875 51.621094 C 133.882812 51.570312 133.882812 51.53125 133.886719 51.484375 C 134.148438 51.128906 134.320312 50.671875 134.347656 50.109375 C 134.441406 48.082031 134.378906 44.769531 134.328125 44.023438 C 134.285156 43.410156 133.429688 43.332031 133.429688 44.183594 C 133.429688 44.613281 133.378906 45.117188 133.320312 45.890625 C 133.257812 44.933594 133.160156 43.5625 133.097656 43.105469 C 133.019531 42.550781 132.230469 42.457031 132.132812 43.039062 C 132.132812 43.199219 132.125 43.3125 132.121094 43.1875 C 132.121094 43.132812 132.125 43.085938 132.132812 43.039062 C 132.132812 42.945312 132.128906 42.835938 132.121094 42.75 C 132.066406 42.164062 131.164062 42.101562 131.019531 42.78125 L 130.753906 45.371094 C 130.683594 44.476562 130.597656 43.476562 130.535156 43.058594 C 130.4375 42.371094 129.410156 42.421875 129.4375 43.277344 C 129.460938 44.03125 129.429688 47.230469 129.421875 48 C 129.390625 48 129.363281 48.003906 129.339844 48.015625 C 129.335938 48.015625 129.335938 48.019531 129.335938 48.019531 C 129.21875 47.804688 129.078125 47.5625 128.96875 47.382812 C 128.414062 46.476562 127.863281 46.355469 127.597656 46.476562 C 127.355469 46.589844 127.402344 46.707031 127.566406 47.179688 C 127.945312 48.261719 128.085938 49.953125 129.570312 51.429688 C 129.65625 51.519531 129.75 51.597656 129.84375 51.671875 L 129.546875 56.648438 L 127.429688 56.648438 C 127.335938 55.578125 127.242188 54.507812 127.109375 53.4375 C 126.957031 52.238281 126.191406 51.265625 125.167969 50.796875 C 125.167969 50.792969 125.167969 50.78125 125.167969 50.78125 C 122.796875 49.753906 120.476562 49.082031 118.175781 48.753906 L 118.214844 49.253906 L 117.894531 45.007812 C 118.535156 44.894531 121.113281 44.300781 120.824219 41.960938 C 120.824219 41.960938 122.84375 39.640625 120.835938 37.835938 C 120.859375 35.738281 119.730469 34.71875 117.621094 34.617188 C 117.621094 34.617188 112.859375 34.210938 111.796875 34.148438 C 110.289062 34.054688 110.226562 35.359375 110.675781 37.125 C 110.699219 37.226562 110.738281 37.3125 110.785156 37.394531 C 110.648438 37.660156 110.535156 37.941406 110.453125 38.234375 C 110.445312 38.257812 110.441406 38.285156 110.4375 38.308594 C 110.402344 38.433594 110.371094 38.558594 110.347656 38.683594 C 110.320312 38.839844 110.296875 38.996094 110.285156 39.15625 C 110.269531 39.347656 110.269531 39.53125 110.273438 39.71875 C 110.277344 39.773438 110.28125 39.832031 110.285156 39.886719 C 110.296875 40.019531 110.308594 40.144531 110.328125 40.273438 C 110.335938 40.332031 110.347656 40.394531 110.359375 40.453125 C 110.382812 40.582031 110.414062 40.707031 110.449219 40.832031 C 110.460938 40.882812 110.472656 40.933594 110.488281 40.980469 C 110.542969 41.148438 110.605469 41.3125 110.679688 41.472656 C 110.679688 41.472656 110.679688 41.46875 110.679688 41.46875 C 110.671875 41.605469 110.671875 41.6875 110.671875 41.6875 L 110.714844 44.335938 C 110.734375 45.53125 111.332031 46.613281 112.242188 47.273438 L 112.230469 48.6875 C 110.003906 48.957031 107.769531 49.558594 105.496094 50.507812 C 105.492188 50.507812 105.488281 50.511719 105.484375 50.511719 C 104.683594 50.789062 103.988281 51.378906 103.605469 52.214844 L 101.394531 56.648438 L 99.867188 56.648438 C 99.847656 56.265625 99.828125 55.90625 99.847656 55.566406 C 99.886719 54.917969 99.898438 54.757812 99.582031 54.691406 C 99.226562 54.617188 98.507812 55.023438 98.152344 56.339844 C 98.125 56.445312 98.09375 56.546875 98.066406 56.648438 L 97.585938 56.648438 C 97.304688 55.816406 97.085938 55.230469 97.0625 55.167969 C 97.0625 55.164062 97.058594 55.160156 97.058594 55.160156 C 97.058594 55.160156 97.058594 55.15625 97.058594 55.15625 C 96.960938 54.921875 96.757812 54.742188 96.492188 54.695312 C 96.054688 54.613281 95.644531 54.921875 95.589844 55.355469 L 95.136719 55.414062 C 95.128906 55.292969 95.125 55.191406 95.117188 55.128906 C 95.074219 54.691406 94.714844 54.355469 94.277344 54.394531 C 93.855469 54.429688 93.554688 54.789062 93.570312 55.195312 C 93.421875 54.847656 93.0625 54.636719 92.683594 54.730469 C 92.351562 54.808594 92.128906 55.09375 92.101562 55.410156 C 91.925781 55.203125 91.648438 55.101562 91.371094 55.183594 C 90.96875 55.308594 90.765625 55.753906 90.941406 56.136719 L 91.222656 56.648438 L 73.828125 56.648438 L 73.828125 51.789062 C 73.828125 50.316406 72.632812 49.121094 71.160156 49.121094 L 54.78125 49.121094 C 53.308594 49.121094 52.113281 50.316406 52.113281 51.789062 L 52.113281 58.277344 C 52.113281 59.75 53.308594 60.945312 54.78125 60.945312 L 69.261719 60.945312 L 69.261719 117.027344 L 153.492188 117.027344 C 153.472656 117.078125 153.457031 117.128906 153.457031 117.183594 C 153.457031 117.257812 153.476562 117.332031 153.527344 117.402344 C 153.695312 117.632812 153.917969 117.816406 154.179688 117.933594 L 157.695312 119.535156 C 158.078125 119.707031 158.496094 119.796875 158.914062 119.796875 L 160.441406 119.796875 C 160.453125 119.796875 160.457031 119.796875 160.464844 119.800781 C 160.507812 119.808594 160.660156 119.839844 160.894531 119.886719 L 160.804688 120.371094 L 159.636719 126.035156 L 148.910156 136.070312 C 146.867188 138.519531 148.363281 141.921875 148.363281 141.921875 L 155.582031 166.566406 L 156.992188 166.566406 C 157.035156 167.1875 157.015625 167.804688 156.847656 168.277344 C 156.15625 170.230469 154.253906 170.1875 153.226562 170.402344 C 151 170.867188 150.453125 172.171875 150.367188 172.421875 L 131.523438 172.421875 L 131.523438 190.796875 L 199.523438 190.796875 L 199.523438 181.410156 Z M 118.082031 44.289062 L 118.019531 44.480469 L 117.886719 44.882812 L 118.082031 44.289062 C 118.113281 44.367188 118.164062 44.425781 118.222656 44.476562 C 118.164062 44.425781 118.113281 44.367188 118.082031 44.289062 Z M 118.351562 44.550781 C 118.421875 44.574219 118.496094 44.589844 118.574219 44.566406 C 118.496094 44.589844 118.421875 44.574219 118.351562 44.550781 Z M 119.722656 43.234375 C 119.730469 43.140625 119.730469 43.050781 119.726562 42.960938 C 119.730469 43.050781 119.730469 43.140625 119.722656 43.234375 Z M 119.722656 42.878906 C 119.71875 42.816406 119.710938 42.757812 119.699219 42.695312 C 119.710938 42.757812 119.71875 42.816406 119.722656 42.878906 Z M 119.648438 42.472656 C 119.640625 42.449219 119.636719 42.425781 119.628906 42.40625 C 119.636719 42.425781 119.640625 42.449219 119.648438 42.472656 Z M 119.585938 42.289062 C 119.574219 42.261719 119.5625 42.234375 119.550781 42.210938 C 119.5625 42.238281 119.574219 42.261719 119.585938 42.289062 Z M 119.46875 42.070312 C 119.46875 42.066406 119.46875 42.066406 119.464844 42.0625 C 119.46875 42.066406 119.46875 42.066406 119.46875 42.070312 Z M 119.339844 41.898438 C 119.335938 41.894531 119.335938 41.894531 119.332031 41.890625 C 119.335938 41.894531 119.335938 41.894531 119.339844 41.898438 Z M 119.03125 41.679688 C 118.96875 41.65625 118.90625 41.640625 118.84375 41.632812 C 118.90625 41.640625 118.96875 41.65625 119.03125 41.679688 Z M 119.195312 41.769531 C 119.179688 41.757812 119.160156 41.75 119.144531 41.742188 C 119.160156 41.75 119.179688 41.757812 119.195312 41.769531 Z M 110.714844 40.945312 C 110.71875 40.898438 110.722656 40.847656 110.726562 40.800781 C 110.722656 40.847656 110.71875 40.898438 110.714844 40.945312 Z M 110.6875 41.300781 C 110.6875 41.269531 110.691406 41.242188 110.691406 41.210938 C 110.691406 41.242188 110.6875 41.269531 110.6875 41.300781 Z M 110.699219 41.136719 C 110.703125 41.101562 110.703125 41.0625 110.707031 41.023438 C 110.703125 41.0625 110.703125 41.101562 110.699219 41.136719 Z M 110.792969 40.234375 C 110.769531 40.410156 110.75 40.578125 110.734375 40.730469 C 110.75 40.578125 110.769531 40.410156 110.792969 40.234375 Z M 111.222656 38.152344 C 111.257812 38.042969 111.289062 37.929688 111.328125 37.816406 C 111.289062 37.929688 111.257812 38.042969 111.222656 38.152344 Z M 110.804688 40.15625 C 110.8125 40.089844 110.824219 40.023438 110.832031 39.953125 C 110.824219 40.023438 110.8125 40.089844 110.804688 40.15625 Z M 110.847656 39.863281 C 110.859375 39.792969 110.871094 39.71875 110.882812 39.644531 C 110.871094 39.71875 110.859375 39.792969 110.847656 39.863281 Z M 110.898438 39.5625 C 110.933594 39.359375 110.976562 39.152344 111.023438 38.933594 C 110.976562 39.152344 110.933594 39.359375 110.898438 39.5625 Z M 111.046875 38.839844 C 111.0625 38.761719 111.082031 38.683594 111.101562 38.605469 C 111.082031 38.683594 111.0625 38.761719 111.046875 38.839844 Z M 111.132812 38.492188 C 111.152344 38.414062 111.171875 38.335938 111.195312 38.257812 C 111.171875 38.335938 111.152344 38.417969 111.132812 38.492188 Z M 165.230469 128.167969 C 165.277344 128.179688 165.324219 128.191406 165.371094 128.203125 C 165.324219 128.191406 165.277344 128.179688 165.230469 128.167969 Z M 165.859375 128.316406 C 165.902344 128.324219 165.949219 128.335938 165.996094 128.34375 C 165.949219 128.335938 165.902344 128.324219 165.859375 128.316406 Z M 172.179688 101.328125 C 172.03125 101.417969 171.871094 101.511719 171.699219 101.605469 C 171.871094 101.511719 172.03125 101.417969 172.179688 101.328125 Z M 172.304688 101.25 C 172.273438 101.269531 172.238281 101.292969 172.203125 101.3125 C 172.238281 101.292969 172.273438 101.269531 172.304688 101.25 Z M 172.414062 122.035156 C 172.328125 122.023438 172.242188 122.007812 172.152344 121.992188 C 172.242188 122.007812 172.328125 122.023438 172.414062 122.035156 Z M 171.988281 121.96875 C 171.894531 121.953125 171.800781 121.9375 171.703125 121.921875 C 171.800781 121.9375 171.894531 121.953125 171.988281 121.96875 Z M 171.539062 121.894531 C 171.433594 121.875 171.324219 121.859375 171.214844 121.839844 C 171.324219 121.859375 171.433594 121.875 171.539062 121.894531 Z M 171.078125 121.816406 C 170.925781 121.789062 170.769531 121.761719 170.613281 121.734375 C 170.769531 121.761719 170.925781 121.789062 171.078125 121.816406 Z M 170.597656 121.734375 C 170.429688 121.703125 170.253906 121.675781 170.082031 121.644531 C 170.253906 121.675781 170.429688 121.703125 170.597656 121.734375 Z M 170.046875 121.636719 C 169.882812 121.609375 169.722656 121.578125 169.558594 121.550781 C 169.722656 121.578125 169.886719 121.609375 170.046875 121.636719 Z M 169.460938 121.53125 C 169.320312 121.507812 169.175781 121.480469 169.03125 121.453125 C 169.175781 121.480469 169.320312 121.507812 169.460938 121.53125 Z M 168.894531 121.429688 C 168.761719 121.40625 168.628906 121.382812 168.496094 121.355469 C 168.628906 121.382812 168.761719 121.40625 168.894531 121.429688 Z M 168.351562 121.332031 C 168.222656 121.304688 168.089844 121.28125 167.960938 121.257812 C 168.089844 121.28125 168.222656 121.304688 168.351562 121.332031 Z M 167.796875 121.226562 C 167.664062 121.203125 167.535156 121.179688 167.40625 121.152344 C 167.535156 121.179688 167.664062 121.203125 167.796875 121.226562 Z M 167.261719 121.128906 C 167.117188 121.101562 166.976562 121.074219 166.832031 121.046875 C 166.976562 121.074219 167.121094 121.101562 167.261719 121.128906 Z M 166.730469 121.027344 C 166.011719 120.890625 165.308594 120.753906 164.644531 120.625 C 165.308594 120.753906 166.011719 120.890625 166.730469 121.027344 Z M 164.480469 120.59375 C 164.359375 120.570312 164.242188 120.546875 164.125 120.527344 C 164.242188 120.546875 164.359375 120.570312 164.480469 120.59375 Z M 164.050781 120.511719 C 163.914062 120.484375 163.78125 120.457031 163.648438 120.433594 C 163.78125 120.457031 163.914062 120.484375 164.050781 120.511719 Z M 172.570312 122.058594 C 172.652344 122.074219 172.730469 122.085938 172.8125 122.097656 C 172.730469 122.085938 172.652344 122.074219 172.570312 122.058594 Z M 172.964844 122.121094 C 173.039062 122.128906 173.113281 122.140625 173.1875 122.152344 C 173.113281 122.140625 173.039062 122.128906 172.964844 122.121094 Z M 173.320312 122.171875 C 173.398438 122.179688 173.472656 122.191406 173.546875 122.199219 C 173.472656 122.191406 173.398438 122.179688 173.320312 122.171875 Z M 173.648438 122.214844 C 173.75 122.226562 173.847656 122.238281 173.941406 122.25 C 173.847656 122.238281 173.75 122.226562 173.648438 122.214844 Z M 172.730469 100.972656 C 172.75 100.957031 172.769531 100.945312 172.785156 100.933594 C 172.769531 100.945312 172.75 100.957031 172.730469 100.972656 Z M 172.359375 101.214844 C 172.390625 101.199219 172.417969 101.179688 172.445312 101.160156 C 172.417969 101.179688 172.390625 101.195312 172.359375 101.214844 Z M 172.5 101.125 C 172.527344 101.109375 172.550781 101.09375 172.574219 101.078125 C 172.550781 101.09375 172.527344 101.109375 172.5 101.125 Z M 172.625 101.042969 C 172.648438 101.027344 172.667969 101.015625 172.6875 101 C 172.667969 101.015625 172.648438 101.027344 172.625 101.042969 Z M 172.34375 92.476562 C 172.339844 92.488281 172.339844 92.496094 172.335938 92.503906 C 172.128906 92.5 171.550781 92.488281 170.8125 92.445312 C 171.699219 92.480469 172.34375 92.476562 172.34375 92.476562 Z M 171.105469 101.902344 C 171.042969 101.929688 170.980469 101.957031 170.917969 101.984375 C 170.980469 101.957031 171.042969 101.929688 171.105469 101.902344 Z M 171.695312 101.605469 C 171.644531 101.636719 171.585938 101.664062 171.53125 101.695312 C 171.585938 101.664062 171.644531 101.636719 171.695312 101.605469 Z M 171.503906 101.707031 C 171.449219 101.738281 171.394531 101.765625 171.335938 101.792969 C 171.394531 101.765625 171.449219 101.738281 171.503906 101.707031 Z M 171.308594 101.808594 C 171.25 101.835938 171.191406 101.863281 171.132812 101.890625 C 171.191406 101.863281 171.25 101.835938 171.308594 101.808594 Z M 161.25 107.136719 L 161.121094 106.714844 Z M 162.300781 120.167969 C 162.101562 120.128906 161.917969 120.089844 161.742188 120.054688 C 161.917969 120.089844 162.101562 120.128906 162.300781 120.167969 Z M 163.558594 120.414062 C 163.441406 120.390625 163.324219 120.367188 163.210938 120.347656 C 163.324219 120.367188 163.441406 120.390625 163.558594 120.414062 Z M 163.097656 120.324219 C 162.992188 120.304688 162.890625 120.285156 162.789062 120.265625 C 162.890625 120.285156 162.992188 120.304688 163.097656 120.324219 Z M 162.675781 120.242188 C 162.554688 120.21875 162.4375 120.195312 162.324219 120.171875 C 162.4375 120.195312 162.554688 120.21875 162.675781 120.242188 Z M 170.140625 128.914062 C 170.128906 128.914062 170.113281 128.914062 170.101562 128.910156 C 170.113281 128.914062 170.128906 128.914062 170.140625 128.914062 Z M 169.421875 128.863281 C 169.398438 128.859375 169.371094 128.859375 169.34375 128.855469 C 169.371094 128.859375 169.398438 128.859375 169.421875 128.863281 Z M 168.710938 128.789062 C 168.671875 128.785156 168.636719 128.78125 168.601562 128.777344 C 168.636719 128.785156 168.671875 128.785156 168.710938 128.789062 Z M 168.003906 128.703125 C 167.964844 128.695312 167.921875 128.691406 167.882812 128.683594 C 167.925781 128.691406 167.964844 128.695312 168.003906 128.703125 Z M 167.316406 128.597656 C 167.273438 128.589844 167.230469 128.582031 167.183594 128.574219 C 167.230469 128.582031 167.273438 128.589844 167.316406 128.597656 Z M 166.644531 128.476562 C 166.601562 128.46875 166.554688 128.460938 166.511719 128.449219 C 166.554688 128.460938 166.601562 128.46875 166.644531 128.476562 Z M 164.769531 128.050781 C 164.722656 128.039062 164.675781 128.027344 164.632812 128.015625 C 164.675781 128.027344 164.722656 128.039062 164.769531 128.050781 Z M 164.191406 127.894531 C 164.148438 127.878906 164.101562 127.867188 164.058594 127.855469 C 164.101562 127.867188 164.148438 127.878906 164.191406 127.894531 Z M 163.644531 127.730469 C 163.601562 127.71875 163.558594 127.707031 163.515625 127.691406 C 163.558594 127.707031 163.601562 127.71875 163.644531 127.730469 Z M 163.125 127.566406 C 163.082031 127.554688 163.042969 127.539062 163 127.527344 C 163.042969 127.539062 163.082031 127.554688 163.125 127.566406 Z M 162.636719 127.402344 C 162.597656 127.390625 162.558594 127.375 162.515625 127.359375 C 162.554688 127.375 162.597656 127.390625 162.636719 127.402344 Z M 162.179688 127.238281 C 162.140625 127.226562 162.105469 127.210938 162.066406 127.199219 C 162.105469 127.210938 162.140625 127.226562 162.179688 127.238281 Z M 161.753906 127.082031 C 161.71875 127.066406 161.6875 127.054688 161.652344 127.039062 C 161.683594 127.054688 161.71875 127.066406 161.753906 127.082031 Z M 161.367188 126.925781 C 161.332031 126.914062 161.300781 126.902344 161.269531 126.886719 C 161.300781 126.902344 161.332031 126.914062 161.367188 126.925781 Z M 161.011719 126.78125 C 160.980469 126.769531 160.953125 126.753906 160.925781 126.742188 C 160.953125 126.753906 160.980469 126.769531 161.011719 126.78125 Z M 160.695312 126.644531 C 160.667969 126.632812 160.644531 126.621094 160.617188 126.609375 C 160.644531 126.621094 160.667969 126.632812 160.695312 126.644531 Z M 160.414062 126.519531 C 160.390625 126.507812 160.371094 126.5 160.347656 126.488281 C 160.371094 126.5 160.390625 126.507812 160.414062 126.519531 Z M 160.175781 126.410156 C 160.15625 126.398438 160.136719 126.390625 160.117188 126.378906 C 160.136719 126.390625 160.15625 126.398438 160.175781 126.410156 Z M 159.976562 126.3125 C 159.960938 126.304688 159.945312 126.296875 159.929688 126.289062 C 159.945312 126.296875 159.960938 126.304688 159.976562 126.3125 Z M 159.824219 126.234375 C 159.800781 126.226562 159.789062 126.21875 159.773438 126.210938 C 159.789062 126.21875 159.804688 126.226562 159.824219 126.234375 Z M 159.710938 126.179688 C 159.691406 126.167969 159.683594 126.164062 159.671875 126.160156 C 159.683594 126.164062 159.695312 126.171875 159.710938 126.179688 Z M 164.382812 181.410156 L 164.382812 172.421875 L 162.644531 172.421875 L 161.648438 166.566406 L 163.484375 166.566406 L 158.035156 141.785156 C 161.09375 139.96875 163.605469 138.289062 165.671875 136.742188 L 165.152344 132.777344 L 166.082031 139.886719 C 166.089844 139.972656 166.164062 140.035156 166.246094 140.035156 C 166.253906 140.035156 166.261719 140.03125 166.269531 140.03125 C 166.285156 140.03125 166.296875 140.023438 166.308594 140.019531 L 167.09375 145.121094 L 174.449219 175.351562 L 176.554688 175.351562 C 176.613281 176.023438 176.605469 176.703125 176.425781 177.214844 C 175.734375 179.167969 173.832031 179.125 172.804688 179.339844 C 170.332031 179.859375 169.929688 181.410156 169.929688 181.410156 Z M 166.394531 139.945312 C 166.394531 139.945312 166.390625 139.949219 166.390625 139.953125 C 166.390625 139.949219 166.394531 139.945312 166.394531 139.945312 Z M 166.394531 139.945312 " fill-opacity="1" fill-rule="nonzero"/></g><g clip-path="url(#f9d68c5a32)"><path fill="#1d3863" d="M 156.484375 62.378906 L 142.730469 62.378906 L 142.730469 58.441406 L 156.484375 58.441406 Z M 168.121094 66.136719 L 180.378906 66.136719 C 180.671875 66.136719 180.914062 65.894531 180.914062 65.601562 C 180.914062 65.308594 180.675781 65.070312 180.378906 65.070312 L 168.121094 65.070312 C 167.824219 65.070312 167.585938 65.308594 167.585938 65.601562 C 167.585938 65.894531 167.824219 66.136719 168.121094 66.136719 Z M 158.167969 63.609375 L 69.261719 63.609375 L 69.261719 117.027344 L 158.167969 117.027344 Z M 156.757812 181.410156 L 156.757812 172.421875 L 131.523438 172.421875 L 131.523438 190.796875 L 191.898438 190.796875 L 191.898438 181.410156 Z M 168.121094 69.332031 L 179.417969 69.332031 C 179.171875 69.839844 179.027344 70.40625 179.027344 71.007812 C 179.027344 73.136719 180.753906 74.859375 182.882812 74.859375 C 185.011719 74.859375 186.738281 73.136719 186.738281 71.007812 C 186.738281 68.878906 185.011719 67.152344 182.882812 67.152344 C 181.828125 67.152344 180.871094 67.578125 180.175781 68.265625 L 168.121094 68.265625 C 167.828125 68.265625 167.585938 68.503906 167.585938 68.800781 C 167.585938 69.09375 167.824219 69.332031 168.121094 69.332031 Z M 176.558594 59.742188 L 180.378906 59.742188 C 180.671875 59.742188 180.914062 59.503906 180.914062 59.207031 C 180.914062 58.914062 180.671875 58.675781 180.378906 58.675781 L 176.558594 58.675781 C 176.265625 58.675781 176.027344 58.914062 176.027344 59.207031 C 176.027344 59.503906 176.265625 59.742188 176.558594 59.742188 Z M 168.121094 62.9375 L 180.378906 62.9375 C 180.671875 62.9375 180.914062 62.699219 180.914062 62.40625 C 180.914062 62.109375 180.675781 61.871094 180.378906 61.871094 L 168.121094 61.871094 C 167.824219 61.871094 167.585938 62.109375 167.585938 62.40625 C 167.585938 62.699219 167.824219 62.9375 168.121094 62.9375 Z M 168.332031 59.75 L 173.425781 59.75 C 173.835938 59.75 174.167969 59.417969 174.167969 59.007812 L 174.167969 54.507812 C 174.167969 54.101562 173.835938 53.769531 173.425781 53.769531 L 168.332031 53.769531 C 167.925781 53.769531 167.59375 54.101562 167.59375 54.507812 L 167.59375 59.007812 C 167.59375 59.417969 167.925781 59.75 168.332031 59.75 Z M 61.304688 164.480469 L 44.296875 164.480469 L 40.125 138.8125 C 39.792969 136.9375 38.160156 135.570312 36.253906 135.570312 L 33.140625 135.570312 L 38.816406 169.769531 L 38.496094 169.769531 L 38.496094 191.109375 L 40.453125 191.109375 L 40.453125 169.769531 L 65.992188 169.769531 C 65.992188 166.851562 63.890625 164.480469 61.304688 164.480469 Z M 77.527344 149.21875 L 91.039062 149.21875 L 91.039062 148.691406 L 77.527344 148.691406 Z M 98.726562 122.835938 L 71.890625 122.835938 C 71.601562 122.835938 71.339844 123.070312 71.300781 123.355469 L 68.886719 142.195312 C 68.851562 142.484375 69.054688 142.71875 69.34375 142.71875 L 80.613281 142.71875 L 80.613281 147.972656 L 87.066406 147.972656 L 87.066406 142.71875 L 96.179688 142.71875 C 96.46875 142.71875 96.730469 142.484375 96.769531 142.195312 L 99.183594 123.355469 C 99.21875 123.070312 99.015625 122.835938 98.726562 122.835938 Z M 62.59375 102.625 L 62.59375 80.371094 C 62.59375 79.636719 61.996094 79.042969 61.261719 79.042969 L 31.195312 79.042969 C 30.460938 79.042969 29.863281 79.640625 29.863281 80.371094 L 29.863281 102.625 C 29.863281 103.359375 30.460938 103.953125 31.195312 103.953125 L 61.261719 103.953125 C 61.996094 103.957031 62.59375 103.359375 62.59375 102.625 Z M 111.886719 142.789062 C 110.730469 142.789062 109.789062 143.726562 109.789062 144.882812 C 109.789062 145.0625 109.816406 145.234375 109.855469 145.398438 L 113.914062 145.398438 C 113.957031 145.234375 113.980469 145.0625 113.980469 144.882812 C 113.980469 143.726562 113.042969 142.789062 111.886719 142.789062 Z M 50.976562 127.023438 L 51.507812 127.023438 C 52.570312 127.023438 53.429688 126.164062 53.429688 125.105469 C 53.429688 124.132812 52.703125 123.335938 51.765625 123.210938 L 51.765625 123.359375 C 52.429688 123.660156 52.894531 124.328125 52.894531 125.105469 C 52.894531 126.164062 52.035156 127.023438 50.976562 127.023438 Z M 59.816406 126.417969 C 60.140625 126.074219 60.34375 125.617188 60.34375 125.105469 C 60.34375 124.535156 60.085938 124.027344 59.691406 123.675781 Z M 59.351562 57.507812 C 59.4375 57.421875 59.4375 57.285156 59.351562 57.199219 L 57.332031 55.183594 L 59.351562 53.164062 C 59.4375 53.078125 59.4375 52.941406 59.351562 52.855469 C 59.269531 52.773438 59.132812 52.769531 59.046875 52.855469 L 56.71875 55.183594 L 59.046875 57.507812 C 59.089844 57.550781 59.144531 57.570312 59.199219 57.570312 C 59.253906 57.570312 59.3125 57.550781 59.351562 57.507812 Z M 66.894531 57.507812 L 69.21875 55.179688 L 66.894531 52.855469 C 66.808594 52.769531 66.671875 52.769531 66.585938 52.855469 C 66.503906 52.941406 66.503906 53.078125 66.585938 53.160156 L 68.609375 55.179688 L 66.585938 57.199219 C 66.503906 57.285156 66.503906 57.421875 66.585938 57.507812 C 66.628906 57.546875 66.683594 57.570312 66.738281 57.570312 C 66.796875 57.570312 66.851562 57.550781 66.894531 57.507812 Z M 62.253906 57.441406 L 64.085938 53.183594 C 64.132812 53.074219 64.082031 52.949219 63.972656 52.898438 C 63.863281 52.851562 63.734375 52.902344 63.6875 53.011719 L 61.855469 57.269531 C 61.808594 57.378906 61.859375 57.503906 61.96875 57.554688 C 61.996094 57.566406 62.023438 57.570312 62.054688 57.570312 C 62.136719 57.570312 62.214844 57.523438 62.253906 57.441406 Z M 62.253906 57.441406 " fill-opacity="1" fill-rule="nonzero"/></g><g clip-path="url(#4639d31528)"><path fill="#e0e0e0" d="M 199.523438 181.410156 L 199.523438 190.796875 L 191.898438 190.796875 L 191.898438 181.410156 Z M 156.757812 181.410156 L 164.382812 181.410156 L 164.382812 172.421875 L 156.757812 172.421875 Z M 40.125 138.8125 L 44.296875 164.480469 L 55.996094 164.480469 L 51.824219 138.8125 C 51.488281 136.9375 49.859375 135.570312 47.953125 135.570312 L 36.253906 135.570312 C 38.160156 135.570312 39.792969 136.9375 40.125 138.8125 Z M 77.589844 155.03125 C 78.230469 156.078125 78.503906 157.40625 78.40625 158.96875 L 77.527344 170.925781 L 77.527344 191.109375 L 74.671875 191.109375 L 74.671875 180.578125 L 67.109375 180.578125 L 67.109375 191.109375 L 64.253906 191.109375 L 64.253906 171.726562 L 50.871094 171.726562 L 50.871094 191.109375 L 48.015625 191.109375 L 48.015625 171.726562 L 39.335938 171.726562 L 39.335938 191.109375 L 37.597656 191.109375 L 37.597656 169.464844 L 32.011719 135.570312 L 33.972656 135.570312 L 39.605469 169.769531 L 65.988281 169.769531 C 65.988281 166.851562 63.890625 164.480469 61.304688 164.480469 L 66.941406 164.480469 C 66.941406 164.441406 66.953125 164.398438 66.980469 164.363281 L 69.085938 161.925781 C 69.148438 161.855469 69.253906 161.847656 69.328125 161.90625 C 69.398438 161.96875 69.40625 162.074219 69.34375 162.144531 L 67.328125 164.480469 L 72.839844 164.480469 C 75.019531 164.480469 76.84375 166.164062 77.371094 168.433594 L 78.066406 158.949219 C 78.164062 157.453125 77.90625 156.195312 77.300781 155.207031 C 77.253906 155.125 77.277344 155.023438 77.355469 154.972656 C 77.4375 154.925781 77.539062 154.949219 77.589844 155.03125 Z M 74.671875 180.242188 L 74.671875 171.726562 L 67.109375 171.726562 L 67.109375 180.242188 Z M 90.46875 180.242188 L 79.375 180.242188 C 79.28125 180.242188 79.203125 180.316406 79.203125 180.410156 C 79.203125 180.503906 79.28125 180.578125 79.375 180.578125 L 90.46875 180.578125 C 90.5625 180.578125 90.636719 180.503906 90.636719 180.410156 C 90.636719 180.316406 90.5625 180.242188 90.46875 180.242188 Z M 56.296875 152.457031 C 56.304688 152.460938 56.316406 152.460938 56.324219 152.460938 C 56.351562 152.460938 56.375 152.453125 56.394531 152.445312 C 56.539062 152.429688 57.207031 152.394531 60.25 152.375 C 60.34375 152.371094 60.417969 152.296875 60.417969 152.203125 C 60.414062 152.109375 60.339844 152.035156 60.246094 152.035156 C 56.167969 152.0625 56.167969 152.066406 56.148438 152.273438 C 56.144531 152.363281 56.210938 152.441406 56.296875 152.457031 Z M 99.222656 122.835938 L 72.386719 122.835938 C 72.097656 122.835938 71.835938 123.070312 71.796875 123.355469 L 69.382812 142.195312 C 69.347656 142.484375 69.550781 142.71875 69.839844 142.71875 L 80.613281 142.71875 L 80.613281 136.300781 L 80.808594 135.125 C 80.953125 134.257812 81.703125 133.625 82.578125 133.625 L 82.613281 133.625 C 81.753906 133.625 81.058594 134.320312 81.058594 135.179688 L 81.058594 147.90625 C 79.882812 148.078125 78.703125 148.335938 77.527344 148.691406 L 91.039062 148.691406 C 89.863281 148.335938 88.683594 148.078125 87.507812 147.90625 L 87.507812 142.71875 L 96.675781 142.71875 C 96.964844 142.71875 97.226562 142.484375 97.265625 142.195312 L 99.679688 123.355469 C 99.714844 123.070312 99.511719 122.835938 99.222656 122.835938 Z M 108.289062 145.808594 C 108.289062 146.992188 107.449219 147.980469 106.335938 148.214844 L 106.273438 149.234375 L 102 149.234375 L 101.574219 142.175781 L 106.699219 142.175781 L 106.621094 143.480469 C 107.589844 143.8125 108.289062 144.730469 108.289062 145.808594 Z M 107.632812 145.808594 C 107.632812 145.082031 107.199219 144.453125 106.578125 144.167969 L 106.375 147.53125 C 107.105469 147.296875 107.632812 146.613281 107.632812 145.808594 Z M 113.957031 145.398438 L 109.8125 145.398438 C 109.683594 145.398438 109.585938 145.507812 109.605469 145.636719 L 109.722656 146.519531 C 109.734375 146.605469 109.796875 146.671875 109.878906 146.691406 L 110.21875 149.234375 L 113.554688 149.234375 L 113.894531 146.691406 C 113.972656 146.671875 114.039062 146.605469 114.050781 146.519531 L 114.167969 145.636719 C 114.183594 145.507812 114.085938 145.398438 113.957031 145.398438 Z M 135.972656 73.367188 L 155.371094 73.367188 L 155.371094 68.683594 L 135.972656 68.683594 Z M 183.886719 51.082031 L 183.886719 66.417969 C 183.5625 66.347656 183.226562 66.308594 182.882812 66.308594 C 181.3125 66.308594 179.921875 67.082031 179.070312 68.265625 L 168.121094 68.265625 C 167.824219 68.265625 167.585938 68.503906 167.585938 68.800781 C 167.585938 69.09375 167.824219 69.332031 168.121094 69.332031 L 178.496094 69.332031 C 178.296875 69.851562 178.183594 70.417969 178.183594 71.007812 C 178.183594 71.882812 178.425781 72.699219 178.84375 73.402344 L 166.117188 73.402344 C 165.300781 73.402344 164.636719 72.738281 164.636719 71.921875 L 164.636719 51.082031 C 164.636719 50.265625 165.300781 49.601562 166.117188 49.601562 L 182.40625 49.601562 C 183.222656 49.601562 183.886719 50.265625 183.886719 51.082031 Z M 167.59375 59.007812 C 167.59375 59.417969 167.925781 59.75 168.332031 59.75 L 173.425781 59.75 C 173.835938 59.75 174.167969 59.417969 174.167969 59.007812 L 174.167969 54.507812 C 174.167969 54.101562 173.835938 53.769531 173.425781 53.769531 L 168.332031 53.769531 C 167.925781 53.769531 167.59375 54.101562 167.59375 54.507812 Z M 180.914062 65.601562 C 180.914062 65.308594 180.675781 65.070312 180.378906 65.070312 L 168.121094 65.070312 C 167.824219 65.070312 167.585938 65.308594 167.585938 65.601562 C 167.585938 65.894531 167.824219 66.136719 168.121094 66.136719 L 180.378906 66.136719 C 180.671875 66.136719 180.914062 65.894531 180.914062 65.601562 Z M 180.914062 62.40625 C 180.914062 62.109375 180.675781 61.871094 180.378906 61.871094 L 168.121094 61.871094 C 167.824219 61.871094 167.585938 62.109375 167.585938 62.40625 C 167.585938 62.699219 167.824219 62.9375 168.121094 62.9375 L 180.378906 62.9375 C 180.671875 62.9375 180.914062 62.699219 180.914062 62.40625 Z M 180.914062 59.207031 C 180.914062 58.914062 180.675781 58.675781 180.378906 58.675781 L 176.558594 58.675781 C 176.265625 58.675781 176.027344 58.914062 176.027344 59.207031 C 176.027344 59.503906 176.265625 59.742188 176.558594 59.742188 L 180.378906 59.742188 C 180.671875 59.742188 180.914062 59.503906 180.914062 59.207031 Z M 99.265625 69.726562 L 98.746094 69.726562 L 98.746094 84.691406 L 96.140625 84.691406 L 96.140625 74.671875 L 93.929688 74.671875 L 93.929688 84.691406 L 91.066406 84.691406 L 91.066406 77.597656 L 88.851562 77.597656 L 88.851562 84.691406 L 85.988281 84.691406 L 85.988281 72.785156 L 83.773438 72.785156 L 83.773438 84.691406 L 76.355469 84.691406 L 76.355469 85.210938 L 99.265625 85.210938 Z M 158.167969 63.609375 L 69.261719 63.609375 L 69.261719 56.648438 L 158.167969 56.648438 Z M 147.105469 60.160156 C 147.105469 59.511719 146.582031 58.988281 145.933594 58.988281 C 145.285156 58.988281 144.761719 59.511719 144.761719 60.160156 C 144.761719 60.808594 145.285156 61.332031 145.933594 61.332031 C 146.578125 61.332031 147.105469 60.808594 147.105469 60.160156 Z M 151.011719 60.160156 C 151.011719 59.511719 150.484375 58.988281 149.839844 58.988281 C 149.191406 58.988281 148.667969 59.511719 148.667969 60.160156 C 148.667969 60.808594 149.191406 61.332031 149.839844 61.332031 C 150.484375 61.332031 151.011719 60.808594 151.011719 60.160156 Z M 154.914062 60.160156 C 154.914062 59.511719 154.390625 58.988281 153.742188 58.988281 C 153.097656 58.988281 152.570312 59.511719 152.570312 60.160156 C 152.570312 60.808594 153.097656 61.332031 153.742188 61.332031 C 154.390625 61.332031 154.914062 60.808594 154.914062 60.160156 Z M 93.472656 94.058594 L 90.28125 94.058594 L 90.28125 93.472656 C 90.28125 93.1875 90.050781 92.953125 89.761719 92.953125 C 89.476562 92.953125 89.242188 93.1875 89.242188 93.472656 L 89.242188 94.058594 L 77.199219 94.058594 L 77.199219 94.582031 L 89.242188 94.582031 L 89.242188 95.164062 C 89.242188 95.453125 89.476562 95.6875 89.761719 95.6875 C 90.050781 95.6875 90.28125 95.453125 90.28125 95.164062 L 90.28125 94.582031 L 93.472656 94.582031 Z M 93.472656 100.046875 L 77.199219 100.046875 L 77.199219 100.566406 L 93.472656 100.566406 Z M 86.898438 107.65625 C 87.1875 107.65625 87.417969 107.425781 87.417969 107.136719 L 87.417969 106.550781 L 93.472656 106.550781 L 93.472656 106.03125 L 87.417969 106.03125 L 87.417969 105.445312 C 87.417969 105.160156 87.1875 104.925781 86.898438 104.925781 C 86.609375 104.925781 86.378906 105.160156 86.378906 105.445312 L 86.378906 106.03125 L 77.199219 106.03125 L 77.199219 106.550781 L 86.378906 106.550781 L 86.378906 107.136719 C 86.378906 107.425781 86.609375 107.65625 86.898438 107.65625 Z M 62.59375 80.371094 C 62.59375 79.640625 61.996094 79.042969 61.261719 79.042969 L 31.195312 79.042969 C 30.460938 79.042969 29.863281 79.640625 29.863281 80.371094 L 29.863281 82.488281 L 62.59375 82.488281 Z M 136.039062 88.074219 L 155.371094 88.074219 L 155.371094 87.03125 L 136.039062 87.03125 Z M 136.820312 98.417969 L 139.664062 98.417969 L 139.664062 95.6875 L 136.820312 95.6875 Z M 136.039062 85.339844 L 155.371094 85.339844 L 155.371094 84.300781 L 136.039062 84.300781 Z M 104.992188 70.507812 L 127.121094 70.507812 L 127.121094 84.558594 L 104.992188 84.558594 Z M 124.128906 73.449219 L 126.601562 73.449219 L 126.601562 71.027344 L 124.128906 71.027344 Z M 124.128906 76.753906 L 126.601562 76.753906 L 126.601562 73.972656 L 124.128906 73.972656 Z M 124.128906 80.527344 L 126.601562 80.527344 L 126.601562 77.273438 L 124.128906 77.273438 Z M 124.128906 84.039062 L 126.601562 84.039062 L 126.601562 81.046875 L 124.128906 81.046875 Z M 120.875 73.449219 L 123.609375 73.449219 L 123.609375 71.027344 L 120.875 71.027344 Z M 120.875 76.753906 L 123.609375 76.753906 L 123.609375 73.972656 L 120.875 73.972656 Z M 120.875 80.527344 L 123.609375 80.527344 L 123.609375 77.273438 L 120.875 77.273438 Z M 120.875 84.039062 L 123.609375 84.039062 L 123.609375 81.046875 L 120.875 81.046875 Z M 117.75 73.449219 L 120.351562 73.449219 L 120.351562 71.027344 L 117.75 71.027344 Z M 117.75 76.753906 L 120.351562 76.753906 L 120.351562 73.972656 L 117.75 73.972656 Z M 117.75 80.527344 L 120.351562 80.527344 L 120.351562 77.273438 L 117.75 77.273438 Z M 117.75 84.039062 L 120.351562 84.039062 L 120.351562 81.046875 L 117.75 81.046875 Z M 114.496094 73.449219 L 117.230469 73.449219 L 117.230469 71.027344 L 114.496094 71.027344 Z M 114.496094 76.753906 L 117.230469 76.753906 L 117.230469 73.972656 L 114.496094 73.972656 Z M 114.496094 80.527344 L 117.230469 80.527344 L 117.230469 77.273438 L 114.496094 77.273438 Z M 114.496094 84.039062 L 117.230469 84.039062 L 117.230469 81.046875 L 114.496094 81.046875 Z M 111.109375 73.449219 L 113.976562 73.449219 L 113.976562 71.027344 L 111.109375 71.027344 Z M 111.109375 76.753906 L 113.976562 76.753906 L 113.976562 73.972656 L 111.109375 73.972656 Z M 111.109375 80.527344 L 113.976562 80.527344 L 113.976562 77.273438 L 111.109375 77.273438 Z M 111.109375 84.039062 L 113.976562 84.039062 L 113.976562 81.046875 L 111.109375 81.046875 Z M 107.855469 73.449219 L 110.589844 73.449219 L 110.589844 71.027344 L 107.855469 71.027344 Z M 107.855469 76.753906 L 110.589844 76.753906 L 110.589844 73.972656 L 107.855469 73.972656 Z M 107.855469 80.527344 L 110.589844 80.527344 L 110.589844 77.273438 L 107.855469 77.273438 Z M 107.855469 84.039062 L 110.589844 84.039062 L 110.589844 81.046875 L 107.855469 81.046875 Z M 105.515625 73.449219 L 107.335938 73.449219 L 107.335938 71.027344 L 105.515625 71.027344 Z M 105.515625 76.753906 L 107.335938 76.753906 L 107.335938 73.972656 L 105.515625 73.972656 Z M 105.515625 80.527344 L 107.335938 80.527344 L 107.335938 77.273438 L 105.515625 77.273438 Z M 105.515625 84.039062 L 107.335938 84.039062 L 107.335938 81.046875 L 105.515625 81.046875 Z M 136.820312 102.324219 L 139.664062 102.324219 L 139.664062 99.589844 L 136.820312 99.589844 Z M 136.039062 82.609375 L 155.371094 82.609375 L 155.371094 81.566406 L 136.039062 81.566406 Z M 131.742188 111.691406 L 132.265625 111.691406 L 132.265625 68.75 L 131.742188 68.75 Z M 59.886719 95.257812 L 32.554688 95.257812 L 32.554688 84.511719 L 59.886719 84.511719 Z M 37.046875 90.292969 L 35.167969 90.292969 L 35.167969 93.257812 L 37.046875 93.257812 Z M 40.828125 88.414062 L 38.949219 88.414062 L 38.949219 93.257812 L 40.828125 93.257812 Z M 48.402344 86.390625 L 46.523438 86.390625 L 46.523438 93.257812 L 48.402344 93.257812 Z M 52.757812 89.886719 C 52.757812 89.445312 52.402344 89.089844 51.964844 89.089844 C 51.523438 89.089844 51.167969 89.445312 51.167969 89.886719 C 51.167969 90.324219 51.523438 90.679688 51.964844 90.679688 C 52.402344 90.679688 52.757812 90.324219 52.757812 89.886719 Z M 52.757812 87.5 C 52.757812 87.0625 52.402344 86.707031 51.964844 86.707031 C 51.523438 86.707031 51.167969 87.0625 51.167969 87.5 C 51.167969 87.9375 51.523438 88.296875 51.964844 88.296875 C 52.402344 88.296875 52.757812 87.9375 52.757812 87.5 Z M 57.15625 89.609375 L 53.46875 89.609375 L 53.46875 90.140625 L 57.15625 90.140625 Z M 57.195312 87.234375 L 53.507812 87.234375 L 53.507812 87.765625 L 57.195312 87.765625 Z M 32.554688 101.449219 L 40.941406 101.449219 L 40.941406 96.582031 L 32.554688 96.582031 Z M 119.722656 93.222656 L 117.292969 102.191406 L 112.070312 99.480469 L 117.023438 102.050781 L 117.164062 102.191406 L 107.859375 102.191406 C 107.855469 102.214844 107.855469 102.234375 107.855469 102.257812 C 107.855469 107.433594 112.054688 111.628906 117.230469 111.628906 C 122.40625 111.628906 126.601562 107.433594 126.601562 102.257812 C 126.601562 97.945312 123.6875 94.316406 119.722656 93.222656 Z M 59.886719 96.582031 L 51.5 96.582031 L 51.5 101.449219 L 59.886719 101.449219 Z M 50.425781 101.449219 L 50.425781 96.582031 L 42.039062 96.582031 L 42.039062 101.449219 Z M 147.691406 77.144531 L 155.371094 77.144531 L 155.371094 76.101562 L 147.691406 76.101562 Z M 136.039062 79.875 L 155.371094 79.875 L 155.371094 78.835938 L 136.039062 78.835938 Z M 165.296875 132.585938 C 165.207031 132.597656 165.140625 132.683594 165.152344 132.777344 L 166.082031 139.886719 C 166.089844 139.972656 166.164062 140.035156 166.246094 140.035156 C 166.253906 140.035156 166.261719 140.035156 166.269531 140.03125 C 166.363281 140.019531 166.429688 139.933594 166.417969 139.84375 L 165.488281 132.734375 C 165.476562 132.640625 165.390625 132.570312 165.296875 132.585938 Z M 59.273438 119.996094 C 59.195312 120.28125 59.089844 120.542969 58.949219 120.777344 C 59.027344 120.648438 59.09375 120.511719 59.15625 120.367188 C 59.273438 120.609375 59.371094 120.863281 59.445312 121.125 C 59.445312 120.734375 59.386719 120.351562 59.273438 119.996094 Z M 55.605469 117.296875 L 54.027344 117.296875 C 51.90625 117.296875 50.183594 119.019531 50.183594 121.140625 L 50.183594 123.359375 C 49.519531 123.660156 49.054688 124.328125 49.054688 125.105469 C 49.054688 126.164062 49.914062 127.027344 50.972656 127.027344 C 52.035156 127.027344 52.894531 126.164062 52.894531 125.105469 C 52.894531 124.328125 52.429688 123.660156 51.765625 123.359375 L 51.765625 120.710938 C 51.765625 119.054688 53.105469 117.683594 54.761719 117.683594 L 54.867188 117.683594 L 54.867188 117.6875 C 56.480469 117.632812 58.082031 118.320312 59.152344 119.660156 C 58.574219 118.273438 57.203125 117.296875 55.605469 117.296875 Z M 55.605469 117.296875 " fill-opacity="1" fill-rule="nonzero"/></g><path fill="#f5c0a2" d="M 133.886719 51.484375 C 133.882812 51.53125 133.882812 51.570312 133.875 51.621094 L 134.257812 56.710938 L 129.546875 56.710938 L 129.847656 51.671875 C 129.75 51.597656 129.65625 51.519531 129.570312 51.429688 C 128.085938 49.953125 127.945312 48.261719 127.566406 47.179688 C 127.402344 46.707031 127.359375 46.589844 127.597656 46.476562 C 127.863281 46.355469 128.414062 46.476562 128.96875 47.382812 C 129.105469 47.605469 129.289062 47.929688 129.417969 48.167969 C 129.417969 48.167969 129.464844 44.132812 129.4375 43.277344 C 129.410156 42.421875 130.4375 42.371094 130.535156 43.058594 C 130.597656 43.476562 130.683594 44.476562 130.753906 45.371094 L 131.019531 42.78125 C 131.164062 42.101562 132.066406 42.164062 132.121094 42.75 C 132.128906 42.835938 132.132812 42.945312 132.132812 43.039062 C 132.125 43.085938 132.121094 43.132812 132.121094 43.1875 C 132.125 43.3125 132.132812 43.199219 132.132812 43.039062 C 132.230469 42.457031 133.019531 42.550781 133.097656 43.105469 C 133.160156 43.5625 133.257812 44.933594 133.320312 45.890625 C 133.378906 45.117188 133.429688 44.613281 133.429688 44.183594 C 133.429688 43.332031 134.285156 43.410156 134.328125 44.023438 C 134.382812 44.769531 134.441406 48.082031 134.347656 50.109375 C 134.320312 50.671875 134.148438 51.128906 133.886719 51.484375 Z M 118.84375 41.632812 C 118.558594 41.609375 118.359375 42.21875 118.230469 42.828125 C 118.171875 42.796875 118.105469 42.773438 118.03125 42.773438 C 118.03125 42.773438 117.75 40.554688 118.292969 38.300781 C 117.816406 38.773438 116.0625 38.929688 114.792969 38.617188 C 113.246094 38.234375 112.347656 37.695312 111.328125 37.816406 C 110.691406 39.785156 110.671875 41.6875 110.671875 41.6875 L 110.714844 44.335938 C 110.734375 45.53125 111.332031 46.613281 112.242188 47.273438 L 112.21875 49.695312 C 112.332031 51.285156 113.792969 52.484375 115.488281 52.371094 C 117.183594 52.253906 118.328125 50.847656 118.214844 49.253906 L 117.886719 44.886719 L 118.082031 44.289062 C 118.164062 44.496094 118.363281 44.621094 118.574219 44.570312 C 119.214844 44.40625 119.667969 43.886719 119.722656 43.234375 C 119.792969 42.398438 119.398438 41.683594 118.84375 41.632812 Z M 80.5 146.667969 L 80.464844 147.996094 L 79.15625 148.28125 C 79.101562 148.234375 79.046875 148.1875 78.996094 148.140625 L 79.078125 148.300781 L 76.945312 148.765625 L 76.917969 149.253906 L 73.824219 149.253906 L 73.832031 149.238281 L 73.824219 149.238281 C 73.648438 149.238281 73.472656 149.210938 73.304688 149.160156 C 73.113281 149.234375 72.808594 149.242188 72.472656 148.96875 C 72.347656 148.867188 72.175781 148.71875 71.992188 148.554688 L 72.003906 148.582031 C 72.089844 148.839844 72.179688 149.015625 71.964844 149.15625 C 71.828125 149.246094 71.433594 149.316406 71.078125 148.898438 C 70.90625 148.691406 70.621094 148.324219 70.371094 148 L 70.5625 148.675781 C 70.589844 148.921875 70.640625 149.097656 70.421875 149.1875 C 70.28125 149.242188 69.914062 149.230469 69.667969 148.789062 C 69.59375 148.652344 69.488281 148.441406 69.375 148.21875 C 68.398438 148.714844 67.242188 149.238281 66.75 149.238281 L 65.179688 149.238281 C 64.222656 149.238281 63.222656 148.429688 63.222656 147.472656 C 63.222656 146.609375 63.859375 145.878906 64.710938 145.757812 L 69.265625 145.136719 C 69.527344 145.101562 69.777344 145.152344 70.003906 145.265625 C 70.015625 145.269531 70.023438 145.277344 70.03125 145.28125 L 72.363281 146.265625 C 72.625 146 72.964844 145.8125 73.355469 145.757812 L 76.734375 145.136719 C 76.996094 145.097656 77.238281 145.164062 77.472656 145.265625 C 77.496094 145.277344 77.519531 145.289062 77.542969 145.300781 L 80.109375 146.382812 C 80.144531 146.394531 80.175781 146.40625 80.210938 146.425781 C 80.304688 146.472656 80.386719 146.539062 80.453125 146.621094 C 80.46875 146.636719 80.488281 146.652344 80.5 146.667969 Z M 77.542969 147.941406 C 77.539062 147.929688 77.53125 147.921875 77.523438 147.914062 L 77.53125 147.9375 C 77.535156 147.9375 77.539062 147.9375 77.542969 147.941406 Z M 59.835938 126.835938 L 59.625 122.164062 C 59.59375 121.519531 59.425781 120.914062 59.15625 120.367188 C 58.207031 122.660156 54.886719 122.808594 52.964844 122.8125 C 52.976562 123.085938 52.980469 123.453125 52.960938 123.859375 C 53.25 124.195312 53.429688 124.628906 53.429688 125.105469 C 53.429688 125.945312 52.886719 126.652344 52.136719 126.910156 L 52.488281 127.785156 L 52.328125 129.746094 C 52.210938 131.132812 54.203125 132.46875 55.453125 132.46875 C 56.957031 132.46875 57.425781 131.660156 57.570312 130.40625 C 59.035156 129.796875 59.902344 128.339844 59.835938 126.835938 Z M 153.457031 117.183594 C 153.457031 117.257812 153.476562 117.332031 153.527344 117.402344 C 153.695312 117.632812 153.917969 117.816406 154.179688 117.933594 L 157.695312 119.535156 C 158.078125 119.707031 158.496094 119.796875 158.914062 119.796875 L 160.441406 119.796875 C 160.453125 119.796875 160.457031 119.796875 160.464844 119.800781 C 160.855469 119.878906 170.882812 121.910156 173.941406 122.25 C 176.390625 122.519531 177.15625 119.785156 177.15625 119.785156 L 178.828125 113.667969 L 178.957031 113.195312 L 173.375 112.242188 L 173.140625 113.382812 L 172.460938 116.699219 C 172.449219 116.757812 172.398438 116.800781 172.335938 116.800781 L 153.832031 116.808594 C 153.609375 116.804688 153.457031 116.988281 153.457031 117.183594 Z M 168.125 99.023438 L 168.121094 99.039062 L 168.121094 99.046875 L 167.886719 100.007812 L 167.648438 100.976562 C 168.382812 103.933594 172.203125 101.351562 172.867188 100.875 L 172.875 98.414062 L 172.878906 97.355469 C 172.878906 97.355469 173.070312 97.421875 173.335938 97.398438 C 173.546875 97.378906 173.804688 97.304688 174.042969 97.097656 C 174.628906 96.582031 175.089844 95.761719 174.449219 95.085938 C 174.449219 95.085938 174.449219 95.082031 174.445312 95.082031 C 174.445312 95.082031 174.441406 95.082031 174.441406 95.078125 C 174.3125 94.980469 173.484375 94.410156 172.945312 95.730469 C 172.945312 95.730469 172.359375 95.320312 172.269531 94.824219 C 172.179688 94.328125 172.074219 94.078125 172.425781 92.503906 C 172.425781 92.503906 169.203125 92.484375 167.28125 91.988281 C 166.546875 94.089844 165.1875 98.917969 168.125 99.023438 Z M 99.847656 55.566406 C 99.886719 54.917969 99.898438 54.757812 99.582031 54.691406 C 99.226562 54.617188 98.507812 55.023438 98.152344 56.335938 C 98.125 56.441406 98.09375 56.546875 98.066406 56.648438 L 99.867188 56.648438 C 99.847656 56.265625 99.828125 55.90625 99.847656 55.566406 Z M 97.0625 55.167969 C 97.0625 55.164062 97.058594 55.160156 97.058594 55.160156 C 97.058594 55.160156 97.058594 55.15625 97.058594 55.15625 C 96.960938 54.921875 96.757812 54.742188 96.492188 54.695312 C 96.054688 54.613281 95.644531 54.917969 95.589844 55.351562 L 95.136719 55.414062 C 95.128906 55.292969 95.125 55.191406 95.117188 55.128906 C 95.074219 54.691406 94.714844 54.355469 94.277344 54.394531 C 93.855469 54.429688 93.554688 54.789062 93.570312 55.195312 C 93.421875 54.847656 93.0625 54.636719 92.683594 54.726562 C 92.351562 54.808594 92.128906 55.09375 92.101562 55.410156 C 91.925781 55.203125 91.648438 55.101562 91.371094 55.183594 C 90.96875 55.304688 90.765625 55.753906 90.941406 56.136719 L 91.546875 57.226562 C 91.808594 57.90625 92.761719 57.640625 92.566406 56.796875 L 92.75 57.261719 C 92.992188 58 93.992188 57.804688 93.914062 56.941406 L 93.972656 57.234375 C 94.105469 58.050781 95.246094 57.964844 95.1875 56.949219 C 95.1875 56.949219 95.183594 56.828125 95.179688 56.648438 L 95.519531 56.648438 L 95.5 57.035156 C 95.414062 57.859375 96.535156 58.078125 96.746094 57.082031 C 96.746094 57.082031 96.796875 56.890625 96.863281 56.648438 L 97.589844 56.648438 C 97.304688 55.816406 97.085938 55.230469 97.0625 55.167969 Z M 97.0625 55.167969 " fill-opacity="1" fill-rule="evenodd"/><g clip-path="url(#d56e92e277)"><path fill="#ce6f09" d="M 42.738281 86.390625 L 44.617188 86.390625 L 44.617188 93.257812 L 42.738281 93.257812 Z M 74.527344 189.003906 C 73.207031 188.367188 71.617188 187.554688 70.609375 186.113281 C 70.257812 185.613281 70.050781 185.289062 69.925781 185.074219 L 64.242188 185.074219 C 63.878906 187.441406 63.28125 188.640625 63.898438 191.109375 L 75.875 191.109375 C 75.875 191.109375 76.15625 189.789062 74.527344 189.003906 Z M 66.082031 149.253906 L 73.5625 149.257812 C 73.65625 149.253906 73.746094 149.25 73.832031 149.238281 L 73.824219 149.238281 C 73.652344 149.238281 73.476562 149.210938 73.304688 149.160156 C 73.113281 149.234375 72.808594 149.242188 72.476562 148.96875 C 72.351562 148.867188 72.175781 148.71875 71.992188 148.554688 L 72.007812 148.582031 C 72.089844 148.839844 72.179688 149.015625 71.96875 149.15625 C 71.828125 149.246094 71.433594 149.316406 71.078125 148.898438 C 70.90625 148.691406 70.621094 148.324219 70.371094 148 L 70.5625 148.675781 C 70.589844 148.921875 70.640625 149.097656 70.421875 149.1875 C 70.28125 149.242188 69.914062 149.230469 69.671875 148.789062 C 69.59375 148.652344 69.488281 148.441406 69.378906 148.21875 C 68.398438 148.714844 67.246094 149.238281 66.753906 149.238281 L 65.179688 149.238281 C 64.222656 149.238281 63.222656 148.429688 63.222656 147.472656 C 63.222656 146.609375 63.859375 145.878906 64.710938 145.757812 L 69.265625 145.136719 C 69.527344 145.101562 69.777344 145.152344 70.003906 145.265625 C 70.015625 145.269531 70.023438 145.277344 70.03125 145.28125 L 72.367188 146.265625 C 72.625 146 72.964844 145.8125 73.355469 145.757812 L 73.964844 145.644531 C 73.800781 145.585938 73.632812 145.535156 73.457031 145.519531 L 63.871094 144.015625 L 60.527344 134.953125 C 60.460938 134.773438 60.378906 134.605469 60.289062 134.449219 C 60.023438 133.621094 59.4375 132.765625 58.121094 132.539062 C 57.898438 132.5 57.683594 132.464844 57.476562 132.429688 L 57.609375 130.390625 C 57.597656 130.394531 57.585938 130.402344 57.574219 130.40625 C 57.425781 131.660156 56.957031 132.46875 55.453125 132.46875 C 54.203125 132.46875 52.210938 131.132812 52.328125 129.746094 L 52.335938 129.664062 L 51.9375 132.160156 C 50.941406 132.308594 49.816406 132.585938 48.34375 133.027344 C 46.714844 133.515625 45.515625 134.90625 45.519531 137.015625 C 45.527344 142.125 46.757812 146.738281 48.25 150.191406 C 48.976562 151.875 57.800781 151.175781 58.382812 150.011719 C 58.480469 149.8125 58.570312 149.609375 58.664062 149.410156 L 65.621094 149.316406 C 65.789062 149.3125 65.941406 149.289062 66.082031 149.253906 Z M 53.507812 92.535156 L 57.195312 92.535156 L 57.195312 92.003906 L 53.507812 92.003906 Z M 52.113281 58.277344 L 52.113281 51.789062 C 52.113281 50.316406 53.308594 49.121094 54.78125 49.121094 L 71.15625 49.121094 C 72.632812 49.121094 73.828125 50.316406 73.828125 51.789062 L 73.828125 58.277344 C 73.828125 59.75 72.632812 60.945312 71.15625 60.945312 L 54.78125 60.945312 C 53.308594 60.945312 52.113281 59.75 52.113281 58.277344 Z M 68.609375 55.179688 L 66.585938 57.199219 C 66.503906 57.285156 66.503906 57.421875 66.585938 57.507812 C 66.628906 57.550781 66.683594 57.570312 66.738281 57.570312 C 66.796875 57.570312 66.851562 57.550781 66.894531 57.507812 L 69.21875 55.179688 L 66.894531 52.855469 C 66.808594 52.769531 66.671875 52.769531 66.585938 52.855469 C 66.503906 52.941406 66.503906 53.078125 66.585938 53.160156 Z M 61.96875 57.554688 C 61.996094 57.566406 62.023438 57.570312 62.054688 57.570312 C 62.136719 57.570312 62.21875 57.523438 62.253906 57.441406 L 64.085938 53.183594 C 64.132812 53.074219 64.082031 52.949219 63.972656 52.898438 C 63.863281 52.851562 63.734375 52.902344 63.6875 53.011719 L 61.855469 57.269531 C 61.808594 57.378906 61.859375 57.503906 61.96875 57.554688 Z M 56.71875 55.179688 L 59.046875 57.507812 C 59.089844 57.550781 59.144531 57.570312 59.199219 57.570312 C 59.253906 57.570312 59.3125 57.550781 59.351562 57.507812 C 59.4375 57.421875 59.4375 57.285156 59.351562 57.199219 L 57.332031 55.183594 L 59.351562 53.164062 C 59.4375 53.078125 59.4375 52.941406 59.351562 52.855469 C 59.269531 52.773438 59.132812 52.769531 59.046875 52.855469 Z M 176.558594 56.542969 L 180.378906 56.542969 C 180.671875 56.542969 180.914062 56.304688 180.914062 56.011719 C 180.914062 55.71875 180.671875 55.476562 180.378906 55.476562 L 176.558594 55.476562 C 176.265625 55.476562 176.027344 55.714844 176.027344 56.011719 C 176.027344 56.304688 176.265625 56.542969 176.558594 56.542969 Z M 51.964844 93.066406 C 52.402344 93.066406 52.757812 92.710938 52.757812 92.269531 C 52.757812 91.832031 52.402344 91.476562 51.964844 91.476562 C 51.523438 91.476562 51.167969 91.832031 51.167969 92.269531 C 51.167969 92.710938 51.523438 93.066406 51.964844 93.066406 Z M 78.699219 84.949219 L 80.910156 84.949219 L 80.910156 81.503906 L 78.699219 81.503906 Z M 110.605469 95.636719 L 110.601562 95.632812 C 110.582031 95.65625 110.5625 95.679688 110.542969 95.699219 C 110.5625 95.679688 110.585938 95.65625 110.605469 95.636719 Z M 172.964844 100.804688 C 172.964844 100.804688 168.289062 104.34375 167.605469 100.804688 C 167.605469 100.804688 165.472656 101.484375 163.015625 102.863281 C 162.527344 103.136719 162.222656 103.652344 162.074219 104.191406 L 161.25 107.136719 L 161.121094 106.714844 C 161.050781 106.476562 160.828125 106.3125 160.578125 106.3125 L 146.257812 106.3125 C 145.878906 106.3125 145.605469 106.679688 145.714844 107.046875 L 148.582031 116.496094 C 148.652344 116.734375 148.875 116.898438 149.125 116.898438 L 153.597656 116.898438 C 153.660156 116.84375 153.738281 116.804688 153.832031 116.804688 L 172.335938 116.800781 C 172.398438 116.800781 172.449219 116.757812 172.460938 116.699219 L 173.140625 113.378906 L 173.375 112.242188 L 178.957031 113.195312 L 180.238281 108.769531 C 180.558594 107.65625 180.28125 106.453125 179.496094 105.597656 C 178.300781 104.289062 175.949219 102.820312 172.964844 100.804688 Z M 177.15625 119.785156 C 177.15625 119.785156 176.390625 122.519531 173.941406 122.25 C 171.207031 121.945312 162.894531 120.289062 160.894531 119.886719 L 160.804688 120.371094 L 159.617188 126.128906 C 159.617188 126.128906 168.0625 130.757812 177.597656 128.171875 C 177.597656 128.171875 177.878906 122.601562 178.007812 121.023438 C 178.171875 119.058594 178.957031 113.199219 178.957031 113.195312 L 178.828125 113.667969 Z M 136.820312 106.226562 L 139.664062 106.226562 L 139.664062 103.492188 L 136.820312 103.492188 Z M 184.402344 69.542969 L 182.289062 71.515625 L 181.371094 70.628906 C 181.21875 70.480469 180.972656 70.484375 180.828125 70.636719 C 180.679688 70.789062 180.683594 71.03125 180.835938 71.179688 L 182.28125 72.574219 L 184.925781 70.105469 C 185.082031 69.960938 185.089844 69.71875 184.945312 69.5625 C 184.800781 69.410156 184.558594 69.398438 184.402344 69.542969 Z M 187.585938 71.007812 C 187.585938 73.601562 185.480469 75.707031 182.882812 75.707031 C 180.289062 75.707031 178.183594 73.601562 178.183594 71.007812 C 178.183594 68.410156 180.289062 66.308594 182.882812 66.308594 C 185.480469 66.308594 187.585938 68.410156 187.585938 71.007812 Z M 186.738281 71.007812 C 186.738281 68.878906 185.011719 67.152344 182.882812 67.152344 C 180.753906 67.152344 179.027344 68.878906 179.027344 71.007812 C 179.027344 73.136719 180.753906 74.859375 182.882812 74.859375 C 185.011719 74.859375 186.738281 73.136719 186.738281 71.007812 Z M 81.953125 98.941406 C 81.664062 98.941406 81.429688 99.171875 81.429688 99.460938 L 81.429688 101.152344 C 81.429688 101.4375 81.664062 101.671875 81.953125 101.671875 C 82.238281 101.671875 82.472656 101.4375 82.472656 101.152344 L 82.472656 99.460938 C 82.472656 99.171875 82.238281 98.941406 81.953125 98.941406 Z M 96.566406 189.003906 C 95.246094 188.367188 93.332031 187.460938 92.203125 186.113281 C 92.140625 186.035156 92.082031 185.957031 92.023438 185.878906 L 91.164062 191.109375 L 88.53125 191.109375 L 89.5 185.074219 L 85.867188 185.074219 C 86.132812 187.753906 85.320312 188.636719 85.9375 191.109375 L 97.914062 191.109375 C 97.914062 191.109375 98.195312 189.789062 96.566406 189.003906 Z M 127.109375 53.4375 C 126.957031 52.238281 126.191406 51.265625 125.167969 50.792969 C 125.167969 50.789062 125.167969 50.78125 125.167969 50.78125 C 122.796875 49.753906 120.476562 49.082031 118.179688 48.753906 L 118.214844 49.253906 C 118.328125 50.847656 117.183594 52.253906 115.488281 52.367188 C 113.792969 52.484375 112.332031 51.285156 112.21875 49.695312 L 112.230469 48.6875 C 110.003906 48.957031 107.765625 49.558594 105.496094 50.507812 C 105.492188 50.507812 105.488281 50.507812 105.484375 50.511719 C 104.679688 50.789062 103.988281 51.378906 103.605469 52.214844 L 101.394531 56.648438 L 127.429688 56.648438 C 127.335938 55.578125 127.242188 54.503906 127.109375 53.4375 Z M 108.949219 97.863281 C 108.261719 99.15625 107.867188 100.628906 107.859375 102.191406 L 117.164062 102.191406 L 117.023438 102.050781 Z M 121.980469 75.125 L 128.359375 75.125 L 128.359375 68.617188 L 121.980469 68.617188 Z M 121.980469 75.125 " fill-opacity="1" fill-rule="nonzero"/></g><g clip-path="url(#8d8b63fb07)"><path fill="#293237" d="M 71.046875 146.007812 C 71.097656 145.929688 71.203125 145.910156 71.28125 145.960938 L 72.457031 146.730469 C 72.476562 146.742188 72.496094 146.761719 72.507812 146.78125 L 73.707031 148.597656 C 73.757812 148.675781 73.734375 148.78125 73.65625 148.832031 C 73.628906 148.851562 73.597656 148.859375 73.5625 148.859375 C 73.507812 148.859375 73.457031 148.832031 73.421875 148.785156 L 72.242188 146.996094 L 71.09375 146.242188 C 71.015625 146.191406 70.996094 146.085938 71.046875 146.007812 Z M 68.007812 149.203125 L 70.214844 149.203125 C 70.042969 149.183594 69.832031 149.082031 69.667969 148.789062 C 69.59375 148.652344 69.488281 148.441406 69.378906 148.21875 C 68.8125 148.503906 68.191406 148.796875 67.667969 148.996094 C 67.730469 149.117188 67.851562 149.203125 68.007812 149.203125 Z M 68.152344 146.710938 L 69.367188 146.652344 C 69.601562 146.636719 69.832031 146.789062 69.910156 147.015625 L 70.308594 148.179688 C 70.328125 148.246094 70.390625 148.285156 70.453125 148.289062 L 70.5625 148.675781 C 70.589844 148.921875 70.640625 149.097656 70.421875 149.1875 C 70.402344 149.195312 70.378906 149.199219 70.347656 149.203125 L 71.554688 149.203125 C 71.402344 149.171875 71.238281 149.085938 71.078125 148.898438 C 70.953125 148.746094 70.761719 148.503906 70.570312 148.257812 C 70.625 148.214844 70.652344 148.140625 70.628906 148.070312 L 70.230469 146.90625 C 70.101562 146.535156 69.742188 146.296875 69.347656 146.3125 L 68.136719 146.375 C 68.042969 146.378906 67.96875 146.457031 67.972656 146.550781 C 67.980469 146.644531 68.042969 146.71875 68.152344 146.710938 Z M 59.050781 120.570312 C 59.050781 120.570312 59.050781 120.574219 59.050781 120.574219 C 59.015625 120.644531 58.984375 120.714844 58.949219 120.777344 C 58.988281 120.710938 59.015625 120.640625 59.050781 120.570312 Z M 60.3125 127.898438 C 60.3125 127.957031 60.308594 128.019531 60.304688 128.082031 C 60.109375 128.101562 59.953125 128.261719 59.953125 128.464844 C 59.953125 128.679688 60.128906 128.855469 60.34375 128.855469 C 60.558594 128.855469 60.734375 128.679688 60.734375 128.464844 C 60.734375 128.3125 60.648438 128.1875 60.523438 128.121094 C 60.53125 128.046875 60.535156 127.972656 60.535156 127.898438 C 60.535156 127.222656 60.265625 126.582031 59.800781 126.109375 L 59.820312 126.464844 C 60.132812 126.871094 60.3125 127.371094 60.3125 127.898438 Z M 60.476562 137.714844 C 60.480469 137.765625 60.925781 142.871094 60.027344 144.738281 C 60.003906 144.785156 60.007812 144.839844 60.03125 144.890625 C 60.054688 144.9375 60.101562 144.96875 60.15625 144.976562 L 63.554688 145.519531 C 63.566406 145.519531 63.574219 145.519531 63.582031 145.519531 C 63.664062 145.519531 63.738281 145.460938 63.75 145.378906 C 63.765625 145.285156 63.703125 145.199219 63.609375 145.183594 L 60.421875 144.675781 C 61.242188 142.601562 60.832031 137.890625 60.8125 137.683594 C 60.804688 137.589844 60.71875 137.523438 60.628906 137.53125 C 60.535156 137.539062 60.46875 137.621094 60.476562 137.714844 Z M 172.34375 92.476562 C 172.015625 94.054688 172.125 94.304688 172.222656 94.800781 C 172.320312 95.292969 172.910156 95.691406 172.910156 95.691406 C 173.476562 94.25 174.417969 95.035156 174.417969 95.035156 C 177.480469 90.289062 174.070312 89.871094 174.070312 89.871094 C 170.578125 86.261719 170.445312 88.824219 170.445312 88.824219 C 166.164062 86.277344 166.757812 89.003906 166.757812 89.003906 C 164.902344 89.398438 166.066406 90.5625 166.066406 90.5625 C 164.125 92.542969 172.34375 92.476562 172.34375 92.476562 Z M 172.296875 116.96875 C 172.308594 116.96875 172.324219 116.972656 172.335938 116.972656 C 172.414062 116.972656 172.484375 116.917969 172.5 116.839844 L 174.800781 106.902344 C 174.820312 106.8125 174.765625 106.722656 174.675781 106.699219 C 174.582031 106.679688 174.492188 106.734375 174.472656 106.828125 L 172.171875 116.765625 C 172.148438 116.855469 172.207031 116.945312 172.296875 116.96875 Z M 161.121094 106.714844 L 163.988281 116.164062 C 164.0625 116.417969 163.953125 116.671875 163.75 116.804688 L 170.785156 116.800781 L 170.785156 115.773438 L 164.511719 115.773438 L 164.628906 116.164062 L 163.179688 111.390625 L 163.859375 108.179688 C 163.878906 108.085938 163.820312 107.996094 163.730469 107.976562 C 163.640625 107.960938 163.550781 108.019531 163.53125 108.109375 L 162.976562 110.71875 L 161.765625 106.714844 C 161.691406 106.476562 161.472656 106.3125 161.222656 106.3125 L 160.578125 106.3125 C 160.828125 106.3125 161.050781 106.476562 161.121094 106.714844 Z M 172.867188 97.320312 L 172.882812 98.375 C 173.042969 98.066406 173.195312 97.703125 173.324219 97.355469 C 173.0625 97.382812 172.867188 97.320312 172.867188 97.320312 Z M 52.964844 122.8125 C 54.824219 122.808594 57.988281 122.664062 59.046875 120.574219 C 59.136719 120.394531 59.214844 120.207031 59.273438 119.996094 C 59.285156 119.953125 59.304688 119.914062 59.316406 119.867188 C 59.261719 119.796875 59.207031 119.730469 59.152344 119.660156 C 58.621094 118.996094 57.957031 118.488281 57.222656 118.15625 C 57.210938 118.152344 57.199219 118.148438 57.191406 118.140625 C 57.027344 118.070312 56.863281 118.007812 56.695312 117.953125 C 56.664062 117.941406 56.628906 117.929688 56.597656 117.921875 C 56.445312 117.875 56.292969 117.835938 56.136719 117.800781 C 56.101562 117.792969 56.0625 117.785156 56.027344 117.777344 C 55.855469 117.746094 55.6875 117.722656 55.515625 117.707031 C 55.496094 117.707031 55.480469 117.703125 55.460938 117.703125 C 55.265625 117.6875 55.066406 117.679688 54.867188 117.6875 C 54.558594 117.699219 54.246094 117.738281 53.9375 117.804688 C 52.683594 118.171875 51.765625 119.339844 51.765625 120.710938 L 51.765625 123.207031 C 52.242188 123.269531 52.660156 123.511719 52.960938 123.859375 C 52.980469 123.453125 52.976562 123.085938 52.964844 122.8125 Z M 129.871094 48.65625 L 129.566406 48.085938 C 129.523438 48.003906 129.417969 47.972656 129.339844 48.015625 C 129.257812 48.058594 129.226562 48.164062 129.269531 48.246094 L 129.621094 48.898438 C 129.648438 48.953125 129.707031 48.988281 129.769531 48.988281 C 129.777344 48.988281 130.710938 49 131.242188 49.761719 C 131.277344 49.808594 131.328125 49.832031 131.382812 49.832031 C 131.414062 49.832031 131.449219 49.824219 131.476562 49.804688 C 131.554688 49.75 131.574219 49.644531 131.519531 49.566406 C 130.992188 48.8125 130.164062 48.679688 129.871094 48.65625 Z M 172.804688 179.339844 C 170.332031 179.859375 169.929688 181.410156 169.929688 181.410156 L 182.226562 181.410156 L 181.199219 175.351562 L 182.074219 175.351562 L 177.582031 144.304688 L 176.613281 128.414062 C 167.488281 130.441406 159.617188 126.128906 159.617188 126.128906 L 159.636719 126.035156 L 148.910156 136.070312 C 146.867188 138.519531 148.363281 141.921875 148.363281 141.921875 L 155.582031 166.566406 L 156.992188 166.566406 C 157.035156 167.1875 157.015625 167.804688 156.847656 168.277344 C 156.15625 170.230469 154.253906 170.1875 153.226562 170.402344 C 150.757812 170.917969 150.355469 172.46875 150.355469 172.46875 L 162.648438 172.46875 L 161.648438 166.566406 L 163.484375 166.566406 L 158.035156 141.785156 C 161.09375 139.96875 163.601562 138.289062 165.667969 136.742188 L 165.152344 132.777344 C 165.140625 132.683594 165.207031 132.597656 165.296875 132.585938 C 165.390625 132.570312 165.476562 132.640625 165.488281 132.730469 L 166.414062 139.84375 C 166.425781 139.921875 166.378906 139.992188 166.308594 140.019531 L 167.09375 145.121094 L 174.449219 175.351562 L 176.550781 175.351562 C 176.613281 176.023438 176.605469 176.703125 176.421875 177.214844 C 175.734375 179.167969 173.832031 179.125 172.804688 179.339844 Z M 120.839844 37.835938 C 120.859375 35.738281 119.730469 34.71875 117.621094 34.617188 C 117.621094 34.617188 112.859375 34.210938 111.796875 34.148438 C 110.289062 34.054688 110.226562 35.359375 110.675781 37.125 C 110.703125 37.226562 110.742188 37.3125 110.785156 37.394531 C 110.648438 37.660156 110.539062 37.941406 110.453125 38.234375 C 110.445312 38.257812 110.441406 38.285156 110.4375 38.308594 C 110.402344 38.433594 110.371094 38.558594 110.347656 38.683594 C 110.320312 38.839844 110.300781 38.996094 110.285156 39.15625 C 110.269531 39.347656 110.269531 39.53125 110.273438 39.71875 C 110.277344 39.773438 110.28125 39.832031 110.285156 39.886719 C 110.296875 40.015625 110.308594 40.144531 110.328125 40.273438 C 110.339844 40.332031 110.347656 40.394531 110.359375 40.453125 C 110.382812 40.582031 110.414062 40.707031 110.449219 40.832031 C 110.464844 40.882812 110.476562 40.933594 110.492188 40.980469 C 110.542969 41.148438 110.609375 41.3125 110.679688 41.472656 C 110.703125 40.925781 110.820312 39.394531 111.328125 37.816406 C 112.347656 37.695312 113.246094 38.234375 114.796875 38.617188 C 116.0625 38.929688 117.816406 38.773438 118.296875 38.300781 C 117.75 40.554688 118.03125 42.773438 118.03125 42.773438 C 118.105469 42.773438 118.171875 42.796875 118.230469 42.828125 C 118.359375 42.21875 118.5625 41.609375 118.84375 41.632812 C 119.09375 41.65625 119.308594 41.820312 119.46875 42.0625 C 119.472656 42.070312 119.480469 42.078125 119.484375 42.085938 C 119.507812 42.125 119.53125 42.167969 119.550781 42.210938 C 119.5625 42.234375 119.574219 42.261719 119.585938 42.289062 C 119.601562 42.328125 119.617188 42.363281 119.632812 42.40625 C 119.652344 42.472656 119.671875 42.542969 119.6875 42.613281 C 119.691406 42.640625 119.695312 42.667969 119.699219 42.695312 C 119.710938 42.757812 119.71875 42.816406 119.722656 42.878906 C 119.722656 42.90625 119.726562 42.933594 119.726562 42.960938 C 119.730469 43.050781 119.730469 43.140625 119.722656 43.234375 C 119.667969 43.886719 119.210938 44.40625 118.574219 44.566406 C 118.46875 44.59375 118.367188 44.578125 118.28125 44.527344 C 118.195312 44.476562 118.125 44.390625 118.082031 44.289062 L 118.019531 44.484375 L 117.886719 44.886719 L 117.894531 45.007812 C 118.535156 44.894531 121.113281 44.300781 120.824219 41.960938 C 120.824219 41.960938 122.84375 39.640625 120.839844 37.835938 Z M 117.230469 92.886719 C 113.640625 92.886719 110.527344 94.902344 108.949219 97.863281 L 117.292969 102.191406 L 119.722656 93.222656 C 118.929688 93.003906 118.09375 92.886719 117.230469 92.886719 Z M 57.113281 144.3125 C 57.324219 140.6875 56.730469 137.398438 55.355469 135.335938 L 55.472656 132.46875 C 55.476562 132.375 55.402344 132.296875 55.3125 132.292969 C 55.308594 132.292969 55.304688 132.292969 55.304688 132.292969 C 55.214844 132.292969 55.136719 132.363281 55.136719 132.457031 L 55.011719 135.375 C 55.011719 135.410156 55.019531 135.449219 55.042969 135.476562 C 56.375 137.441406 56.953125 140.691406 56.757812 144.257812 Z M 64.863281 180.578125 C 64.855469 180.578125 64.847656 180.574219 64.839844 180.574219 L 64.203125 185.074219 L 76.316406 185.074219 L 76.648438 180.542969 C 76.621094 180.5625 76.585938 180.578125 76.546875 180.578125 Z M 50.183594 123.359375 L 50.183594 121.140625 C 50.183594 121.089844 50.191406 121.039062 50.191406 120.988281 C 49.871094 121.800781 49.753906 122.683594 49.859375 123.554688 C 49.960938 123.480469 50.066406 123.414062 50.183594 123.359375 Z M 77.496094 149.21875 L 119.796875 149.21875 L 119.796875 151.175781 L 113.367188 151.175781 L 119.796875 191.109375 L 117.164062 191.109375 L 110.59375 151.175781 L 97.730469 151.175781 L 91.164062 191.109375 L 88.53125 191.109375 L 89.5 185.074219 L 80.796875 185.074219 L 79.425781 180.578125 L 90.226562 180.578125 L 90.28125 180.242188 L 79.375 180.242188 C 79.355469 180.242188 79.339844 180.246094 79.324219 180.25 L 77.1875 173.230469 L 76.667969 180.292969 C 76.636719 180.261719 76.59375 180.242188 76.546875 180.242188 L 64.886719 180.242188 L 67.085938 164.636719 C 67.09375 164.636719 67.101562 164.644531 67.109375 164.644531 C 67.15625 164.644531 67.203125 164.625 67.238281 164.585938 L 69.34375 162.148438 C 69.40625 162.074219 69.398438 161.96875 69.328125 161.90625 C 69.257812 161.847656 69.148438 161.855469 69.089844 161.925781 L 66.980469 164.367188 C 66.953125 164.398438 66.941406 164.4375 66.941406 164.476562 L 54.6875 164.542969 L 54.679688 164.511719 C 54.605469 164.519531 54.527344 164.53125 54.449219 164.542969 C 53.9375 164.609375 53.4375 164.640625 52.945312 164.652344 L 57.203125 191.109375 L 54.570312 191.109375 L 50.175781 164.402344 C 47.332031 163.769531 45.226562 161.957031 44.832031 158.878906 C 44.496094 156.257812 45.480469 153.304688 47.316406 151.175781 L 35.136719 151.175781 L 28.570312 191.109375 L 25.9375 191.109375 L 32.367188 151.175781 L 25.628906 151.175781 L 25.628906 149.21875 L 52.371094 149.21875 C 51.988281 148.976562 51.667969 148.636719 51.449219 148.222656 L 45.96875 137.902344 C 45.941406 137.851562 45.910156 137.789062 45.882812 137.734375 C 45.84375 137.648438 45.882812 137.546875 45.964844 137.507812 C 46.050781 137.46875 46.152344 137.503906 46.191406 137.589844 C 46.214844 137.640625 46.242188 137.699219 46.269531 137.746094 L 51.746094 148.0625 C 52.050781 148.636719 52.570312 149.046875 53.179688 149.21875 L 77.140625 149.21875 L 75.148438 149.203125 L 71.847656 149.203125 C 71.898438 149.191406 71.9375 149.175781 71.96875 149.15625 C 72.136719 149.046875 72.113281 148.914062 72.058594 148.738281 C 72.039062 148.742188 72.023438 148.75 72.007812 148.75 C 71.945312 148.75 71.886719 148.71875 71.855469 148.660156 L 70.835938 146.671875 L 69.265625 145.984375 C 69.179688 145.945312 69.140625 145.847656 69.175781 145.761719 C 69.214844 145.675781 69.316406 145.636719 69.398438 145.671875 L 71.027344 146.386719 C 71.0625 146.402344 71.089844 146.429688 71.109375 146.464844 L 72.15625 148.503906 C 72.1875 148.5625 72.179688 148.632812 72.140625 148.683594 C 72.265625 148.792969 72.386719 148.894531 72.476562 148.96875 C 72.929688 149.339844 73.335938 149.191406 73.460938 149.070312 C 73.496094 149.039062 73.515625 149.007812 73.53125 148.976562 C 73.980469 149.335938 74.378906 149.191406 74.503906 149.070312 C 74.703125 148.878906 74.570312 148.710938 74.433594 148.453125 L 73.394531 147.132812 C 73.929688 147.339844 74.417969 147.632812 74.847656 147.996094 L 80.464844 147.996094 L 80.441406 148.003906 C 79.46875 148.171875 78.5 148.398438 77.527344 148.691406 L 77.527344 149.203125 Z M 53.21875 151.175781 L 51.5 151.175781 C 52.050781 151.199219 52.632812 151.199219 53.21875 151.175781 Z M 60.417969 152.203125 C 60.414062 152.109375 60.339844 152.035156 60.246094 152.035156 C 56.167969 152.0625 56.167969 152.066406 56.148438 152.273438 C 56.144531 152.363281 56.210938 152.441406 56.296875 152.457031 C 56.304688 152.460938 56.316406 152.460938 56.324219 152.460938 C 56.351562 152.460938 56.375 152.453125 56.394531 152.445312 C 56.539062 152.429688 57.207031 152.394531 60.25 152.375 C 60.34375 152.371094 60.417969 152.296875 60.417969 152.203125 Z M 77.589844 155.03125 C 77.539062 154.949219 77.4375 154.925781 77.355469 154.972656 C 77.277344 155.023438 77.253906 155.125 77.300781 155.207031 C 77.90625 156.195312 78.164062 157.453125 78.066406 158.945312 L 77.082031 172.359375 C 77.074219 172.453125 77.144531 172.535156 77.238281 172.539062 C 77.242188 172.539062 77.246094 172.539062 77.25 172.539062 C 77.339844 172.539062 77.414062 172.472656 77.417969 172.382812 L 78.40625 158.96875 C 78.503906 157.40625 78.230469 156.078125 77.589844 155.03125 Z M 59.585938 151.175781 C 59.867188 151.46875 60.136719 151.777344 60.386719 152.101562 L 73.710938 152.976562 C 73.816406 152.980469 73.921875 152.996094 74.023438 153.007812 L 80.5625 153.445312 C 83.335938 153.625 84.992188 155.613281 85.605469 158.320312 L 90.394531 179.535156 L 94.960938 151.175781 Z M 46.808594 133.878906 C 47.242188 133.488281 47.765625 133.199219 48.34375 133.027344 C 49.816406 132.585938 50.941406 132.308594 51.9375 132.160156 L 52.335938 129.664062 L 52.488281 127.785156 L 52.402344 127.574219 L 52.109375 126.921875 C 51.917969 126.984375 51.71875 127.023438 51.507812 127.023438 L 50.976562 127.023438 C 50.976562 127.023438 50.972656 127.023438 50.972656 127.023438 C 50.203125 127.023438 49.542969 126.566406 49.238281 125.910156 L 47.46875 126.707031 C 45.382812 127.644531 44.453125 130.097656 45.390625 132.183594 C 45.710938 132.894531 46.210938 133.464844 46.808594 133.878906 Z M 46.808594 133.878906 " fill-opacity="1" fill-rule="nonzero"/></g></svg>