<svg xmlns="http://www.w3.org/2000/svg" xmlns:xlink="http://www.w3.org/1999/xlink" width="300" zoomAndPan="magnify" viewBox="0 0 224.87999 225" height="300" preserveAspectRatio="xMidYMid meet" version="1.0"><defs><clipPath id="cce3014e66"><path d="M 115 29.207031 L 195.535156 29.207031 L 195.535156 193.371094 L 115 193.371094 Z M 115 29.207031 " clip-rule="nonzero"/></clipPath><clipPath id="9f1701483e"><path d="M 144 189 L 164 189 L 164 193.371094 L 144 193.371094 Z M 144 189 " clip-rule="nonzero"/></clipPath><clipPath id="6d9161e78f"><path d="M 32.125 30 L 116 30 L 116 190 L 32.125 190 Z M 32.125 30 " clip-rule="nonzero"/></clipPath><clipPath id="32f8c65023"><path d="M 32.125 29.207031 L 186 29.207031 L 186 182 L 32.125 182 Z M 32.125 29.207031 " clip-rule="nonzero"/></clipPath><clipPath id="40ae016a43"><path d="M 34 56 L 195.535156 56 L 195.535156 188 L 34 188 Z M 34 56 " clip-rule="nonzero"/></clipPath><clipPath id="2b78e2e340"><path d="M 144 189 L 164 189 L 164 193.371094 L 144 193.371094 Z M 144 189 " clip-rule="nonzero"/></clipPath><clipPath id="2833339f3b"><path d="M 175 184 L 189 184 L 189 193.371094 L 175 193.371094 Z M 175 184 " clip-rule="nonzero"/></clipPath></defs><path fill="#ce6f09" d="M 138.449219 154.589844 C 138.441406 153.371094 138.335938 152.140625 138.152344 150.910156 L 145.972656 150.910156 C 147.074219 150.910156 147.96875 150.019531 147.96875 148.917969 L 147.96875 139.519531 C 147.371094 139.765625 146.71875 139.910156 146.03125 139.910156 C 143.230469 139.910156 140.960938 137.636719 140.960938 134.839844 C 140.960938 132.039062 143.230469 129.769531 146.03125 129.769531 C 146.71875 129.769531 147.371094 129.910156 147.96875 130.160156 L 147.96875 121.222656 C 147.96875 120.121094 147.074219 119.226562 145.972656 119.226562 L 136.394531 119.226562 C 136.773438 118.515625 136.992188 117.703125 136.992188 116.839844 C 136.992188 114.039062 134.722656 111.769531 131.917969 111.769531 C 129.117188 111.769531 126.84375 114.039062 126.84375 116.839844 C 126.84375 117.703125 127.0625 118.515625 127.445312 119.226562 L 118.253906 119.226562 C 117.152344 119.226562 116.257812 120.121094 116.257812 121.222656 L 116.257812 133.34375 C 115.371094 133.175781 114.472656 133.054688 113.5625 133 L 112.003906 128.558594 C 110.992188 128.566406 109.972656 128.636719 108.957031 128.765625 L 108.957031 114.613281 C 108.957031 113.511719 108.0625 112.621094 106.960938 112.621094 L 97.378906 112.621094 C 97.761719 111.90625 97.976562 111.09375 97.976562 110.230469 C 97.976562 107.429688 95.707031 105.160156 92.902344 105.160156 C 90.101562 105.160156 87.828125 107.429688 87.828125 110.230469 C 87.828125 111.09375 88.046875 111.90625 88.429688 112.621094 L 79.238281 112.621094 C 78.136719 112.621094 77.242188 113.511719 77.242188 114.613281 L 77.242188 142.308594 C 77.242188 143.410156 78.136719 144.304688 79.238281 144.304688 L 88.148438 144.304688 C 87.921875 144.828125 87.703125 145.355469 87.511719 145.890625 L 91.179688 148.835938 C 90.753906 150.324219 90.484375 151.859375 90.390625 153.421875 L 85.945312 154.984375 C 85.957031 156.453125 86.097656 157.933594 86.367188 159.417969 L 91.011719 160.128906 C 91.199219 160.878906 91.429688 161.621094 91.703125 162.359375 C 91.976562 163.097656 92.285156 163.808594 92.628906 164.503906 L 89.566406 168.0625 C 90.328125 169.359375 91.183594 170.578125 92.136719 171.703125 L 96.527344 169.996094 C 97.617188 171.125 98.816406 172.117188 100.113281 172.976562 L 99.242188 177.589844 C 100.539062 178.324219 101.894531 178.945312 103.292969 179.453125 L 106.234375 175.789062 C 107.730469 176.214844 109.269531 176.480469 110.832031 176.574219 L 112.394531 181.015625 C 113.867188 181.007812 115.347656 180.863281 116.832031 180.597656 L 117.546875 175.957031 C 118.296875 175.765625 119.035156 175.539062 119.773438 175.265625 C 120.515625 174.992188 121.230469 174.683594 121.921875 174.339844 L 125.484375 177.398438 C 126.785156 176.636719 128.003906 175.78125 129.128906 174.832031 L 127.421875 170.445312 C 128.550781 169.355469 129.542969 168.15625 130.398438 166.863281 L 135.019531 167.730469 C 135.753906 166.4375 136.378906 165.082031 136.882812 163.683594 L 133.21875 160.742188 C 133.640625 159.25 133.910156 157.714844 134.003906 156.148438 Z M 116.113281 165.375 C 110.265625 167.539062 103.761719 164.550781 101.601562 158.703125 C 99.4375 152.855469 102.425781 146.359375 108.277344 144.199219 C 110.960938 143.207031 113.78125 143.300781 116.257812 144.253906 L 116.257812 148.917969 C 116.257812 150.019531 117.152344 150.910156 118.253906 150.910156 L 122.808594 150.910156 C 124.945312 156.746094 121.957031 163.21875 116.113281 165.375 Z M 116.113281 165.375 " fill-opacity="1" fill-rule="nonzero"/><g clip-path="url(#cce3014e66)"><path fill="#ce6f09" d="M 195.484375 128.386719 C 195.484375 128.382812 195.484375 128.378906 195.484375 128.375 C 195.472656 128.089844 195.40625 127.335938 195.3125 126.390625 L 195.308594 126.390625 C 195.0625 123.90625 194.640625 120.117188 194.640625 120.113281 L 192.941406 104.902344 L 193.597656 104.773438 C 192.859375 97.503906 192.636719 88.910156 192.507812 87.207031 C 192.332031 85.203125 192.164062 83.195312 191.914062 81.195312 C 191.679688 79.308594 190.472656 77.785156 188.863281 77.042969 C 188.867188 77.03125 188.867188 77.019531 188.867188 77.019531 C 185.136719 75.410156 181.492188 74.347656 177.878906 73.828125 L 177.941406 74.625 L 177.421875 67.761719 L 177.4375 67.957031 C 178.460938 67.777344 182.496094 66.832031 182.039062 63.167969 C 182.039062 63.167969 185.214844 59.527344 182.0625 56.6875 C 182.097656 53.394531 180.320312 51.796875 177.007812 51.636719 C 177.007812 51.636719 170.992188 51.125 168.546875 50.945312 C 168.777344 50.269531 168.957031 49.574219 169.082031 48.863281 L 172.082031 48.175781 C 172.183594 47.21875 172.199219 46.242188 172.132812 45.261719 L 169.167969 44.460938 C 169.097656 43.960938 169.003906 43.464844 168.878906 42.964844 C 168.753906 42.460938 168.605469 41.976562 168.433594 41.503906 L 170.683594 39.410156 C 170.28125 38.511719 169.8125 37.660156 169.277344 36.859375 L 166.300781 37.648438 C 165.671875 36.835938 164.960938 36.105469 164.1875 35.457031 L 165.085938 32.515625 C 164.296875 31.945312 163.460938 31.441406 162.589844 31.011719 L 160.40625 33.179688 C 159.472656 32.796875 158.492188 32.511719 157.480469 32.335938 L 156.789062 29.335938 C 155.832031 29.234375 154.855469 29.21875 153.875 29.285156 L 153.074219 32.25 C 152.570312 32.320312 152.074219 32.414062 151.570312 32.539062 C 151.070312 32.660156 150.585938 32.808594 150.109375 32.984375 L 148.019531 30.734375 C 147.117188 31.136719 146.261719 31.605469 145.464844 32.140625 L 146.253906 35.113281 C 145.441406 35.742188 144.710938 36.453125 144.054688 37.226562 L 141.117188 36.328125 C 140.546875 37.113281 140.042969 37.949219 139.613281 38.824219 L 141.78125 41 C 141.394531 41.9375 141.113281 42.917969 140.9375 43.925781 L 137.933594 44.617188 C 137.835938 45.574219 137.820312 46.546875 137.886719 47.53125 L 140.851562 48.328125 C 140.921875 48.832031 141.015625 49.328125 141.140625 49.832031 C 141.261719 50.328125 141.410156 50.8125 141.585938 51.289062 L 140.585938 52.21875 L 136.472656 52.21875 C 136.84375 52.917969 137.058594 53.71875 137.058594 54.566406 C 137.058594 57.335938 134.8125 59.578125 132.039062 59.578125 C 129.269531 59.578125 127.023438 57.335938 127.023438 54.566406 C 127.023438 53.71875 127.234375 52.917969 127.609375 52.21875 L 117.496094 52.21875 C 116.398438 52.21875 115.511719 53.105469 115.511719 54.199219 L 115.511719 63.335938 C 116.234375 63.050781 117.035156 62.921875 117.875 63.015625 C 120.3125 63.277344 122.230469 65.335938 122.316406 67.78125 C 122.414062 70.609375 120.148438 72.9375 117.339844 72.9375 C 116.691406 72.9375 116.078125 72.808594 115.511719 72.585938 L 115.511719 81.71875 C 115.511719 82.816406 116.398438 83.703125 117.496094 83.703125 L 121.113281 83.703125 C 121.082031 84.066406 121.339844 84.40625 121.914062 84.492188 C 122.109375 84.519531 122.347656 84.546875 122.621094 84.574219 C 122.417969 84.980469 122.570312 85.410156 123.164062 85.476562 C 123.421875 85.507812 123.808594 85.550781 124.265625 85.597656 C 124.378906 85.75 124.546875 85.882812 124.785156 85.953125 C 125.832031 86.269531 127.835938 86.710938 128.609375 86.878906 C 128.816406 86.925781 129.023438 86.953125 129.234375 86.972656 C 129.234375 86.972656 133.261719 87.308594 133.867188 87.339844 L 133.878906 87.339844 C 134.015625 87.347656 134.15625 87.347656 134.300781 87.351562 L 142.878906 102.859375 C 144.332031 105.253906 147.453125 106.011719 149.847656 104.554688 C 150.257812 104.304688 151.980469 102.546875 153.730469 100.703125 L 155.535156 103.230469 L 158.5 96.546875 L 158.574219 97.375 C 158.585938 97.476562 158.667969 97.550781 158.769531 97.550781 C 158.773438 97.550781 158.78125 97.550781 158.785156 97.550781 C 158.796875 97.550781 158.804688 97.546875 158.816406 97.542969 C 158.964844 99.589844 159.0625 101.300781 159.0625 102.355469 C 159.0625 106.296875 158.460938 113.246094 158.460938 116.132812 C 158.460938 116.628906 158.699219 117.070312 159.070312 117.359375 L 158.953125 120.527344 C 158.964844 120.527344 158.976562 120.519531 158.992188 120.519531 C 158.863281 120.519531 158.757812 120.625 158.757812 120.75 C 158.757812 120.878906 158.863281 120.980469 158.992188 120.980469 C 158.972656 120.980469 158.953125 120.976562 158.9375 120.972656 L 157.910156 148.835938 L 156.570312 180.257812 L 156.78125 180.257812 C 156.628906 182.167969 156.347656 183.453125 155.921875 184.527344 C 158.011719 187.285156 160.746094 187.070312 162.566406 186.347656 C 160.746094 187.070312 158.011719 187.285156 155.921875 184.527344 C 154.558594 186.230469 150.992188 188.394531 148.222656 189.738281 L 149.425781 191.613281 L 163.84375 191.613281 C 163.878906 190.132812 163.792969 187.96875 163.175781 186.078125 C 163.167969 184.292969 163.417969 181.902344 163.621094 180.257812 L 164.410156 180.257812 C 166.113281 174.601562 170.074219 160.652344 168.140625 150.632812 L 172.367188 122.023438 L 169.851562 121.863281 L 173.414062 122.089844 C 173.417969 122.089844 173.425781 122.089844 173.429688 122.089844 C 173.429688 122.089844 173.433594 122.089844 173.4375 122.089844 L 175.214844 180.257812 L 175.652344 180.257812 C 175.648438 180.378906 175.644531 180.496094 175.644531 180.625 C 175.644531 182.855469 175.511719 184.5625 175.402344 186.941406 C 175.394531 187.117188 175.386719 187.300781 175.378906 187.488281 C 175.375 187.554688 175.375 187.628906 175.371094 187.699219 C 175.367188 187.804688 175.363281 187.910156 175.359375 188.015625 C 175.355469 188.132812 175.351562 188.25 175.347656 188.367188 C 175.34375 188.4375 175.339844 188.503906 175.339844 188.574219 C 175.335938 188.714844 175.328125 188.859375 175.324219 189.003906 C 175.324219 189.046875 175.324219 189.089844 175.320312 189.132812 C 175.289062 190.167969 175.269531 191.332031 175.261719 192.691406 C 175.261719 193.074219 175.574219 193.390625 175.957031 193.390625 L 188.167969 193.390625 C 188.59375 193.390625 188.925781 193.011719 188.859375 192.589844 C 188.597656 191.011719 187.582031 189.902344 186.425781 188.84375 C 186.386719 188.808594 186.339844 188.769531 186.300781 188.734375 C 185.949219 188.417969 185.59375 188.105469 185.238281 187.789062 C 185.15625 187.714844 185.074219 187.640625 184.992188 187.5625 C 184.90625 187.484375 184.816406 187.402344 184.730469 187.320312 C 184.644531 187.238281 184.558594 187.15625 184.472656 187.070312 C 184.394531 186.992188 184.316406 186.914062 184.242188 186.835938 C 184.15625 186.746094 184.070312 186.652344 183.988281 186.558594 C 183.917969 186.480469 183.847656 186.40625 183.78125 186.324219 C 183.695312 186.222656 183.617188 186.117188 183.535156 186.011719 C 183.476562 185.9375 183.417969 185.859375 183.363281 185.78125 C 183.277344 185.660156 183.199219 185.535156 183.121094 185.40625 C 183.078125 185.335938 183.035156 185.269531 182.992188 185.199219 C 182.882812 185 182.78125 184.796875 182.691406 184.582031 C 182.691406 184.578125 182.6875 184.574219 182.6875 184.570312 C 182.652344 184.484375 182.621094 184.394531 182.585938 184.304688 C 182.09375 182.964844 182.015625 181.613281 182.0625 180.257812 L 183.035156 180.257812 C 183.691406 176.363281 184.925781 168.890625 185.515625 164.453125 C 186.34375 158.25 185.117188 149.136719 185.117188 149.136719 L 185.671875 120.980469 C 185.671875 120.980469 185.675781 120.980469 185.675781 120.980469 C 185.804688 120.980469 185.90625 120.878906 185.90625 120.75 C 185.90625 120.625 185.804688 120.523438 185.679688 120.519531 L 185.742188 117.433594 C 186.164062 117.152344 186.441406 116.679688 186.441406 116.140625 C 186.441406 114.835938 186.320312 112.6875 186.183594 110.363281 C 187.316406 114.402344 188.636719 119.109375 189.113281 120.800781 L 189.105469 120.804688 C 189.003906 120.835938 188.949219 120.941406 188.980469 121.042969 C 188.992188 121.089844 189.019531 121.121094 189.054688 121.148438 C 189.023438 121.203125 188.980469 121.257812 188.953125 121.3125 C 188.203125 122.695312 188.058594 123.628906 188.273438 125.617188 C 188.203125 125.65625 188.167969 125.734375 188.183594 125.816406 C 188.148438 125.808594 188.113281 125.792969 188.074219 125.785156 C 187.558594 125.722656 187.109375 126.136719 187.128906 126.65625 L 187.238281 129.371094 C 187.25 129.621094 187.371094 129.855469 187.574219 130.007812 L 189.476562 131.445312 C 189.582031 131.628906 189.707031 131.792969 189.871094 131.921875 C 189.996094 132.019531 190.148438 132.070312 190.300781 132.070312 C 190.304688 132.070312 190.308594 132.066406 190.3125 132.066406 C 190.609375 132.269531 191.003906 132.269531 191.292969 132.050781 L 195.152344 129.136719 C 195.375 128.972656 195.5 128.707031 195.488281 128.429688 Z M 175.933594 187.050781 C 175.972656 187.050781 176.011719 187.054688 176.050781 187.050781 C 176.011719 187.054688 175.972656 187.050781 175.933594 187.050781 Z M 177.230469 186.53125 C 177.316406 186.453125 177.40625 186.371094 177.5 186.273438 C 177.613281 186.148438 177.730469 186.03125 177.847656 185.917969 C 177.730469 186.03125 177.613281 186.148438 177.5 186.273438 C 177.410156 186.371094 177.320312 186.453125 177.230469 186.53125 Z M 176.15625 187.042969 C 176.199219 187.039062 176.246094 187.03125 176.289062 187.023438 C 176.246094 187.03125 176.199219 187.039062 176.15625 187.042969 Z M 176.386719 187 C 176.464844 186.980469 176.542969 186.957031 176.621094 186.921875 C 176.542969 186.957031 176.464844 186.980469 176.386719 187 Z M 176.675781 186.894531 C 176.742188 186.863281 176.808594 186.828125 176.875 186.789062 C 176.808594 186.828125 176.742188 186.863281 176.675781 186.894531 Z M 176.960938 186.734375 C 177.023438 186.691406 177.085938 186.644531 177.148438 186.597656 C 177.085938 186.644531 177.023438 186.691406 176.960938 186.734375 Z M 181.292969 184.125 C 181.078125 184.136719 180.859375 184.167969 180.644531 184.21875 C 180.519531 184.246094 180.394531 184.285156 180.273438 184.328125 C 180.824219 184.140625 181.382812 184.078125 181.941406 184.152344 C 181.726562 184.125 181.507812 184.117188 181.292969 184.125 Z M 177.953125 185.816406 C 178.039062 185.738281 178.121094 185.660156 178.203125 185.589844 C 178.121094 185.660156 178.039062 185.738281 177.953125 185.816406 Z M 178.328125 185.484375 C 178.410156 185.410156 178.492188 185.34375 178.578125 185.277344 C 178.492188 185.34375 178.410156 185.410156 178.328125 185.484375 Z M 178.6875 185.191406 C 178.925781 185.011719 179.167969 184.851562 179.410156 184.714844 C 179.167969 184.851562 178.925781 185.011719 178.6875 185.191406 Z M 179.519531 184.65625 C 179.605469 184.609375 179.691406 184.566406 179.777344 184.527344 C 179.691406 184.566406 179.605469 184.609375 179.519531 184.65625 Z M 179.902344 184.46875 C 179.988281 184.433594 180.078125 184.398438 180.164062 184.367188 C 180.078125 184.398438 179.988281 184.433594 179.902344 184.46875 Z M 182.261719 184.210938 C 182.167969 184.191406 182.070312 184.171875 181.972656 184.160156 C 182.070312 184.171875 182.167969 184.191406 182.261719 184.210938 Z M 182.644531 118.046875 C 182.515625 118.066406 182.386719 118.082031 182.257812 118.097656 C 182.578125 118.058594 182.894531 118.015625 183.210938 117.972656 C 183.023438 118 182.835938 118.023438 182.644531 118.050781 C 182.644531 118.050781 182.644531 118.046875 182.644531 118.046875 Z M 183.707031 117.90625 C 184.1875 117.835938 184.664062 117.761719 185.136719 117.679688 C 184.664062 117.761719 184.1875 117.835938 183.707031 117.90625 Z M 181.648438 118.171875 C 181.363281 118.203125 181.078125 118.234375 180.792969 118.265625 C 181.078125 118.234375 181.363281 118.203125 181.648438 118.171875 Z M 180.109375 118.332031 C 179.847656 118.355469 179.582031 118.378906 179.320312 118.402344 C 179.582031 118.378906 179.847656 118.355469 180.109375 118.332031 Z M 178.582031 118.457031 C 178.332031 118.476562 178.085938 118.492188 177.835938 118.507812 C 178.085938 118.492188 178.332031 118.476562 178.582031 118.457031 Z M 177.046875 118.554688 C 176.820312 118.570312 176.59375 118.578125 176.367188 118.589844 C 176.59375 118.578125 176.820312 118.570312 177.046875 118.554688 Z M 153.230469 39.230469 C 157.191406 38.25 161.199219 40.664062 162.179688 44.621094 C 163.164062 48.578125 160.746094 52.582031 156.785156 53.5625 C 152.824219 54.542969 148.816406 52.128906 147.835938 48.171875 C 146.855469 44.214844 149.273438 40.210938 153.230469 39.230469 Z M 157.949219 76.589844 C 157.945312 76.59375 157.941406 76.597656 157.933594 76.597656 C 156.671875 77.035156 155.585938 77.960938 154.984375 79.273438 L 147.636719 92.167969 L 152.433594 98.886719 L 147.984375 92.660156 L 147.636719 93.011719 L 140.457031 83.703125 L 145.039062 83.703125 C 146.132812 83.703125 147.023438 82.816406 147.023438 81.71875 L 147.023438 61.566406 C 147.15625 61.640625 147.292969 61.710938 147.429688 61.777344 L 149.605469 59.613281 C 150.546875 59.996094 151.527344 60.28125 152.539062 60.457031 L 153.230469 63.457031 C 154.1875 63.554688 155.160156 63.570312 156.144531 63.503906 L 156.945312 60.542969 C 157.445312 60.472656 157.945312 60.378906 158.445312 60.253906 C 158.945312 60.128906 159.429688 59.980469 159.90625 59.808594 L 162 62.054688 C 162.898438 61.65625 163.753906 61.1875 164.554688 60.652344 L 163.761719 57.675781 C 164.574219 57.050781 165.308594 56.34375 165.957031 55.5625 L 166.105469 55.609375 C 166.144531 55.753906 166.199219 55.878906 166.261719 55.996094 C 165.835938 56.835938 165.5625 57.769531 165.480469 58.765625 C 165.371094 60.0625 165.601562 61.308594 166.09375 62.421875 C 166.085938 62.625 166.085938 62.738281 166.085938 62.738281 L 166.15625 66.898438 C 166.1875 68.777344 167.121094 70.476562 168.554688 71.511719 L 168.535156 73.71875 C 165.035156 74.144531 161.523438 75.101562 157.949219 76.589844 Z M 167.117188 56.660156 C 167.058594 56.835938 167.003906 57.015625 166.953125 57.191406 C 167.003906 57.015625 167.058594 56.835938 167.117188 56.660156 Z M 166.90625 57.355469 C 166.871094 57.480469 166.839844 57.601562 166.808594 57.722656 C 166.839844 57.601562 166.871094 57.480469 166.90625 57.355469 Z M 166.761719 57.90625 C 166.730469 58.023438 166.703125 58.144531 166.675781 58.261719 C 166.703125 58.144531 166.730469 58.023438 166.761719 57.90625 Z M 166.636719 58.425781 C 166.605469 58.574219 166.574219 58.722656 166.542969 58.871094 C 166.574219 58.722656 166.605469 58.574219 166.636719 58.425781 Z M 166.53125 58.921875 C 166.5 59.085938 166.46875 59.25 166.441406 59.40625 C 166.46875 59.25 166.5 59.085938 166.53125 58.921875 Z M 166.417969 59.539062 C 166.398438 59.652344 166.378906 59.765625 166.363281 59.875 C 166.378906 59.765625 166.398438 59.652344 166.417969 59.539062 Z M 166.335938 60.027344 C 166.324219 60.132812 166.308594 60.230469 166.292969 60.332031 C 166.308594 60.230469 166.324219 60.132812 166.335938 60.027344 Z M 166.273438 60.46875 C 166.257812 60.582031 166.246094 60.695312 166.230469 60.808594 C 166.246094 60.695312 166.257812 60.582031 166.273438 60.46875 Z M 166.222656 60.871094 C 166.207031 61 166.195312 61.125 166.183594 61.246094 C 166.195312 61.125 166.207031 61 166.222656 60.871094 Z M 166.175781 61.34375 C 166.164062 61.425781 166.160156 61.507812 166.152344 61.582031 C 166.15625 61.507812 166.164062 61.425781 166.175781 61.34375 Z M 166.140625 61.703125 C 166.136719 61.765625 166.132812 61.828125 166.128906 61.882812 C 166.132812 61.828125 166.136719 61.765625 166.140625 61.703125 Z M 166.117188 61.996094 C 166.117188 62.050781 166.113281 62.097656 166.109375 62.148438 C 166.113281 62.097656 166.117188 62.050781 166.117188 61.996094 Z M 166.105469 62.242188 C 166.101562 62.273438 166.101562 62.292969 166.101562 62.320312 C 166.101562 62.292969 166.101562 62.273438 166.105469 62.242188 Z M 162.511719 118.054688 C 162.492188 118.054688 162.46875 118.050781 162.449219 118.046875 C 162.460938 118.050781 162.472656 118.050781 162.484375 118.050781 C 162.492188 118.054688 162.503906 118.054688 162.511719 118.054688 Z M 159.457031 117.578125 C 159.414062 117.558594 159.371094 117.539062 159.332031 117.519531 C 159.371094 117.539062 159.414062 117.558594 159.457031 117.578125 Z M 159.78125 117.667969 C 159.699219 117.65625 159.621094 117.632812 159.542969 117.609375 C 159.621094 117.632812 159.699219 117.65625 159.78125 117.667969 Z M 163.773438 118.199219 C 163.816406 118.203125 163.863281 118.210938 163.90625 118.214844 C 163.863281 118.210938 163.816406 118.203125 163.773438 118.199219 Z M 168.101562 118.550781 C 168.160156 118.550781 168.21875 118.554688 168.273438 118.558594 C 168.21875 118.554688 168.160156 118.550781 168.101562 118.550781 Z M 165.179688 118.339844 C 165.242188 118.34375 165.308594 118.351562 165.375 118.355469 C 165.308594 118.351562 165.242188 118.34375 165.179688 118.339844 Z M 166.628906 118.457031 C 166.699219 118.460938 166.769531 118.464844 166.839844 118.46875 C 166.769531 118.464844 166.699219 118.460938 166.628906 118.457031 Z M 173.589844 122.023438 C 173.59375 122.023438 173.59375 122.015625 173.597656 122.011719 C 173.59375 122.015625 173.59375 122.023438 173.589844 122.023438 Z M 173.636719 121.957031 C 173.648438 121.933594 173.65625 121.902344 173.660156 121.875 C 173.65625 121.902344 173.648438 121.933594 173.636719 121.957031 Z M 174.9375 118.640625 C 175.128906 118.636719 175.316406 118.628906 175.503906 118.625 C 175.316406 118.628906 175.128906 118.636719 174.9375 118.640625 Z M 173.734375 118.664062 C 173.808594 118.664062 173.882812 118.664062 173.957031 118.664062 C 173.882812 118.664062 173.808594 118.664062 173.734375 118.664062 Z M 182.269531 118.339844 C 182.238281 118.261719 182.207031 118.183594 182.175781 118.109375 C 182.207031 118.183594 182.238281 118.261719 182.269531 118.339844 Z M 182.949219 119.542969 C 182.949219 119.542969 182.945312 119.539062 182.945312 119.539062 C 182.945312 119.539062 182.945312 119.542969 182.949219 119.542969 Z M 182.496094 118.816406 C 182.492188 118.808594 182.488281 118.804688 182.484375 118.796875 C 182.488281 118.804688 182.492188 118.8125 182.496094 118.816406 Z M 185.449219 117.589844 C 185.457031 117.585938 185.464844 117.582031 185.472656 117.578125 C 185.464844 117.582031 185.457031 117.585938 185.449219 117.589844 Z M 186.070312 108.363281 C 186.085938 108.65625 186.101562 108.949219 186.117188 109.242188 C 186.101562 108.949219 186.085938 108.65625 186.070312 108.363281 Z M 185.960938 106.296875 C 185.976562 106.59375 185.992188 106.894531 186.007812 107.199219 C 185.992188 106.894531 185.976562 106.59375 185.960938 106.296875 Z M 186.019531 107.457031 C 186.035156 107.714844 186.046875 107.972656 186.0625 108.234375 C 186.046875 107.972656 186.035156 107.714844 186.019531 107.457031 Z M 186.144531 109.683594 C 186.148438 109.785156 186.15625 109.882812 186.160156 109.984375 C 186.15625 109.882812 186.148438 109.785156 186.144531 109.683594 Z M 186.144531 109.683594 " fill-opacity="1" fill-rule="nonzero"/></g><g clip-path="url(#9f1701483e)"><path fill="#ce6f09" d="M 144.871094 192.605469 C 144.8125 193.023438 145.140625 193.390625 145.558594 193.390625 L 163.09375 193.390625 C 163.460938 193.390625 163.761719 193.113281 163.789062 192.75 C 163.8125 192.453125 163.832031 192.0625 163.84375 191.613281 L 149.425781 191.613281 L 148.222656 189.738281 C 147.804688 189.941406 147.402344 190.128906 147.027344 190.289062 C 145.390625 191 144.976562 191.816406 144.871094 192.605469 Z M 144.871094 192.605469 " fill-opacity="1" fill-rule="nonzero"/></g><g clip-path="url(#6d9161e78f)"><path fill="#ce6f09" d="M 76.902344 100.785156 C 76.902344 101.871094 77.785156 102.757812 78.878906 102.757812 L 87.605469 102.757812 C 87.371094 102.171875 87.238281 101.539062 87.238281 100.871094 C 87.238281 98.070312 89.507812 95.800781 92.3125 95.800781 C 95.113281 95.800781 97.386719 98.070312 97.386719 100.871094 C 97.386719 101.539062 97.253906 102.171875 97.019531 102.757812 L 106.285156 102.757812 C 107.375 102.757812 108.261719 101.875 108.261719 100.785156 L 108.261719 91.320312 C 108.964844 91.695312 109.769531 91.910156 110.625 91.910156 C 113.394531 91.910156 115.640625 89.667969 115.640625 86.898438 C 115.640625 84.128906 113.394531 81.882812 110.625 81.882812 C 109.769531 81.882812 108.964844 82.097656 108.261719 82.476562 L 108.261719 73.398438 C 108.261719 72.308594 107.375 71.425781 106.285156 71.425781 L 88.660156 71.425781 C 88.671875 71.375 88.683594 71.324219 88.695312 71.273438 L 89.425781 69.953125 C 89.640625 69.484375 89.390625 68.929688 88.894531 68.777344 C 88.550781 68.675781 88.207031 68.800781 87.992188 69.058594 C 87.960938 68.667969 87.6875 68.316406 87.273438 68.214844 C 86.808594 68.101562 86.359375 68.363281 86.175781 68.789062 C 86.195312 68.292969 85.824219 67.847656 85.304688 67.800781 C 84.765625 67.753906 84.320312 68.167969 84.265625 68.707031 C 84.261719 68.742188 84.257812 68.789062 84.257812 68.839844 L 83.636719 68.785156 C 83.480469 68.363281 83.039062 68.085938 82.570312 68.171875 C 82.28125 68.226562 82.0625 68.402344 81.929688 68.632812 L 81.816406 68.625 C 81.816406 68.625 81.640625 69.664062 81.417969 71.285156 C 81.238281 70.953125 81.015625 70.527344 80.804688 70.070312 C 80.542969 69.511719 80.246094 69.117188 79.957031 68.84375 C 80.191406 68.433594 80.414062 68.015625 80.625 67.59375 L 78.789062 65.75 C 79.152344 63.894531 79.609375 62.253906 79.78125 59.742188 L 83.121094 58.972656 C 83.269531 57.550781 83.292969 56.105469 83.195312 54.644531 L 78.78125 53.453125 C 78.679688 52.707031 78.539062 51.96875 78.355469 51.226562 C 78.171875 50.480469 77.949219 49.757812 77.691406 49.050781 L 81.035156 45.941406 C 80.441406 44.605469 79.746094 43.335938 78.945312 42.148438 L 74.519531 43.320312 C 73.585938 42.113281 72.527344 41.027344 71.375 40.058594 L 72.714844 35.6875 C 71.542969 34.839844 70.296875 34.09375 69 33.453125 L 65.757812 36.675781 C 64.363281 36.105469 62.90625 35.679688 61.402344 35.417969 L 60.375 30.960938 C 58.949219 30.8125 57.5 30.789062 56.039062 30.886719 L 54.847656 35.292969 C 54.101562 35.398438 53.363281 35.535156 52.613281 35.722656 C 51.871094 35.90625 51.152344 36.128906 50.441406 36.382812 L 47.332031 33.042969 C 45.992188 33.636719 44.722656 34.332031 43.53125 35.128906 L 44.707031 39.554688 C 43.5 40.484375 42.410156 41.542969 41.4375 42.695312 L 37.066406 41.359375 C 36.21875 42.53125 35.46875 43.773438 34.828125 45.070312 L 38.054688 48.308594 C 37.480469 49.703125 37.058594 51.160156 36.796875 52.660156 L 32.335938 53.6875 C 32.183594 55.109375 32.160156 56.554688 32.261719 58.015625 L 36.671875 59.207031 C 36.773438 59.953125 36.914062 60.691406 37.097656 61.4375 C 37.285156 62.179688 37.503906 62.902344 37.761719 63.609375 L 34.417969 66.71875 C 35.011719 68.054688 35.707031 69.324219 36.507812 70.515625 L 40.933594 69.339844 C 41.867188 70.546875 42.921875 71.636719 44.078125 72.605469 L 42.738281 76.972656 C 43.507812 77.527344 44.308594 78.035156 45.128906 78.503906 C 41.609375 84.882812 40.183594 93.34375 46.121094 98.882812 C 46.300781 98.707031 46.46875 98.550781 46.621094 98.414062 C 46.792969 98.5625 46.996094 98.6875 47.222656 98.769531 C 47.296875 98.796875 47.375 98.824219 47.453125 98.851562 L 46.238281 98.996094 C 46.199219 98.960938 46.164062 98.917969 46.121094 98.882812 C 43.652344 101.261719 38.574219 107.023438 38.574219 114.160156 L 38.957031 134.378906 C 39 137.171875 38.535156 139.949219 37.574219 142.570312 C 33.554688 153.527344 34.3125 171.160156 34.3125 178.804688 L 34.988281 178.804688 C 34.992188 179.8125 34.984375 180.929688 34.957031 182.089844 C 34.957031 182.089844 34.957031 182.09375 34.957031 182.09375 C 34.957031 182.09375 34.957031 182.089844 34.957031 182.089844 C 34.671875 184.226562 34.300781 185.808594 34.253906 187.835938 L 34.210938 187.835938 C 34.105469 187.835938 34.019531 187.925781 34.019531 188.03125 C 34.019531 188.136719 34.105469 188.222656 34.210938 188.222656 L 34.25 188.222656 C 34.246094 188.667969 34.261719 189.132812 34.296875 189.632812 L 45.539062 189.632812 C 45.515625 189.007812 45.371094 188.488281 45.144531 188.039062 C 45.144531 188.039062 45.144531 188.035156 45.144531 188.03125 C 45.144531 187.960938 45.109375 187.902344 45.054688 187.871094 C 43.921875 185.878906 41.210938 185.246094 41.195312 182.1875 C 41.152344 181.941406 41.082031 181.746094 40.988281 181.585938 C 41.03125 181.660156 41.074219 181.746094 41.105469 181.84375 C 41.125 180.890625 41.199219 179.828125 41.292969 178.804688 L 42.0625 178.804688 L 50.492188 142.414062 L 51.503906 135.507812 C 51.507812 135.546875 51.507812 135.589844 51.511719 135.632812 L 51.015625 139.382812 C 51 139.511719 51.089844 139.625 51.214844 139.644531 C 51.226562 139.644531 51.238281 139.644531 51.246094 139.644531 C 51.359375 139.644531 51.460938 139.558594 51.476562 139.445312 L 54.71875 114.894531 L 51.628906 138.277344 C 51.609375 139.738281 51.441406 141.175781 51.128906 142.570312 C 48.65625 153.527344 51.046875 171.160156 52.125 178.804688 L 52.523438 178.804688 C 52.546875 180.171875 52.460938 181.503906 52.191406 182.6875 C 52.1875 182.691406 51.382812 184.792969 51.4375 187.835938 C 51.332031 187.839844 51.246094 187.925781 51.246094 188.03125 C 51.246094 188.136719 51.332031 188.222656 51.441406 188.222656 L 51.449219 188.222656 C 51.46875 188.675781 51.503906 189.148438 51.570312 189.632812 L 70.566406 189.628906 C 70.566406 189.628906 70.71875 188.964844 70.355469 188.199219 C 70.417969 188.167969 70.464844 188.105469 70.464844 188.03125 C 70.464844 187.921875 70.375 187.835938 70.269531 187.835938 L 70.144531 187.835938 C 69.828125 187.382812 69.304688 186.925781 68.429688 186.582031 C 66.09375 185.664062 63.101562 184.957031 59.714844 181.289062 C 56.835938 184.25 52.628906 182.84375 52.226562 182.699219 C 52.625 182.84375 56.816406 184.242188 59.691406 181.3125 C 59.636719 180.5625 59.625 179.707031 59.632812 178.804688 L 59.878906 178.804688 L 63.21875 142.414062 L 62.4375 110.792969 L 62.4375 100.15625 C 62.691406 100.066406 62.917969 99.925781 63.109375 99.742188 C 64.308594 100.355469 65.808594 100.242188 66.917969 99.332031 L 80.667969 88.074219 L 76.902344 91.15625 Z M 40.742188 181.300781 C 40.707031 181.273438 40.675781 181.246094 40.640625 181.222656 C 40.675781 181.246094 40.707031 181.273438 40.742188 181.300781 Z M 40.535156 181.167969 C 40.496094 181.148438 40.460938 181.128906 40.421875 181.117188 C 40.460938 181.128906 40.496094 181.148438 40.535156 181.167969 Z M 40.304688 181.082031 C 40.261719 181.074219 40.222656 181.0625 40.179688 181.054688 C 40.222656 181.0625 40.261719 181.074219 40.304688 181.082031 Z M 40.050781 181.042969 C 40.003906 181.039062 39.960938 181.035156 39.914062 181.035156 C 39.960938 181.035156 40.003906 181.039062 40.050781 181.042969 Z M 39.777344 181.039062 C 39.730469 181.042969 39.683594 181.046875 39.632812 181.054688 C 39.683594 181.046875 39.730469 181.042969 39.777344 181.039062 Z M 39.492188 181.074219 C 39.441406 181.082031 39.390625 181.089844 39.335938 181.101562 C 39.390625 181.089844 39.441406 181.082031 39.492188 181.074219 Z M 39.191406 181.136719 C 39.140625 181.148438 39.085938 181.164062 39.03125 181.179688 C 39.085938 181.164062 39.140625 181.148438 39.191406 181.136719 Z M 38.886719 181.226562 C 38.832031 181.246094 38.777344 181.265625 38.722656 181.285156 C 38.777344 181.265625 38.832031 181.246094 38.886719 181.226562 Z M 38.574219 181.339844 C 38.519531 181.359375 38.460938 181.382812 38.40625 181.40625 C 38.460938 181.382812 38.519531 181.359375 38.574219 181.339844 Z M 38.265625 181.46875 C 38.207031 181.496094 38.148438 181.523438 38.089844 181.550781 C 38.148438 181.523438 38.207031 181.496094 38.265625 181.46875 Z M 37.957031 181.613281 C 37.894531 181.644531 37.835938 181.671875 37.777344 181.703125 C 37.835938 181.671875 37.894531 181.644531 37.957031 181.613281 Z M 37.65625 181.765625 C 37.589844 181.804688 37.523438 181.839844 37.457031 181.875 C 37.523438 181.839844 37.589844 181.804688 37.65625 181.765625 Z M 37.367188 181.925781 C 37.269531 181.980469 37.179688 182.035156 37.089844 182.089844 C 37.179688 182.035156 37.269531 181.980469 37.367188 181.925781 Z M 40.828125 181.375 C 40.863281 181.410156 40.890625 181.453125 40.917969 181.492188 C 40.890625 181.453125 40.863281 181.410156 40.828125 181.375 Z M 78.863281 71.425781 C 78.667969 71.429688 78.488281 71.464844 78.3125 71.515625 C 78.308594 71.4375 78.308594 71.359375 78.304688 71.28125 L 78.386719 71.304688 C 78.519531 71.121094 78.648438 70.929688 78.777344 70.742188 C 78.804688 70.964844 78.832031 71.191406 78.863281 71.425781 Z M 65.242188 77.40625 C 65.214844 77.378906 65.1875 77.351562 65.164062 77.328125 C 65.191406 77.351562 65.214844 77.378906 65.242188 77.40625 Z M 51.738281 100.015625 C 51.703125 100.007812 51.671875 100.003906 51.636719 99.996094 C 51.671875 100.003906 51.703125 100.007812 51.738281 100.015625 Z M 50.816406 99.820312 C 50.796875 99.816406 50.773438 99.8125 50.753906 99.808594 C 50.773438 99.8125 50.796875 99.816406 50.816406 99.820312 Z M 49.921875 99.605469 C 49.914062 99.601562 49.902344 99.597656 49.894531 99.597656 C 49.902344 99.597656 49.914062 99.601562 49.921875 99.605469 Z M 52.683594 100.1875 C 52.636719 100.175781 52.585938 100.171875 52.539062 100.164062 C 52.589844 100.171875 52.636719 100.175781 52.683594 100.1875 Z M 56.660156 100.585938 C 56.539062 100.578125 56.421875 100.578125 56.304688 100.574219 C 56.421875 100.578125 56.539062 100.582031 56.660156 100.585938 Z M 55.648438 100.53125 C 55.546875 100.523438 55.445312 100.519531 55.34375 100.511719 C 55.445312 100.519531 55.546875 100.523438 55.648438 100.53125 Z M 54.644531 100.445312 C 54.5625 100.4375 54.476562 100.429688 54.394531 100.421875 C 54.476562 100.429688 54.5625 100.4375 54.644531 100.445312 Z M 53.652344 100.332031 C 53.589844 100.320312 53.523438 100.3125 53.460938 100.304688 C 53.523438 100.3125 53.589844 100.320312 53.652344 100.332031 Z M 57.269531 100.601562 C 57.40625 100.605469 57.542969 100.601562 57.679688 100.601562 C 57.542969 100.601562 57.40625 100.605469 57.269531 100.601562 Z M 65.632812 77.832031 C 65.65625 77.855469 65.679688 77.882812 65.703125 77.90625 C 65.679688 77.882812 65.65625 77.855469 65.632812 77.832031 Z M 66.121094 78.4375 C 66.226562 78.503906 66.332031 78.570312 66.433594 78.644531 C 66.332031 78.570312 66.226562 78.503906 66.121094 78.4375 Z M 55.082031 45.675781 C 59.867188 44.492188 64.695312 46.636719 67.125 50.636719 C 67.019531 50.65625 66.917969 50.671875 66.8125 50.695312 C 60.617188 51.824219 57.027344 51.628906 55.789062 58.703125 C 55.078125 62.746094 55.273438 64.773438 54.425781 66.804688 C 50.898438 65.6875 48.015625 62.824219 47.0625 58.972656 C 45.601562 53.085938 49.195312 47.132812 55.082031 45.675781 Z M 46.019531 96.566406 C 45.992188 96.671875 45.980469 96.777344 45.976562 96.882812 C 45.980469 96.777344 45.992188 96.671875 46.019531 96.566406 Z M 45.972656 96.972656 C 45.972656 97.050781 45.976562 97.125 45.984375 97.203125 C 45.976562 97.125 45.972656 97.050781 45.972656 96.972656 Z M 46.066406 97.585938 C 46.035156 97.488281 46.011719 97.390625 45.996094 97.292969 C 46.011719 97.390625 46.035156 97.488281 46.066406 97.585938 Z M 46.078125 97.605469 C 46.105469 97.695312 46.144531 97.777344 46.1875 97.859375 C 46.144531 97.777344 46.105469 97.695312 46.078125 97.605469 Z M 46.414062 98.199219 C 46.476562 98.273438 46.546875 98.347656 46.621094 98.410156 C 46.542969 98.347656 46.476562 98.273438 46.414062 98.199219 Z M 46.238281 97.945312 C 46.273438 98.007812 46.3125 98.0625 46.351562 98.121094 C 46.3125 98.0625 46.273438 98.007812 46.238281 97.945312 Z M 49.066406 99.371094 C 49.0625 99.367188 49.058594 99.367188 49.054688 99.367188 C 49.058594 99.367188 49.0625 99.367188 49.066406 99.371094 Z M 59.222656 100.566406 C 59.394531 100.554688 59.570312 100.539062 59.746094 100.527344 C 59.570312 100.539062 59.394531 100.554688 59.222656 100.566406 Z M 58.246094 100.601562 C 58.398438 100.597656 58.554688 100.589844 58.710938 100.585938 C 58.554688 100.589844 58.398438 100.597656 58.246094 100.601562 Z M 61.171875 100.382812 C 61.496094 100.339844 61.820312 100.292969 62.140625 100.234375 C 61.820312 100.292969 61.496094 100.339844 61.171875 100.382812 Z M 60.199219 100.492188 C 60.40625 100.472656 60.613281 100.449219 60.816406 100.421875 C 60.613281 100.449219 60.40625 100.472656 60.199219 100.492188 Z M 66.199219 91.019531 C 66.296875 90.683594 66.394531 90.34375 66.488281 90.007812 L 67.070312 90.441406 Z M 76.859375 83.925781 C 76.871094 83.828125 76.886719 83.734375 76.902344 83.636719 L 76.902344 83.898438 L 77.925781 83.214844 Z M 76.859375 83.925781 " fill-opacity="1" fill-rule="nonzero"/></g><g clip-path="url(#32f8c65023)"><path fill="#ce6f09" d="M 50.441406 36.382812 L 47.332031 33.042969 C 45.992188 33.636719 44.722656 34.332031 43.53125 35.128906 L 44.707031 39.554688 C 43.5 40.484375 42.410156 41.542969 41.4375 42.695312 L 37.070312 41.359375 C 36.21875 42.527344 35.46875 43.769531 34.828125 45.066406 L 38.054688 48.308594 C 37.480469 49.703125 37.058594 51.15625 36.796875 52.660156 L 32.335938 53.6875 C 32.183594 55.109375 32.160156 56.554688 32.261719 58.015625 L 36.671875 59.207031 C 36.773438 59.953125 36.914062 60.691406 37.097656 61.4375 C 37.28125 62.179688 37.503906 62.902344 37.761719 63.609375 L 34.417969 66.71875 C 35.011719 68.054688 35.707031 69.324219 36.507812 70.515625 L 40.933594 69.339844 C 41.867188 70.546875 42.921875 71.636719 44.078125 72.605469 L 42.738281 76.972656 C 43.914062 77.820312 45.15625 78.570312 46.453125 79.210938 L 49.691406 75.988281 C 51.089844 76.558594 52.546875 76.984375 54.050781 77.242188 L 55.078125 81.703125 C 56.503906 81.851562 57.953125 81.875 59.414062 81.777344 L 60.605469 77.367188 C 61.351562 77.265625 62.089844 77.125 62.835938 76.941406 C 63.582031 76.757812 64.300781 76.535156 65.011719 76.277344 L 68.121094 79.621094 C 69.460938 79.027344 70.730469 78.328125 71.921875 77.535156 L 70.746094 73.109375 C 71.953125 72.179688 73.042969 71.125 74.011719 69.96875 L 78.386719 71.304688 C 79.234375 70.132812 79.984375 68.890625 80.625 67.59375 L 77.398438 64.359375 C 77.96875 62.960938 78.394531 61.503906 78.65625 60.003906 L 83.121094 58.976562 C 83.269531 57.554688 83.292969 56.105469 83.195312 54.644531 L 78.78125 53.457031 C 78.679688 52.710938 78.539062 51.96875 78.355469 51.226562 C 78.171875 50.480469 77.949219 49.761719 77.691406 49.054688 L 81.035156 45.945312 C 80.441406 44.605469 79.746094 43.335938 78.945312 42.148438 L 74.519531 43.324219 C 73.585938 42.117188 72.527344 41.027344 71.375 40.0625 L 72.714844 35.691406 C 71.542969 34.84375 70.296875 34.09375 69 33.453125 L 65.757812 36.675781 C 64.363281 36.109375 62.90625 35.679688 61.402344 35.421875 L 60.375 30.960938 C 58.949219 30.8125 57.5 30.789062 56.039062 30.886719 L 54.847656 35.292969 C 54.101562 35.398438 53.363281 35.535156 52.613281 35.722656 C 51.871094 35.90625 51.152344 36.125 50.441406 36.382812 Z M 55.082031 45.675781 C 60.972656 44.214844 66.933594 47.808594 68.394531 53.691406 C 69.851562 59.574219 66.257812 65.53125 60.367188 66.988281 C 54.480469 68.445312 48.519531 64.855469 47.0625 58.972656 C 45.601562 53.085938 49.195312 47.132812 55.082031 45.675781 Z M 150.109375 32.984375 L 148.019531 30.734375 C 147.117188 31.136719 146.265625 31.601562 145.464844 32.136719 L 146.253906 35.113281 C 145.441406 35.738281 144.710938 36.449219 144.058594 37.226562 L 141.117188 36.328125 C 140.546875 37.113281 140.042969 37.949219 139.613281 38.820312 L 141.78125 41 C 141.394531 41.9375 141.113281 42.917969 140.9375 43.925781 L 137.933594 44.617188 C 137.835938 45.574219 137.820312 46.546875 137.886719 47.527344 L 140.851562 48.328125 C 140.921875 48.832031 141.015625 49.328125 141.140625 49.828125 C 141.261719 50.328125 141.414062 50.8125 141.585938 51.289062 L 139.335938 53.378906 C 139.738281 54.277344 140.203125 55.132812 140.742188 55.929688 L 143.71875 55.140625 C 144.34375 55.953125 145.054688 56.6875 145.832031 57.339844 L 144.933594 60.273438 C 145.71875 60.84375 146.554688 61.347656 147.429688 61.777344 L 149.609375 59.613281 C 150.546875 59.996094 151.527344 60.28125 152.539062 60.457031 L 153.230469 63.453125 C 154.1875 63.554688 155.160156 63.570312 156.144531 63.503906 L 156.945312 60.539062 C 157.445312 60.472656 157.945312 60.378906 158.445312 60.253906 C 158.945312 60.128906 159.429688 59.980469 159.90625 59.808594 L 162 62.054688 C 162.898438 61.65625 163.753906 61.1875 164.554688 60.652344 L 163.765625 57.675781 C 164.578125 57.050781 165.308594 56.34375 165.960938 55.5625 L 168.902344 56.464844 C 169.472656 55.675781 169.976562 54.839844 170.40625 53.96875 L 168.238281 51.792969 C 168.621094 50.851562 168.90625 49.875 169.082031 48.863281 L 172.082031 48.171875 C 172.183594 47.214844 172.199219 46.242188 172.132812 45.261719 L 169.167969 44.460938 C 169.097656 43.960938 169.003906 43.460938 168.878906 42.960938 C 168.757812 42.460938 168.605469 41.976562 168.433594 41.5 L 170.683594 39.410156 C 170.28125 38.511719 169.8125 37.65625 169.277344 36.859375 L 166.300781 37.648438 C 165.675781 36.835938 164.960938 36.105469 164.1875 35.453125 L 165.085938 32.515625 C 164.296875 31.945312 163.460938 31.441406 162.589844 31.011719 L 160.410156 33.179688 C 159.472656 32.796875 158.492188 32.507812 157.480469 32.332031 L 156.789062 29.335938 C 155.832031 29.234375 154.855469 29.21875 153.875 29.285156 L 153.074219 32.25 C 152.570312 32.316406 152.074219 32.410156 151.570312 32.535156 C 151.070312 32.660156 150.585938 32.808594 150.109375 32.984375 Z M 153.230469 39.230469 C 157.191406 38.25 161.199219 40.664062 162.179688 44.621094 C 163.164062 48.578125 160.746094 52.582031 156.785156 53.5625 C 152.824219 54.542969 148.816406 52.128906 147.835938 48.171875 C 146.855469 44.214844 149.273438 40.210938 153.230469 39.230469 Z M 102.472656 135.234375 L 98.910156 132.171875 C 97.609375 132.933594 96.390625 133.789062 95.265625 134.742188 L 96.972656 139.128906 C 95.847656 140.214844 94.851562 141.421875 93.992188 142.710938 L 89.375 141.84375 C 88.640625 143.136719 88.015625 144.492188 87.511719 145.890625 L 91.179688 148.835938 C 90.75 150.324219 90.484375 151.859375 90.390625 153.421875 L 85.945312 154.984375 C 85.957031 156.453125 86.097656 157.933594 86.363281 159.417969 L 91.007812 160.128906 C 91.199219 160.878906 91.425781 161.621094 91.703125 162.359375 C 91.976562 163.097656 92.285156 163.808594 92.628906 164.503906 L 89.566406 168.0625 C 90.328125 169.359375 91.183594 170.578125 92.132812 171.703125 L 96.523438 169.996094 C 97.613281 171.125 98.816406 172.117188 100.113281 172.976562 L 99.242188 177.589844 C 100.539062 178.324219 101.894531 178.945312 103.292969 179.453125 L 106.234375 175.789062 C 107.730469 176.214844 109.265625 176.480469 110.832031 176.574219 L 112.394531 181.015625 C 113.867188 181.007812 115.347656 180.863281 116.832031 180.597656 L 117.542969 175.957031 C 118.296875 175.765625 119.035156 175.539062 119.773438 175.265625 C 120.515625 174.992188 121.230469 174.683594 121.921875 174.339844 L 125.484375 177.398438 C 126.785156 176.636719 128.003906 175.78125 129.128906 174.832031 L 127.421875 170.445312 C 128.550781 169.355469 129.542969 168.15625 130.398438 166.863281 L 135.019531 167.730469 C 135.753906 166.4375 136.378906 165.082031 136.882812 163.683594 L 133.21875 160.742188 C 133.640625 159.25 133.910156 157.714844 134.003906 156.148438 L 138.449219 154.589844 C 138.441406 153.121094 138.296875 151.636719 138.03125 150.15625 L 133.386719 149.445312 C 133.195312 148.695312 132.96875 147.953125 132.695312 147.214844 C 132.421875 146.472656 132.109375 145.761719 131.765625 145.070312 L 134.832031 141.511719 C 134.070312 140.210938 133.210938 138.996094 132.261719 137.871094 L 127.871094 139.578125 C 126.78125 138.449219 125.574219 137.457031 124.285156 136.601562 L 125.152344 131.984375 C 123.855469 131.25 122.5 130.628906 121.101562 130.121094 L 118.15625 133.785156 C 116.667969 133.363281 115.128906 133.09375 113.5625 133 L 112 128.558594 C 110.527344 128.566406 109.046875 128.710938 107.5625 128.976562 L 106.851562 133.617188 C 106.101562 133.808594 105.359375 134.035156 104.617188 134.308594 C 103.878906 134.582031 103.167969 134.890625 102.472656 135.234375 Z M 108.277344 144.199219 C 114.128906 142.035156 120.632812 145.023438 122.796875 150.871094 C 124.960938 156.71875 121.96875 163.214844 116.113281 165.375 C 110.265625 167.539062 103.761719 164.550781 101.601562 158.703125 C 99.4375 152.855469 102.425781 146.359375 108.277344 144.199219 Z M 51.246094 139.644531 C 51.238281 139.644531 51.226562 139.644531 51.214844 139.640625 C 51.089844 139.625 51 139.507812 51.019531 139.382812 L 54.273438 114.75 C 54.277344 114.699219 54.304688 114.652344 54.339844 114.613281 L 57.757812 111.371094 C 57.851562 111.28125 57.996094 111.285156 58.085938 111.378906 C 58.171875 111.472656 58.167969 111.617188 58.078125 111.703125 L 54.71875 114.890625 L 51.476562 139.445312 C 51.460938 139.558594 51.359375 139.644531 51.246094 139.644531 Z M 173.429688 122.089844 C 173.425781 122.089844 173.421875 122.089844 173.414062 122.089844 L 169.851562 121.867188 C 169.726562 121.855469 169.628906 121.746094 169.636719 121.621094 C 169.644531 121.492188 169.75 121.390625 169.882812 121.40625 L 173.445312 121.628906 C 173.570312 121.636719 173.667969 121.746094 173.660156 121.875 C 173.652344 121.996094 173.550781 122.089844 173.429688 122.089844 Z M 162.511719 118.054688 C 162.0625 119.25 161.058594 120.980469 158.992188 120.980469 C 158.863281 120.980469 158.761719 120.878906 158.761719 120.75 C 158.761719 120.625 158.863281 120.519531 158.992188 120.519531 C 160.734375 120.519531 161.621094 119.070312 162.042969 117.996094 C 162.199219 118.015625 162.355469 118.035156 162.511719 118.054688 Z M 185.90625 120.75 C 185.90625 120.878906 185.804688 120.980469 185.675781 120.980469 C 183.640625 120.980469 182.636719 119.304688 182.175781 118.109375 C 182.335938 118.089844 182.488281 118.070312 182.644531 118.046875 C 183.074219 119.117188 183.960938 120.519531 185.675781 120.519531 C 185.804688 120.519531 185.90625 120.625 185.90625 120.75 Z M 185.90625 120.75 " fill-opacity="1" fill-rule="nonzero"/></g><path fill="#1d3863" d="M 34.960938 182.089844 C 34.960938 182.089844 35.765625 182.890625 37.089844 182.089844 C 38.5625 181.195312 40.863281 180.199219 41.195312 182.1875 C 41.21875 185.992188 45.414062 186.042969 45.539062 189.628906 L 34.296875 189.628906 C 34.085938 186.636719 34.59375 184.8125 34.960938 182.089844 M 52.191406 182.6875 C 52.191406 182.6875 51.046875 185.640625 51.566406 189.632812 L 70.566406 189.628906 C 70.566406 189.628906 71.03125 187.605469 68.429688 186.582031 C 66.09375 185.664062 63.101562 184.957031 59.714844 181.289062 C 56.691406 184.402344 52.191406 182.6875 52.191406 182.6875 M 76.511719 86.015625 L 66.609375 78.785156 C 66.554688 78.742188 66.488281 78.6875 66.433594 78.644531 C 66.332031 78.570312 66.226562 78.503906 66.121094 78.4375 C 64.425781 76.101562 61.59375 74.589844 58.453125 74.589844 C 54.070312 74.589844 50.289062 77.660156 49.394531 81.945312 L 46.019531 96.566406 C 45.800781 97.5 46.324219 98.4375 47.222656 98.769531 C 51.363281 100.289062 56.945312 101.140625 62.140625 100.234375 C 62.808594 100.121094 63.359375 99.652344 63.585938 99.015625 C 64.207031 97.289062 65.492188 93.605469 66.484375 90.003906 L 69.1875 92.007812 Z M 146.03125 139.910156 C 143.230469 139.910156 140.957031 137.636719 140.957031 134.839844 C 140.957031 132.039062 143.230469 129.769531 146.03125 129.769531 C 146.71875 129.769531 147.371094 129.910156 147.96875 130.160156 L 147.96875 121.222656 C 147.96875 120.121094 147.074219 119.226562 145.972656 119.226562 L 136.394531 119.226562 C 136.773438 118.515625 136.992188 117.703125 136.992188 116.839844 C 136.992188 114.039062 134.722656 111.769531 131.917969 111.769531 C 129.117188 111.769531 126.84375 114.039062 126.84375 116.839844 C 126.84375 117.703125 127.0625 118.515625 127.445312 119.226562 L 118.253906 119.226562 C 117.152344 119.226562 116.257812 120.121094 116.257812 121.222656 L 116.257812 148.917969 C 116.257812 150.019531 117.152344 150.914062 118.253906 150.914062 L 145.972656 150.914062 C 147.078125 150.914062 147.96875 150.019531 147.96875 148.917969 L 147.96875 139.519531 C 147.371094 139.765625 146.71875 139.910156 146.03125 139.910156 Z M 193.597656 104.773438 C 192.859375 97.503906 192.636719 88.910156 192.507812 87.207031 C 192.332031 85.203125 192.164062 83.195312 191.914062 81.195312 C 191.679688 79.308594 190.472656 77.785156 188.863281 77.042969 C 188.867188 77.03125 188.867188 77.019531 188.867188 77.019531 C 185.136719 75.410156 181.492188 74.34375 177.878906 73.828125 L 177.941406 74.625 C 178.113281 77.125 176.316406 79.335938 173.652344 79.515625 C 170.992188 79.695312 168.691406 77.816406 168.519531 75.316406 L 168.535156 73.71875 C 165.035156 74.144531 161.523438 75.101562 157.949219 76.589844 C 157.945312 76.59375 157.941406 76.597656 157.933594 76.597656 C 156.671875 77.035156 155.585938 77.960938 154.984375 79.273438 L 147.636719 92.171875 L 155.535156 103.230469 L 158.703125 96.089844 C 158.917969 98.773438 159.0625 101.0625 159.0625 102.355469 C 159.0625 106.296875 158.460938 113.246094 158.460938 116.132812 C 158.460938 116.898438 159.023438 117.546875 159.78125 117.671875 C 167.9375 118.988281 177.191406 119.027344 185.132812 117.679688 C 185.886719 117.554688 186.441406 116.90625 186.441406 116.144531 C 186.441406 114.085938 186.132812 109.9375 185.960938 106.296875 Z M 75.871094 62.121094 C 75.015625 62.121094 74.269531 62.703125 73.890625 63.558594 C 73.546875 63.402344 73.191406 63.40625 72.847656 63.574219 C 72.46875 62.710938 71.722656 62.121094 70.863281 62.121094 C 69.621094 62.121094 68.613281 63.347656 68.613281 64.851562 C 68.613281 66.359375 69.621094 67.582031 70.863281 67.582031 C 72.101562 67.582031 73.113281 66.359375 73.113281 64.851562 C 73.113281 64.539062 73.066406 64.238281 72.984375 63.957031 C 73.246094 63.8125 73.496094 63.808594 73.753906 63.941406 C 73.667969 64.226562 73.621094 64.53125 73.621094 64.851562 C 73.621094 66.359375 74.632812 67.582031 75.871094 67.582031 C 77.113281 67.582031 78.121094 66.359375 78.121094 64.851562 C 78.121094 63.347656 77.113281 62.121094 75.871094 62.121094 Z M 70.859375 67.1875 C 69.839844 67.1875 69.007812 66.140625 69.007812 64.851562 C 69.007812 63.5625 69.839844 62.515625 70.859375 62.515625 C 71.882812 62.515625 72.714844 63.5625 72.714844 64.851562 C 72.714844 66.140625 71.882812 67.1875 70.859375 67.1875 Z M 75.871094 67.1875 C 74.847656 67.1875 74.015625 66.140625 74.015625 64.851562 C 74.015625 63.5625 74.847656 62.515625 75.871094 62.515625 C 76.894531 62.515625 77.726562 63.5625 77.726562 64.851562 C 77.726562 66.140625 76.894531 67.1875 75.871094 67.1875 Z M 75.871094 67.1875 " fill-opacity="1" fill-rule="evenodd"/><g clip-path="url(#40ae016a43)"><path fill="#f5c0a2" d="M 89.425781 69.957031 L 88.695312 71.273438 C 88.40625 72.621094 88.035156 74.136719 87.738281 75.503906 C 87.386719 77.097656 85.871094 77.84375 83.785156 77.535156 C 81.414062 77.179688 80.808594 76.085938 80.808594 76.082031 C 78.667969 73.640625 78.996094 71.277344 78.574219 69.496094 C 78.386719 68.714844 78.335938 68.523438 78.710938 68.375 C 79.125 68.210938 80.085938 68.546875 80.804688 70.070312 C 81.015625 70.527344 81.238281 70.953125 81.417969 71.285156 C 81.640625 69.664062 81.816406 68.625 81.816406 68.625 L 81.929688 68.632812 C 82.0625 68.402344 82.28125 68.226562 82.570312 68.175781 C 83.039062 68.089844 83.480469 68.363281 83.636719 68.785156 L 84.257812 68.839844 C 84.261719 68.789062 84.261719 68.746094 84.265625 68.710938 C 84.320312 68.171875 84.765625 67.757812 85.304688 67.804688 C 85.824219 67.847656 86.195312 68.292969 86.175781 68.792969 C 86.359375 68.363281 86.808594 68.101562 87.273438 68.21875 C 87.6875 68.316406 87.960938 68.667969 87.992188 69.058594 C 88.207031 68.800781 88.550781 68.675781 88.894531 68.78125 C 89.390625 68.929688 89.640625 69.484375 89.425781 69.957031 Z M 182.0625 180.257812 L 175.652344 180.257812 C 175.648438 180.378906 175.644531 180.5 175.644531 180.625 C 175.644531 182.855469 175.511719 184.5625 175.402344 186.941406 C 175.964844 187.160156 176.695312 187.132812 177.5 186.273438 C 179.117188 184.546875 180.855469 183.730469 182.585938 184.304688 C 182.09375 182.964844 182.015625 181.613281 182.0625 180.257812 Z M 34.960938 182.089844 C 34.960938 182.089844 35.765625 182.890625 37.089844 182.089844 C 38.46875 181.253906 40.574219 180.328125 41.105469 181.84375 C 41.125 180.890625 41.199219 179.828125 41.292969 178.804688 L 34.992188 178.804688 C 34.992188 179.8125 34.984375 180.929688 34.960938 182.089844 C 34.957031 182.089844 34.957031 182.089844 34.957031 182.09375 C 34.960938 182.089844 34.960938 182.089844 34.960938 182.089844 Z M 52.191406 182.6875 C 52.191406 182.6875 56.667969 184.394531 59.691406 181.3125 C 59.636719 180.5625 59.625 179.707031 59.632812 178.804688 L 52.523438 178.804688 C 52.546875 180.171875 52.460938 181.503906 52.191406 182.6875 Z M 90.960938 81.859375 C 89.714844 81.859375 89.753906 81.882812 85.851562 81.867188 C 85.851562 81.867188 85.777344 81.867188 85.652344 81.867188 C 85.515625 81.867188 85.371094 81.863281 85.222656 81.863281 L 85.226562 81.871094 C 84.054688 81.890625 81.433594 82 79.195312 82.566406 C 78.777344 82.667969 78.398438 82.867188 78.074219 83.128906 C 78.023438 83.15625 77.976562 83.183594 77.925781 83.214844 L 65.945312 91.1875 L 64.011719 87.871094 L 57.527344 92.039062 L 61.617188 98.308594 L 61.765625 98.539062 C 61.832031 98.644531 61.910156 98.746094 61.988281 98.84375 C 63.214844 100.339844 65.421875 100.558594 66.917969 99.332031 L 80.667969 88.074219 C 81.527344 88.183594 82.636719 88.277344 83.730469 88.257812 L 84.507812 88.875 C 84.667969 89 84.867188 89.054688 85.066406 89.03125 L 86.40625 88.875 C 86.65625 88.84375 86.867188 88.683594 86.960938 88.449219 L 88.054688 85.8125 C 88.25 85.347656 88.128906 84.808594 87.753906 84.46875 L 86.949219 83.742188 C 87.835938 83.640625 89.695312 83.417969 90.535156 83.261719 C 91.507812 83.078125 92.121094 81.859375 90.960938 81.859375 Z M 147.984375 92.660156 L 147.636719 93.011719 L 140.457031 83.703125 L 121.113281 83.703125 C 121.082031 84.066406 121.339844 84.40625 121.914062 84.492188 C 122.109375 84.519531 122.347656 84.546875 122.621094 84.574219 C 122.417969 84.980469 122.570312 85.410156 123.164062 85.476562 C 123.421875 85.507812 123.808594 85.550781 124.265625 85.597656 C 124.378906 85.75 124.546875 85.882812 124.785156 85.953125 C 125.832031 86.269531 127.835938 86.710938 128.609375 86.878906 C 128.816406 86.925781 129.023438 86.953125 129.234375 86.972656 C 129.234375 86.972656 133.261719 87.308594 133.867188 87.339844 L 133.878906 87.339844 C 134.015625 87.347656 134.15625 87.347656 134.300781 87.351562 L 142.878906 102.859375 C 144.332031 105.25 147.453125 106.011719 149.847656 104.554688 C 150.257812 104.304688 151.980469 102.546875 153.730469 100.703125 Z M 195.484375 128.386719 C 195.484375 128.382812 195.484375 128.378906 195.484375 128.375 C 195.472656 128.089844 195.40625 127.335938 195.3125 126.390625 L 195.308594 126.390625 C 195.0625 123.90625 194.640625 120.117188 194.640625 120.113281 L 192.941406 104.902344 L 185.960938 106.296875 C 186.023438 107.628906 186.105469 109.027344 186.183594 110.367188 C 187.355469 114.546875 188.734375 119.457031 189.160156 120.980469 C 189.082031 121.09375 189.011719 121.203125 188.953125 121.3125 C 188.171875 122.75 188.046875 123.699219 188.300781 125.851562 C 188.230469 125.820312 188.152344 125.796875 188.074219 125.789062 C 187.558594 125.726562 187.109375 126.140625 187.128906 126.660156 L 187.238281 129.371094 C 187.25 129.625 187.371094 129.859375 187.574219 130.011719 L 189.71875 131.628906 L 190.277344 132.050781 C 190.578125 132.277344 190.992188 132.277344 191.292969 132.050781 L 195.152344 129.140625 C 195.375 128.972656 195.5 128.710938 195.488281 128.433594 Z M 163.175781 186.074219 C 163.175781 186.074219 163.175781 186.074219 163.175781 186.078125 C 163.167969 184.292969 163.417969 181.902344 163.621094 180.257812 L 156.78125 180.257812 C 156.628906 182.167969 156.347656 183.453125 155.921875 184.527344 C 158.257812 187.609375 161.40625 186.976562 163.175781 186.074219 Z M 178.925781 62.65625 C 178.484375 62.621094 178.167969 63.578125 177.960938 64.53125 C 177.871094 64.480469 177.765625 64.445312 177.652344 64.445312 C 177.652344 64.445312 177.207031 60.960938 178.0625 57.417969 C 177.308594 58.164062 174.554688 58.40625 172.5625 57.917969 C 170.132812 57.316406 168.71875 56.46875 167.117188 56.660156 C 166.117188 59.753906 166.082031 62.738281 166.082031 62.738281 L 166.15625 66.898438 C 166.1875 68.78125 167.121094 70.480469 168.554688 71.511719 L 168.519531 75.316406 C 168.691406 77.816406 170.992188 79.695312 173.652344 79.515625 C 176.316406 79.335938 178.113281 77.125 177.941406 74.625 L 177.421875 67.761719 L 177.730469 66.828125 C 177.859375 67.148438 178.171875 67.347656 178.503906 67.261719 C 179.507812 67.007812 180.21875 66.191406 180.308594 65.171875 C 180.417969 63.855469 179.800781 62.730469 178.925781 62.65625 Z M 75.871094 67.582031 C 74.628906 67.582031 73.621094 66.355469 73.621094 64.851562 C 73.621094 64.53125 73.667969 64.222656 73.753906 63.9375 C 73.492188 63.808594 73.246094 63.8125 72.984375 63.953125 C 73.066406 64.234375 73.109375 64.535156 73.109375 64.851562 C 73.109375 66.355469 72.101562 67.582031 70.859375 67.582031 C 69.621094 67.582031 68.609375 66.355469 68.609375 64.851562 C 68.609375 63.34375 69.621094 62.121094 70.859375 62.121094 C 71.722656 62.121094 72.46875 62.710938 72.847656 63.574219 C 73.191406 63.40625 73.546875 63.398438 73.890625 63.558594 C 74.269531 62.703125 75.015625 62.121094 75.871094 62.121094 C 76.097656 62.121094 76.320312 62.164062 76.527344 62.238281 C 76.53125 61.5 76.402344 60.785156 76.15625 60.121094 C 75.933594 60.101562 75.710938 60.078125 75.484375 60.046875 C 73.382812 59.75 70.058594 58.648438 67.84375 57.3125 C 66.519531 59.507812 68.324219 63.917969 65.449219 64.855469 C 65.535156 63.832031 65.414062 62.621094 64.425781 62.378906 C 63.304688 62.105469 62.613281 62.925781 62.300781 64.171875 C 62.0625 65.136719 62.675781 66.167969 63.839844 66.796875 C 64.238281 67.011719 64.710938 66.945312 64.980469 66.6875 L 61.546875 75.097656 C 63.40625 75.726562 65.003906 76.902344 66.117188 78.4375 C 66.222656 78.5 66.328125 78.570312 66.429688 78.644531 C 66.488281 78.6875 66.554688 78.738281 66.609375 78.785156 L 67.527344 79.535156 L 69.929688 73.472656 C 70.519531 73.570312 71.132812 73.566406 71.75 73.4375 C 73.878906 72.996094 75.402344 71.246094 75.667969 69.210938 L 75.878906 67.582031 C 75.878906 67.582031 75.875 67.582031 75.871094 67.582031 Z M 75.871094 62.515625 C 74.847656 62.515625 74.015625 63.5625 74.015625 64.851562 C 74.015625 66.140625 74.847656 67.1875 75.871094 67.1875 C 75.890625 67.1875 75.910156 67.183594 75.933594 67.183594 L 76.476562 62.964844 C 76.492188 62.863281 76.5 62.761719 76.507812 62.660156 C 76.308594 62.570312 76.09375 62.515625 75.871094 62.515625 Z M 70.859375 62.515625 C 69.839844 62.515625 69.007812 63.5625 69.007812 64.851562 C 69.007812 66.140625 69.839844 67.1875 70.859375 67.1875 C 71.882812 67.1875 72.714844 66.140625 72.714844 64.851562 C 72.714844 63.5625 71.882812 62.515625 70.859375 62.515625 Z M 70.859375 62.515625 " fill-opacity="1" fill-rule="evenodd"/></g><path fill="#293237" d="M 44.953125 187.835938 L 34.210938 187.835938 C 34.105469 187.835938 34.019531 187.921875 34.019531 188.03125 C 34.019531 188.136719 34.105469 188.222656 34.210938 188.222656 L 44.953125 188.222656 C 45.058594 188.222656 45.144531 188.136719 45.144531 188.03125 C 45.144531 187.921875 45.058594 187.835938 44.953125 187.835938 Z M 44.953125 187.835938 " fill-opacity="1" fill-rule="nonzero"/><path fill="#293237" d="M 85.929688 86.449219 L 87.4375 87.179688 C 87.464844 87.191406 87.496094 87.199219 87.523438 87.199219 C 87.59375 87.199219 87.664062 87.160156 87.695312 87.089844 C 87.742188 86.992188 87.703125 86.878906 87.605469 86.832031 L 86.101562 86.101562 C 86.003906 86.054688 85.886719 86.09375 85.839844 86.1875 C 85.792969 86.285156 85.835938 86.402344 85.929688 86.449219 Z M 85.929688 86.449219 " fill-opacity="1" fill-rule="nonzero"/><path fill="#293237" d="M 70.269531 187.835938 L 51.441406 187.835938 C 51.332031 187.835938 51.246094 187.921875 51.246094 188.03125 C 51.246094 188.136719 51.332031 188.222656 51.441406 188.222656 L 70.269531 188.222656 C 70.375 188.222656 70.464844 188.136719 70.464844 188.03125 C 70.464844 187.921875 70.375 187.835938 70.269531 187.835938 Z M 70.269531 187.835938 " fill-opacity="1" fill-rule="nonzero"/><path fill="#293237" d="M 38.574219 114.160156 L 38.957031 134.378906 C 39 137.171875 38.535156 139.949219 37.574219 142.570312 C 33.554688 153.523438 34.3125 171.160156 34.3125 178.804688 L 42.0625 178.804688 L 50.492188 142.414062 L 51.503906 135.507812 C 51.507812 135.546875 51.507812 135.589844 51.511719 135.632812 L 54.273438 114.75 C 54.277344 114.699219 54.304688 114.652344 54.339844 114.613281 L 57.757812 111.371094 C 57.851562 111.28125 57.996094 111.285156 58.085938 111.378906 C 58.171875 111.46875 58.167969 111.617188 58.078125 111.703125 L 54.71875 114.890625 L 51.628906 138.273438 C 51.609375 139.734375 51.441406 141.175781 51.128906 142.570312 C 48.65625 153.523438 51.046875 171.15625 52.125 178.804688 L 59.878906 178.804688 L 63.21875 142.410156 L 62.4375 110.792969 L 62.4375 100.15625 C 62.34375 100.1875 62.246094 100.21875 62.140625 100.234375 C 57.042969 101.125 51.570312 100.316406 47.453125 98.847656 L 46.238281 98.996094 C 46.199219 98.957031 46.164062 98.917969 46.121094 98.878906 C 43.65625 101.261719 38.574219 107.023438 38.574219 114.160156 Z M 38.574219 114.160156 " fill-opacity="1" fill-rule="nonzero"/><path fill="#293237" d="M 64.371094 87.652344 L 60.09375 80.316406 C 60.039062 80.222656 59.917969 80.191406 59.828125 80.246094 C 59.734375 80.300781 59.703125 80.417969 59.757812 80.511719 L 64.035156 87.847656 C 64.070312 87.910156 64.136719 87.941406 64.203125 87.941406 C 64.234375 87.941406 64.269531 87.933594 64.300781 87.917969 C 64.390625 87.863281 64.425781 87.746094 64.371094 87.652344 Z M 64.371094 87.652344 " fill-opacity="1" fill-rule="nonzero"/><path fill="#293237" d="M 189.164062 121.183594 C 189.183594 121.183594 189.203125 121.179688 189.222656 121.175781 L 190 120.9375 C 190.101562 120.90625 190.160156 120.796875 190.128906 120.695312 C 190.097656 120.59375 189.992188 120.535156 189.886719 120.566406 L 189.105469 120.804688 C 189.003906 120.835938 188.949219 120.941406 188.980469 121.046875 C 189.003906 121.128906 189.082031 121.183594 189.164062 121.183594 Z M 189.164062 121.183594 " fill-opacity="1" fill-rule="nonzero"/><path fill="#293237" d="M 186.101562 106.214844 C 186.105469 106.214844 186.109375 106.214844 186.109375 106.214844 C 186.21875 106.207031 186.300781 106.117188 186.296875 106.011719 L 186 99.292969 L 188.027344 84.636719 C 188.042969 84.53125 187.96875 84.433594 187.863281 84.417969 C 187.757812 84.40625 187.660156 84.476562 187.644531 84.582031 L 185.613281 99.273438 L 185.910156 106.027344 C 185.914062 106.132812 186 106.214844 186.101562 106.214844 Z M 186.101562 106.214844 " fill-opacity="1" fill-rule="nonzero"/><path fill="#293237" d="M 167.117188 56.660156 C 168.71875 56.46875 170.132812 57.316406 172.5625 57.914062 C 174.554688 58.40625 177.3125 58.164062 178.0625 57.417969 C 177.207031 60.960938 177.652344 64.445312 177.652344 64.445312 L 177.652344 64.441406 C 177.765625 64.445312 177.871094 64.480469 177.960938 64.53125 C 178.167969 63.574219 178.484375 62.621094 178.925781 62.65625 C 179.800781 62.730469 180.417969 63.855469 180.308594 65.167969 C 180.222656 66.191406 179.507812 67.007812 178.503906 67.261719 C 178.171875 67.347656 177.859375 67.148438 177.730469 66.828125 L 177.421875 67.761719 L 177.4375 67.953125 C 178.460938 67.773438 182.496094 66.832031 182.039062 63.167969 C 182.039062 63.167969 185.214844 59.527344 182.0625 56.6875 C 182.097656 53.394531 180.320312 51.796875 177.007812 51.636719 C 177.007812 51.636719 169.523438 51 167.859375 50.898438 C 165.488281 50.75 165.390625 52.800781 166.09375 55.574219 C 166.132812 55.734375 166.195312 55.871094 166.261719 55.996094 C 165.839844 56.835938 165.5625 57.769531 165.480469 58.765625 C 165.371094 60.0625 165.601562 61.308594 166.097656 62.421875 C 166.132812 61.578125 166.308594 59.15625 167.117188 56.660156 Z M 167.117188 56.660156 " fill-opacity="1" fill-rule="nonzero"/><path fill="#293237" d="M 158.769531 97.550781 C 158.773438 97.550781 158.78125 97.550781 158.789062 97.550781 C 158.894531 97.542969 158.972656 97.445312 158.960938 97.339844 L 157.789062 84.757812 C 157.777344 84.648438 157.691406 84.574219 157.578125 84.582031 C 157.472656 84.589844 157.390625 84.6875 157.402344 84.792969 L 158.578125 97.375 C 158.585938 97.476562 158.671875 97.550781 158.769531 97.550781 Z M 158.769531 97.550781 " fill-opacity="1" fill-rule="nonzero"/><path fill="#293237" d="M 158.992188 120.519531 C 160.734375 120.519531 161.621094 119.070312 162.042969 117.996094 C 161.28125 117.894531 160.523438 117.789062 159.78125 117.667969 C 159.511719 117.625 159.273438 117.515625 159.070312 117.359375 L 158.953125 120.527344 C 158.964844 120.527344 158.976562 120.519531 158.992188 120.519531 Z M 158.992188 120.519531 " fill-opacity="1" fill-rule="nonzero"/><path fill="#293237" d="M 86.246094 85.179688 L 87.84375 86.144531 C 87.878906 86.164062 87.910156 86.171875 87.945312 86.171875 C 88.011719 86.171875 88.074219 86.140625 88.113281 86.082031 C 88.167969 85.988281 88.136719 85.871094 88.046875 85.8125 L 86.445312 84.847656 C 86.355469 84.792969 86.234375 84.820312 86.179688 84.914062 C 86.125 85.003906 86.152344 85.125 86.246094 85.179688 Z M 86.246094 85.179688 " fill-opacity="1" fill-rule="nonzero"/><g clip-path="url(#2b78e2e340)"><path fill="#293237" d="M 144.871094 192.605469 C 144.8125 193.023438 145.140625 193.390625 145.558594 193.390625 L 163.09375 193.390625 C 163.460938 193.390625 163.761719 193.113281 163.789062 192.75 C 163.8125 192.453125 163.832031 192.0625 163.84375 191.613281 L 149.425781 191.613281 L 148.222656 189.738281 C 147.804688 189.941406 147.402344 190.128906 147.027344 190.289062 C 145.390625 191 144.976562 191.816406 144.871094 192.605469 Z M 144.871094 192.605469 " fill-opacity="1" fill-rule="nonzero"/></g><path fill="#293237" d="M 155.921875 184.527344 C 154.558594 186.230469 150.992188 188.394531 148.222656 189.738281 L 149.425781 191.613281 L 163.84375 191.613281 C 163.878906 190.128906 163.792969 187.964844 163.175781 186.074219 C 161.40625 186.976562 158.257812 187.609375 155.921875 184.527344 Z M 155.921875 184.527344 " fill-opacity="1" fill-rule="nonzero"/><path fill="#293237" d="M 185.515625 164.453125 C 186.34375 158.25 185.117188 149.136719 185.117188 149.136719 L 185.671875 120.980469 C 183.640625 120.980469 182.632812 119.304688 182.175781 118.109375 C 182.335938 118.089844 182.488281 118.070312 182.644531 118.046875 C 183.074219 119.117188 183.960938 120.519531 185.675781 120.519531 C 185.675781 120.519531 185.679688 120.523438 185.679688 120.523438 L 185.742188 117.433594 C 185.5625 117.554688 185.359375 117.640625 185.136719 117.679688 C 178.046875 118.882812 169.914062 118.976562 162.449219 118.046875 C 162.46875 118.050781 162.488281 118.054688 162.511719 118.054688 C 162.0625 119.25 161.058594 120.980469 158.992188 120.980469 C 158.972656 120.980469 158.953125 120.976562 158.9375 120.972656 L 157.910156 148.835938 L 156.570312 180.257812 L 164.410156 180.257812 C 166.113281 174.601562 170.074219 160.652344 168.140625 150.632812 L 172.367188 122.023438 L 169.851562 121.863281 C 169.726562 121.855469 169.628906 121.746094 169.636719 121.621094 C 169.644531 121.492188 169.75 121.390625 169.882812 121.40625 L 173.445312 121.628906 C 173.570312 121.636719 173.667969 121.746094 173.660156 121.875 C 173.652344 121.992188 173.554688 122.085938 173.4375 122.089844 L 175.214844 180.257812 L 183.035156 180.257812 C 183.691406 176.363281 184.925781 168.890625 185.515625 164.453125 Z M 185.515625 164.453125 " fill-opacity="1" fill-rule="nonzero"/><path fill="#293237" d="M 192.449219 124.0625 C 192.347656 124.054688 192.25 124.132812 192.238281 124.238281 L 192.023438 126.742188 L 190.621094 131.441406 C 190.589844 131.550781 190.507812 131.632812 190.402344 131.667969 C 190.296875 131.699219 190.191406 131.683594 190.109375 131.617188 C 189.792969 131.371094 189.613281 130.96875 189.570312 130.414062 C 189.449219 128.878906 189.527344 127.054688 189.527344 127.035156 C 189.53125 126.957031 189.484375 126.882812 189.414062 126.851562 C 189.390625 126.839844 188.800781 126.566406 188.554688 125.726562 C 188.527344 125.625 188.421875 125.566406 188.316406 125.597656 C 188.214844 125.625 188.15625 125.734375 188.183594 125.835938 C 188.414062 126.621094 188.90625 127 189.136719 127.140625 C 189.121094 127.578125 189.082031 129.113281 189.183594 130.445312 C 189.234375 131.109375 189.464844 131.605469 189.871094 131.921875 C 189.996094 132.019531 190.148438 132.070312 190.300781 132.070312 C 190.375 132.070312 190.449219 132.058594 190.519531 132.035156 C 190.75 131.964844 190.925781 131.78125 190.996094 131.554688 L 192.402344 126.832031 C 192.402344 126.820312 192.40625 126.808594 192.40625 126.792969 L 192.625 124.269531 C 192.632812 124.164062 192.554688 124.070312 192.449219 124.0625 Z M 192.449219 124.0625 " fill-opacity="1" fill-rule="nonzero"/><g clip-path="url(#2833339f3b)"><path fill="#293237" d="M 186.425781 188.847656 C 186.386719 188.808594 186.34375 188.769531 186.300781 188.734375 C 185.953125 188.417969 185.59375 188.105469 185.238281 187.789062 C 185.15625 187.714844 185.074219 187.640625 184.992188 187.566406 C 184.90625 187.484375 184.820312 187.402344 184.734375 187.324219 C 184.644531 187.238281 184.558594 187.15625 184.472656 187.070312 C 184.398438 186.992188 184.320312 186.914062 184.242188 186.835938 C 184.15625 186.746094 184.074219 186.652344 183.988281 186.558594 C 183.917969 186.484375 183.851562 186.40625 183.78125 186.328125 C 183.699219 186.222656 183.617188 186.117188 183.539062 186.011719 C 183.480469 185.9375 183.417969 185.863281 183.363281 185.785156 C 183.277344 185.660156 183.199219 185.535156 183.125 185.40625 C 183.082031 185.339844 183.035156 185.273438 182.996094 185.199219 C 182.882812 185 182.78125 184.796875 182.691406 184.582031 C 182.691406 184.578125 182.691406 184.574219 182.6875 184.570312 C 182.652344 184.484375 182.621094 184.394531 182.589844 184.304688 C 182.15625 184.160156 181.726562 184.105469 181.296875 184.125 C 181.078125 184.136719 180.859375 184.167969 180.644531 184.21875 C 179.570312 184.46875 178.511719 185.195312 177.5 186.273438 C 176.886719 186.925781 176.316406 187.097656 175.832031 187.046875 C 175.679688 187.027344 175.539062 186.992188 175.40625 186.9375 C 175.398438 187.117188 175.390625 187.300781 175.382812 187.488281 C 175.378906 187.554688 175.375 187.628906 175.375 187.699219 C 175.367188 187.804688 175.363281 187.910156 175.359375 188.015625 C 175.355469 188.132812 175.351562 188.25 175.347656 188.367188 C 175.34375 188.4375 175.34375 188.503906 175.339844 188.574219 C 175.335938 188.714844 175.332031 188.859375 175.328125 189.003906 C 175.324219 189.046875 175.324219 189.089844 175.324219 189.132812 C 175.292969 190.167969 175.269531 191.332031 175.265625 192.691406 C 175.261719 193.074219 175.574219 193.390625 175.960938 193.390625 L 188.171875 193.390625 C 188.59375 193.390625 188.929688 193.011719 188.859375 192.589844 C 188.601562 191.011719 187.585938 189.902344 186.425781 188.847656 Z M 186.425781 188.847656 " fill-opacity="1" fill-rule="nonzero"/></g><path fill="#293237" d="M 52.789062 85.980469 C 52.699219 86.035156 52.671875 86.15625 52.730469 86.246094 L 56.808594 92.503906 C 56.847656 92.558594 56.910156 92.589844 56.972656 92.589844 C 57.007812 92.589844 57.042969 92.582031 57.078125 92.558594 C 57.167969 92.5 57.191406 92.382812 57.132812 92.292969 L 53.054688 86.035156 C 53 85.945312 52.878906 85.921875 52.789062 85.980469 Z M 52.789062 85.980469 " fill-opacity="1" fill-rule="nonzero"/><path fill="#293237" d="M 106.957031 112.621094 L 97.378906 112.621094 C 97.761719 111.90625 97.976562 111.09375 97.976562 110.230469 C 97.976562 107.429688 95.707031 105.160156 92.902344 105.160156 C 90.101562 105.160156 87.828125 107.429688 87.828125 110.230469 C 87.828125 111.09375 88.046875 111.90625 88.429688 112.621094 L 79.238281 112.621094 C 78.136719 112.621094 77.242188 113.511719 77.242188 114.613281 L 77.242188 142.308594 C 77.242188 143.414062 78.136719 144.304688 79.238281 144.304688 L 106.957031 144.304688 C 108.0625 144.304688 108.953125 143.414062 108.953125 142.308594 L 108.953125 114.613281 C 108.957031 113.511719 108.0625 112.621094 106.957031 112.621094 Z M 106.957031 112.621094 " fill-opacity="1" fill-rule="nonzero"/><path fill="#293237" d="M 78.488281 74.460938 C 77.738281 66.363281 79.460938 65.0625 79.796875 59.507812 C 80.132812 53.953125 74.398438 49.058594 66.8125 50.695312 C 60.617188 51.824219 57.027344 51.628906 55.789062 58.703125 C 54.550781 65.773438 56.070312 66.675781 49.964844 72.214844 C 43.886719 77.726562 37.835938 91.15625 46.121094 98.882812 C 46.300781 98.707031 46.46875 98.550781 46.621094 98.414062 C 46.105469 97.964844 45.855469 97.265625 46.019531 96.566406 L 49.394531 81.945312 C 50.289062 77.660156 54.070312 74.589844 58.453125 74.589844 C 59.550781 74.589844 60.613281 74.78125 61.597656 75.121094 C 61.582031 75.113281 61.566406 75.105469 61.546875 75.101562 L 64.980469 66.691406 C 64.710938 66.945312 64.238281 67.011719 63.839844 66.796875 C 62.675781 66.167969 62.0625 65.136719 62.300781 64.171875 C 62.613281 62.929688 63.304688 62.105469 64.425781 62.378906 C 65.414062 62.621094 65.535156 63.835938 65.449219 64.855469 C 68.324219 63.921875 66.519531 59.507812 67.84375 57.3125 C 70.058594 58.648438 73.382812 59.75 75.484375 60.046875 C 75.710938 60.082031 75.933594 60.101562 76.15625 60.121094 C 76.480469 61.003906 76.605469 61.96875 76.476562 62.964844 L 75.667969 69.214844 C 75.402344 71.25 73.878906 72.996094 71.75 73.441406 C 71.132812 73.570312 70.519531 73.570312 69.929688 73.476562 L 67.527344 79.539062 L 74.890625 85.257812 L 76.835938 84.070312 C 77.214844 81.082031 78.839844 78.242188 78.488281 74.460938 Z M 78.488281 74.460938 " fill-opacity="1" fill-rule="nonzero"/><path fill="#293237" d="M 147.023438 81.71875 L 147.023438 54.199219 C 147.023438 53.105469 146.136719 52.21875 145.039062 52.21875 L 136.472656 52.21875 C 136.84375 52.917969 137.058594 53.71875 137.058594 54.566406 C 137.058594 57.335938 134.8125 59.578125 132.039062 59.578125 C 129.269531 59.578125 127.023438 57.335938 127.023438 54.566406 C 127.023438 53.71875 127.234375 52.917969 127.609375 52.21875 L 117.496094 52.21875 C 116.398438 52.21875 115.511719 53.105469 115.511719 54.199219 L 115.511719 63.335938 C 116.234375 63.050781 117.035156 62.921875 117.875 63.011719 C 120.3125 63.277344 122.230469 65.335938 122.316406 67.78125 C 122.414062 70.609375 120.148438 72.933594 117.339844 72.933594 C 116.691406 72.933594 116.078125 72.808594 115.511719 72.585938 L 115.511719 81.71875 C 115.511719 82.816406 116.398438 83.703125 117.496094 83.703125 L 145.039062 83.703125 C 146.136719 83.703125 147.023438 82.816406 147.023438 81.71875 Z M 147.023438 81.71875 " fill-opacity="1" fill-rule="nonzero"/><path fill="#293237" d="M 137.152344 87.195312 L 134.667969 87.195312 C 134.5625 87.195312 134.476562 87.28125 134.476562 87.390625 C 134.476562 87.496094 134.5625 87.582031 134.667969 87.582031 L 137.152344 87.582031 C 137.257812 87.582031 137.34375 87.496094 137.34375 87.390625 C 137.34375 87.28125 137.257812 87.195312 137.152344 87.195312 Z M 137.152344 87.195312 " fill-opacity="1" fill-rule="nonzero"/><path fill="#ce6f09" d="M 110.625 81.886719 C 109.769531 81.886719 108.964844 82.101562 108.261719 82.476562 L 108.261719 73.398438 C 108.261719 72.308594 107.378906 71.425781 106.285156 71.425781 L 88.617188 71.425781 C 88.335938 71.917969 87.710938 71.867188 87.476562 71.425781 L 87.15625 71.425781 C 86.875 72.089844 86.050781 72.039062 85.8125 71.425781 L 85.652344 71.425781 C 85.441406 72.171875 84.480469 72.179688 84.238281 71.425781 L 83.761719 71.425781 C 83.578125 72.046875 82.707031 72.164062 82.359375 71.425781 L 78.878906 71.425781 C 77.785156 71.425781 76.902344 72.308594 76.902344 73.398438 L 76.902344 83.898438 L 77.929688 83.214844 C 77.976562 83.183594 78.023438 83.15625 78.074219 83.128906 C 78.398438 82.867188 78.777344 82.667969 79.195312 82.5625 C 81.433594 82 84.054688 81.890625 85.230469 81.871094 L 85.226562 81.863281 C 85.375 81.863281 85.515625 81.863281 85.652344 81.867188 C 85.777344 81.867188 85.851562 81.867188 85.851562 81.867188 C 89.753906 81.882812 89.714844 81.859375 90.960938 81.859375 C 92.125 81.859375 91.507812 83.074219 90.539062 83.261719 C 89.695312 83.417969 87.839844 83.640625 86.949219 83.742188 L 87.753906 84.46875 C 88.128906 84.804688 88.25 85.34375 88.058594 85.8125 L 86.964844 88.449219 C 86.871094 88.683594 86.65625 88.84375 86.40625 88.871094 L 85.070312 89.03125 C 84.867188 89.054688 84.667969 88.996094 84.511719 88.875 L 83.734375 88.257812 C 82.636719 88.277344 81.53125 88.183594 80.667969 88.074219 L 76.90625 91.15625 L 76.90625 100.78125 C 76.90625 101.871094 77.789062 102.753906 78.878906 102.753906 L 87.605469 102.753906 C 87.371094 102.171875 87.238281 101.539062 87.238281 100.871094 C 87.238281 98.070312 89.511719 95.800781 92.3125 95.800781 C 95.117188 95.800781 97.386719 98.070312 97.386719 100.871094 C 97.386719 101.539062 97.253906 102.171875 97.019531 102.753906 L 106.289062 102.753906 C 107.378906 102.753906 108.261719 101.871094 108.261719 100.78125 L 108.261719 91.316406 C 108.96875 91.695312 109.769531 91.910156 110.625 91.910156 C 113.398438 91.910156 115.644531 89.664062 115.644531 86.898438 C 115.640625 84.128906 113.394531 81.886719 110.625 81.886719 Z M 110.625 81.886719 " fill-opacity="1" fill-rule="nonzero"/><path fill="#1d3863" d="M 75.820312 62.066406 C 74.964844 62.066406 74.230469 62.671875 73.863281 63.558594 C 73.457031 63.316406 73.058594 63.441406 72.8125 63.605469 C 72.445312 62.722656 71.707031 62.117188 70.855469 62.117188 C 69.640625 62.117188 68.652344 63.351562 68.652344 64.875 C 68.652344 66.398438 69.640625 67.632812 70.855469 67.632812 C 72.074219 67.632812 73.058594 66.398438 73.058594 64.875 C 73.058594 64.566406 73.015625 64.269531 72.941406 63.992188 C 72.996094 63.941406 73.34375 63.65625 73.730469 63.945312 C 73.65625 64.21875 73.617188 64.515625 73.617188 64.820312 C 73.617188 66.34375 74.601562 67.578125 75.820312 67.578125 C 77.035156 67.578125 78.023438 66.34375 78.023438 64.820312 C 78.023438 63.300781 77.035156 62.066406 75.820312 62.066406 Z M 70.855469 67.246094 C 69.855469 67.246094 69.039062 66.183594 69.039062 64.875 C 69.039062 63.570312 69.855469 62.503906 70.855469 62.503906 C 71.859375 62.503906 72.671875 63.570312 72.671875 64.875 C 72.671875 66.183594 71.859375 67.246094 70.855469 67.246094 Z M 75.820312 67.191406 C 74.816406 67.191406 74.003906 66.128906 74.003906 64.820312 C 74.003906 63.515625 74.816406 62.453125 75.820312 62.453125 C 76.820312 62.453125 77.636719 63.515625 77.636719 64.820312 C 77.636719 66.128906 76.820312 67.191406 75.820312 67.191406 Z M 75.820312 67.191406 " fill-opacity="1" fill-rule="nonzero"/></svg>