<svg xmlns="http://www.w3.org/2000/svg" xmlns:xlink="http://www.w3.org/1999/xlink" width="300" zoomAndPan="magnify" viewBox="0 0 224.87999 225" height="300" preserveAspectRatio="xMidYMid meet" version="1.0"><defs><clipPath id="2d4422eda6"><path d="M 22.488281 29.253906 L 202.390625 29.253906 L 202.390625 195.664062 L 22.488281 195.664062 Z M 22.488281 29.253906 " clip-rule="nonzero"/></clipPath><clipPath id="6b379e4e45"><path d="M 154 192 L 173 192 L 173 195.664062 L 154 195.664062 Z M 154 192 " clip-rule="nonzero"/></clipPath><clipPath id="ebf04fead6"><path d="M 22.488281 29.253906 L 184 29.253906 L 184 190 L 22.488281 190 Z M 22.488281 29.253906 " clip-rule="nonzero"/></clipPath><clipPath id="9e46c685ba"><path d="M 23 29.253906 L 194 29.253906 L 194 190 L 23 190 Z M 23 29.253906 " clip-rule="nonzero"/></clipPath><clipPath id="68a943ef14"><path d="M 56 67 L 202.390625 67 L 202.390625 190 L 56 190 Z M 56 67 " clip-rule="nonzero"/></clipPath><clipPath id="a96fd0418a"><path d="M 183 186 L 197 186 L 197 195.664062 L 183 195.664062 Z M 183 186 " clip-rule="nonzero"/></clipPath><clipPath id="22dd23563e"><path d="M 154 192 L 173 192 L 173 195.664062 L 154 195.664062 Z M 154 192 " clip-rule="nonzero"/></clipPath></defs><path fill="#ce6f09" d="M 23.433594 70.582031 L 67.285156 70.582031 L 67.285156 45.925781 L 23.433594 45.925781 Z M 23.433594 70.582031 " fill-opacity="1" fill-rule="nonzero"/><path fill="#ce6f09" d="M 99.535156 108.898438 L 147.953125 108.898438 L 147.953125 130.511719 L 99.535156 130.511719 Z M 99.535156 108.898438 " fill-opacity="1" fill-rule="nonzero"/><g clip-path="url(#2d4422eda6)"><path fill="#ce6f09" d="M 202.199219 134.785156 C 202.199219 134.78125 202.203125 134.777344 202.203125 134.773438 C 202.191406 134.503906 202.125 133.796875 202.039062 132.914062 L 202.035156 132.914062 C 201.804688 130.589844 201.410156 127.039062 201.410156 127.039062 L 199.523438 110.171875 L 198.984375 101.03125 L 194.238281 101.226562 L 199.746094 101.003906 C 199.648438 99.410156 199.53125 97.816406 199.414062 96.222656 C 199.25 94.34375 199.09375 92.464844 198.859375 90.589844 C 198.636719 88.824219 197.507812 87.398438 196.003906 86.703125 C 196.003906 86.691406 196.007812 86.683594 196.007812 86.683594 C 192.417969 85.132812 188.914062 84.121094 185.4375 83.652344 L 184.1875 75.960938 C 184.628906 75.621094 184.933594 75.160156 185.027344 74.609375 C 185.109375 74.105469 185.066406 73.621094 184.925781 73.203125 C 185.8125 70.828125 185.398438 68.152344 183.851562 66.160156 L 183.851562 29.253906 L 75.972656 29.253906 L 75.972656 81.652344 L 64.382812 94.78125 L 60.613281 96.105469 L 58.804688 96.710938 L 58.042969 96.933594 C 57.988281 96.75 57.933594 96.574219 57.871094 96.402344 C 58.097656 95.714844 58.34375 94.964844 57.964844 94.167969 C 59.160156 93.914062 63.128906 92.441406 60.355469 84.285156 C 61.675781 81.355469 58.996094 79.738281 57.609375 79.464844 C 49.839844 77.945312 46.945312 84.582031 47.039062 88.308594 C 47.109375 91.070312 41.96875 90.242188 41.972656 94.675781 C 41.976562 96.429688 41.742188 97.367188 41.398438 97.914062 C 41.273438 98.046875 41.15625 98.1875 41.039062 98.332031 C 40.585938 98.714844 40.046875 98.777344 39.589844 99.121094 C 38.25 100.128906 37.910156 101.527344 38.308594 102.941406 C 33.023438 113.648438 30.75 128.8125 30.75 128.8125 C 31.269531 129.0625 31.78125 129.285156 32.289062 129.496094 C 31.855469 132.363281 31.414062 139.382812 36.605469 142.671875 L 22.675781 142.671875 L 22.675781 189.671875 L 66.0625 189.671875 L 66.0625 178.207031 L 66.128906 179.796875 L 67.554688 179.976562 L 67.445312 188.175781 L 85.558594 191.488281 C 85.558594 191.488281 85.386719 189.09375 81.886719 187.667969 C 80.429688 187.074219 78.132812 186.464844 76.511719 183.558594 C 76.128906 182.875 75.75 181.925781 75.410156 180.957031 L 77.570312 181.226562 L 77.542969 167.191406 L 83.496094 176.734375 L 85.070312 175.5625 L 88.609375 182.8125 L 103.578125 172.085938 C 103.578125 172.085938 101.734375 170.550781 98.277344 172.078125 C 96.835938 172.710938 94.558594 174.421875 92.015625 172.648438 C 91.566406 172.335938 91.148438 171.863281 90.765625 171.324219 L 92.28125 170.199219 L 77.636719 140.007812 L 77.871094 160.867188 L 77.628906 139.65625 C 77.628906 139.5625 77.574219 139.496094 77.492188 139.460938 L 77.46875 127.417969 C 77.46875 127.417969 78.488281 121.085938 70.027344 122.597656 C 67.265625 123.089844 62.679688 123.8125 57.640625 124.570312 L 58.015625 122.632812 C 58.03125 122.632812 58.050781 122.632812 58.066406 122.632812 C 58.183594 122.628906 58.277344 122.527344 58.273438 122.410156 C 58.273438 122.402344 58.269531 122.398438 58.269531 122.390625 L 72.953125 120.734375 L 73.023438 120.425781 L 77.183594 122.402344 C 77.617188 122.605469 78.167969 122.347656 78.417969 121.820312 L 79.011719 120.578125 C 79.929688 120.519531 80.722656 120.410156 80.8125 120.34375 C 81.398438 120.019531 81.449219 119.4375 81.449219 119.4375 C 82.726562 118.65625 82.234375 117.929688 82.230469 117.835938 C 83.511719 116.953125 82.941406 115.976562 82.941406 115.976562 C 82.949219 115.96875 82.960938 115.964844 82.972656 115.957031 C 83.78125 115.464844 83.589844 114.222656 82.675781 113.964844 C 82.671875 113.964844 82.453125 113.945312 82.171875 113.917969 L 85.78125 106.320312 C 86.03125 105.796875 85.886719 105.203125 85.453125 105 L 76.097656 100.554688 C 75.664062 100.351562 75.109375 100.609375 74.859375 101.136719 L 68.710938 114.082031 L 59.398438 113.84375 C 59.402344 113.726562 59.308594 113.628906 59.191406 113.621094 C 59.214844 112.921875 59.28125 110.550781 59.222656 107.6875 L 61.464844 106.671875 L 62.40625 106.246094 L 68.0625 103.40625 C 68.65625 103.109375 69.175781 102.6875 69.589844 102.167969 L 75.96875 94.644531 L 75.96875 98.929688 L 144.164062 98.929688 C 144.320312 99.132812 144.554688 99.273438 144.824219 99.308594 L 144.882812 99.304688 C 144.882812 99.308594 144.882812 99.316406 144.882812 99.320312 C 144.488281 99.445312 144.226562 99.835938 144.277344 100.261719 C 144.332031 100.699219 144.703125 101.03125 145.144531 101.035156 C 145.265625 101.035156 145.496094 101.011719 145.761719 100.984375 C 147.375 101.425781 148.554688 101.644531 149.503906 101.667969 C 151.335938 105.695312 155.683594 115.214844 155.683594 115.214844 C 156.582031 117.234375 159.164062 117.988281 160.902344 116.625 C 160.980469 116.566406 161.050781 116.503906 161.125 116.4375 C 161.441406 116.144531 161.691406 115.804688 161.878906 115.441406 L 167.542969 103.355469 C 167.570312 103.410156 167.621094 103.445312 167.679688 103.460938 C 167.933594 106.4375 168.105469 109.027344 168.105469 110.40625 C 168.105469 114.101562 167.546875 120.605469 167.546875 123.308594 C 167.546875 123.773438 167.769531 124.1875 168.113281 124.457031 L 168.003906 127.425781 C 168.015625 127.421875 168.027344 127.417969 168.039062 127.417969 C 167.921875 127.417969 167.824219 127.515625 167.824219 127.636719 C 167.824219 127.753906 167.921875 127.851562 168.039062 127.851562 C 168.203125 127.851562 168.359375 127.835938 168.511719 127.8125 C 168.359375 127.835938 168.203125 127.851562 168.039062 127.851562 C 168.023438 127.851562 168.007812 127.84375 167.988281 127.839844 L 167.03125 153.933594 L 165.964844 178.949219 C 165.867188 179.011719 165.792969 179.109375 165.789062 179.234375 L 165.621094 182.988281 C 165.617188 183.113281 165.683594 183.222656 165.777344 183.289062 L 165.777344 183.359375 L 165.96875 183.359375 C 165.828125 185.148438 165.566406 186.355469 165.164062 187.359375 C 165.167969 187.359375 165.167969 187.359375 165.167969 187.359375 C 163.890625 188.953125 160.550781 190.980469 157.960938 192.238281 L 159.085938 193.992188 L 172.582031 193.992188 C 172.613281 192.605469 172.535156 190.578125 171.957031 188.808594 C 171.949219 187.136719 172.183594 184.898438 172.375 183.359375 L 173.109375 183.359375 C 173.113281 183.347656 173.117188 183.332031 173.121094 183.320312 C 173.210938 183.28125 173.28125 183.207031 173.308594 183.109375 C 173.625 182.089844 174.003906 180.808594 174.398438 179.34375 C 174.425781 179.234375 174.398438 179.128906 174.339844 179.042969 C 176.035156 172.683594 178.03125 163.011719 176.605469 155.617188 L 180.5625 128.828125 L 178.207031 128.679688 L 181.539062 128.890625 C 181.546875 128.890625 181.550781 128.890625 181.554688 128.890625 C 181.554688 128.890625 181.558594 128.886719 181.5625 128.886719 L 183.089844 178.957031 C 182.988281 179.023438 182.921875 179.132812 182.925781 179.261719 L 183.042969 183.015625 C 183.046875 183.140625 183.121094 183.246094 183.222656 183.308594 L 183.226562 183.359375 L 183.636719 183.359375 C 183.632812 183.476562 183.625 183.585938 183.625 183.703125 C 183.625 185.792969 183.503906 187.390625 183.402344 189.617188 C 183.394531 189.785156 183.386719 189.957031 183.378906 190.128906 C 183.378906 190.195312 183.375 190.261719 183.371094 190.328125 C 183.367188 190.425781 183.363281 190.527344 183.359375 190.628906 C 183.355469 190.734375 183.351562 190.84375 183.347656 190.957031 C 183.347656 191.019531 183.34375 191.082031 183.34375 191.148438 C 183.339844 191.28125 183.332031 191.414062 183.328125 191.554688 C 183.328125 191.59375 183.328125 191.632812 183.324219 191.671875 C 183.296875 192.640625 183.277344 193.730469 183.273438 195.003906 C 183.269531 195.363281 183.5625 195.660156 183.921875 195.660156 L 195.351562 195.660156 C 195.75 195.660156 196.0625 195.304688 195.996094 194.910156 C 195.753906 193.429688 194.804688 192.390625 193.71875 191.402344 C 193.71875 191.402344 193.71875 191.402344 193.722656 191.402344 C 193.683594 191.367188 193.640625 191.332031 193.601562 191.296875 C 193.273438 191.003906 192.941406 190.710938 192.609375 190.414062 C 192.53125 190.34375 192.453125 190.273438 192.378906 190.203125 C 192.296875 190.128906 192.214844 190.050781 192.132812 189.976562 C 192.050781 189.898438 191.972656 189.820312 191.890625 189.738281 C 191.820312 189.667969 191.746094 189.59375 191.675781 189.519531 C 191.59375 189.4375 191.515625 189.347656 191.4375 189.261719 C 191.371094 189.1875 191.308594 189.117188 191.246094 189.042969 C 191.164062 188.949219 191.089844 188.847656 191.015625 188.75 C 190.960938 188.675781 190.902344 188.609375 190.851562 188.535156 C 190.769531 188.421875 190.699219 188.300781 190.625 188.183594 C 190.585938 188.117188 190.542969 188.054688 190.507812 187.988281 C 190.402344 187.800781 190.308594 187.609375 190.222656 187.40625 C 190.222656 187.40625 190.21875 187.402344 190.21875 187.398438 C 190.183594 187.316406 190.15625 187.234375 190.125 187.148438 C 189.664062 185.894531 189.589844 184.632812 189.636719 183.359375 L 190.546875 183.359375 C 190.546875 183.347656 190.550781 183.332031 190.550781 183.316406 C 190.648438 183.265625 190.71875 183.179688 190.742188 183.066406 C 190.925781 182.015625 191.148438 180.71875 191.390625 179.3125 C 191.410156 179.183594 191.359375 179.070312 191.269531 178.992188 C 191.839844 175.492188 192.492188 171.375 192.867188 168.558594 C 193.640625 162.753906 192.496094 154.21875 192.496094 154.21875 L 193.011719 127.851562 C 192.851562 127.851562 192.699219 127.835938 192.550781 127.816406 C 192.699219 127.835938 192.855469 127.851562 193.015625 127.851562 C 193.136719 127.851562 193.234375 127.753906 193.234375 127.636719 C 193.234375 127.515625 193.136719 127.421875 193.015625 127.421875 C 193.019531 127.421875 193.019531 127.421875 193.023438 127.421875 L 193.078125 124.53125 C 193.476562 124.265625 193.734375 123.824219 193.734375 123.320312 C 193.734375 122.097656 193.617188 120.085938 193.492188 117.910156 C 194.542969 121.664062 195.769531 126.039062 196.222656 127.652344 L 196.21875 127.652344 C 196.105469 127.6875 196.039062 127.808594 196.074219 127.921875 C 196.089844 127.972656 196.125 128.007812 196.164062 128.035156 C 196.136719 128.078125 196.105469 128.121094 196.082031 128.164062 C 195.386719 129.449219 195.246094 130.320312 195.445312 132.15625 C 195.363281 132.199219 195.320312 132.28125 195.328125 132.371094 C 195.304688 132.367188 195.285156 132.355469 195.261719 132.351562 C 194.777344 132.292969 194.359375 132.679688 194.378906 133.167969 L 194.480469 135.707031 C 194.488281 135.945312 194.605469 136.164062 194.792969 136.304688 L 196.496094 137.59375 C 196.625 137.84375 196.78125 138.015625 196.921875 138.125 C 197.042969 138.222656 197.195312 138.269531 197.347656 138.269531 C 197.367188 138.269531 197.386719 138.261719 197.40625 138.261719 C 197.679688 138.417969 198.019531 138.410156 198.273438 138.21875 L 201.886719 135.492188 C 202.09375 135.335938 202.210938 135.085938 202.203125 134.828125 Z M 51.167969 128.25 C 51.167969 128.25 51.160156 128.253906 51.144531 128.265625 C 51.160156 128.253906 51.167969 128.25 51.167969 128.25 Z M 57.550781 93.566406 C 57.535156 93.546875 57.519531 93.527344 57.5 93.507812 C 57.519531 93.527344 57.535156 93.546875 57.550781 93.566406 Z M 57.832031 93.933594 C 57.839844 93.945312 57.847656 93.957031 57.855469 93.96875 C 57.847656 93.957031 57.839844 93.945312 57.832031 93.933594 Z M 57.679688 93.71875 C 57.695312 93.734375 57.707031 93.753906 57.71875 93.769531 C 57.707031 93.753906 57.695312 93.734375 57.679688 93.71875 Z M 59.742188 85.339844 C 59.753906 85.320312 59.761719 85.304688 59.773438 85.285156 C 59.761719 85.304688 59.753906 85.320312 59.742188 85.339844 Z M 60.1875 84.625 Z M 59.984375 84.976562 C 59.988281 84.96875 59.992188 84.960938 59.996094 84.953125 C 59.992188 84.960938 59.988281 84.96875 59.984375 84.976562 Z M 55.210938 142.671875 L 55.207031 142.671875 C 55.527344 142.574219 55.851562 142.46875 56.179688 142.363281 C 55.851562 142.46875 55.527344 142.574219 55.210938 142.671875 Z M 56.335938 142.3125 C 56.992188 142.09375 57.667969 141.859375 58.339844 141.605469 C 57.667969 141.859375 56.992188 142.09375 56.335938 142.3125 Z M 58.539062 141.53125 C 59.199219 141.277344 59.859375 141.007812 60.496094 140.722656 C 59.859375 141.007812 59.203125 141.277344 58.539062 141.53125 Z M 60.71875 140.625 C 61.347656 140.339844 61.949219 140.035156 62.519531 139.71875 C 61.949219 140.035156 61.34375 140.339844 60.71875 140.625 Z M 62.730469 139.601562 C 63.011719 139.441406 63.285156 139.277344 63.546875 139.109375 C 63.285156 139.277344 63.011719 139.441406 62.730469 139.601562 Z M 54.402344 142.464844 C 54.609375 142.402344 54.820312 142.339844 55.035156 142.273438 C 54.820312 142.339844 54.609375 142.40625 54.402344 142.464844 Z M 55.203125 142.222656 C 55.4375 142.148438 55.675781 142.074219 55.917969 141.996094 C 55.675781 142.074219 55.4375 142.148438 55.203125 142.222656 Z M 53.691406 142.671875 C 53.894531 142.613281 54.101562 142.554688 54.316406 142.492188 C 54.101562 142.554688 53.894531 142.613281 53.691406 142.671875 Z M 62.679688 139.132812 C 62.894531 139.007812 63.109375 138.878906 63.308594 138.746094 C 63.109375 138.878906 62.894531 139.007812 62.679688 139.132812 Z M 56.0625 141.949219 C 56.273438 141.878906 56.484375 141.808594 56.695312 141.738281 C 56.484375 141.808594 56.273438 141.878906 56.0625 141.949219 Z M 56.871094 141.679688 C 57.117188 141.59375 57.363281 141.507812 57.609375 141.417969 C 57.363281 141.507812 57.117188 141.59375 56.871094 141.679688 Z M 57.78125 141.355469 C 57.992188 141.277344 58.207031 141.199219 58.417969 141.117188 C 58.207031 141.199219 57.992188 141.277344 57.78125 141.355469 Z M 58.578125 141.054688 C 58.828125 140.960938 59.074219 140.859375 59.316406 140.761719 C 59.074219 140.859375 58.828125 140.960938 58.578125 141.054688 Z M 59.496094 140.6875 C 59.710938 140.597656 59.925781 140.503906 60.136719 140.410156 C 59.925781 140.503906 59.710938 140.597656 59.496094 140.6875 Z M 60.265625 140.355469 C 60.507812 140.25 60.742188 140.140625 60.976562 140.027344 C 60.742188 140.140625 60.507812 140.25 60.265625 140.355469 Z M 61.148438 139.945312 C 61.367188 139.839844 61.582031 139.730469 61.792969 139.621094 C 61.582031 139.730469 61.367188 139.839844 61.148438 139.945312 Z M 61.863281 139.585938 C 62.089844 139.46875 62.308594 139.347656 62.523438 139.222656 C 62.308594 139.347656 62.089844 139.46875 61.863281 139.585938 Z M 77.570312 120.875 L 76.972656 120.589844 L 77.570312 120.875 L 77.691406 120.621094 Z M 75.742188 102.019531 L 84.542969 106.195312 L 75.742188 102.019531 L 72.429688 108.988281 Z M 183.902344 189.71875 C 183.9375 189.71875 183.972656 189.722656 184.007812 189.71875 C 183.972656 189.722656 183.9375 189.71875 183.902344 189.71875 Z M 185.113281 189.230469 C 185.195312 189.160156 185.28125 189.082031 185.367188 188.988281 C 185.472656 188.875 185.582031 188.765625 185.691406 188.65625 C 185.582031 188.765625 185.472656 188.875 185.367188 188.988281 C 185.28125 189.082031 185.195312 189.160156 185.113281 189.230469 Z M 184.109375 189.710938 C 184.148438 189.707031 184.191406 189.699219 184.234375 189.691406 C 184.191406 189.699219 184.148438 189.707031 184.109375 189.710938 Z M 184.324219 189.671875 C 184.398438 189.652344 184.46875 189.628906 184.542969 189.597656 C 184.46875 189.628906 184.394531 189.652344 184.324219 189.671875 Z M 184.597656 189.570312 C 184.65625 189.542969 184.71875 189.511719 184.78125 189.472656 C 184.71875 189.511719 184.65625 189.542969 184.597656 189.570312 Z M 184.863281 189.421875 C 184.917969 189.382812 184.976562 189.339844 185.035156 189.292969 C 184.976562 189.339844 184.917969 189.382812 184.863281 189.421875 Z M 188.917969 186.980469 C 188.714844 186.992188 188.511719 187.019531 188.308594 187.066406 C 188.191406 187.09375 188.078125 187.128906 187.960938 187.167969 C 188.480469 186.996094 189 186.933594 189.523438 187.003906 C 189.320312 186.976562 189.117188 186.96875 188.917969 186.980469 Z M 185.792969 188.5625 C 185.871094 188.488281 185.949219 188.417969 186.027344 188.351562 C 185.945312 188.417969 185.871094 188.488281 185.792969 188.5625 Z M 186.140625 188.25 C 186.21875 188.183594 186.296875 188.121094 186.375 188.058594 C 186.296875 188.121094 186.21875 188.183594 186.140625 188.25 Z M 186.476562 187.976562 C 186.589844 187.894531 186.699219 187.8125 186.8125 187.738281 C 186.703125 187.8125 186.589844 187.894531 186.476562 187.976562 Z M 186.816406 187.738281 C 186.925781 187.664062 187.039062 187.597656 187.152344 187.53125 C 187.039062 187.597656 186.925781 187.664062 186.816406 187.738281 Z M 187.257812 187.476562 C 187.335938 187.433594 187.417969 187.394531 187.496094 187.355469 C 187.417969 187.394531 187.335938 187.433594 187.257812 187.476562 Z M 187.617188 187.300781 C 187.695312 187.265625 187.777344 187.234375 187.859375 187.207031 C 187.777344 187.234375 187.695312 187.265625 187.617188 187.300781 Z M 189.667969 187.03125 C 189.71875 187.042969 189.773438 187.050781 189.824219 187.0625 C 189.773438 187.050781 189.71875 187.042969 189.667969 187.03125 Z M 163.335938 98.929688 L 167.292969 101.054688 Z M 170.898438 125.050781 Z M 171.160156 125.527344 C 171.15625 125.535156 171.15625 125.542969 171.152344 125.550781 C 171.15625 125.542969 171.160156 125.535156 171.160156 125.527344 Z M 171.074219 125.714844 C 171.046875 125.765625 171.019531 125.816406 170.992188 125.867188 C 171.019531 125.816406 171.046875 125.765625 171.074219 125.714844 Z M 170.917969 126.003906 C 170.867188 126.09375 170.808594 126.1875 170.75 126.277344 C 170.808594 126.1875 170.867188 126.09375 170.917969 126.003906 Z M 169.925781 126.621094 C 169.914062 126.632812 169.90625 126.640625 169.894531 126.648438 C 169.90625 126.640625 169.914062 126.632812 169.925781 126.621094 Z M 169.65625 126.859375 C 169.640625 126.871094 169.621094 126.886719 169.601562 126.902344 C 169.621094 126.886719 169.640625 126.871094 169.65625 126.859375 Z M 169.3125 127.089844 C 169.292969 127.101562 169.273438 127.113281 169.253906 127.121094 C 169.273438 127.113281 169.292969 127.101562 169.3125 127.089844 Z M 168.953125 127.257812 C 168.9375 127.261719 168.921875 127.269531 168.902344 127.277344 C 168.921875 127.269531 168.9375 127.261719 168.953125 127.257812 Z M 170.898438 125.054688 C 170.882812 125.089844 170.867188 125.128906 170.851562 125.167969 C 170.867188 125.128906 170.882812 125.089844 170.898438 125.054688 Z M 170.785156 125.324219 C 170.769531 125.359375 170.753906 125.394531 170.734375 125.429688 C 170.753906 125.394531 170.769531 125.359375 170.785156 125.324219 Z M 170.609375 125.679688 C 170.59375 125.707031 170.578125 125.738281 170.5625 125.765625 C 170.578125 125.738281 170.59375 125.707031 170.609375 125.679688 Z M 170.421875 126 C 170.410156 126.015625 170.402344 126.03125 170.394531 126.042969 C 170.402344 126.03125 170.410156 126.015625 170.421875 126 Z M 170.203125 126.304688 C 170.183594 126.328125 170.167969 126.351562 170.148438 126.371094 C 170.167969 126.351562 170.183594 126.328125 170.203125 126.304688 Z M 170.140625 127.011719 C 170.050781 127.09375 169.960938 127.171875 169.863281 127.246094 C 169.960938 127.171875 170.050781 127.09375 170.140625 127.011719 Z M 170.683594 126.375 C 170.625 126.457031 170.566406 126.535156 170.503906 126.613281 C 170.566406 126.535156 170.625 126.457031 170.683594 126.375 Z M 170.457031 126.675781 C 170.378906 126.769531 170.292969 126.859375 170.207031 126.949219 C 170.292969 126.859375 170.378906 126.769531 170.457031 126.675781 Z M 173.589844 125.351562 C 173.609375 125.355469 173.628906 125.355469 173.648438 125.359375 C 173.628906 125.355469 173.609375 125.355469 173.589844 125.351562 Z M 178.355469 125.648438 C 178.292969 125.644531 178.230469 125.644531 178.167969 125.640625 C 178.230469 125.644531 178.292969 125.644531 178.355469 125.648438 Z M 183.074219 125.652344 C 182.96875 125.65625 182.867188 125.660156 182.765625 125.664062 C 182.867188 125.660156 182.96875 125.65625 183.074219 125.652344 Z M 190.613281 126.683594 C 190.691406 126.777344 190.773438 126.867188 190.859375 126.953125 C 190.773438 126.867188 190.691406 126.777344 190.613281 126.683594 Z M 191.179688 127.230469 C 191.089844 127.164062 191.007812 127.089844 190.925781 127.015625 C 191.003906 127.089844 191.089844 127.164062 191.179688 127.230469 Z M 190.550781 126.605469 C 190.492188 126.53125 190.433594 126.457031 190.382812 126.378906 C 190.433594 126.457031 190.492188 126.53125 190.550781 126.605469 Z M 190.320312 126.292969 C 190.261719 126.203125 190.203125 126.109375 190.152344 126.019531 C 190.203125 126.109375 190.261719 126.203125 190.320312 126.292969 Z M 190.078125 125.882812 C 190.050781 125.832031 190.019531 125.777344 189.996094 125.726562 C 190.019531 125.777344 190.046875 125.832031 190.078125 125.882812 Z M 189.859375 125.433594 C 189.847656 125.410156 189.835938 125.386719 189.828125 125.363281 C 189.835938 125.386719 189.847656 125.410156 189.859375 125.433594 Z M 190.183594 125.101562 Z M 190.292969 125.359375 C 190.304688 125.382812 190.316406 125.410156 190.328125 125.433594 C 190.316406 125.410156 190.304688 125.382812 190.292969 125.359375 Z M 190.464844 125.703125 C 190.472656 125.71875 190.484375 125.734375 190.492188 125.753906 C 190.484375 125.738281 190.472656 125.71875 190.464844 125.703125 Z M 190.640625 125.996094 C 190.652344 126.015625 190.664062 126.035156 190.675781 126.054688 C 190.664062 126.035156 190.652344 126.015625 190.640625 125.996094 Z M 190.867188 126.316406 C 190.882812 126.335938 190.898438 126.355469 190.917969 126.375 C 190.898438 126.355469 190.882812 126.335938 190.867188 126.316406 Z M 191.136719 126.621094 C 191.140625 126.625 191.144531 126.628906 191.148438 126.632812 C 191.144531 126.628906 191.140625 126.625 191.136719 126.621094 Z M 191.328125 124.945312 C 191.722656 124.886719 192.121094 124.824219 192.511719 124.757812 C 192.121094 124.824219 191.726562 124.886719 191.328125 124.945312 Z M 192.164062 127.277344 C 192.144531 127.269531 192.125 127.261719 192.105469 127.253906 C 192.125 127.261719 192.144531 127.269531 192.164062 127.277344 Z M 191.808594 127.121094 C 191.789062 127.113281 191.773438 127.105469 191.757812 127.09375 C 191.773438 127.105469 191.789062 127.113281 191.808594 127.121094 Z M 191.46875 126.90625 C 191.445312 126.890625 191.425781 126.875 191.40625 126.859375 C 191.425781 126.875 191.445312 126.890625 191.46875 126.90625 Z M 187.683594 125.378906 C 187.558594 125.390625 187.4375 125.402344 187.3125 125.410156 C 187.4375 125.402344 187.558594 125.390625 187.683594 125.378906 Z M 183.992188 72.0625 C 184.085938 72.105469 184.175781 72.160156 184.261719 72.226562 C 184.175781 72.160156 184.085938 72.105469 183.992188 72.0625 Z M 184.925781 73.199219 C 184.890625 73.097656 184.847656 73.003906 184.804688 72.910156 C 184.847656 73.003906 184.890625 73.097656 184.925781 73.199219 Z M 184.738281 72.789062 C 184.6875 72.699219 184.632812 72.609375 184.570312 72.53125 C 184.632812 72.609375 184.6875 72.699219 184.738281 72.789062 Z M 184.511719 72.46875 C 184.453125 72.398438 184.390625 72.335938 184.320312 72.28125 C 184.390625 72.335938 184.453125 72.398438 184.511719 72.46875 Z M 183.925781 72.03125 C 183.902344 72.023438 183.875 72.019531 183.851562 72.007812 L 183.851562 72 C 183.875 72.007812 183.898438 72.023438 183.925781 72.03125 Z M 158.28125 104.558594 L 154.605469 98.929688 L 160.636719 98.929688 Z M 168.453125 124.648438 C 168.433594 124.640625 168.414062 124.632812 168.394531 124.625 C 168.414062 124.632812 168.433594 124.640625 168.453125 124.648438 Z M 168.539062 127.371094 C 168.511719 127.375 168.484375 127.378906 168.453125 127.382812 C 168.484375 127.378906 168.511719 127.375 168.539062 127.371094 Z M 169.039062 127.6875 C 168.90625 127.734375 168.761719 127.769531 168.617188 127.792969 C 168.761719 127.769531 168.90625 127.734375 169.039062 127.6875 Z M 169.835938 127.265625 C 169.730469 127.34375 169.617188 127.414062 169.5 127.480469 C 169.617188 127.414062 169.730469 127.34375 169.835938 127.265625 Z M 169.421875 127.523438 C 169.304688 127.582031 169.183594 127.636719 169.054688 127.683594 C 169.183594 127.636719 169.304688 127.582031 169.421875 127.523438 Z M 166.144531 178.894531 C 166.109375 178.894531 166.074219 178.902344 166.039062 178.914062 C 166.074219 178.902344 166.109375 178.894531 166.144531 178.894531 Z M 165.867188 183.335938 C 165.898438 183.347656 165.933594 183.355469 165.972656 183.355469 C 165.933594 183.355469 165.898438 183.347656 165.867188 183.335938 Z M 174.21875 178.933594 C 174.222656 178.933594 174.222656 178.9375 174.222656 178.9375 C 174.222656 178.9375 174.222656 178.933594 174.21875 178.933594 Z M 181.707031 128.828125 C 181.707031 128.824219 181.710938 128.820312 181.710938 128.816406 C 181.710938 128.820312 181.707031 128.824219 181.707031 128.828125 Z M 181.75 128.765625 C 181.761719 128.738281 181.769531 128.714844 181.769531 128.683594 C 181.769531 128.714844 181.761719 128.738281 181.75 128.765625 Z M 183.28125 178.894531 C 183.242188 178.894531 183.207031 178.902344 183.171875 178.914062 C 183.207031 178.902344 183.242188 178.894531 183.28125 178.894531 Z M 190.390625 183.359375 L 183.402344 183.359375 C 183.363281 183.359375 183.328125 183.347656 183.296875 183.335938 C 183.328125 183.347656 183.363281 183.359375 183.402344 183.359375 L 190.390625 183.359375 C 190.425781 183.359375 190.457031 183.351562 190.488281 183.339844 C 190.457031 183.351562 190.425781 183.359375 190.390625 183.359375 Z M 191.039062 178.894531 C 191.089844 178.894531 191.132812 178.902344 191.171875 178.921875 C 191.132812 178.90625 191.089844 178.894531 191.039062 178.894531 Z M 191.234375 127.273438 C 191.335938 127.347656 191.445312 127.417969 191.5625 127.480469 C 191.445312 127.417969 191.335938 127.347656 191.234375 127.273438 Z M 192.03125 127.691406 C 192.160156 127.734375 192.300781 127.769531 192.441406 127.792969 C 192.300781 127.769531 192.160156 127.734375 192.03125 127.691406 Z M 191.644531 127.523438 C 191.753906 127.582031 191.867188 127.632812 191.988281 127.671875 C 191.867188 127.632812 191.753906 127.582031 191.644531 127.523438 Z M 192.523438 127.371094 C 192.550781 127.375 192.578125 127.378906 192.605469 127.382812 C 192.578125 127.378906 192.550781 127.375 192.523438 127.371094 Z M 192.804688 124.671875 C 192.8125 124.671875 192.820312 124.664062 192.828125 124.664062 C 192.820312 124.667969 192.8125 124.667969 192.804688 124.671875 Z M 193.175781 110.40625 C 193.175781 110.648438 193.179688 110.90625 193.183594 111.171875 C 193.179688 110.90625 193.175781 110.648438 193.175781 110.40625 Z M 193.1875 111.449219 C 193.191406 111.628906 193.195312 111.808594 193.203125 112 C 193.195312 111.808594 193.191406 111.628906 193.1875 111.449219 Z M 193.214844 112.347656 C 193.21875 112.519531 193.226562 112.695312 193.234375 112.871094 C 193.226562 112.695312 193.21875 112.519531 193.214844 112.347656 Z M 193.25 113.265625 C 193.257812 113.441406 193.261719 113.613281 193.273438 113.789062 C 193.261719 113.613281 193.257812 113.441406 193.25 113.265625 Z M 193.292969 114.207031 C 193.300781 114.382812 193.308594 114.558594 193.316406 114.738281 C 193.308594 114.558594 193.300781 114.382812 193.292969 114.207031 Z M 193.339844 115.164062 C 193.351562 115.347656 193.359375 115.527344 193.371094 115.710938 C 193.359375 115.527344 193.351562 115.347656 193.339844 115.164062 Z M 193.449219 117.140625 C 193.460938 117.34375 193.472656 117.542969 193.484375 117.742188 C 193.472656 117.542969 193.460938 117.34375 193.449219 117.140625 Z M 193.394531 116.132812 C 193.402344 116.320312 193.414062 116.511719 193.425781 116.699219 C 193.414062 116.511719 193.402344 116.320312 193.394531 116.132812 Z M 193.394531 116.132812 " fill-opacity="1" fill-rule="nonzero"/></g><g clip-path="url(#6b379e4e45)"><path fill="#ce6f09" d="M 157.964844 192.234375 C 157.570312 192.425781 157.195312 192.601562 156.84375 192.753906 C 155.308594 193.417969 154.921875 194.183594 154.824219 194.921875 C 154.773438 195.3125 155.078125 195.65625 155.46875 195.65625 L 171.882812 195.65625 C 172.222656 195.65625 172.507812 195.394531 172.53125 195.054688 C 172.550781 194.777344 172.574219 194.414062 172.582031 193.992188 L 159.089844 193.992188 Z M 157.964844 192.234375 " fill-opacity="1" fill-rule="nonzero"/></g><g clip-path="url(#ebf04fead6)"><path fill="#ce6f09" d="M 146.667969 129.050781 L 100.363281 129.050781 L 100.363281 109.929688 L 146.667969 109.929688 Z M 75.972656 29.253906 L 75.972656 98.929688 L 183.851562 98.929688 L 183.851562 29.253906 Z M 22.675781 189.671875 L 54.972656 189.671875 L 54.972656 142.671875 L 22.675781 142.671875 Z M 23.433594 45.925781 L 23.433594 70.578125 L 67.285156 70.578125 L 67.285156 45.925781 Z M 75.742188 102.019531 L 68.769531 116.695312 L 77.570312 120.875 L 84.542969 106.195312 Z M 75.742188 102.019531 " fill-opacity="1" fill-rule="nonzero"/></g><g clip-path="url(#9e46c685ba)"><path fill="#e0e0e0" d="M 32.539062 56.460938 C 32.539062 57.347656 31.820312 58.070312 30.929688 58.070312 C 30.042969 58.070312 29.324219 57.347656 29.324219 56.460938 C 29.324219 55.574219 30.042969 54.855469 30.929688 54.855469 C 31.820312 54.855469 32.539062 55.574219 32.539062 56.460938 Z M 96.367188 87.621094 L 97.695312 87.621094 L 97.695312 43.085938 L 96.367188 43.085938 Z M 30.929688 61.546875 C 30.042969 61.546875 29.324219 62.265625 29.324219 63.152344 C 29.324219 64.042969 30.042969 64.761719 30.929688 64.761719 C 31.820312 64.761719 32.539062 64.042969 32.539062 63.152344 C 32.539062 62.265625 31.820312 61.546875 30.929688 61.546875 Z M 89.703125 48.671875 L 83.5 48.671875 L 83.5 53.292969 L 89.703125 53.292969 Z M 61.5 54.855469 L 35.578125 54.855469 L 35.578125 58.070312 L 61.5 58.070312 Z M 83.5625 70.980469 L 89.765625 70.980469 L 89.765625 66.359375 L 83.5625 66.359375 Z M 83.5625 62.105469 L 89.765625 62.105469 L 89.765625 57.484375 L 83.5625 57.484375 Z M 23.433594 49.273438 L 67.285156 49.273438 L 67.285156 45.925781 L 23.433594 45.925781 Z M 35.578125 64.761719 L 61.5 64.761719 L 61.5 61.546875 L 35.578125 61.546875 Z M 83.5625 79.855469 L 89.765625 79.855469 L 89.765625 75.234375 L 83.5625 75.234375 Z M 135.007812 40.222656 C 133.34375 40.222656 131.960938 41.417969 131.660156 42.996094 L 104.175781 42.996094 L 104.175781 44.320312 L 131.671875 44.320312 C 131.992188 45.867188 133.363281 47.03125 135.007812 47.03125 C 136.648438 47.03125 138.019531 45.867188 138.339844 44.320312 L 148.726562 44.320312 L 148.726562 42.996094 L 138.351562 42.996094 C 138.054688 41.417969 136.671875 40.222656 135.007812 40.222656 Z M 99.535156 108.898438 L 147.953125 108.898438 L 147.953125 130.511719 L 99.535156 130.511719 Z M 133.566406 127.390625 L 144.984375 127.390625 L 144.984375 116.585938 L 133.566406 116.585938 Z M 111.03125 115.558594 L 123.820312 115.558594 L 123.820312 114.339844 L 111.03125 114.339844 Z M 103.417969 122.519531 L 124.660156 122.519531 L 124.660156 121.300781 L 103.417969 121.300781 Z M 103.417969 125.257812 L 122.375 125.257812 L 122.375 124.042969 L 103.417969 124.042969 Z M 75.972656 29.253906 L 183.851562 29.253906 L 183.851562 37.589844 L 75.972656 37.589844 Z M 88.339844 33.710938 C 88.339844 34.417969 88.914062 34.996094 89.625 34.996094 C 90.335938 34.996094 90.910156 34.417969 90.910156 33.710938 C 90.910156 33 90.335938 32.425781 89.625 32.425781 C 88.914062 32.425781 88.339844 33 88.339844 33.710938 Z M 84.050781 33.710938 C 84.050781 34.417969 84.628906 34.996094 85.335938 34.996094 C 86.046875 34.996094 86.625 34.417969 86.625 33.710938 C 86.625 33 86.046875 32.425781 85.335938 32.425781 C 84.628906 32.425781 84.050781 33 84.050781 33.710938 Z M 79.765625 33.710938 C 79.765625 34.417969 80.339844 34.996094 81.050781 34.996094 C 81.761719 34.996094 82.335938 34.417969 82.335938 33.710938 C 82.335938 33 81.761719 32.425781 81.050781 32.425781 C 80.339844 32.425781 79.765625 33 79.765625 33.710938 Z M 154.464844 90.636719 L 175.019531 90.636719 L 175.019531 43.566406 L 154.464844 43.566406 Z M 147.414062 68.792969 L 147.414062 88.730469 L 105.3125 88.730469 L 105.3125 68.792969 Z M 142.945312 81.296875 L 109.777344 81.296875 L 109.777344 85.308594 L 142.945312 85.308594 Z M 142.945312 72.542969 L 109.777344 72.542969 L 109.777344 76.554688 L 142.945312 76.554688 Z M 128.195312 57.363281 C 126.53125 57.363281 125.148438 58.558594 124.851562 60.136719 L 104.175781 60.136719 L 104.175781 61.460938 L 124.863281 61.460938 C 125.183594 63.007812 126.554688 64.171875 128.195312 64.171875 C 129.839844 64.171875 131.210938 63.007812 131.53125 61.460938 L 148.726562 61.460938 L 148.726562 60.136719 L 131.539062 60.136719 C 131.242188 58.558594 129.859375 57.363281 128.195312 57.363281 Z M 104.175781 52.832031 L 148.726562 52.832031 L 148.726562 51.503906 L 104.175781 51.503906 Z M 193.019531 127.417969 C 190.445312 127.417969 189.859375 124.027344 189.851562 123.996094 C 189.835938 123.878906 189.71875 123.796875 189.605469 123.816406 C 189.488281 123.835938 189.40625 123.945312 189.425781 124.0625 C 189.433594 124.101562 190.078125 127.847656 193.019531 127.847656 C 193.140625 127.847656 193.234375 127.753906 193.234375 127.632812 C 193.234375 127.515625 193.140625 127.417969 193.019531 127.417969 Z M 181.570312 128.457031 L 178.234375 128.246094 C 178.101562 128.238281 178.015625 128.328125 178.007812 128.449219 C 178 128.566406 178.089844 128.667969 178.207031 128.675781 L 181.542969 128.886719 C 181.546875 128.886719 181.550781 128.886719 181.554688 128.886719 C 181.667969 128.886719 181.765625 128.800781 181.773438 128.683594 C 181.777344 128.566406 181.6875 128.464844 181.570312 128.457031 Z M 171.457031 123.816406 C 171.339844 123.796875 171.226562 123.875 171.207031 123.996094 C 171.203125 124.03125 170.621094 127.417969 168.042969 127.417969 C 167.921875 127.417969 167.824219 127.515625 167.824219 127.632812 C 167.824219 127.753906 167.921875 127.847656 168.042969 127.847656 C 170.984375 127.847656 171.628906 124.101562 171.632812 124.0625 C 171.652344 123.945312 171.574219 123.835938 171.457031 123.816406 Z M 77.410156 139.441406 C 77.292969 139.445312 77.195312 139.542969 77.199219 139.660156 L 77.4375 160.875 C 77.441406 160.992188 77.539062 161.089844 77.65625 161.089844 C 77.777344 161.085938 77.871094 160.988281 77.871094 160.871094 L 77.628906 139.65625 C 77.628906 139.539062 77.539062 139.457031 77.410156 139.441406 Z M 63.546875 139.109375 C 63.644531 139.042969 63.675781 138.910156 63.609375 138.808594 C 63.542969 138.710938 63.410156 138.683594 63.308594 138.746094 C 58.578125 141.8125 49.84375 143.648438 49.757812 143.667969 C 49.640625 143.691406 49.566406 143.804688 49.589844 143.921875 C 49.609375 144.023438 49.699219 144.09375 49.800781 144.09375 C 49.816406 144.09375 49.828125 144.09375 49.84375 144.089844 C 49.890625 144.082031 52.082031 143.621094 54.867188 142.777344 L 54.867188 189.675781 L 66.0625 189.675781 L 66.0625 142.671875 L 55.207031 142.671875 C 57.964844 141.820312 61.222656 140.613281 63.546875 139.109375 Z M 85.78125 106.320312 L 78.417969 121.820312 C 78.167969 122.347656 77.617188 122.609375 77.183594 122.402344 L 67.828125 117.960938 C 67.394531 117.753906 67.246094 117.164062 67.496094 116.636719 L 74.859375 101.136719 C 75.109375 100.613281 75.664062 100.351562 76.097656 100.558594 L 85.453125 105 C 85.886719 105.203125 86.03125 105.796875 85.78125 106.320312 Z M 84.542969 106.195312 L 75.742188 102.019531 L 68.769531 116.695312 L 77.570312 120.875 Z M 84.542969 106.195312 " fill-opacity="1" fill-rule="nonzero"/></g><g clip-path="url(#68a943ef14)"><path fill="#f5c0a2" d="M 82.972656 115.960938 C 82.960938 115.964844 82.949219 115.972656 82.941406 115.976562 C 82.941406 115.976562 83.511719 116.953125 82.230469 117.835938 C 82.234375 117.929688 82.726562 118.65625 81.449219 119.4375 C 81.449219 119.4375 81.398438 120.019531 80.8125 120.34375 C 80.625 120.488281 77.15625 120.824219 76.210938 120.445312 L 75.15625 120.195312 L 74.320312 119.996094 L 73.070312 120.199219 L 74.253906 114.890625 L 74.910156 114.878906 L 75.15625 114.800781 L 78.507812 113.71875 L 81.65625 110.863281 C 81.65625 110.863281 82.890625 111.410156 80.972656 113.808594 C 81.144531 113.828125 82.664062 113.964844 82.671875 113.964844 C 83.589844 114.222656 83.78125 115.464844 82.972656 115.960938 Z M 89.722656 70.390625 C 90.554688 69.433594 90.148438 68.304688 90.148438 68.304688 L 86.917969 71 L 84.660156 73.519531 C 85.707031 71.519531 84.707031 70.996094 84.707031 70.996094 L 83.113281 73.296875 C 81.957031 75.214844 81.496094 77.105469 81.496094 77.105469 L 81.289062 77.402344 L 80.53125 78.496094 L 80.117188 79.09375 L 83.890625 82.734375 L 84.59375 81.71875 L 84.957031 81.191406 L 85.03125 81.085938 C 85.953125 80.691406 87.480469 79.136719 88.160156 78.414062 C 88.171875 78.398438 88.1875 78.386719 88.199219 78.371094 C 88.324219 78.238281 88.710938 77.429688 88.757812 77.375 C 89.007812 76.734375 89.394531 75.777344 89.394531 75.777344 C 89.535156 74.34375 88.527344 74.324219 88.527344 74.324219 C 88.710938 72.613281 87.207031 73.339844 87.148438 73.367188 L 88.300781 71.953125 Z M 60.355469 84.285156 C 60.15625 84.730469 59.867188 85.203125 59.464844 85.703125 C 59.464844 85.703125 59.859375 87.46875 58.703125 88.25 C 58.703125 88.25 58.527344 87.71875 58.1875 87.425781 C 57.832031 87.121094 57.160156 86.871094 56.660156 87.554688 C 55.988281 88.464844 56.675781 89.40625 57.164062 89.78125 C 57.941406 90.371094 55.757812 91.902344 57.296875 93.304688 C 57.617188 93.597656 57.828125 93.886719 57.964844 94.167969 C 59.160156 93.914062 63.132812 92.441406 60.355469 84.285156 Z M 161.132812 97.746094 L 158.28125 104.558594 L 153.027344 96.507812 C 152.742188 94.363281 150.125 91.820312 148.921875 90.582031 C 148.320312 89.960938 148.09375 89.839844 147.820312 90.148438 C 147.453125 90.5625 147.535156 91.289062 147.839844 92.085938 C 148.117188 92.792969 148.535156 93.46875 148.652344 93.851562 C 147.511719 93.621094 146.195312 93.53125 145.449219 93.425781 C 145.445312 93.425781 145.441406 93.425781 145.441406 93.421875 C 145.4375 93.421875 145.429688 93.421875 145.425781 93.421875 C 145.410156 93.421875 145.394531 93.417969 145.378906 93.414062 C 145.363281 93.414062 145.351562 93.414062 145.339844 93.414062 C 144.898438 93.375 144.472656 93.605469 144.277344 94.011719 L 144.265625 94.039062 C 143.980469 94.625 144.429688 95.265625 145.007812 95.351562 C 144.910156 95.339844 144.820312 95.335938 144.75 95.332031 C 144.203125 95.3125 143.738281 95.726562 143.695312 96.273438 L 143.691406 96.300781 C 143.648438 96.847656 144.046875 97.332031 144.59375 97.398438 C 144.664062 97.40625 144.777344 97.414062 144.917969 97.417969 L 144.910156 97.417969 C 144.359375 97.414062 143.949219 97.785156 143.953125 98.335938 C 143.957031 98.832031 144.332031 99.246094 144.824219 99.308594 L 144.886719 99.304688 C 144.886719 99.308594 144.882812 99.316406 144.882812 99.320312 C 144.488281 99.445312 144.226562 99.835938 144.277344 100.261719 C 144.332031 100.699219 144.703125 101.027344 145.144531 101.03125 C 145.265625 101.035156 145.496094 101.011719 145.761719 100.984375 C 147.378906 101.425781 148.554688 101.644531 149.503906 101.667969 C 151.335938 105.695312 155.683594 115.214844 155.683594 115.214844 C 156.582031 117.234375 159.164062 117.988281 160.90625 116.625 C 160.980469 116.566406 161.054688 116.503906 161.125 116.4375 C 161.441406 116.144531 161.691406 115.804688 161.878906 115.441406 L 168.355469 101.625 Z M 165.980469 183.359375 C 165.976562 183.359375 165.972656 183.355469 165.972656 183.355469 C 165.828125 185.144531 165.566406 186.351562 165.167969 187.359375 C 165.167969 187.359375 165.167969 187.359375 165.167969 187.355469 C 167.355469 190.242188 170.300781 189.652344 171.960938 188.804688 C 171.953125 187.136719 172.183594 184.894531 172.375 183.359375 Z M 189.636719 183.359375 L 183.636719 183.359375 C 183.632812 183.472656 183.628906 183.582031 183.628906 183.703125 C 183.628906 185.789062 183.507812 187.390625 183.40625 189.613281 C 183.929688 189.824219 184.613281 189.792969 185.367188 188.988281 C 186.878906 187.375 188.507812 186.609375 190.128906 187.148438 C 189.667969 185.894531 189.589844 184.628906 189.636719 183.359375 Z M 202.199219 134.785156 C 202.199219 134.78125 202.203125 134.777344 202.203125 134.773438 C 202.191406 134.503906 202.125 133.796875 202.039062 132.914062 L 202.035156 132.914062 C 201.804688 130.589844 201.410156 127.039062 201.410156 127.039062 L 199.523438 110.171875 L 198.984375 101.03125 L 194.019531 101.234375 C 193.546875 105.105469 193.175781 108.6875 193.175781 110.40625 C 193.175781 112.425781 193.34375 115.289062 193.496094 117.910156 C 194.589844 121.824219 195.882812 126.421875 196.28125 127.847656 C 196.207031 127.953125 196.140625 128.058594 196.085938 128.160156 C 195.355469 129.507812 195.238281 130.394531 195.476562 132.410156 C 195.410156 132.378906 195.339844 132.359375 195.265625 132.351562 C 194.78125 132.292969 194.359375 132.679688 194.378906 133.167969 L 194.484375 135.707031 C 194.492188 135.941406 194.605469 136.160156 194.796875 136.304688 L 196.804688 137.820312 L 197.324219 138.214844 C 197.605469 138.429688 197.996094 138.429688 198.277344 138.214844 L 201.890625 135.488281 C 202.097656 135.332031 202.214844 135.085938 202.203125 134.828125 Z M 185.480469 83.902344 L 184.1875 75.960938 C 184.628906 75.621094 184.933594 75.15625 185.027344 74.609375 C 185.25 73.304688 184.613281 72.105469 183.605469 71.933594 C 182.597656 71.761719 182.363281 72.710938 182.253906 73.367188 L 182.226562 73.53125 C 181.773438 73.511719 181.390625 73.519531 181.390625 73.519531 C 180.882812 72.023438 181.578125 69.652344 181.3125 67.859375 C 176.160156 66.839844 174.277344 69 172.070312 68.105469 C 171.894531 68.722656 171.804688 69.378906 171.828125 70.058594 L 172.070312 76.574219 C 172.148438 78.699219 173.550781 80.644531 175.699219 81.300781 C 175.816406 81.339844 175.933594 81.363281 176.050781 81.390625 L 176.300781 84.628906 C 176.503906 87.066406 178.5625 88.929688 181.15625 88.710938 C 183.746094 88.488281 185.683594 86.335938 185.480469 83.902344 Z M 185.480469 83.902344 " fill-opacity="1" fill-rule="nonzero"/></g><path fill="#1d3863" d="M 82.90625 171.128906 L 88.640625 167.019531 C 88.640625 167.019531 90.09375 171.308594 92.011719 172.648438 C 94.558594 174.421875 96.835938 172.710938 98.273438 172.078125 C 101.734375 170.550781 103.578125 172.089844 103.578125 172.089844 L 88.609375 182.8125 Z M 67.445312 188.175781 L 85.558594 191.488281 C 85.558594 191.488281 85.386719 189.09375 81.882812 187.667969 C 80.429688 187.074219 78.132812 186.464844 76.511719 183.5625 C 75.324219 181.429688 74.144531 176.742188 74.144531 176.742188 L 67.613281 175.679688 Z M 59.222656 107.6875 L 61.464844 106.671875 L 62.40625 106.246094 L 68.0625 103.40625 C 68.65625 103.109375 69.175781 102.6875 69.589844 102.171875 L 85.089844 83.894531 L 79.097656 78.109375 L 64.382812 94.78125 L 60.613281 96.105469 L 58.804688 96.710938 L 58.042969 96.933594 C 57.890625 96.410156 57.714844 95.9375 57.515625 95.546875 C 56.792969 94.097656 55.226562 94.265625 52.539062 94.546875 C 50.0625 94.808594 43.769531 94.097656 40.515625 99.039062 C 33.652344 109.457031 30.75 128.8125 30.75 128.8125 C 42.789062 134.664062 51.167969 128.25 51.167969 128.25 L 57.636719 124.601562 L 58.054688 122.417969 L 72.953125 120.734375 L 74.398438 114.226562 L 59.183594 113.839844 C 59.183594 113.839844 59.292969 111.109375 59.222656 107.6875 Z M 199.746094 101 C 199.648438 99.40625 199.53125 97.816406 199.414062 96.222656 C 199.25 94.34375 199.09375 92.464844 198.859375 90.589844 C 198.636719 88.824219 197.511719 87.398438 196.003906 86.703125 C 196.003906 86.691406 196.007812 86.679688 196.007812 86.679688 C 192.417969 85.132812 188.914062 84.121094 185.441406 83.652344 L 185.480469 83.902344 C 185.683594 86.335938 183.746094 88.488281 181.15625 88.710938 C 178.5625 88.929688 176.503906 87.066406 176.300781 84.628906 L 176.230469 83.691406 C 173.199219 84.128906 170.15625 84.992188 167.066406 86.28125 C 167.0625 86.28125 167.058594 86.285156 167.050781 86.289062 C 165.871094 86.695312 164.855469 87.5625 164.289062 88.789062 L 160.058594 97.171875 L 167.476562 101.15625 C 167.835938 105.058594 168.105469 108.675781 168.105469 110.40625 C 168.105469 114.097656 167.546875 120.605469 167.546875 123.308594 C 167.546875 124.027344 168.070312 124.632812 168.78125 124.746094 C 176.417969 125.984375 185.078125 126.019531 192.511719 124.757812 C 193.21875 124.636719 193.734375 124.03125 193.734375 123.320312 C 193.734375 120.621094 193.175781 114.105469 193.175781 110.40625 C 193.175781 108.6875 193.546875 105.105469 194.019531 101.234375 Z M 174.398438 179.339844 C 174.460938 179.113281 174.289062 178.890625 174.054688 178.890625 L 166.148438 178.890625 C 165.957031 178.890625 165.800781 179.042969 165.789062 179.234375 L 165.625 182.988281 C 165.613281 183.1875 165.777344 183.359375 165.980469 183.359375 L 172.972656 183.359375 C 173.128906 183.359375 173.265625 183.257812 173.3125 183.109375 C 173.628906 182.089844 174.007812 180.808594 174.398438 179.339844 M 191.390625 179.308594 C 191.429688 179.09375 191.261719 178.894531 191.039062 178.894531 L 183.28125 178.894531 C 183.082031 178.894531 182.917969 179.058594 182.925781 179.261719 L 183.046875 183.015625 C 183.050781 183.207031 183.210938 183.359375 183.402344 183.359375 L 190.390625 183.359375 C 190.5625 183.359375 190.710938 183.234375 190.742188 183.066406 C 190.925781 182.011719 191.152344 180.714844 191.390625 179.308594 M 119.316406 52.136719 C 119.316406 54.015625 117.792969 55.542969 115.914062 55.542969 C 114.03125 55.542969 112.507812 54.015625 112.507812 52.136719 C 112.507812 50.257812 114.03125 48.734375 115.914062 48.734375 C 117.792969 48.734375 119.316406 50.257812 119.316406 52.136719 Z M 103.417969 112.285156 L 103.417969 117.609375 L 109.203125 117.609375 L 109.203125 112.285156 Z M 125.503906 80.761719 L 117.929688 80.761719 L 117.929688 85.824219 L 125.503906 85.824219 Z M 125.503906 80.761719 " fill-opacity="1" fill-rule="nonzero"/><path fill="#010204" d="M 45.429688 110.683594 C 45.3125 110.652344 45.199219 110.726562 45.167969 110.84375 C 45.082031 111.210938 43.050781 119.910156 45.238281 121.824219 C 46.070312 122.550781 50.519531 122.695312 53.972656 122.695312 C 55.96875 122.695312 57.632812 122.648438 58.066406 122.632812 C 58.183594 122.628906 58.277344 122.527344 58.273438 122.410156 C 58.269531 122.292969 58.171875 122.199219 58.058594 122.199219 C 58.054688 122.199219 58.050781 122.199219 58.050781 122.199219 C 53.507812 122.347656 46.417969 122.28125 45.523438 121.496094 C 43.53125 119.753906 45.570312 111.03125 45.589844 110.941406 C 45.617188 110.824219 45.546875 110.710938 45.429688 110.683594 Z M 45.429688 110.683594 " fill-opacity="1" fill-rule="nonzero"/><path fill="#010204" d="M 87.019531 77.546875 C 87.027344 77.550781 87.035156 77.550781 87.042969 77.550781 C 87.09375 77.550781 87.136719 77.53125 87.171875 77.503906 C 87.167969 77.808594 87.222656 78.078125 87.378906 78.265625 C 87.5625 78.492188 87.746094 78.554688 87.890625 78.554688 C 87.933594 78.554688 87.976562 78.546875 88.015625 78.539062 C 88.652344 78.375 88.980469 76.9375 89.070312 76.5 C 89.09375 76.382812 89.015625 76.269531 88.898438 76.246094 C 88.78125 76.21875 88.667969 76.296875 88.644531 76.414062 C 88.492188 77.1875 88.160156 78.054688 87.90625 78.117188 C 87.84375 78.132812 87.753906 78.042969 87.707031 77.988281 C 87.335938 77.542969 87.933594 75.964844 88.398438 75.074219 C 88.453125 74.96875 88.410156 74.839844 88.304688 74.785156 C 88.203125 74.730469 88.070312 74.769531 88.015625 74.875 C 87.917969 75.058594 87.332031 76.21875 87.195312 77.183594 C 87.164062 77.152344 87.121094 77.125 87.070312 77.117188 C 86.835938 77.09375 86.6875 77 86.597656 76.835938 C 86.261719 76.207031 86.867188 74.726562 87.128906 74.210938 C 87.179688 74.105469 87.136719 73.972656 87.03125 73.917969 C 86.925781 73.867188 86.796875 73.910156 86.742188 74.015625 C 86.636719 74.226562 85.714844 76.101562 86.21875 77.039062 C 86.375 77.328125 86.648438 77.507812 87.019531 77.546875 Z M 87.019531 77.546875 " fill-opacity="1" fill-rule="nonzero"/><path fill="#010204" d="M 167.734375 103.472656 C 167.742188 103.472656 167.75 103.46875 167.757812 103.46875 C 167.875 103.457031 167.960938 103.351562 167.949219 103.234375 L 167.191406 95.847656 C 167.179688 95.730469 167.0625 95.640625 166.953125 95.65625 C 166.835938 95.667969 166.75 95.773438 166.761719 95.894531 L 167.519531 103.277344 C 167.53125 103.386719 167.625 103.472656 167.734375 103.472656 Z M 167.734375 103.472656 " fill-opacity="1" fill-rule="nonzero"/><path fill="#010204" d="M 84.390625 78.648438 C 84.34375 78.757812 84.394531 78.882812 84.503906 78.929688 C 84.53125 78.941406 84.5625 78.945312 84.589844 78.945312 C 84.671875 78.945312 84.753906 78.898438 84.789062 78.8125 C 85.613281 76.851562 84.445312 75.34375 84.398438 75.28125 C 84.324219 75.1875 84.1875 75.171875 84.09375 75.246094 C 84 75.320312 83.984375 75.457031 84.058594 75.550781 C 84.101562 75.605469 85.113281 76.925781 84.390625 78.648438 Z M 84.390625 78.648438 " fill-opacity="1" fill-rule="nonzero"/><path fill="#010204" d="M 41.308594 106.761719 C 43.089844 108 46.996094 108.929688 49.582031 108.867188 C 56.144531 108.707031 58.230469 107.226562 59.28125 104.050781 C 59.992188 101.894531 58.945312 99.5625 57.890625 98.253906 C 56.839844 96.945312 59.421875 95.246094 57.296875 93.304688 C 55.757812 91.902344 57.941406 90.371094 57.167969 89.78125 C 56.675781 89.40625 55.988281 88.464844 56.660156 87.554688 C 57.160156 86.871094 57.832031 87.121094 58.1875 87.425781 C 58.527344 87.71875 58.703125 88.25 58.703125 88.25 C 59.859375 87.46875 59.464844 85.703125 59.464844 85.703125 C 62.519531 81.875 59.207031 79.78125 57.609375 79.46875 C 49.839844 77.945312 46.945312 84.582031 47.039062 88.308594 C 47.113281 91.070312 41.972656 90.242188 41.976562 94.675781 C 41.980469 98.960938 40.582031 98.375 39.589844 99.121094 C 36.957031 101.105469 38.167969 104.578125 41.308594 106.761719 Z M 41.308594 106.761719 " fill-opacity="1" fill-rule="nonzero"/><path fill="#010204" d="M 170.898438 125.050781 C 170.1875 124.960938 169.476562 124.859375 168.78125 124.746094 C 168.53125 124.707031 168.304688 124.601562 168.117188 124.457031 L 168.007812 127.425781 C 168.019531 127.421875 168.027344 127.417969 168.042969 127.417969 C 169.675781 127.417969 170.507812 126.058594 170.898438 125.050781 Z M 170.898438 125.050781 " fill-opacity="1" fill-rule="nonzero"/><path fill="#010204" d="M 181.3125 67.859375 C 181.578125 69.652344 180.886719 72.027344 181.390625 73.519531 C 181.390625 73.519531 181.773438 73.511719 182.226562 73.53125 L 182.253906 73.367188 C 182.363281 72.714844 182.597656 71.761719 183.605469 71.933594 C 184.222656 72.039062 184.699219 72.535156 184.925781 73.199219 C 186.054688 70.1875 185.089844 66.679688 182.351562 64.710938 C 179.074219 62.355469 173.539062 63.355469 171.824219 68 C 174.144531 69.175781 175.972656 66.800781 181.3125 67.859375 Z M 181.3125 67.859375 " fill-opacity="1" fill-rule="nonzero"/><path fill="#010204" d="M 193.992188 101.425781 C 194.003906 101.425781 194.011719 101.429688 194.023438 101.429688 C 194.128906 101.429688 194.222656 101.347656 194.234375 101.242188 L 195.253906 93.816406 C 195.269531 93.699219 195.1875 93.589844 195.070312 93.574219 C 194.953125 93.558594 194.84375 93.640625 194.828125 93.757812 L 193.808594 101.183594 C 193.792969 101.300781 193.875 101.410156 193.992188 101.425781 Z M 193.992188 101.425781 " fill-opacity="1" fill-rule="nonzero"/><path fill="#010204" d="M 196.285156 128.074219 C 196.304688 128.074219 196.328125 128.070312 196.347656 128.0625 L 197.078125 127.839844 C 197.191406 127.804688 197.253906 127.683594 197.21875 127.570312 C 197.183594 127.457031 197.066406 127.390625 196.949219 127.425781 L 196.222656 127.648438 C 196.105469 127.683594 196.042969 127.804688 196.078125 127.917969 C 196.105469 128.011719 196.191406 128.074219 196.285156 128.074219 Z M 196.285156 128.074219 " fill-opacity="1" fill-rule="nonzero"/><path fill="#010204" d="M 193.019531 127.417969 C 193.019531 127.417969 193.023438 127.417969 193.023438 127.417969 L 193.082031 124.527344 C 192.914062 124.640625 192.722656 124.722656 192.511719 124.757812 C 191.75 124.886719 190.96875 125 190.183594 125.101562 C 190.582031 126.101562 191.414062 127.417969 193.019531 127.417969 Z M 193.019531 127.417969 " fill-opacity="1" fill-rule="nonzero"/><g clip-path="url(#a96fd0418a)"><path fill="#010204" d="M 193.71875 191.398438 C 193.722656 191.398438 193.722656 191.398438 193.722656 191.402344 C 193.683594 191.363281 193.644531 191.332031 193.605469 191.292969 C 193.277344 191 192.941406 190.707031 192.609375 190.410156 C 192.53125 190.339844 192.457031 190.269531 192.378906 190.199219 C 192.296875 190.125 192.214844 190.050781 192.136719 189.972656 C 192.054688 189.894531 191.972656 189.816406 191.894531 189.738281 C 191.820312 189.664062 191.75 189.59375 191.675781 189.519531 C 191.59375 189.433594 191.515625 189.347656 191.4375 189.257812 C 191.375 189.1875 191.308594 189.113281 191.246094 189.039062 C 191.164062 188.945312 191.089844 188.84375 191.015625 188.746094 C 190.960938 188.675781 190.90625 188.605469 190.851562 188.53125 C 190.773438 188.417969 190.699219 188.300781 190.628906 188.179688 C 190.589844 188.113281 190.546875 188.050781 190.507812 187.984375 C 190.402344 187.800781 190.308594 187.605469 190.226562 187.40625 C 190.222656 187.402344 190.222656 187.398438 190.222656 187.398438 C 190.1875 187.3125 190.160156 187.230469 190.128906 187.148438 C 189.722656 187.011719 189.320312 186.960938 188.917969 186.980469 C 188.714844 186.992188 188.511719 187.019531 188.308594 187.066406 C 187.300781 187.300781 186.308594 187.980469 185.363281 188.988281 C 184.789062 189.601562 184.257812 189.761719 183.800781 189.714844 C 183.660156 189.699219 183.527344 189.664062 183.402344 189.613281 C 183.394531 189.78125 183.386719 189.953125 183.382812 190.128906 C 183.378906 190.191406 183.375 190.261719 183.375 190.324219 C 183.371094 190.425781 183.367188 190.523438 183.363281 190.625 C 183.359375 190.730469 183.355469 190.84375 183.351562 190.953125 C 183.347656 191.015625 183.34375 191.082031 183.34375 191.144531 C 183.339844 191.277344 183.335938 191.414062 183.332031 191.550781 C 183.328125 191.589844 183.328125 191.628906 183.328125 191.667969 C 183.296875 192.636719 183.277344 193.726562 183.273438 195 C 183.269531 195.359375 183.5625 195.65625 183.921875 195.65625 L 195.351562 195.65625 C 195.75 195.65625 196.0625 195.300781 195.996094 194.90625 C 195.757812 193.429688 194.804688 192.386719 193.71875 191.398438 Z M 193.71875 191.398438 " fill-opacity="1" fill-rule="nonzero"/></g><path fill="#010204" d="M 172.972656 183.359375 L 165.980469 183.359375 C 165.902344 183.359375 165.839844 183.328125 165.78125 183.289062 L 165.777344 183.359375 L 173.113281 183.359375 C 173.117188 183.34375 173.121094 183.332031 173.125 183.320312 C 173.078125 183.34375 173.027344 183.359375 172.972656 183.359375 Z M 172.972656 183.359375 " fill-opacity="1" fill-rule="nonzero"/><path fill="#010204" d="M 165.167969 187.355469 C 163.894531 188.949219 160.554688 190.980469 157.964844 192.234375 L 159.089844 193.992188 L 172.582031 193.992188 C 172.617188 192.605469 172.535156 190.578125 171.960938 188.804688 C 170.300781 189.652344 167.355469 190.242188 165.167969 187.355469 Z M 165.167969 187.355469 " fill-opacity="1" fill-rule="nonzero"/><path fill="#010204" d="M 199.363281 130.699219 C 199.242188 130.695312 199.136719 130.777344 199.128906 130.894531 L 198.925781 133.234375 L 197.617188 137.636719 C 197.589844 137.722656 197.519531 137.792969 197.429688 137.824219 C 197.34375 137.851562 197.257812 137.835938 197.191406 137.78125 C 196.902344 137.558594 196.738281 137.1875 196.699219 136.679688 C 196.585938 135.242188 196.660156 133.535156 196.660156 133.519531 C 196.664062 133.429688 196.613281 133.347656 196.53125 133.3125 C 196.507812 133.300781 195.972656 133.050781 195.75 132.28125 C 195.714844 132.167969 195.597656 132.101562 195.480469 132.136719 C 195.367188 132.167969 195.300781 132.289062 195.335938 132.402344 C 195.546875 133.132812 195.996094 133.492188 196.222656 133.632812 C 196.207031 134.070312 196.171875 135.484375 196.269531 136.714844 C 196.328125 137.5 196.65625 137.914062 196.921875 138.121094 C 197.046875 138.21875 197.195312 138.269531 197.347656 138.269531 C 197.421875 138.269531 197.492188 138.257812 197.5625 138.234375 C 197.789062 138.164062 197.964844 137.984375 198.03125 137.757812 L 199.347656 133.335938 C 199.351562 133.324219 199.351562 133.308594 199.355469 133.292969 L 199.558594 130.933594 C 199.566406 130.8125 199.480469 130.710938 199.363281 130.699219 Z M 199.363281 130.699219 " fill-opacity="1" fill-rule="nonzero"/><g clip-path="url(#22dd23563e)"><path fill="#010204" d="M 157.964844 192.234375 C 157.570312 192.425781 157.195312 192.601562 156.84375 192.753906 C 155.308594 193.417969 154.921875 194.183594 154.824219 194.921875 C 154.773438 195.3125 155.078125 195.65625 155.46875 195.65625 L 171.882812 195.65625 C 172.222656 195.65625 172.507812 195.394531 172.53125 195.054688 C 172.550781 194.777344 172.574219 194.414062 172.582031 193.992188 L 159.089844 193.992188 Z M 157.964844 192.234375 " fill-opacity="1" fill-rule="nonzero"/></g><path fill="#010204" d="M 77.871094 160.871094 C 77.871094 160.988281 77.777344 161.085938 77.65625 161.089844 C 77.539062 161.089844 77.441406 160.992188 77.4375 160.875 L 77.199219 139.660156 C 77.195312 139.542969 77.292969 139.445312 77.410156 139.441406 C 77.441406 139.445312 77.464844 139.453125 77.488281 139.460938 L 77.46875 127.417969 C 77.46875 127.417969 78.488281 121.085938 70.027344 122.597656 C 67.265625 123.09375 62.675781 123.8125 57.640625 124.574219 L 57.636719 124.601562 L 51.167969 128.25 C 51.167969 128.25 43.496094 134.113281 32.289062 129.496094 C 31.691406 133.464844 31.066406 145.390625 45.394531 144.367188 C 45.394531 144.367188 47.578125 144.132812 50.878906 143.359375 L 51.066406 143.363281 C 53.695312 142.726562 59.679688 141.101562 63.308594 138.746094 C 63.410156 138.683594 63.542969 138.710938 63.609375 138.808594 C 63.671875 138.910156 63.644531 139.042969 63.546875 139.109375 C 60.445312 141.117188 55.675781 142.601562 52.660156 143.402344 L 62.859375 143.652344 L 64.738281 146.664062 L 66.128906 179.796875 L 77.570312 181.226562 L 77.542969 167.191406 L 83.492188 176.734375 L 92.277344 170.199219 L 77.632812 140.007812 Z M 77.871094 160.871094 " fill-opacity="1" fill-rule="nonzero"/><path fill="#010204" d="M 59.183594 114.054688 C 59.300781 114.054688 59.394531 113.964844 59.398438 113.847656 C 59.402344 113.726562 59.3125 113.628906 59.191406 113.621094 L 53.910156 113.410156 C 53.792969 113.414062 53.691406 113.496094 53.683594 113.617188 C 53.679688 113.734375 53.773438 113.835938 53.890625 113.839844 L 59.175781 114.054688 C 59.175781 114.054688 59.179688 114.054688 59.183594 114.054688 Z M 59.183594 114.054688 " fill-opacity="1" fill-rule="nonzero"/><path fill="#010204" d="M 148.4375 95.792969 C 148.441406 95.792969 148.445312 95.789062 148.449219 95.789062 C 148.671875 95.628906 148.8125 95.382812 148.859375 95.085938 C 148.90625 94.761719 148.847656 94.179688 147.921875 93.875 C 147.808594 93.839844 147.683594 93.898438 147.648438 94.011719 C 147.609375 94.125 147.671875 94.25 147.785156 94.285156 C 148.503906 94.519531 148.449219 94.898438 148.429688 95.019531 C 148.402344 95.207031 148.324219 95.347656 148.195312 95.4375 C 148.078125 95.523438 147.921875 95.558594 147.761719 95.542969 C 147.757812 95.542969 147.753906 95.542969 147.75 95.542969 C 147.75 95.542969 147.75 95.542969 147.746094 95.542969 C 147.734375 95.539062 147.726562 95.539062 147.714844 95.539062 C 147.425781 95.492188 146.984375 95.421875 146.53125 95.355469 C 146.414062 95.34375 146.304688 95.421875 146.289062 95.539062 C 146.269531 95.65625 146.351562 95.765625 146.46875 95.785156 C 146.917969 95.847656 147.359375 95.917969 147.640625 95.964844 C 147.667969 95.96875 147.695312 95.96875 147.722656 95.972656 C 147.726562 95.972656 147.726562 95.972656 147.726562 95.972656 C 147.996094 95.988281 148.238281 96.121094 148.371094 96.328125 C 148.492188 96.515625 148.511719 96.738281 148.425781 96.957031 C 148.316406 97.246094 148.046875 97.363281 147.621094 97.308594 C 147.609375 97.308594 147.589844 97.304688 147.578125 97.304688 C 147.574219 97.304688 147.574219 97.304688 147.570312 97.304688 C 147.359375 97.28125 147.03125 97.261719 146.507812 97.25 C 146.378906 97.257812 146.289062 97.339844 146.285156 97.457031 C 146.28125 97.578125 146.375 97.675781 146.492188 97.679688 C 146.832031 97.691406 147.300781 97.707031 147.550781 97.738281 C 147.761719 97.753906 147.945312 97.851562 148.054688 98.003906 C 148.152344 98.148438 148.179688 98.324219 148.125 98.5 C 148.046875 98.773438 147.796875 98.949219 147.488281 98.945312 L 146.488281 99 C 146.371094 99.007812 146.277344 99.109375 146.285156 99.226562 C 146.292969 99.34375 146.386719 99.429688 146.5 99.429688 C 146.503906 99.429688 146.507812 99.429688 146.511719 99.429688 L 146.898438 99.410156 C 146.914062 99.410156 146.929688 99.414062 146.945312 99.414062 C 147.140625 99.394531 147.324219 99.460938 147.457031 99.605469 C 147.589844 99.746094 147.648438 99.933594 147.613281 100.125 C 147.566406 100.398438 147.339844 100.605469 147.0625 100.625 C 146.941406 100.636719 146.855469 100.738281 146.863281 100.859375 C 146.871094 100.972656 146.964844 101.058594 147.078125 101.058594 C 147.082031 101.058594 147.089844 101.058594 147.09375 101.058594 C 147.570312 101.023438 147.957031 100.667969 148.039062 100.199219 C 148.09375 99.886719 148.003906 99.578125 147.796875 99.339844 C 148.144531 99.246094 148.433594 98.984375 148.539062 98.625 C 148.628906 98.316406 148.585938 98.011719 148.410156 97.757812 C 148.378906 97.71875 148.34375 97.683594 148.308594 97.648438 C 148.546875 97.546875 148.730469 97.371094 148.828125 97.113281 C 148.960938 96.765625 148.925781 96.394531 148.730469 96.09375 C 148.65625 95.976562 148.554688 95.878906 148.4375 95.792969 Z M 148.4375 95.792969 " fill-opacity="1" fill-rule="nonzero"/><path fill="#010204" d="M 152.734375 99.179688 C 152.617188 99.148438 152.5 99.214844 152.46875 99.328125 C 152.144531 100.476562 151.585938 101.152344 150.820312 101.335938 C 150.703125 101.363281 150.632812 101.476562 150.660156 101.59375 C 150.683594 101.695312 150.769531 101.761719 150.867188 101.761719 C 150.886719 101.761719 150.902344 101.757812 150.917969 101.753906 C 151.851562 101.535156 152.511719 100.757812 152.882812 99.449219 C 152.917969 99.332031 152.851562 99.214844 152.734375 99.179688 Z M 152.734375 99.179688 " fill-opacity="1" fill-rule="nonzero"/><path fill="#010204" d="M 190.390625 183.359375 L 183.402344 183.359375 C 183.335938 183.359375 183.277344 183.335938 183.226562 183.304688 L 183.226562 183.359375 L 190.546875 183.359375 C 190.550781 183.34375 190.550781 183.328125 190.554688 183.3125 C 190.503906 183.339844 190.453125 183.359375 190.390625 183.359375 Z M 190.390625 183.359375 " fill-opacity="1" fill-rule="nonzero"/><path fill="#010204" d="M 192.496094 154.214844 L 193.015625 127.847656 C 191.113281 127.847656 190.171875 126.277344 189.746094 125.160156 C 183.828125 125.886719 177.351562 125.855469 171.335938 125.109375 C 170.914062 126.230469 169.976562 127.847656 168.039062 127.847656 C 168.023438 127.847656 168.007812 127.84375 167.992188 127.839844 L 167.03125 153.933594 L 165.964844 178.949219 C 166.019531 178.917969 166.078125 178.894531 166.144531 178.894531 L 174.054688 178.894531 C 174.175781 178.894531 174.277344 178.953125 174.339844 179.042969 C 176.035156 172.679688 178.03125 163.007812 176.605469 155.617188 L 180.5625 128.824219 L 178.207031 128.675781 C 178.089844 128.667969 177.996094 128.566406 178.003906 128.449219 C 178.011719 128.332031 178.097656 128.238281 178.234375 128.246094 L 181.566406 128.457031 C 181.6875 128.464844 181.777344 128.566406 181.769531 128.683594 C 181.761719 128.796875 181.671875 128.882812 181.5625 128.886719 L 183.089844 178.957031 C 183.144531 178.917969 183.210938 178.894531 183.28125 178.894531 L 191.039062 178.894531 C 191.128906 178.894531 191.207031 178.933594 191.269531 178.988281 C 191.839844 175.488281 192.492188 171.371094 192.867188 168.558594 C 193.644531 162.75 192.496094 154.214844 192.496094 154.214844 Z M 192.496094 154.214844 " fill-opacity="1" fill-rule="nonzero"/></svg>