<svg id="blog_white" data-name="blog white" xmlns="http://www.w3.org/2000/svg" viewBox="0 0 479.84 449.15">
  <rect x="141.44" y="71.83" width="188.44" height="18.18" style="fill: #fff"/>
  <rect x="142.33" y="109.07" width="140.55" height="18.18" style="fill: #fff"/>
  <rect x="452.7" y="184.01" width="18.62" height="56.31" style="fill: #fff"/>
  <rect y="184.01" width="19.51" height="56.31" style="fill: #fff"/>
  <rect x="85.57" y="17.08" width="301.06" height="18.62" style="fill: #fff"/>
  <rect x="367.57" y="31.71" width="19.07" height="152.08" style="fill: #fff"/>
  <rect x="85.57" y="29.49" width="17.56" height="150.75" style="fill: #fff"/>
  <path d="M412,449.15H60.61a22.48,22.48,0,0,1-22.48-22.48V165a.07.07,0,0,1,.07-.06H433.26a1.25,1.25,0,0,1,1.26,1.26V426.67A22.47,22.47,0,0,1,412,449.15Zm-80.39-65.39H141.44v19.06H331.65ZM321,164.91H151.2V252.4H321ZM104.2,307.05a10.87,10.87,0,1,0,10.86,10.86A10.87,10.87,0,0,0,104.2,307.05ZM116,323h0Zm25.47-16a10.87,10.87,0,1,0,10.86,10.86A10.86,10.86,0,0,0,141.44,307.05Zm189.33,0a10.87,10.87,0,1,0,10.86,10.86A10.87,10.87,0,0,0,330.77,307.05Zm-150.75,0a10.87,10.87,0,1,0,10.86,10.86A10.87,10.87,0,0,0,180,307.05Zm37.24,0a10.87,10.87,0,1,0,10.86,10.86A10.86,10.86,0,0,0,217.26,307.05Zm150.31,0a10.87,10.87,0,1,0,10.86,10.86A10.86,10.86,0,0,0,367.57,307.05Zm-112.62,0a10.87,10.87,0,1,0,10.86,10.86A10.86,10.86,0,0,0,255,307.05Zm37.24,0a10.87,10.87,0,1,0,10.87,10.86A10.86,10.86,0,0,0,292.19,307.05ZM121.93,345.4a10.87,10.87,0,1,0,10.86,10.87A10.87,10.87,0,0,0,121.93,345.4Zm189.33,0a10.87,10.87,0,1,0,10.86,10.87A10.87,10.87,0,0,0,311.26,345.4Zm-150.75,0a10.87,10.87,0,1,0,10.86,10.87A10.87,10.87,0,0,0,160.51,345.4Zm37.24,0a10.87,10.87,0,1,0,10.86,10.87A10.87,10.87,0,0,0,197.75,345.4Zm150.31,0a10.87,10.87,0,1,0,10.86,10.87A10.87,10.87,0,0,0,348.06,345.4Zm-112.62,0a10.87,10.87,0,1,0,10.86,10.87A10.87,10.87,0,0,0,235.44,345.4Zm37.24,0a10.87,10.87,0,1,0,10.87,10.87A10.87,10.87,0,0,0,272.68,345.4ZM151,229.45h40.26a26.7,26.7,0,0,0,26.7-26.69V191.63a26.7,26.7,0,0,0-26.7-26.69H151" style="fill: #fff"/>
  <rect x="251.34" y="165.05" width="105.66" height="64.51" rx="26.7" style="fill: #fff"/>
</svg>
