<svg id="Ebene_2" data-name="Ebene 2" xmlns="http://www.w3.org/2000/svg" viewBox="0 0 479.84 442.49">
  <path d="M38.2,158.28H433.26a1.26,1.26,0,0,1,1.26,1.26V420A22.48,22.48,0,0,1,412,442.49H60.61A22.48,22.48,0,0,1,38.13,420V158.35a.07.07,0,0,1,.07-.07Z"/>
  <rect x="141.44" y="65.17" width="188.44" height="18.18" style="fill: #111"/>
  <rect x="142.33" y="102.42" width="140.55" height="18.18" style="fill: #111"/>
  <rect x="452.7" y="177.35" width="18.62" height="56.31" style="fill: #111"/>
  <rect y="177.35" width="19.51" height="56.31" style="fill: #111"/>
  <rect x="85.57" y="8.42" width="301.06" height="18.62" style="fill: #111"/>
  <rect x="367.57" y="23.05" width="19.07" height="152.08" style="fill: #111"/>
  <rect x="85.57" y="20.83" width="17.56" height="150.75" style="fill: #111"/>
  <rect x="141.44" y="375.1" width="190.21" height="19.07" style="fill: #fff"/>
  <rect x="151.2" y="156.63" width="169.82" height="88.11" style="fill: #fff"/>
  <circle cx="104.2" cy="309.26" r="10.86" style="fill: #fff"/>
  <ellipse cx="115.97" cy="314.36" rx="10" style="fill: #fff"/>
  <circle cx="141.44" cy="309.26" r="10.86" style="fill: #fff"/>
  <circle cx="330.77" cy="309.26" r="10.86" style="fill: #fff"/>
  <circle cx="180.02" cy="309.26" r="10.86" style="fill: #fff"/>
  <circle cx="217.26" cy="309.26" r="10.86" style="fill: #fff"/>
  <circle cx="367.57" cy="309.26" r="10.86" style="fill: #fff"/>
  <circle cx="254.95" cy="309.26" r="10.86" style="fill: #fff"/>
  <circle cx="292.19" cy="309.26" r="10.86" style="fill: #fff"/>
  <circle cx="121.93" cy="347.61" r="10.86" style="fill: #fff"/>
  <circle cx="311.26" cy="347.61" r="10.86" style="fill: #fff"/>
  <circle cx="160.51" cy="347.61" r="10.86" style="fill: #fff"/>
  <circle cx="197.75" cy="347.61" r="10.86" style="fill: #fff"/>
  <circle cx="348.06" cy="347.61" r="10.86" style="fill: #fff"/>
  <circle cx="235.44" cy="347.61" r="10.86" style="fill: #fff"/>
  <circle cx="272.68" cy="347.61" r="10.86" style="fill: #fff"/>
  <rect x="112.27" y="158.28" width="105.66" height="64.51" rx="26.7"/>
  <rect x="251.34" y="158.39" width="105.66" height="64.51" rx="26.7"/>
</svg>
