<svg id="Ebene_2" data-name="Ebene 2" xmlns="http://www.w3.org/2000/svg" viewBox="0 0 479.84 442.49">
  <rect x="141.44" y="65.17" width="188.44" height="18.18" style="fill: #111"/>
  <rect x="142.33" y="102.42" width="140.55" height="18.18" style="fill: #111"/>
  <rect x="452.7" y="177.35" width="18.62" height="56.31" style="fill: #111"/>
  <rect y="177.35" width="19.51" height="56.31" style="fill: #111"/>
  <rect x="85.57" y="10.42" width="301.06" height="18.62" style="fill: #111"/>
  <rect x="367.57" y="25.05" width="19.07" height="152.08" style="fill: #111"/>
  <rect x="85.57" y="22.83" width="17.56" height="150.75" style="fill: #111"/>
  <path d="M412,442.49H60.61A22.48,22.48,0,0,1,38.13,420V158.35a.07.07,0,0,1,.07-.07H433.26a1.26,1.26,0,0,1,1.26,1.26V420A22.47,22.47,0,0,1,412,442.49ZM331.65,377.1H141.44v19.07H331.65ZM321,158.26H151.2v87.48H321ZM104.2,300.39a10.87,10.87,0,1,0,10.86,10.87A10.87,10.87,0,0,0,104.2,300.39Zm11.77,16h0Zm25.47-16a10.87,10.87,0,1,0,10.86,10.87A10.87,10.87,0,0,0,141.44,300.39Zm189.33,0a10.87,10.87,0,1,0,10.86,10.87A10.87,10.87,0,0,0,330.77,300.39Zm-150.75,0a10.87,10.87,0,1,0,10.86,10.87A10.87,10.87,0,0,0,180,300.39Zm37.24,0a10.87,10.87,0,1,0,10.86,10.87A10.87,10.87,0,0,0,217.26,300.39Zm150.31,0a10.87,10.87,0,1,0,10.86,10.87A10.87,10.87,0,0,0,367.57,300.39Zm-112.62,0a10.87,10.87,0,1,0,10.86,10.87A10.87,10.87,0,0,0,255,300.39Zm37.24,0a10.87,10.87,0,1,0,10.87,10.87A10.87,10.87,0,0,0,292.19,300.39ZM121.93,338.75a10.86,10.86,0,1,0,10.86,10.86A10.86,10.86,0,0,0,121.93,338.75Zm189.33,0a10.86,10.86,0,1,0,10.86,10.86A10.86,10.86,0,0,0,311.26,338.75Zm-150.75,0a10.86,10.86,0,1,0,10.86,10.86A10.87,10.87,0,0,0,160.51,338.75Zm37.24,0a10.86,10.86,0,1,0,10.86,10.86A10.86,10.86,0,0,0,197.75,338.75Zm150.31,0a10.86,10.86,0,1,0,10.86,10.86A10.86,10.86,0,0,0,348.06,338.75Zm-112.62,0a10.86,10.86,0,1,0,10.86,10.86A10.86,10.86,0,0,0,235.44,338.75Zm37.24,0a10.86,10.86,0,1,0,10.87,10.86A10.86,10.86,0,0,0,272.68,338.75ZM151,222.79h40.26a26.7,26.7,0,0,0,26.7-26.69V185a26.7,26.7,0,0,0-26.7-26.7H151"/>
  <rect x="251.34" y="158.39" width="105.66" height="64.51" rx="26.7"/>
</svg>
