<svg id="contact_Kopie" data-name="contact Kopie" xmlns="http://www.w3.org/2000/svg" viewBox="0 0 479.84 449.15">
  <path d="M373.23,15.63c20.51,0,37.22,17.42,37.22,38.84h0V409c0,21.43-16.71,38.83-37.22,38.83H113.59c-20.51,0-37.19-17.4-37.19-38.83h0V385.25h27.9V409a9.52,9.52,0,0,0,9.29,9.72H373.23a9.53,9.53,0,0,0,9.32-9.72h0V54.47a9.52,9.52,0,0,0-9.32-9.71H113.59a9.52,9.52,0,0,0-9.29,9.71h0V77H76.4V54.47c0-21.42,16.68-38.84,37.19-38.84H373.23ZM100.45,311.92a10.46,10.46,0,0,1,10.22,10.68h0v19.93a10.45,10.45,0,0,1-10.22,10.67H74.88a10.45,10.45,0,0,1-10.22-10.67h0V322.6a10.46,10.46,0,0,1,10.22-10.68h25.57Zm0-67.42a10.47,10.47,0,0,1,10.22,10.69h0v19.93a10.47,10.47,0,0,1-10.22,10.68H74.88a10.47,10.47,0,0,1-10.22-10.68h0V255.19A10.47,10.47,0,0,1,74.88,244.5h25.57Zm0-67.41a10.47,10.47,0,0,1,10.22,10.68h0v19.92a10.46,10.46,0,0,1-10.22,10.68H74.88a10.46,10.46,0,0,1-10.22-10.68h0V187.77a10.47,10.47,0,0,1,10.22-10.68h25.57Zm0-67.41a10.46,10.46,0,0,1,10.22,10.68h0v19.93A10.45,10.45,0,0,1,100.45,151H74.88a10.45,10.45,0,0,1-10.22-10.67h0V120.36a10.46,10.46,0,0,1,10.22-10.68h25.57Z"/>
  <g style="isolation: isolate">
    <path d="M256.44,203.63l46.65-75.27h42L276.26,230.31l70.95,104.24h-41.6L257,257.37l-48.6,77.18H166.63l71-104.24L168.77,128.36h41.6Z"/>
  </g>
  <g style="isolation: isolate">
    <path d="M147.21,261.46a115.83,115.83,0,0,1,3.66-30.07A72.45,72.45,0,0,1,161.46,208a47.27,47.27,0,0,1,40.16-20.45,41.77,41.77,0,0,1,18.93,4.14,45.64,45.64,0,0,1,14.56,11.64V129.53h37.21V334.84H238.83L237,319.47a48.16,48.16,0,0,1-15.27,13.3,42.12,42.12,0,0,1-20.41,4.75,46.65,46.65,0,0,1-22.9-5.55,50.47,50.47,0,0,1-17-15.3,72.75,72.75,0,0,1-10.59-23.19,110.85,110.85,0,0,1-3.66-29.21Zm37.09,2.81a90.4,90.4,0,0,0,1.41,16.44,43.94,43.94,0,0,0,4.55,13.3,24.6,24.6,0,0,0,8.22,8.95,22.25,22.25,0,0,0,12.38,3.28q9,0,14.95-4a26.65,26.65,0,0,0,9.3-11.1V234.06a26.1,26.1,0,0,0-9.3-11.16q-6-3.94-14.69-4a22.69,22.69,0,0,0-12.45,3.28,24.31,24.31,0,0,0-8.28,9,46.19,46.19,0,0,0-4.62,13.5,89.75,89.75,0,0,0-1.47,16.71Z"/>
  </g>
</svg>
