<svg id="comtact_white" data-name="comtact white" xmlns="http://www.w3.org/2000/svg" viewBox="0 0 479.84 449.15">
  <path d="M373.23,15.63c20.51,0,37.22,17.42,37.22,38.84h0V409c0,21.43-16.71,38.83-37.22,38.83H113.59c-20.51,0-37.19-17.4-37.19-38.83h0V385.25h27.9V409a9.52,9.52,0,0,0,9.29,9.72H373.23a9.53,9.53,0,0,0,9.32-9.72h0V54.47a9.52,9.52,0,0,0-9.32-9.71H113.59a9.52,9.52,0,0,0-9.29,9.71h0V77H76.4V54.47c0-21.42,16.68-38.84,37.19-38.84H373.23ZM100.45,311.92a10.46,10.46,0,0,1,10.22,10.68h0v19.93a10.45,10.45,0,0,1-10.22,10.67H74.88a10.45,10.45,0,0,1-10.22-10.67h0V322.6a10.46,10.46,0,0,1,10.22-10.68h25.57Zm0-67.42a10.47,10.47,0,0,1,10.22,10.69h0v19.93a10.47,10.47,0,0,1-10.22,10.68H74.88a10.47,10.47,0,0,1-10.22-10.68h0V255.19A10.47,10.47,0,0,1,74.88,244.5h25.57Zm0-67.41a10.47,10.47,0,0,1,10.22,10.68h0v19.92a10.46,10.46,0,0,1-10.22,10.68H74.88a10.46,10.46,0,0,1-10.22-10.68h0V187.77a10.47,10.47,0,0,1,10.22-10.68h25.57Zm0-67.41a10.46,10.46,0,0,1,10.22,10.68h0v19.93A10.45,10.45,0,0,1,100.45,151H74.88a10.45,10.45,0,0,1-10.22-10.67h0V120.36a10.46,10.46,0,0,1,10.22-10.68h25.57ZM244.7,272.74c11.12-10.41,21.43-19.64,31.21-29.42,5-5,9.61-6.29,16.25-3.37,13.71,6,28,10,40,20.29,13.37,11.37,22.26,25.12,23.57,42.19,1.6,20.8.38,41.83.38,63.48H316.42c-.7-11-2-21.72-1.89-32.43.12-9.73-3-13.49-13.79-10v42.58H189.34v-43H175.81c-.73,11.95-1.79,23.65-2,35.38-.13,6.46-2.48,8.52-8.63,8.27-10.51-.42-21-.11-32.94-.11,1-26.24-3.95-52,4.31-76.76,7.26-21.79,23.62-35.08,43.84-43.78,1.17-.51,2.68-.41,3.65-1.13,16.95-12.51,29.22-3.92,41,9C230.8,260.38,237.5,266,244.7,272.74ZM307,160c-.5,35.53-28.21,63.28-62.88,63-34.37-.3-62.48-29.25-62.21-64.08.27-34.48,29.15-63.08,63.35-62.72C280.42,96.54,307.52,124.56,307,160Z" style="fill: #fff"/>
</svg>
