<svg id="Ebene_3" data-name="Ebene 3" xmlns="http://www.w3.org/2000/svg" viewBox="0 0 479.84 442.49">
  <path d="M373.23,9c20.51,0,37.22,17.42,37.22,38.84h0V402.37c0,21.44-16.71,38.84-37.22,38.84H113.59c-20.51,0-37.19-17.4-37.19-38.84h0V378.6h27.9v23.77a9.52,9.52,0,0,0,9.29,9.72H373.23a9.53,9.53,0,0,0,9.32-9.72h0V47.81a9.51,9.51,0,0,0-9.32-9.7H113.59a9.51,9.51,0,0,0-9.29,9.7h0V70.37H76.4V47.81C76.4,26.39,93.08,9,113.59,9H373.23ZM100.45,305.27a10.45,10.45,0,0,1,10.22,10.67h0v19.93a10.46,10.46,0,0,1-10.22,10.68H74.88a10.46,10.46,0,0,1-10.22-10.68h0V315.94a10.45,10.45,0,0,1,10.22-10.67h25.57Zm0-67.43a10.48,10.48,0,0,1,10.22,10.7h0v19.92a10.47,10.47,0,0,1-10.22,10.68H74.88a10.47,10.47,0,0,1-10.22-10.68h0V248.54a10.48,10.48,0,0,1,10.22-10.7h25.57Zm0-67.41a10.47,10.47,0,0,1,10.22,10.68h0V201a10.45,10.45,0,0,1-10.22,10.67H74.88A10.45,10.45,0,0,1,64.66,201h0V181.11a10.47,10.47,0,0,1,10.22-10.68h25.57Zm0-67.4a10.45,10.45,0,0,1,10.22,10.67h0v19.93a10.45,10.45,0,0,1-10.22,10.67H74.88a10.45,10.45,0,0,1-10.22-10.67h0V113.7A10.45,10.45,0,0,1,74.88,103h25.57ZM244.7,266.09c11.12-10.42,21.43-19.65,31.21-29.43,5-5,9.61-6.29,16.25-3.37,13.71,6,28,10.05,40,20.3,13.37,11.37,22.26,25.11,23.57,42.19,1.6,20.8.38,41.82.38,63.48H316.42c-.7-11-2-21.73-1.89-32.43.12-9.74-3-13.5-13.79-10v42.58H189.34v-43H175.81c-.73,11.95-1.79,23.66-2,35.38-.13,6.46-2.48,8.52-8.63,8.28-10.51-.42-21-.12-32.94-.12,1-26.23-3.95-52,4.31-76.75,7.26-21.8,23.62-35.09,43.84-43.79,1.17-.5,2.68-.41,3.65-1.13,16.95-12.5,29.22-3.92,41,9C230.8,253.72,237.5,259.29,244.7,266.09ZM307,153.35c-.5,35.53-28.21,63.28-62.88,63-34.37-.31-62.48-29.26-62.21-64.08.27-34.49,29.15-63.08,63.35-62.73C280.42,89.88,307.52,117.9,307,153.35Z"/>
</svg>
