<?xml version="1.0" encoding="UTF-8"?>
<svg id="Ebene_1" data-name="Ebene 1" xmlns="http://www.w3.org/2000/svg" viewBox="0 0 345.32 72.6">
  <g>
    <g>
      <path d="M115.81,1.73V46.25h-8.94v-3.72c-2.34,2.82-5.76,4.2-10.08,4.2-9.12,0-16.14-6.48-16.14-16.62s7-16.62,16.14-16.62c4,0,7.32,1.26,9.66,3.91V1.73h9.36Zm-9.18,28.38c0-5.58-3.6-8.94-8.22-8.94s-8.28,3.36-8.28,8.94,3.6,8.94,8.28,8.94,8.22-3.36,8.22-8.94Z" style="fill: #fff;"/>
      <path d="M153,27.83v18.42h-8.76v-4c-1.74,2.94-5.1,4.5-9.84,4.5-7.56,0-12.06-4.2-12.06-9.78s4-9.66,13.86-9.66h7.44c0-4-2.4-6.36-7.44-6.36-3.34-.03-6.6,1.02-9.3,3l-3.36-6.53c3.54-2.53,8.76-3.91,13.92-3.91,9.85-.02,15.54,4.54,15.54,14.32Zm-9.36,8.22v-3.3h-6.42c-4.38,0-5.76,1.62-5.76,3.78,0,2.34,2,3.9,5.28,3.9s5.83-1.43,6.91-4.38h0Z" style="fill: #fff;"/>
      <path d="M182.29,44.69c-2.28,1.42-4.94,2.11-7.62,2-7.62,0-12.06-3.9-12.06-11.58v-13.22h-5v-7.2h5V6.84h9.39v7.85h8v7.2h-8v13.11c0,2.76,1.5,4.26,4,4.26,1.36,.02,2.68-.4,3.78-1.2l2.51,6.63Z" style="fill: #fff;"/>
      <path d="M216.13,27.83v18.42h-8.76v-4c-1.74,2.94-5.1,4.5-9.84,4.5-7.56,0-12.06-4.2-12.06-9.78s4-9.66,13.86-9.66h7.44c0-4-2.4-6.36-7.44-6.36-3.34-.03-6.6,1.02-9.3,3l-3.36-6.53c3.54-2.53,8.76-3.91,13.92-3.91,9.84-.02,15.54,4.54,15.54,14.32Zm-9.36,8.22v-3.3h-6.42c-4.38,0-5.76,1.62-5.76,3.78,0,2.34,2,3.9,5.28,3.9s5.82-1.43,6.9-4.38Z" style="fill: #fff;"/>
    </g>
    <g>
      <path d="M229.79,18.39c1.11-1.36,2.5-2.47,4.07-3.25,1.66-.79,3.48-1.18,5.31-1.14,1.42-.02,2.84,.19,4.19,.63,1.21,.39,2.31,1.08,3.19,2,.92,1.03,1.6,2.25,2,3.57,.51,1.72,.75,3.5,.71,5.29v20.76h-5.42V25.42c.03-1.06-.11-2.13-.41-3.15-.23-.79-.65-1.52-1.21-2.12-.56-.56-1.24-.97-2-1.2-.89-.27-1.81-.4-2.74-.38-1.64-.01-3.24,.49-4.58,1.43-1.34,.95-2.41,2.22-3.11,3.7v22.55h-5.42V1.25h5.42V18.39Z" style="fill: #f39200;"/>
      <path d="M256,30.11c-.02-2.17,.32-4.34,1-6.4,.62-1.87,1.6-3.6,2.87-5.11,1.24-1.45,2.79-2.61,4.53-3.4,1.89-.84,3.93-1.26,6-1.23,2.08-.03,4.15,.39,6.05,1.23,1.74,.79,3.3,1.95,4.55,3.4,1.28,1.5,2.26,3.23,2.87,5.11,.68,2.06,1.02,4.23,1,6.4v.65c.02,2.17-.32,4.34-1,6.4-.61,1.87-1.59,3.6-2.87,5.09-1.25,1.44-2.8,2.59-4.54,3.37-3.84,1.62-8.16,1.62-12,0-1.74-.78-3.29-1.93-4.54-3.37-1.29-1.49-2.29-3.22-2.92-5.09-.68-2.06-1.02-4.23-1-6.4v-.65Zm5.45,.65c0,1.51,.18,3.02,.56,4.48,.33,1.32,.9,2.58,1.68,3.7,.73,1.05,1.7,1.92,2.82,2.54,2.47,1.25,5.39,1.25,7.86,0,1.12-.62,2.08-1.49,2.81-2.54,.78-1.12,1.35-2.38,1.69-3.7,.39-1.46,.58-2.97,.57-4.48v-.65c0-1.51-.19-3.01-.57-4.47-.34-1.33-.92-2.59-1.7-3.72-.74-1.05-1.71-1.92-2.83-2.55-1.21-.65-2.57-.98-3.95-.95-1.36-.03-2.71,.3-3.9,.95-1.11,.64-2.06,1.51-2.8,2.55-.78,1.13-1.35,2.39-1.69,3.72-.38,1.46-.56,2.96-.56,4.47v.65Z" style="fill: #f39200;"/>
      <path d="M297.53,46.25h-5.42V1.25h5.42V46.25Z" style="fill: #f39200;"/>
      <path d="M306.23,6.15c-.03-.82,.26-1.62,.8-2.23,1.37-1.21,3.42-1.21,4.79,0,.55,.61,.85,1.41,.82,2.23,.03,.81-.27,1.6-.82,2.19-1.38,1.17-3.41,1.17-4.79,0-.54-.6-.83-1.38-.8-2.19Zm5.86,40.1h-5.42V14.55h5.42v31.7Z" style="fill: #f39200;"/>
      <path d="M331.39,26.13l7-11.58h6.33l-10.34,15.68,10.69,16h-6.26l-7.33-11.86-7.32,11.86h-6.3l10.69-16-10.37-15.68h6.27l6.94,11.58Z" style="fill: #f39200;"/>
    </g>
  </g>
  <g>
    <path d="M88.72,67.69c0-.19-.04-.39-.1-.57-.08-.2-.22-.37-.4-.49-.25-.18-.53-.33-.82-.43-.46-.16-.93-.29-1.4-.38-.63-.12-1.25-.3-1.86-.52-.51-.18-.99-.44-1.43-.77-.38-.28-.71-.64-.94-1.06-.23-.44-.34-.92-.33-1.41,0-.51,.11-1.01,.34-1.47,.24-.47,.58-.89,1-1.22,.46-.37,.99-.66,1.55-.84,.64-.21,1.32-.32,2-.31,.72-.01,1.44,.09,2.13,.31,.58,.18,1.12,.48,1.6,.86,.42,.35,.76,.79,1,1.28,.23,.5,.35,1.04,.34,1.59h-2.82c0-.24-.05-.48-.14-.71-.1-.23-.25-.44-.43-.61-.2-.19-.43-.33-.69-.43-.32-.12-.66-.17-1-.16-.32,0-.64,.04-.94,.14-.24,.08-.46,.19-.66,.35-.17,.13-.31,.3-.39,.5-.09,.19-.13,.4-.13,.61,0,.19,.04,.38,.12,.56,.09,.18,.23,.34,.41,.44,.25,.16,.52,.28,.8,.37,.42,.14,.84,.25,1.27,.34,.68,.13,1.35,.32,2,.55,.53,.18,1.03,.44,1.48,.77,1.23,.98,1.6,2.7,.87,4.1-.24,.48-.58,.89-1,1.22-.49,.36-1.04,.63-1.63,.79-.69,.19-1.4,.29-2.11,.28-.78,0-1.56-.12-2.3-.37-.62-.23-1.19-.56-1.68-1-.42-.38-.76-.84-1-1.35-.25-.47-.4-.98-.43-1.51h2.76c.01,.35,.11,.69,.27,1,.15,.26,.36,.48,.6,.65,.25,.16,.53,.28,.82,.35,.31,.08,.62,.11,.94,.11,.6,.04,1.2-.11,1.71-.42,.39-.25,.62-.68,.62-1.14Z" style="fill: #fff;"/>
    <path d="M100.66,64.68c0-.87,.13-1.74,.41-2.56,.25-.74,.65-1.41,1.16-2,.51-.58,1.14-1.05,1.84-1.36,1.6-.66,3.4-.66,5,0,.71,.31,1.35,.77,1.86,1.36,.51,.59,.9,1.27,1.15,2,.28,.82,.41,1.69,.4,2.56v.24c0,.87-.13,1.74-.4,2.57-.25,.74-.64,1.42-1.15,2-.51,.58-1.14,1.05-1.85,1.35-1.6,.66-3.4,.66-5,0-.71-.3-1.34-.77-1.85-1.35-.52-.58-.91-1.26-1.16-2-.28-.83-.42-1.7-.41-2.57v-.24Zm2.85,.24c0,.55,.06,1.09,.18,1.62,.1,.47,.29,.92,.55,1.33,.26,.38,.6,.69,1,.9,.43,.22,.9,.33,1.38,.32,.47,.01,.94-.1,1.36-.32,.39-.22,.71-.53,.95-.9,.26-.41,.45-.86,.55-1.33,.13-.53,.19-1.07,.19-1.62v-.24c0-.54-.06-1.08-.19-1.6-.1-.47-.29-.92-.55-1.33-.26-.38-.6-.69-1-.91-.86-.45-1.88-.45-2.74,0-.38,.23-.7,.54-.94,.91-.26,.41-.45,.86-.55,1.33-.12,.52-.18,1.06-.18,1.6v.24Z" style="fill: #fff;"/>
    <path d="M125.09,71.13h-2.85v-18h2.85v18Z" style="fill: #fff;"/>
    <path d="M143.07,69.89c-.4,.48-.91,.86-1.48,1.11-1.21,.48-2.55,.52-3.79,.12-.5-.17-.95-.45-1.32-.83-.39-.42-.68-.92-.85-1.46-.22-.7-.32-1.42-.31-2.15v-8.23h2.85v8.23c0,.39,.05,.77,.17,1.14,.09,.27,.24,.52,.44,.73,.18,.18,.39,.31,.63,.39,.25,.07,.51,.11,.77,.11,.62,.02,1.23-.12,1.78-.4,.43-.26,.78-.64,1-1.09v-9.11h2.84v12.68h-2.68l-.05-1.24Z" style="fill: #fff;"/>
    <path d="M159.49,55.37v3.08h2.24v2.11h-2.24v7.08c0,.24,.03,.47,.1,.7,.05,.16,.14,.31,.27,.42,.12,.1,.26,.17,.41,.2,.18,.03,.36,.05,.54,.05,.19,.02,.37,.02,.56,0l.43-.07v2.2l-.79,.18c-.36,.06-.72,.1-1.08,.09-.44,0-.89-.06-1.31-.19-.38-.12-.72-.33-1-.61-.31-.31-.55-.68-.69-1.1-.17-.54-.25-1.1-.24-1.66v-7.29h-2.09v-2.11h2.09v-3.08h2.8Z" style="fill: #fff;"/>
    <path d="M171.11,55.16c-.01-.41,.14-.8,.42-1.09,.32-.31,.75-.46,1.19-.43,.44-.03,.87,.13,1.19,.43,.28,.29,.43,.68,.42,1.09,.01,.4-.14,.79-.42,1.07-.32,.3-.75,.46-1.19,.43-.44,.03-.87-.12-1.19-.43-.28-.28-.43-.67-.42-1.07Zm3,16h-2.84v-12.71h2.84v12.71Z" style="fill: #fff;"/>
    <path d="M183.9,64.68c0-.87,.13-1.74,.41-2.56,.25-.74,.64-1.42,1.16-2,.51-.58,1.13-1.05,1.84-1.36,.78-.34,1.62-.51,2.47-.49,.86-.02,1.71,.15,2.5,.49,.71,.31,1.35,.78,1.86,1.36,.51,.59,.9,1.27,1.15,2,.28,.82,.41,1.69,.4,2.56v.24c0,.87-.13,1.74-.4,2.57-.25,.74-.64,1.42-1.15,2-.51,.58-1.14,1.04-1.85,1.35-1.6,.66-3.4,.66-5,0-.71-.3-1.34-.77-1.85-1.35-.52-.58-.91-1.26-1.16-2-.28-.83-.42-1.7-.41-2.57l.03-.24Zm2.85,.24c0,.54,.06,1.09,.17,1.62,.11,.47,.3,.92,.56,1.33,.25,.38,.6,.69,1,.9,.43,.22,.9,.33,1.38,.32,.47,.01,.94-.1,1.36-.32,.41-.21,.75-.52,1-.9,.26-.41,.45-.86,.55-1.33,.12-.53,.18-1.07,.18-1.62v-.24c0-.54-.06-1.08-.18-1.6-.1-.47-.29-.92-.55-1.33-.26-.38-.6-.69-1-.91-.42-.23-.9-.35-1.38-.34-.48-.01-.95,.11-1.36,.34-.38,.23-.7,.54-.94,.91-.26,.41-.45,.86-.56,1.33-.11,.53-.17,1.06-.17,1.6l-.06,.24Z" style="fill: #fff;"/>
    <path d="M207.94,58.45l.08,1.47c.44-.53,.99-.96,1.61-1.26,.65-.3,1.36-.45,2.08-.44,.56,0,1.12,.08,1.66,.25,.49,.16,.92,.44,1.27,.82,.38,.42,.66,.92,.82,1.46,.21,.71,.3,1.45,.29,2.19v8.19h-2.85v-8.21c0-.38-.04-.75-.15-1.11-.08-.27-.23-.52-.43-.73-.19-.19-.43-.33-.69-.41-.33-.09-.66-.13-1-.12-.54-.01-1.07,.13-1.53,.42-.42,.29-.77,.68-1,1.14v9h-2.84v-12.66h2.68Z" style="fill: #fff;"/>
    <path d="M233,67.69c0-.19-.03-.39-.1-.57-.07-.2-.21-.37-.39-.49-.25-.18-.53-.33-.82-.43-.45-.16-.92-.29-1.39-.38-.63-.12-1.25-.3-1.86-.52-.51-.19-1-.45-1.44-.77-.38-.28-.7-.64-.93-1.06-.23-.44-.34-.92-.33-1.41,0-.51,.11-1.01,.34-1.47,.24-.48,.58-.89,1-1.22,.46-.37,.98-.65,1.54-.84,.65-.21,1.32-.32,2-.31,.72-.01,1.43,.09,2.12,.31,.58,.18,1.13,.47,1.6,.86,.43,.35,.77,.78,1,1.28,.24,.5,.36,1.04,.35,1.59h-2.85c0-.24-.04-.49-.14-.71-.09-.23-.24-.44-.42-.61-.2-.19-.44-.33-.7-.43-.32-.12-.66-.17-1-.16-.32,0-.64,.04-.94,.14-.24,.07-.47,.19-.66,.35-.17,.13-.31,.3-.4,.5-.08,.19-.12,.4-.12,.61,0,.19,.03,.38,.11,.56,.09,.2,.24,.37,.43,.49,.25,.16,.52,.28,.8,.37,.42,.14,.84,.25,1.27,.34,.68,.13,1.35,.32,2,.55,.53,.18,1.03,.44,1.48,.77,.81,.59,1.28,1.55,1.23,2.56,0,.53-.12,1.06-.36,1.54-.24,.48-.58,.89-1,1.22-.49,.36-1.04,.62-1.62,.79-.69,.19-1.4,.29-2.11,.28-.78,.01-1.56-.11-2.3-.37-.62-.23-1.19-.56-1.68-1-.43-.37-.77-.83-1-1.35-.22-.48-.34-1.01-.34-1.54h2.63c.01,.35,.11,.69,.27,1,.15,.26,.36,.48,.6,.65,.25,.17,.53,.29,.82,.35,.31,.08,.62,.11,.94,.11,.6,.04,1.2-.11,1.71-.42,.41-.24,.66-.68,.66-1.16Z" style="fill: #fff;"/>
    <path d="M272,68.92c-.23,.28-.48,.54-.75,.78-.37,.32-.79,.58-1.23,.79-.58,.28-1.19,.49-1.82,.63-.82,.17-1.65,.26-2.49,.25-1.01,0-2.01-.18-2.95-.55-.88-.36-1.66-.9-2.3-1.6-.67-.74-1.18-1.61-1.49-2.56-.38-1.12-.56-2.3-.54-3.48v-1.13c-.02-1.17,.14-2.34,.48-3.47,.27-.94,.73-1.82,1.35-2.58,.6-.7,1.35-1.25,2.2-1.6,.95-.39,1.97-.58,3-.55,.92-.02,1.84,.12,2.72,.4,.74,.24,1.42,.62,2,1.13,.53,.49,.96,1.07,1.25,1.73,.32,.7,.52,1.44,.61,2.2h-3.04c-.06-.42-.18-.84-.35-1.23-.15-.38-.38-.72-.67-1-.31-.28-.67-.5-1.06-.64-.48-.17-.98-.25-1.49-.23-.62-.02-1.25,.11-1.81,.38-.51,.26-.95,.65-1.28,1.13-.36,.56-.62,1.18-.76,1.83-.18,.81-.26,1.64-.25,2.47v1.15c-.01,.84,.09,1.68,.3,2.49,.18,.66,.48,1.27,.88,1.82,.36,.48,.84,.86,1.38,1.12,.58,.27,1.21,.4,1.84,.39,.44,0,.88-.03,1.31-.1,.31-.06,.62-.14,.92-.25,.22-.08,.43-.2,.62-.34,.15-.09,.29-.19,.42-.3v-3.37h-3.52v-2.25h6.52v6.54Z" style="fill: #fff;"/>
    <path d="M284.82,58.45l.08,1.33c.43-.49,.96-.89,1.55-1.15,.67-.28,1.39-.42,2.11-.41,.72-.01,1.43,.14,2.08,.46,.62,.32,1.11,.85,1.4,1.48,.89-1.26,2.35-1.99,3.89-1.94,.6,0,1.19,.08,1.76,.26,.5,.17,.95,.45,1.31,.83,.38,.42,.66,.92,.82,1.46,.2,.7,.3,1.42,.28,2.15v8.21h-2.84v-8.22c0-.39-.05-.78-.16-1.16-.09-.27-.25-.52-.46-.72-.2-.18-.45-.31-.71-.37-.31-.08-.63-.11-.95-.11-.57-.02-1.13,.16-1.58,.52-.42,.36-.72,.84-.87,1.37v8.69h-2.83v-8.19c.01-.38-.04-.76-.16-1.12-.17-.56-.62-.99-1.18-1.15-.31-.08-.63-.12-.95-.12-.53-.02-1.05,.11-1.5,.38-.39,.24-.71,.59-.92,1v9.18h-2.85v-12.66h2.68Z" style="fill: #fff;"/>
    <path d="M321.35,64.92c.01,.87-.1,1.75-.32,2.59-.19,.72-.51,1.4-.94,2-.4,.56-.93,1.02-1.55,1.34-1.31,.62-2.82,.64-4.15,.06-.57-.28-1.07-.69-1.45-1.19l-.14,1.37h-2.58v-18h2.85v6.54c.39-.46,.87-.83,1.41-1.08,.6-.26,1.25-.39,1.91-.37,.74-.02,1.48,.15,2.15,.47,.62,.32,1.15,.78,1.56,1.35,.43,.61,.75,1.28,.94,2,.22,.85,.32,1.73,.31,2.61v.31Zm-2.84-.24c0-.53-.05-1.07-.14-1.59-.08-.46-.23-.9-.46-1.31-.21-.36-.51-.67-.87-.89-.42-.24-.89-.36-1.37-.34-.59-.03-1.17,.13-1.67,.45-.43,.3-.78,.7-1,1.18v5.22c.22,.48,.57,.89,1,1.19,.48,.33,1.06,.49,1.64,.46,.46,.01,.92-.1,1.33-.32,.36-.22,.66-.52,.87-.88,.23-.41,.4-.85,.48-1.31,.09-.53,.14-1.08,.14-1.62l.05-.24Z" style="fill: #fff;"/>
    <path d="M344.76,71.13h-2.95v-7.58h-7.63v7.58h-3v-17.06h3v7.1h7.63v-7.1h2.95v17.06Z" style="fill: #fff;"/>
  </g>
  <path d="M37.78,26L53.92,0h14.52l-23.8,35.27,24.54,36h-14.39l-16.79-26.64-16.83,26.69H6.72L31.26,35.32,7.46,0h14.38l15.94,26Z" style="fill: #f39200;"/>
  <path d="M0,46c-.04-3.51,.39-7,1.26-10.4,.73-2.89,1.98-5.63,3.67-8.09,3.13-4.56,8.36-7.23,13.89-7.08,2.27-.04,4.51,.45,6.55,1.43,1.92,.98,3.62,2.34,5,4V.41h12.91V71.41h-11.59l-.62-5.31c-1.42,1.89-3.22,3.46-5.28,4.6-2.18,1.13-4.61,1.7-7.06,1.64-2.76,.05-5.49-.61-7.92-1.92-2.34-1.29-4.35-3.1-5.88-5.29-1.68-2.43-2.92-5.14-3.67-8C.39,53.82-.03,50.42,0,47v-1Zm12.83,1c-.01,1.91,.15,3.81,.49,5.69,.27,1.61,.8,3.16,1.57,4.6,.68,1.25,1.65,2.32,2.84,3.1,1.28,.78,2.77,1.18,4.27,1.14,1.82,.07,3.63-.41,5.17-1.39,1.41-.96,2.53-2.29,3.23-3.84v-19.74c-.69-1.56-1.8-2.9-3.21-3.86-1.52-.95-3.3-1.42-5.09-1.36-1.51-.04-3.01,.35-4.3,1.13-1.2,.78-2.19,1.85-2.86,3.12-.78,1.46-1.32,3.04-1.6,4.67-.35,1.89-.52,3.81-.51,5.74v1Z" style="fill: #fff;"/>
</svg>