<svg id="Ebene_1" data-name="Ebene 1" xmlns="http://www.w3.org/2000/svg" viewBox="0 0 345.07 72.35">
  <g>
    <g style="isolation: isolate">
      <g style="isolation: isolate">
        <path d="M115.81,1.73V46.25h-8.94V42.53c-2.34,2.82-5.76,4.2-10.08,4.2-9.12,0-16.14-6.48-16.14-16.62s7-16.62,16.14-16.62c4,0,7.32,1.26,9.66,3.91V1.73Zm-9.18,28.38c0-5.58-3.6-8.94-8.22-8.94s-8.28,3.36-8.28,8.94,3.6,8.94,8.28,8.94S106.63,35.69,106.63,30.11Z" style="fill: #fff"/>
        <path d="M153,27.83V46.25h-8.76v-4c-1.74,2.94-5.1,4.5-9.84,4.5-7.56,0-12.06-4.2-12.06-9.78s4-9.66,13.86-9.66h7.44c0-4-2.4-6.36-7.44-6.36a15.52,15.52,0,0,0-9.3,3l-3.36-6.53c3.54-2.53,8.76-3.91,13.92-3.91C147.31,13.49,153,18.05,153,27.83Zm-9.36,8.22v-3.3h-6.42c-4.38,0-5.76,1.62-5.76,3.78,0,2.34,2,3.9,5.28,3.9C139.87,40.43,142.57,39,143.65,36.05Z" style="fill: #fff"/>
        <path d="M182.29,44.69a13.38,13.38,0,0,1-7.62,2c-7.62,0-12.06-3.9-12.06-11.58V21.89h-5v-7.2h5V6.84H172v7.85h8v7.2h-8V35c0,2.76,1.5,4.26,4,4.26a6.31,6.31,0,0,0,3.78-1.2Z" style="fill: #fff"/>
        <path d="M216.13,27.83V46.25h-8.76v-4c-1.74,2.94-5.1,4.5-9.84,4.5-7.56,0-12.06-4.2-12.06-9.78s4-9.66,13.86-9.66h7.44c0-4-2.4-6.36-7.44-6.36a15.52,15.52,0,0,0-9.3,3l-3.36-6.53c3.54-2.53,8.76-3.91,13.92-3.91C210.43,13.49,216.13,18.05,216.13,27.83Zm-9.36,8.22v-3.3h-6.42c-4.38,0-5.76,1.62-5.76,3.78,0,2.34,2,3.9,5.28,3.9C203,40.43,205.69,39,206.77,36.05Z" style="fill: #fff"/>
      </g>
      <g style="isolation: isolate">
        <path d="M229.79,18.39a12.2,12.2,0,0,1,4.07-3.25A11.86,11.86,0,0,1,239.17,14a13.12,13.12,0,0,1,4.19.63,7.74,7.74,0,0,1,3.19,2,9.4,9.4,0,0,1,2,3.57,17.36,17.36,0,0,1,.71,5.29V46.25h-5.42V25.42a10.38,10.38,0,0,0-.41-3.15,5.23,5.23,0,0,0-1.21-2.12,4.73,4.73,0,0,0-2-1.2,8.85,8.85,0,0,0-2.74-.38A7.87,7.87,0,0,0,232.9,20a9.52,9.52,0,0,0-3.11,3.7V46.25h-5.42v-45h5.42Z" style="fill: #f39200"/>
        <path d="M256,30.11a19.7,19.7,0,0,1,1-6.4,15.54,15.54,0,0,1,2.87-5.11,13.07,13.07,0,0,1,4.53-3.4,14.12,14.12,0,0,1,6-1.23,14.38,14.38,0,0,1,6.05,1.23A13.24,13.24,0,0,1,281,18.6a15,15,0,0,1,2.87,5.11,19.7,19.7,0,0,1,1,6.4v.65a19.74,19.74,0,0,1-1,6.4A14.84,14.84,0,0,1,281,42.25a13.12,13.12,0,0,1-4.54,3.37,15.39,15.39,0,0,1-12,0,13.12,13.12,0,0,1-4.54-3.37A15.21,15.21,0,0,1,257,37.16a19.74,19.74,0,0,1-1-6.4Zm5.45.65a17.57,17.57,0,0,0,.56,4.48,11.39,11.39,0,0,0,1.68,3.7,8.37,8.37,0,0,0,2.82,2.54,8.69,8.69,0,0,0,7.86,0,8.24,8.24,0,0,0,2.81-2.54,11.62,11.62,0,0,0,1.69-3.7,17.13,17.13,0,0,0,.57-4.48v-.65a17.22,17.22,0,0,0-.57-4.47,11.75,11.75,0,0,0-1.7-3.72,8.65,8.65,0,0,0-2.83-2.55,8,8,0,0,0-3.95-.95,7.77,7.77,0,0,0-3.9.95,8.75,8.75,0,0,0-2.8,2.55A11.5,11.5,0,0,0,262,25.64a17.66,17.66,0,0,0-.56,4.47Z" style="fill: #f39200"/>
        <path d="M297.53,46.25h-5.42v-45h5.42Z" style="fill: #f39200"/>
        <path d="M306.23,6.15a3.21,3.21,0,0,1,.8-2.23,3.61,3.61,0,0,1,4.79,0,3.18,3.18,0,0,1,.82,2.23,3.07,3.07,0,0,1-.82,2.19,3.7,3.7,0,0,1-4.79,0A3.1,3.1,0,0,1,306.23,6.15Zm5.86,40.1h-5.42V14.55h5.42Z" style="fill: #f39200"/>
        <path d="M331.39,26.13l7-11.58h6.33L334.38,30.23l10.69,16h-6.26l-7.33-11.86-7.32,11.86h-6.3l10.69-16L318.18,14.55h6.27Z" style="fill: #f39200"/>
      </g>
    </g>
    <g style="isolation: isolate">
      <path d="M88.72,67.69a1.75,1.75,0,0,0-.1-.57,1.13,1.13,0,0,0-.4-.49,3.09,3.09,0,0,0-.82-.43A10.54,10.54,0,0,0,86,65.82a12.47,12.47,0,0,1-1.86-.52,5.52,5.52,0,0,1-1.43-.77,3.38,3.38,0,0,1-.94-1.06,2.94,2.94,0,0,1-.33-1.41,3.3,3.3,0,0,1,.34-1.47,3.67,3.67,0,0,1,1-1.22,4.88,4.88,0,0,1,1.55-.84,6.14,6.14,0,0,1,2-.31,6.72,6.72,0,0,1,2.13.31,4.9,4.9,0,0,1,1.6.86,3.75,3.75,0,0,1,1,1.28,3.69,3.69,0,0,1,.34,1.59H88.58a2,2,0,0,0-.14-.71,1.83,1.83,0,0,0-.43-.61,2.08,2.08,0,0,0-.69-.43,2.63,2.63,0,0,0-1-.16,3,3,0,0,0-.94.14,2.07,2.07,0,0,0-.66.35,1.24,1.24,0,0,0-.39.5,1.39,1.39,0,0,0-.13.61,1.28,1.28,0,0,0,.12.56,1.06,1.06,0,0,0,.41.44,3.16,3.16,0,0,0,.8.37,10.66,10.66,0,0,0,1.27.34,14.2,14.2,0,0,1,2,.55,5.55,5.55,0,0,1,1.48.77,3.3,3.3,0,0,1,.87,4.1,3.52,3.52,0,0,1-1,1.22,5.05,5.05,0,0,1-1.63.79,7.64,7.64,0,0,1-2.11.28,6.81,6.81,0,0,1-2.3-.37,5.26,5.26,0,0,1-1.68-1,4.12,4.12,0,0,1-1-1.35A3.7,3.7,0,0,1,81,67.14h2.76a2.31,2.31,0,0,0,.27,1,2.08,2.08,0,0,0,.6.65,2.51,2.51,0,0,0,.82.35,3.72,3.72,0,0,0,.94.11,2.92,2.92,0,0,0,1.71-.42A1.34,1.34,0,0,0,88.72,67.69Z" style="fill: #fff"/>
      <path d="M100.66,64.68a7.76,7.76,0,0,1,.41-2.56,6,6,0,0,1,1.16-2,5.32,5.32,0,0,1,1.84-1.36,6.55,6.55,0,0,1,5,0,5.22,5.22,0,0,1,1.86,1.36,6,6,0,0,1,1.15,2,7.77,7.77,0,0,1,.4,2.56v.24a7.91,7.91,0,0,1-.4,2.57,5.82,5.82,0,0,1-1.15,2,5.12,5.12,0,0,1-1.85,1.35,6.55,6.55,0,0,1-5,0,5.12,5.12,0,0,1-1.85-1.35,5.84,5.84,0,0,1-1.16-2,7.91,7.91,0,0,1-.41-2.57Zm2.85.24a7.06,7.06,0,0,0,.18,1.62,3.89,3.89,0,0,0,.55,1.33,2.82,2.82,0,0,0,1,.9,2.87,2.87,0,0,0,1.38.32,2.79,2.79,0,0,0,1.36-.32,2.64,2.64,0,0,0,.95-.9,4.09,4.09,0,0,0,.55-1.33,6.54,6.54,0,0,0,.19-1.62v-.24a6.32,6.32,0,0,0-.19-1.6,4.09,4.09,0,0,0-.55-1.33,2.88,2.88,0,0,0-1-.91,2.93,2.93,0,0,0-2.74,0,2.92,2.92,0,0,0-.94.91,3.89,3.89,0,0,0-.55,1.33,6.82,6.82,0,0,0-.18,1.6Z" style="fill: #fff"/>
      <path d="M125.09,71.13h-2.85v-18h2.85Z" style="fill: #fff"/>
      <path d="M143.07,69.89A4,4,0,0,1,141.59,71a5.65,5.65,0,0,1-3.79.12,3.26,3.26,0,0,1-1.32-.83,3.94,3.94,0,0,1-.85-1.46,6.83,6.83,0,0,1-.31-2.15V58.45h2.85v8.23a3.34,3.34,0,0,0,.17,1.14,1.88,1.88,0,0,0,.44.73,1.59,1.59,0,0,0,.63.39,2.81,2.81,0,0,0,.77.11,3.58,3.58,0,0,0,1.78-.4,2.61,2.61,0,0,0,1-1.09V58.45h2.84V71.13h-2.68Z" style="fill: #fff"/>
      <path d="M159.49,55.37v3.08h2.24v2.11h-2.24v7.08a2,2,0,0,0,.1.7.9.9,0,0,0,.27.42.93.93,0,0,0,.41.2,2.92,2.92,0,0,0,.54.05,3.43,3.43,0,0,0,.56,0l.43-.07v2.2l-.79.18a5.59,5.59,0,0,1-1.08.09,4.23,4.23,0,0,1-1.31-.19,2.54,2.54,0,0,1-1-.61,2.84,2.84,0,0,1-.69-1.1,5,5,0,0,1-.24-1.66V60.56h-2.09V58.45h2.09V55.37Z" style="fill: #fff"/>
      <path d="M171.11,55.16a1.5,1.5,0,0,1,.42-1.09,1.55,1.55,0,0,1,1.19-.43,1.58,1.58,0,0,1,1.19.43,1.5,1.5,0,0,1,.42,1.09,1.45,1.45,0,0,1-.42,1.07,1.58,1.58,0,0,1-1.19.43,1.55,1.55,0,0,1-1.19-.43A1.45,1.45,0,0,1,171.11,55.16Zm3,16h-2.84V58.45h2.84Z" style="fill: #fff"/>
      <path d="M183.9,64.68a7.76,7.76,0,0,1,.41-2.56,5.82,5.82,0,0,1,1.16-2,5.23,5.23,0,0,1,1.84-1.36,5.92,5.92,0,0,1,2.47-.49,6,6,0,0,1,2.5.49,5.4,5.4,0,0,1,1.86,1.36,6,6,0,0,1,1.15,2,7.77,7.77,0,0,1,.4,2.56v.24a7.91,7.91,0,0,1-.4,2.57,5.82,5.82,0,0,1-1.15,2,5.21,5.21,0,0,1-1.85,1.35,6.55,6.55,0,0,1-5,0,5.12,5.12,0,0,1-1.85-1.35,5.69,5.69,0,0,1-1.16-2,7.91,7.91,0,0,1-.41-2.57Zm2.85.24a7.66,7.66,0,0,0,.17,1.62,4.1,4.1,0,0,0,.56,1.33,2.73,2.73,0,0,0,1,.9,2.87,2.87,0,0,0,1.38.32,2.79,2.79,0,0,0,1.36-.32,2.64,2.64,0,0,0,1-.9,4.09,4.09,0,0,0,.55-1.33,7.06,7.06,0,0,0,.18-1.62v-.24a6.82,6.82,0,0,0-.18-1.6,4.09,4.09,0,0,0-.55-1.33,2.88,2.88,0,0,0-1-.91,2.77,2.77,0,0,0-1.38-.34,2.66,2.66,0,0,0-1.36.34,2.92,2.92,0,0,0-.94.91,4.1,4.1,0,0,0-.56,1.33,7.41,7.41,0,0,0-.17,1.6Z" style="fill: #fff"/>
      <path d="M207.94,58.45l.08,1.47a4.7,4.7,0,0,1,1.61-1.26,4.87,4.87,0,0,1,2.08-.44,5.08,5.08,0,0,1,1.66.25,3,3,0,0,1,1.27.82,3.62,3.62,0,0,1,.82,1.46,7.31,7.31,0,0,1,.29,2.19v8.19H212.9V62.92a3.55,3.55,0,0,0-.15-1.11,1.82,1.82,0,0,0-.43-.73,1.65,1.65,0,0,0-.69-.41,3.5,3.5,0,0,0-1-.12,2.76,2.76,0,0,0-1.53.42,3.1,3.1,0,0,0-1,1.14v9h-2.84V58.45Z" style="fill: #fff"/>
      <path d="M233,67.69a1.52,1.52,0,0,0-.1-.57,1,1,0,0,0-.39-.49,3.09,3.09,0,0,0-.82-.43,10.54,10.54,0,0,0-1.39-.38,12.47,12.47,0,0,1-1.86-.52,5.76,5.76,0,0,1-1.44-.77,3.35,3.35,0,0,1-.93-1.06,2.94,2.94,0,0,1-.33-1.41,3.3,3.3,0,0,1,.34-1.47,3.55,3.55,0,0,1,1-1.22,4.94,4.94,0,0,1,1.54-.84,6.24,6.24,0,0,1,2-.31,6.66,6.66,0,0,1,2.12.31,4.7,4.7,0,0,1,1.6.86,3.63,3.63,0,0,1,1,1.28,3.56,3.56,0,0,1,.35,1.59h-2.85a1.76,1.76,0,0,0-.14-.71,1.67,1.67,0,0,0-.42-.61,2.12,2.12,0,0,0-.7-.43,2.58,2.58,0,0,0-1-.16,2.91,2.91,0,0,0-.94.14,1.88,1.88,0,0,0-.66.35,1.36,1.36,0,0,0-.4.5,1.54,1.54,0,0,0-.12.61,1.27,1.27,0,0,0,.11.56A1.16,1.16,0,0,0,229,63a3.16,3.16,0,0,0,.8.37,10.66,10.66,0,0,0,1.27.34,14.2,14.2,0,0,1,2,.55,5.71,5.71,0,0,1,1.48.77,3,3,0,0,1,1.23,2.56,3.33,3.33,0,0,1-.36,1.54,3.55,3.55,0,0,1-1,1.22,5.1,5.1,0,0,1-1.62.79,7.64,7.64,0,0,1-2.11.28,6.76,6.76,0,0,1-2.3-.37,5.26,5.26,0,0,1-1.68-1,4,4,0,0,1-1-1.35,3.7,3.7,0,0,1-.34-1.54H228a2.31,2.31,0,0,0,.27,1,2.08,2.08,0,0,0,.6.65,2.42,2.42,0,0,0,.82.35,3.67,3.67,0,0,0,.94.11,2.92,2.92,0,0,0,1.71-.42A1.33,1.33,0,0,0,233,67.69Z" style="fill: #fff"/>
      <path d="M272,68.92a6.53,6.53,0,0,1-.75.78,5.44,5.44,0,0,1-1.23.79,8.76,8.76,0,0,1-1.82.63,11.38,11.38,0,0,1-2.49.25,7.86,7.86,0,0,1-2.95-.55,6.4,6.4,0,0,1-2.3-1.6,7.17,7.17,0,0,1-1.49-2.56,10.42,10.42,0,0,1-.54-3.48V62.05a11.55,11.55,0,0,1,.48-3.47A7.23,7.23,0,0,1,260.26,56a5.77,5.77,0,0,1,2.2-1.6,7.46,7.46,0,0,1,3-.55,8.25,8.25,0,0,1,2.72.4,5.7,5.7,0,0,1,2,1.13,5.26,5.26,0,0,1,1.25,1.73,7.37,7.37,0,0,1,.61,2.2H269a4.64,4.64,0,0,0-.35-1.23,3,3,0,0,0-.67-1,3.19,3.19,0,0,0-1.06-.64,4.13,4.13,0,0,0-1.49-.23,3.93,3.93,0,0,0-1.81.38,3.46,3.46,0,0,0-1.28,1.13,5.45,5.45,0,0,0-.76,1.83,10.86,10.86,0,0,0-.25,2.47v1.15a9.44,9.44,0,0,0,.3,2.49,5.42,5.42,0,0,0,.88,1.82,3.72,3.72,0,0,0,1.38,1.12,4.21,4.21,0,0,0,1.84.39,7.05,7.05,0,0,0,1.31-.1,5.22,5.22,0,0,0,.92-.25,2.4,2.4,0,0,0,.62-.34A2.79,2.79,0,0,0,269,68V64.63h-3.52V62.38H272Z" style="fill: #fff"/>
      <path d="M284.82,58.45l.08,1.33a4.43,4.43,0,0,1,1.55-1.15,5.12,5.12,0,0,1,2.11-.41,4.54,4.54,0,0,1,2.08.46,3.15,3.15,0,0,1,1.4,1.48,4.58,4.58,0,0,1,3.89-1.94,5.62,5.62,0,0,1,1.76.26,3.3,3.3,0,0,1,1.31.83,3.89,3.89,0,0,1,.82,1.46,7.14,7.14,0,0,1,.28,2.15v8.21h-2.84V62.91a3.72,3.72,0,0,0-.16-1.16,1.76,1.76,0,0,0-.46-.72,1.67,1.67,0,0,0-.71-.37,3.93,3.93,0,0,0-.95-.11,2.39,2.39,0,0,0-1.58.52,2.77,2.77,0,0,0-.87,1.37s0,.08,0,.12,0,.09,0,.12v8.45H289.7V62.94a3.32,3.32,0,0,0-.16-1.12,1.73,1.73,0,0,0-1.18-1.15,3.48,3.48,0,0,0-.95-.12,2.73,2.73,0,0,0-1.5.38,2.52,2.52,0,0,0-.92,1v9.18h-2.85V58.45Z" style="fill: #fff"/>
      <path d="M321.35,64.92a9.62,9.62,0,0,1-.32,2.59,6.19,6.19,0,0,1-.94,2,4.35,4.35,0,0,1-1.55,1.34,5,5,0,0,1-4.15.06,4.05,4.05,0,0,1-1.45-1.19l-.14,1.37h-2.58v-18h2.85v6.54a4.1,4.1,0,0,1,1.41-1.08,4.52,4.52,0,0,1,1.91-.37,4.7,4.7,0,0,1,2.15.47A4.44,4.44,0,0,1,320.1,60a6.24,6.24,0,0,1,.94,2,10.15,10.15,0,0,1,.31,2.61Zm-2.84-.24a9,9,0,0,0-.14-1.59,4,4,0,0,0-.46-1.31,2.56,2.56,0,0,0-.87-.89,2.53,2.53,0,0,0-1.37-.34A2.83,2.83,0,0,0,314,61a2.89,2.89,0,0,0-1,1.18V67.4a2.93,2.93,0,0,0,1,1.19,2.7,2.7,0,0,0,1.64.46,2.59,2.59,0,0,0,1.33-.32,2.53,2.53,0,0,0,.87-.88,4.14,4.14,0,0,0,.48-1.31,9.14,9.14,0,0,0,.14-1.62Z" style="fill: #fff"/>
      <path d="M344.76,71.13h-2.95V63.55h-7.63v7.58h-3V54.07h3v7.1h7.63v-7.1h2.95Z" style="fill: #fff"/>
    </g>
    <g style="isolation: isolate">
      <path d="M37.78,26,53.92,0H68.44L44.64,35.27l24.54,36H54.79L38,44.63,21.17,71.32H6.72l24.54-36L7.46,0H21.84Z" style="fill: #f39200"/>
    </g>
    <g style="isolation: isolate">
      <path d="M0,46a40.22,40.22,0,0,1,1.26-10.4,25.09,25.09,0,0,1,3.67-8.09,16.33,16.33,0,0,1,13.89-7.08,14.51,14.51,0,0,1,6.55,1.43,15.86,15.86,0,0,1,5,4V.41H43.28v71H31.69l-.62-5.31a16.78,16.78,0,0,1-5.28,4.6,14.61,14.61,0,0,1-7.06,1.64,16.12,16.12,0,0,1-7.92-1.92,17.37,17.37,0,0,1-5.88-5.29,25.25,25.25,0,0,1-3.67-8A38.43,38.43,0,0,1,0,47Zm12.83,1a30.85,30.85,0,0,0,.49,5.69,15.1,15.1,0,0,0,1.57,4.6,8.59,8.59,0,0,0,2.84,3.1A7.79,7.79,0,0,0,22,61.53a9,9,0,0,0,5.17-1.39A9.22,9.22,0,0,0,30.4,56.3V36.56a9.1,9.1,0,0,0-3.21-3.86,9,9,0,0,0-5.09-1.36,7.87,7.87,0,0,0-4.3,1.13,8.37,8.37,0,0,0-2.86,3.12,15.74,15.74,0,0,0-1.6,4.67A31,31,0,0,0,12.83,46Z" style="fill: #fff"/>
    </g>
  </g>
</svg>
