<?xml version="1.0" encoding="utf-8"?>
<!-- Generator: Adobe Illustrator 26.3.1, SVG Export Plug-In . SVG Version: 6.00 Build 0)  -->
<svg version="1.1" id="Ebene_1" xmlns="http://www.w3.org/2000/svg" xmlns:xlink="http://www.w3.org/1999/xlink" x="0px" y="0px"
	 viewBox="0 0 381.9 108.2" style="enable-background:new 0 0 381.9 108.2;" xml:space="preserve">
<style type="text/css">
	.st0{enable-background:new    ;}
	.st1{fill:#F39200;}
</style>
<g>
	<g>
		<g class="st0">
			<path d="M133.6,21.8v44.5h-8.9v-3.7c-2.3,2.8-5.8,4.2-10.1,4.2c-9.1,0-16.1-6.5-16.1-16.6s7-16.6,16.1-16.6c4,0,7.3,1.3,9.7,3.9
				V21.8H133.6z M124.4,50.2c0-5.6-3.6-8.9-8.2-8.9c-4.7,0-8.3,3.4-8.3,8.9c0,5.6,3.6,8.9,8.3,8.9C120.8,59.1,124.4,55.8,124.4,50.2
				z"/>
			<path d="M170.8,47.9v18.4H162v-4c-1.7,2.9-5.1,4.5-9.8,4.5c-7.6,0-12.1-4.2-12.1-9.8c0-5.7,4-9.7,13.9-9.7h7.4
				c0-4-2.4-6.4-7.4-6.4c-3.4,0-7,1.1-9.3,3l-3.4-6.5c3.5-2.5,8.8-3.9,13.9-3.9C165.1,33.6,170.8,38.1,170.8,47.9z M161.4,56.1v-3.3
				H155c-4.4,0-5.8,1.6-5.8,3.8c0,2.3,2,3.9,5.3,3.9C157.7,60.5,160.4,59.1,161.4,56.1z"/>
			<path d="M200.1,64.8c-1.9,1.4-4.7,2-7.6,2c-7.6,0-12.1-3.9-12.1-11.6V42h-5v-7.2h5v-7.9h9.4v7.9h8V42h-8v13.1
				c0,2.8,1.5,4.3,4,4.3c1.4,0,2.8-0.4,3.8-1.2L200.1,64.8z"/>
			<path d="M233.9,47.9v18.4h-8.8v-4c-1.7,2.9-5.1,4.5-9.8,4.5c-7.6,0-12.1-4.2-12.1-9.8c0-5.7,4-9.7,13.9-9.7h7.4
				c0-4-2.4-6.4-7.4-6.4c-3.4,0-7,1.1-9.3,3l-3.4-6.5c3.5-2.5,8.8-3.9,13.9-3.9C228.2,33.6,233.9,38.1,233.9,47.9z M224.6,56.1v-3.3
				h-6.4c-4.4,0-5.8,1.6-5.8,3.8c0,2.3,2,3.9,5.3,3.9C220.8,60.5,223.5,59.1,224.6,56.1z"/>
		</g>
		<g class="st0">
			<path class="st1" d="M247.6,38.5c1.1-1.4,2.5-2.5,4.1-3.3S255,34,257,34c1.5,0,2.9,0.2,4.2,0.6c1.2,0.4,2.3,1.1,3.2,2
				s1.6,2.1,2,3.6c0.5,1.5,0.7,3.2,0.7,5.3v20.8h-5.4V45.5c0-1.2-0.1-2.3-0.4-3.1c-0.3-0.9-0.7-1.6-1.2-2.1c-0.5-0.5-1.2-0.9-2-1.2
				s-1.7-0.4-2.7-0.4c-1.8,0-3.3,0.5-4.6,1.4c-1.3,0.9-2.4,2.2-3.1,3.7v22.6h-5.4v-45h5.4V38.5z"/>
			<path class="st1" d="M273.8,50.2c0-2.3,0.3-4.4,1-6.4s1.6-3.7,2.9-5.1c1.2-1.4,2.7-2.6,4.5-3.4c1.8-0.8,3.8-1.2,6-1.2
				c2.2,0,4.3,0.4,6,1.2s3.3,2,4.6,3.4c1.2,1.4,2.2,3.1,2.9,5.1c0.7,2,1,4.1,1,6.4v0.6c0,2.3-0.3,4.4-1,6.4c-0.7,2-1.6,3.7-2.9,5.1
				c-1.2,1.4-2.8,2.6-4.5,3.4c-1.8,0.8-3.8,1.2-6,1.2s-4.2-0.4-6-1.2c-1.8-0.8-3.3-1.9-4.5-3.4c-1.2-1.4-2.2-3.1-2.9-5.1
				s-1-4.1-1-6.4V50.2z M279.2,50.8c0,1.6,0.2,3.1,0.6,4.5c0.4,1.4,0.9,2.6,1.7,3.7c0.8,1.1,1.7,1.9,2.8,2.5
				c1.1,0.6,2.4,0.9,3.9,0.9c1.5,0,2.8-0.3,3.9-0.9c1.1-0.6,2.1-1.5,2.8-2.5c0.7-1.1,1.3-2.3,1.7-3.7s0.6-2.9,0.6-4.5v-0.6
				c0-1.6-0.2-3.1-0.6-4.5s-0.9-2.7-1.7-3.7c-0.8-1.1-1.7-1.9-2.8-2.5c-1.1-0.6-2.5-1-4-1c-1.5,0-2.8,0.3-3.9,1s-2,1.5-2.8,2.5
				c-0.8,1.1-1.3,2.3-1.7,3.7c-0.4,1.4-0.6,2.9-0.6,4.5V50.8z"/>
			<path class="st1" d="M315.3,66.3h-5.4v-45h5.4V66.3z"/>
			<path class="st1" d="M324,26.2c0-0.9,0.3-1.6,0.8-2.2c0.5-0.6,1.3-0.9,2.4-0.9s1.9,0.3,2.4,0.9c0.5,0.6,0.8,1.3,0.8,2.2
				c0,0.9-0.3,1.6-0.8,2.2c-0.5,0.6-1.3,0.9-2.4,0.9s-1.9-0.3-2.4-0.9C324.3,27.8,324,27.1,324,26.2z M329.9,66.3h-5.4V34.6h5.4
				V66.3z"/>
			<path class="st1" d="M349.2,46.2l7-11.6h6.3l-10.4,15.7l10.7,16h-6.3l-7.3-11.9l-7.3,11.9h-6.3l10.7-16L336,34.6h6.3L349.2,46.2z
				"/>
		</g>
		<g class="st0">
			<path d="M106.5,87.8c0-0.2,0-0.4-0.1-0.6s-0.2-0.3-0.4-0.5s-0.5-0.3-0.8-0.4s-0.8-0.3-1.4-0.4c-0.7-0.1-1.3-0.3-1.9-0.5
				s-1-0.5-1.4-0.8s-0.7-0.7-0.9-1.1s-0.3-0.9-0.3-1.4c0-0.5,0.1-1,0.3-1.5s0.6-0.9,1-1.2s0.9-0.6,1.5-0.8s1.3-0.3,2-0.3
				c0.8,0,1.5,0.1,2.1,0.3s1.2,0.5,1.6,0.9s0.8,0.8,1,1.3s0.3,1,0.3,1.6h-2.8c0-0.2,0-0.5-0.1-0.7s-0.2-0.4-0.4-0.6
				s-0.4-0.3-0.7-0.4s-0.6-0.2-1-0.2c-0.4,0-0.7,0-0.9,0.1s-0.5,0.2-0.7,0.4s-0.3,0.3-0.4,0.5S102,81.8,102,82s0,0.4,0.1,0.6
				s0.2,0.3,0.4,0.4s0.5,0.3,0.8,0.4s0.8,0.2,1.3,0.3c0.7,0.2,1.4,0.3,2,0.6s1.1,0.5,1.5,0.8s0.7,0.7,0.9,1.1s0.3,0.9,0.3,1.5
				c0,0.6-0.1,1.1-0.4,1.5s-0.6,0.9-1,1.2s-1,0.6-1.6,0.8s-1.3,0.3-2.1,0.3c-0.9,0-1.6-0.1-2.3-0.4s-1.2-0.6-1.7-1s-0.8-0.8-1-1.4
				s-0.3-1-0.3-1.5h2.8c0,0.4,0.1,0.7,0.3,1s0.4,0.5,0.6,0.6s0.5,0.3,0.8,0.4s0.6,0.1,0.9,0.1c0.8,0,1.3-0.1,1.7-0.4
				S106.5,88.2,106.5,87.8z"/>
			<path d="M118.5,84.7c0-0.9,0.1-1.8,0.4-2.6s0.7-1.5,1.2-2s1.1-1,1.8-1.4s1.6-0.5,2.5-0.5c0.9,0,1.8,0.2,2.5,0.5s1.4,0.8,1.9,1.4
				s0.9,1.3,1.2,2s0.4,1.6,0.4,2.6V85c0,0.9-0.1,1.8-0.4,2.6s-0.7,1.5-1.2,2s-1.1,1-1.9,1.3s-1.6,0.5-2.5,0.5
				c-0.9,0-1.8-0.2-2.5-0.5s-1.3-0.8-1.9-1.3s-0.9-1.3-1.2-2s-0.4-1.6-0.4-2.6V84.7z M121.3,85c0,0.6,0.1,1.1,0.2,1.6s0.3,1,0.6,1.3
				s0.6,0.7,1,0.9s0.8,0.3,1.4,0.3c0.5,0,1-0.1,1.4-0.3s0.7-0.5,0.9-0.9s0.4-0.8,0.6-1.3s0.2-1,0.2-1.6v-0.2c0-0.6-0.1-1.1-0.2-1.6
				s-0.3-0.9-0.6-1.3s-0.6-0.7-1-0.9s-0.8-0.3-1.4-0.3s-1,0.1-1.4,0.3s-0.7,0.5-0.9,0.9s-0.4,0.8-0.6,1.3s-0.2,1-0.2,1.6V85z"/>
			<path d="M142.9,91.2H140v-18h2.8V91.2z"/>
			<path d="M160.9,90c-0.4,0.5-0.9,0.8-1.5,1.1s-1.3,0.4-2.1,0.4c-0.6,0-1.2-0.1-1.7-0.3s-1-0.5-1.3-0.8s-0.7-0.9-0.9-1.5
				s-0.3-1.3-0.3-2.2v-8.2h2.8v8.2c0,0.5,0.1,0.8,0.2,1.1s0.3,0.5,0.4,0.7s0.4,0.3,0.6,0.4s0.5,0.1,0.8,0.1c0.7,0,1.3-0.1,1.8-0.4
				s0.8-0.6,1-1.1v-9.1h2.8v12.7h-2.7L160.9,90z"/>
			<path d="M177.3,75.4v3.1h2.2v2.1h-2.2v7.1c0,0.3,0,0.5,0.1,0.7s0.2,0.3,0.3,0.4s0.3,0.2,0.4,0.2s0.3,0.1,0.5,0.1s0.4,0,0.6,0
				s0.3-0.1,0.4-0.1v2.2c-0.2,0.1-0.5,0.1-0.8,0.2s-0.7,0.1-1.1,0.1c-0.5,0-0.9-0.1-1.3-0.2s-0.8-0.3-1-0.6s-0.5-0.6-0.7-1.1
				s-0.2-1-0.2-1.7v-7.2h-2.1v-2.1h2.1v-3.1H177.3z"/>
			<path d="M188.9,75.2c0-0.4,0.1-0.8,0.4-1.1s0.7-0.4,1.2-0.4s0.9,0.1,1.2,0.4s0.4,0.7,0.4,1.1c0,0.4-0.1,0.8-0.4,1.1
				s-0.7,0.4-1.2,0.4s-0.9-0.1-1.2-0.4S188.9,75.7,188.9,75.2z M191.9,91.2h-2.8V78.5h2.8V91.2z"/>
			<path d="M201.7,84.7c0-0.9,0.1-1.8,0.4-2.6s0.7-1.5,1.2-2s1.1-1,1.8-1.4s1.6-0.5,2.5-0.5c0.9,0,1.8,0.2,2.5,0.5s1.4,0.8,1.9,1.4
				s0.9,1.3,1.2,2s0.4,1.6,0.4,2.6V85c0,0.9-0.1,1.8-0.4,2.6s-0.7,1.5-1.2,2s-1.1,1-1.9,1.3s-1.6,0.5-2.5,0.5
				c-0.9,0-1.8-0.2-2.5-0.5s-1.3-0.8-1.9-1.3s-0.9-1.3-1.2-2s-0.4-1.6-0.4-2.6V84.7z M204.5,85c0,0.6,0.1,1.1,0.2,1.6s0.3,1,0.6,1.3
				s0.6,0.7,1,0.9s0.8,0.3,1.4,0.3c0.5,0,1-0.1,1.4-0.3s0.7-0.5,0.9-0.9s0.4-0.8,0.6-1.3s0.2-1,0.2-1.6v-0.2c0-0.6-0.1-1.1-0.2-1.6
				s-0.3-0.9-0.6-1.3s-0.6-0.7-1-0.9s-0.8-0.3-1.4-0.3s-1,0.1-1.4,0.3s-0.7,0.5-0.9,0.9s-0.4,0.8-0.6,1.3s-0.2,1-0.2,1.6V85z"/>
			<path d="M225.7,78.5l0.1,1.5c0.4-0.5,1-1,1.6-1.3s1.3-0.4,2.1-0.4c0.6,0,1.2,0.1,1.7,0.3s0.9,0.4,1.3,0.8s0.6,0.9,0.8,1.5
				s0.3,1.3,0.3,2.2v8.2h-2.8V83c0-0.4,0-0.8-0.1-1.1s-0.2-0.5-0.4-0.7s-0.4-0.3-0.7-0.4s-0.6-0.1-1-0.1c-0.6,0-1.1,0.1-1.5,0.4
				s-0.8,0.7-1,1.1v9H223V78.5H225.7z"/>
			<path d="M250.7,87.8c0-0.2,0-0.4-0.1-0.6s-0.2-0.3-0.4-0.5s-0.5-0.3-0.8-0.4s-0.8-0.3-1.4-0.4c-0.7-0.1-1.3-0.3-1.9-0.5
				s-1-0.5-1.4-0.8s-0.7-0.7-0.9-1.1s-0.3-0.9-0.3-1.4c0-0.5,0.1-1,0.3-1.5s0.6-0.9,1-1.2s0.9-0.6,1.5-0.8s1.3-0.3,2-0.3
				c0.8,0,1.5,0.1,2.1,0.3s1.2,0.5,1.6,0.9s0.8,0.8,1,1.3s0.3,1,0.3,1.6h-2.8c0-0.2,0-0.5-0.1-0.7s-0.2-0.4-0.4-0.6
				s-0.4-0.3-0.7-0.4s-0.6-0.2-1-0.2c-0.4,0-0.7,0-0.9,0.1s-0.5,0.2-0.7,0.4s-0.3,0.3-0.4,0.5s-0.1,0.4-0.1,0.6s0,0.4,0.1,0.6
				s0.2,0.3,0.4,0.4s0.5,0.3,0.8,0.4s0.8,0.2,1.3,0.3c0.7,0.2,1.4,0.3,2,0.6s1.1,0.5,1.5,0.8s0.7,0.7,0.9,1.1s0.3,0.9,0.3,1.5
				c0,0.6-0.1,1.1-0.4,1.5s-0.6,0.9-1,1.2s-1,0.6-1.6,0.8s-1.3,0.3-2.1,0.3c-0.9,0-1.6-0.1-2.3-0.4s-1.2-0.6-1.7-1s-0.8-0.8-1-1.4
				s-0.3-1-0.3-1.5h2.8c0,0.4,0.1,0.7,0.3,1s0.4,0.5,0.6,0.6s0.5,0.3,0.8,0.4s0.6,0.1,0.9,0.1c0.8,0,1.3-0.1,1.7-0.4
				S250.7,88.2,250.7,87.8z"/>
			<path d="M289.8,89c-0.2,0.2-0.4,0.5-0.8,0.8s-0.7,0.6-1.2,0.8s-1.1,0.5-1.8,0.6s-1.5,0.3-2.5,0.3c-1.1,0-2.1-0.2-2.9-0.6
				s-1.7-0.9-2.3-1.6s-1.1-1.6-1.5-2.6s-0.5-2.2-0.5-3.5v-1.1c0-1.3,0.2-2.5,0.5-3.5s0.8-1.9,1.4-2.6s1.3-1.2,2.2-1.6s1.9-0.6,3-0.6
				c1,0,1.9,0.1,2.7,0.4s1.4,0.6,2,1.1s0.9,1.1,1.3,1.7s0.5,1.4,0.6,2.2h-2.9c-0.1-0.4-0.2-0.9-0.4-1.2s-0.4-0.7-0.7-1
				s-0.6-0.5-1.1-0.6s-0.9-0.2-1.5-0.2c-0.7,0-1.3,0.1-1.8,0.4s-0.9,0.6-1.3,1.1s-0.6,1.1-0.8,1.8s-0.3,1.5-0.3,2.5v1.1
				c0,0.9,0.1,1.8,0.3,2.5s0.5,1.3,0.9,1.8s0.8,0.9,1.4,1.1s1.2,0.4,1.8,0.4c0.5,0,0.9,0,1.3-0.1s0.7-0.2,0.9-0.3s0.5-0.2,0.6-0.3
				s0.3-0.2,0.4-0.3v-3.3h-3.5v-2.2h6.5V89z"/>
			<path d="M302.6,78.5l0.1,1.3c0.4-0.5,0.9-0.9,1.5-1.1s1.3-0.4,2.1-0.4c0.8,0,1.5,0.2,2.1,0.5s1.1,0.8,1.4,1.5
				c0.4-0.6,1-1.1,1.6-1.4s1.4-0.5,2.3-0.5c0.7,0,1.2,0.1,1.8,0.3s1,0.5,1.3,0.8s0.6,0.9,0.8,1.5s0.3,1.3,0.3,2.1v8.2H315V83
				c0-0.5-0.1-0.9-0.2-1.2s-0.3-0.5-0.5-0.7s-0.4-0.3-0.7-0.4s-0.6-0.1-0.9-0.1c-0.6,0-1.2,0.2-1.6,0.5s-0.7,0.8-0.9,1.4
				c0,0,0,0.1,0,0.1s0,0.1,0,0.1v8.4h-2.8V83c0-0.4-0.1-0.8-0.2-1.1s-0.3-0.6-0.5-0.7s-0.4-0.3-0.7-0.4s-0.6-0.1-0.9-0.1
				c-0.6,0-1.1,0.1-1.5,0.4s-0.7,0.6-0.9,1v9.2h-2.8V78.5H302.6z"/>
			<path d="M339.1,85c0,0.9-0.1,1.8-0.3,2.6s-0.5,1.5-0.9,2s-0.9,1-1.5,1.3s-1.3,0.5-2.1,0.5c-0.8,0-1.4-0.1-2-0.4s-1.1-0.7-1.5-1.2
				l-0.1,1.4H328v-18h2.8v6.5c0.4-0.5,0.9-0.8,1.4-1.1s1.2-0.4,1.9-0.4c0.8,0,1.5,0.2,2.2,0.5s1.1,0.8,1.6,1.3s0.7,1.3,0.9,2
				s0.3,1.7,0.3,2.6V85z M336.3,84.7c0-0.6,0-1.1-0.1-1.6s-0.2-0.9-0.5-1.3s-0.5-0.7-0.9-0.9s-0.8-0.3-1.4-0.3
				c-0.7,0-1.2,0.1-1.6,0.4s-0.7,0.7-1,1.2v5.2c0.2,0.5,0.6,0.9,1,1.2s1,0.5,1.6,0.5c0.5,0,1-0.1,1.3-0.3s0.7-0.5,0.9-0.9
				s0.4-0.8,0.5-1.3s0.1-1,0.1-1.6V84.7z"/>
			<path d="M362.6,91.2h-3v-7.6H352v7.6h-3V74.1h3v7.1h7.6v-7.1h3V91.2z"/>
		</g>
		<g class="st0">
			<path class="st1" d="M55.6,46.1l16.1-26h14.5L62.4,55.3L87,91.4H72.6L55.8,64.7L39,91.4H24.5L49,55.3L25.2,20.1h14.4L55.6,46.1z"
				/>
		</g>
		<g class="st0">
			<path d="M17.8,66.1c0-3.8,0.4-7.3,1.3-10.4s2.1-5.8,3.7-8.1c1.6-2.2,3.6-4,5.9-5.2c2.3-1.2,5-1.8,8-1.8c2.5,0,4.6,0.5,6.5,1.4
				c1.9,1,3.6,2.3,5,4V20.5h12.9v71H49.5l-0.6-5.3c-1.5,2-3.3,3.5-5.3,4.6c-2,1.1-4.4,1.6-7.1,1.6c-3,0-5.6-0.6-7.9-1.9
				c-2.3-1.3-4.3-3-5.9-5.3c-1.6-2.2-2.8-4.9-3.7-8s-1.3-6.5-1.3-10.1V66.1z M30.6,67.1c0,2,0.2,3.9,0.5,5.7
				c0.3,1.8,0.9,3.3,1.6,4.6c0.7,1.3,1.7,2.3,2.8,3.1c1.2,0.8,2.6,1.1,4.3,1.1c2.1,0,3.8-0.5,5.2-1.4s2.4-2.2,3.2-3.8V56.6
				c-0.8-1.7-1.8-3-3.2-3.9s-3.1-1.4-5.1-1.4c-1.7,0-3.1,0.4-4.3,1.1s-2.1,1.8-2.9,3.1c-0.7,1.3-1.3,2.9-1.6,4.7
				c-0.3,1.8-0.5,3.7-0.5,5.8V67.1z"/>
		</g>
	</g>
</g>
</svg>
