<svg id="Ebene_6" data-name="Ebene 6" xmlns="http://www.w3.org/2000/svg" viewBox="0 0 479.84 449.15">
  <path d="M125,286.16H79.27V271.83h28.25c0-10.33.24-19.61-.06-28.87a88.87,88.87,0,0,1,7.83-39C128,175,152.68,162.67,181,156c2.36-.56,5.87,1.49,8.09,3.29,13.09,10.65,26,21.59,39.4,32.85,12.82-10.7,25.52-21,37.82-31.74,3.88-3.39,7.3-4.14,12-2.59,31.87,10.34,58.48,27,68.32,62.27,2.94,10.52,2.85,21.94,2.9,34-8.26-8-16-14.39-27.62-5.69-.34-3.76-.66-6-.72-8.25-.27-10.74-2.5-13-13.19-13-54.17,0-108.34.14-162.51,0-6.76,0-9.73,3.1-9.71,9.55.1,25.44.35,50.88.49,76.32.07,12.8,0,25.61,0,39.43h20.57v12.6c-9.68,0-18.84.66-27.82-.35-3.3-.37-7.53-4.08-9-7.36a294.66,294.66,0,0,1-10.92-30.13c-3.26-10.31-1.26-17.29,10.16-16.64,1.81.1,5.18-3.39,5.47-5.55C125.54,299.36,125,293.43,125,286.16Z"/>
  <path d="M228.79,0c38,.06,68.91,31.81,68.83,70.66-.08,39.46-31,70.94-69.49,70.73-38-.2-68.49-31.84-68.39-71C159.83,31.45,190.74-.06,228.79,0Z"/>
  <path d="M311.8,268.11l19-11.13c4.59,8.19,10,11.71,19.91,11.78s14.78-3.69,18.8-11.52c3.47,1.91,6,3.2,8.47,4.67,9.73,5.82,9.59,5.8,6.13,16.67-.6,1.87,0,4.46.77,6.39,1,2.42,3.34,4.32,4.12,6.77,2.3,7.14,6.32,11.09,14.11,11,1.55,0,3.61,3.33,4.52,5.52.75,1.82-.11,4.27.21,6.37,1.15,7.58-1.25,11.4-9.36,11.55-2.5,0-5.25,3.2-7.3,5.49-1.7,1.91-2.15,5-3.84,6.93-4.34,4.95-5.64,9.81-1.73,15.71,2.34,3.54,1.37,6.4-2.58,8.38-4.45,2.21-8.69,4.85-12.74,7.14-1-.51-1.69-.63-1.85-1-5.72-13.49-17.78-9-27.71-9.81-2.05-.17-4.94,3.53-6.54,6.05-2.75,4.34-5.5,5-9.64,2.08-3.84-2.73-8-5-11.75-7.34,0-1.34-.32-2.38.05-2.87,9.25-12.12-2.9-19.91-6-29.4-.49-1.48-5.17-2.07-7.93-2.12-5.52-.1-7.48-2.71-6.82-8.07a17.68,17.68,0,0,0,0-4.82c-1.18-7.29,1.43-10.69,8.94-11.24,2.78-.2,5.4-3.59,7.94-5.71.74-.61.77-2,1.43-2.83C316.67,285.25,319.06,277.29,311.8,268.11Zm59.29,45.77c-.13-12.35-9.71-22-21.54-21.74-11.56.27-20.66,10-20.48,21.93s9.34,21.26,21.06,21.19A21.18,21.18,0,0,0,371.09,313.88Z"/>
  <path d="M171.18,399c2.77-3.52,4.78-6.9,7.53-9.42,6.32-5.8,6.48-16.36-.34-21.77-6.26-5-7.48-10.58-3.39-17.51,1.9-3.21,3.62-6.53,5.46-9.78,5.94-10.48,8-11.27,19.57-7.55,5.56,1.79,15.61-4.33,16.82-10.24,2.4-11.75,4.39-13.38,16.4-13.41,3.4,0,6.8-.06,10.21,0,9.07.13,12.32,3,13.66,11.91,1.21,8.09,11,13.84,18.51,10.88,8.09-3.17,11.9-1.92,16.43,5.56,1.94,3.19,3.73,6.47,5.56,9.73,5.88,10.4,5.43,13.28-3.24,21.21-4.59,4.2-4.48,15.77.19,19.94,8.44,7.54,9,10.66,3.42,20.57-1.56,2.79-3.09,5.61-4.68,8.38-5.43,9.5-8.48,10.65-18.6,7-6.44-2.3-16.58,3.89-17.61,10.75-1.47,9.86-4.21,12.36-13.79,12.49-2.88,0-5.76,0-8.64,0-14.15,0-14.67-.4-18-14.23-1.32-5.48-11.34-10.89-16.73-9-11,3.8-13.64,2.8-19.53-7.87C177.35,411.09,174.54,405.42,171.18,399Zm14.63.45c1.16,2.52,1.77,3.69,2.26,4.91,2.62,6.49,5.93,10.24,13.43,5.7,2-1.19,5.95,0,8.55,1.22,3.78,1.71,6.9,5.07,10.74,6.48,5.48,2,8.32,5.27,8.07,11.2-.22,5.08,2.43,6.47,6.88,6.09,2.78-.24,5.58,0,9.25,0-1.72-11.63,5.21-15.16,12.85-19.87,7.8-4.82,14.31-8.44,22.92-1.63l7.89-13.69c-9.44-4.36-10.55-11.32-10.4-21s.42-17.28,10.46-21.62c-2.94-4.7-4.67-9.34-7.95-11.89-1.56-1.21-6.05,1.72-9.27,2.49-1.46.35-3.73.7-4.53-.11-7.95-7.94-24.86-7.13-22.11-25.56-4,0-7.26-.6-10.13.2-2.15.6-5.44,3-5.44,4.57,0,7.48-3.61,11.09-10.11,13.29-3.12,1.06-5.56,4.15-8.67,5.33A25.77,25.77,0,0,1,200.42,347c-2.4-.09-4.73-1.71-7.52-2.81l-7.29,13.57c10.27,3.92,10.35,11.48,10.23,20.48S196.65,395.56,185.81,399.42Z"/>
  <path d="M228.78,273.39A13.34,13.34,0,0,1,242.11,287a13.69,13.69,0,0,1-14,13.9c-7.18-.25-13.26-6.88-13-14.2A13.58,13.58,0,0,1,228.78,273.39Z"/>
  <path d="M371.09,313.88a21.18,21.18,0,0,1-21,21.38c-11.72.07-20.89-9.15-21.06-21.19s8.92-21.66,20.48-21.93C361.38,291.85,371,301.53,371.09,313.88Z" style="fill: #fff"/>
  <path d="M185.81,399.42c10.84-3.86,9.9-12.14,10-21.17s0-16.56-10.23-20.48l7.29-13.57c2.79,1.1,5.12,2.72,7.52,2.81a25.77,25.77,0,0,0,10.08-1.53c3.11-1.18,5.55-4.27,8.67-5.33,6.5-2.2,10.12-5.81,10.11-13.29,0-1.59,3.29-4,5.44-4.57,2.87-.8,6.1-.2,10.13-.2C242.1,340.52,259,339.71,267,347.65c.8.81,3.07.46,4.53.11,3.22-.77,7.71-3.7,9.27-2.49,3.28,2.55,5,7.19,7.95,11.89-10,4.34-10.32,12-10.46,21.62s1,16.64,10.4,21l-7.89,13.69c-8.61-6.81-15.12-3.19-22.92,1.63-7.64,4.71-14.57,8.24-12.85,19.87-3.67,0-6.47-.19-9.25,0-4.45.38-7.1-1-6.88-6.09.25-5.93-2.59-9.2-8.07-11.2-3.84-1.41-7-4.77-10.74-6.48-2.6-1.18-6.57-2.41-8.55-1.22-7.5,4.54-10.81.79-13.43-5.7C187.58,403.11,187,401.94,185.81,399.42Zm79.06-20.86c-.1-15.9-12.63-28.65-28-28.48-15.14.16-27.51,12.73-27.68,28.11-.17,15.62,12.5,28.87,27.72,29S265,394.21,264.87,378.56Z" style="fill: #fff"/>
  <path d="M264.87,378.56c.09,15.65-12.67,28.7-28,28.6s-27.89-13.35-27.72-29c.17-15.38,12.54-27.95,27.68-28.11C252.24,349.91,264.77,362.66,264.87,378.56Zm-12.5.26c.09-8.54-7.07-15.91-15.42-15.85a15.58,15.58,0,0,0,.32,31.15C245.34,394.1,252.27,387.07,252.37,378.82Z"/>
  <path d="M252.37,378.82c-.1,8.25-7,15.28-15.1,15.3A15.58,15.58,0,0,1,237,363C245.3,362.91,252.46,370.28,252.37,378.82Z" style="fill: #fff"/>
</svg>
