<svg id="weiß_service" data-name="weiß service" xmlns="http://www.w3.org/2000/svg" viewBox="0 0 479.84 449.15">
  <path d="M125.1,286.24H79.35V271.91H107.6c0-10.33.24-19.61-.06-28.87a88.87,88.87,0,0,1,7.83-39c12.72-28.95,37.39-41.3,65.67-47.95,2.36-.55,5.87,1.49,8.09,3.3,13.09,10.65,26,21.58,39.4,32.84,12.82-10.7,25.51-21,37.82-31.73,3.87-3.39,7.29-4.14,12-2.6,31.87,10.35,58.48,27,68.32,62.27,2.94,10.53,2.85,21.94,2.9,34-8.26-8-16.05-14.38-27.62-5.68-.34-3.76-.67-6-.72-8.25-.28-10.74-2.5-13-13.19-13-54.17,0-108.34.14-162.51,0-6.76,0-9.73,3.1-9.71,9.56.1,25.44.35,50.87.49,76.31.07,12.81,0,25.61,0,39.44h20.57v12.59c-9.68,0-18.84.67-27.82-.35-3.3-.37-7.53-4.08-9-7.36a295.35,295.35,0,0,1-10.92-30.12c-3.26-10.32-1.26-17.29,10.16-16.65,1.81.1,5.18-3.38,5.47-5.55C125.61,299.44,125.1,293.5,125.1,286.24Z" style="fill: #fff"/>
  <path d="M228.87.07c38,.06,68.9,31.82,68.83,70.66-.08,39.47-31,70.94-69.49,70.74-38-.2-68.49-31.84-68.39-71C159.91,31.52,190.82,0,228.87.07Z" style="fill: #fff"/>
  <path d="M311.88,268.18l19-11.12c4.6,8.19,10,11.7,19.92,11.78s14.77-3.69,18.8-11.52c3.47,1.9,6,3.2,8.46,4.66,9.74,5.82,9.6,5.8,6.14,16.68-.6,1.87,0,4.46.77,6.38,1,2.43,3.33,4.32,4.12,6.78,2.29,7.14,6.32,11.09,14.11,11,1.55,0,3.61,3.32,4.51,5.52.76,1.82-.1,4.27.22,6.36,1.15,7.59-1.25,11.4-9.36,11.55-2.5,0-5.26,3.2-7.3,5.49-1.7,1.92-2.15,5-3.84,6.94-4.35,4.94-5.64,9.8-1.73,15.7,2.34,3.54,1.37,6.41-2.59,8.38-4.44,2.22-8.68,4.85-12.73,7.14-1-.5-1.69-.62-1.85-1-5.72-13.49-17.78-9-27.71-9.81-2.05-.16-4.94,3.53-6.54,6.05-2.75,4.34-5.5,5-9.64,2.08-3.84-2.72-8-5-11.75-7.34,0-1.33-.32-2.38.05-2.87,9.25-12.12-2.91-19.9-6-29.39-.49-1.49-5.17-2.08-7.93-2.13-5.52-.1-7.48-2.7-6.82-8.06a17.29,17.29,0,0,0,0-4.82c-1.17-7.29,1.44-10.69,8.95-11.24,2.78-.21,5.4-3.59,7.94-5.72.73-.61.77-2,1.42-2.82C316.75,285.32,319.13,277.37,311.88,268.18ZM371.17,314c-.13-12.35-9.72-22-21.55-21.75-11.55.28-20.65,10-20.47,21.93s9.34,21.27,21.06,21.19A21.17,21.17,0,0,0,371.17,314Z" style="fill: #fff"/>
  <path d="M171.26,399c2.77-3.52,4.78-6.9,7.53-9.42,6.32-5.79,6.48-16.35-.34-21.76-6.26-5-7.48-10.58-3.39-17.51,1.9-3.21,3.62-6.53,5.46-9.78,5.94-10.48,8-11.27,19.57-7.55,5.56,1.79,15.61-4.33,16.82-10.25,2.4-11.75,4.39-13.37,16.4-13.41,3.4,0,6.8-.05,10.21,0,9.07.13,12.32,3,13.66,11.92,1.21,8.09,11,13.83,18.51,10.88,8.09-3.18,11.9-1.92,16.43,5.56,1.94,3.19,3.73,6.47,5.56,9.72,5.88,10.41,5.43,13.28-3.24,21.22-4.59,4.2-4.48,15.76.19,19.93,8.44,7.54,9,10.66,3.42,20.58-1.56,2.79-3.09,5.6-4.68,8.38-5.43,9.5-8.48,10.64-18.6,7-6.44-2.3-16.58,3.89-17.61,10.74-1.47,9.87-4.21,12.36-13.79,12.5-2.88,0-5.76,0-8.64,0-14.15,0-14.67-.41-18-14.23-1.31-5.49-11.33-10.9-16.72-9-11,3.8-13.64,2.79-19.53-7.87C177.43,411.17,174.62,405.5,171.26,399Zm14.62.46c1.17,2.51,1.78,3.68,2.27,4.9,2.62,6.49,5.92,10.24,13.43,5.71,2-1.2,5.95,0,8.55,1.21,3.78,1.71,6.9,5.08,10.74,6.48,5.48,2,8.32,5.27,8.07,11.2-.22,5.09,2.43,6.48,6.88,6.09,2.77-.24,5.58,0,9.25,0-1.72-11.64,5.21-15.16,12.85-19.88,7.8-4.81,14.31-8.44,22.91-1.62,2.82-4.88,5.15-8.92,7.9-13.7-9.44-4.36-10.55-11.32-10.4-21s.41-17.29,10.46-21.63c-2.94-4.69-4.67-9.34-8-11.88-1.56-1.22-6,1.72-9.27,2.49-1.46.35-3.73.69-4.53-.12-8-7.94-24.86-7.13-22.11-25.55-4,0-7.26-.6-10.13.19-2.15.6-5.44,3-5.44,4.58,0,7.48-3.61,11.09-10.11,13.28-3.12,1.06-5.57,4.15-8.67,5.34a26,26,0,0,1-10.08,1.53c-2.4-.1-4.73-1.71-7.52-2.82l-7.29,13.58c10.27,3.91,10.35,11.48,10.23,20.48S196.73,395.63,185.88,399.5Z" style="fill: #fff"/>
  <path d="M228.85,273.46a13.36,13.36,0,0,1,13.34,13.66,13.7,13.7,0,0,1-14,13.9c-7.18-.26-13.26-6.88-13-14.2A13.58,13.58,0,0,1,228.85,273.46Z" style="fill: #fff"/>
  <path d="M371.17,314a21.17,21.17,0,0,1-21,21.37c-11.72.08-20.89-9.15-21.06-21.19s8.92-21.65,20.47-21.93C361.45,291.93,371,301.61,371.17,314Z" style="fill: #fff"/>
  <path d="M185.88,399.5c10.85-3.87,9.91-12.15,10-21.17s0-16.57-10.23-20.48L193,344.27c2.79,1.11,5.12,2.72,7.52,2.82a26,26,0,0,0,10.08-1.53c3.1-1.19,5.55-4.28,8.67-5.34,6.5-2.19,10.12-5.8,10.11-13.28,0-1.59,3.29-4,5.44-4.58,2.87-.79,6.1-.19,10.13-.19-2.75,18.42,14.16,17.61,22.11,25.55.8.81,3.07.47,4.53.12,3.22-.77,7.71-3.71,9.27-2.49,3.28,2.54,5,7.19,8,11.88-10.05,4.34-10.32,12-10.46,21.63s1,16.63,10.4,21c-2.75,4.78-5.08,8.82-7.9,13.7-8.6-6.82-15.11-3.19-22.91,1.62-7.64,4.72-14.57,8.24-12.85,19.88-3.67,0-6.48-.2-9.25,0-4.45.39-7.1-1-6.88-6.09.25-5.93-2.59-9.19-8.07-11.2-3.84-1.4-7-4.77-10.74-6.48-2.6-1.18-6.57-2.41-8.55-1.21-7.51,4.53-10.81.78-13.43-5.71C187.66,403.18,187.05,402,185.88,399.5ZM265,378.64c-.1-15.91-12.63-28.66-28-28.49-15.14.17-27.51,12.73-27.68,28.11-.17,15.63,12.5,28.87,27.72,29S265,394.28,265,378.64Z" style="fill: #fff"/>
  <path d="M265,378.64c.09,15.64-12.67,28.7-28,28.59s-27.89-13.34-27.72-29c.17-15.38,12.54-27.94,27.68-28.11C252.32,350,264.85,362.73,265,378.64Zm-12.51.25c.1-8.53-7.07-15.91-15.41-15.84a15.38,15.38,0,0,0-15,15.31,15.55,15.55,0,0,0,15.32,15.84C245.42,394.17,252.35,387.15,252.44,378.89Z" style="fill: #fff"/>
  <path d="M251.44,379.89c-.09,8.26-7,15.28-15.1,15.31A15.55,15.55,0,0,1,221,379.36a15.38,15.38,0,0,1,15-15.31C244.37,364,251.54,371.36,251.44,379.89Z" style="fill: none"/>
</svg>
