<svg id="wir_white" data-name="wir white" xmlns="http://www.w3.org/2000/svg" viewBox="0 0 479.84 449.15">
  <path d="M180.81,421.05V363.11c-3.74-.65-6.64-.79-9.31-1.68C156,356.2,147.81,347.3,148,330.38c.43-31.34,0-62.69,0-94,0-18.45.71-36.64,11.57-52.75,11.69-17.31,28.09-25.21,47.93-26.67,2.34-.17,5,1,7.13,2.25a51.71,51.71,0,0,1,7.56,6.29c27.66,25.56,16.73,24.08,45.68-.94,5.52-4.77,9.75-8.45,17.71-7.24,33.85,5.16,51.83,24,53.07,60.78,1.35,40,.54,80.05.46,120.08,0,3.44-1.62,6.87-2,8.26-17.43-.84-32.5-1.66-47.59-2.23-6.15-.24-12.69-1.2-18.38.52s-14,5.72-14.68,9.88c-2.3,13.38-5.45,27.79,4.51,40.48l-18.24,18.37c-5.69-6.19-11.1-12.33-16.78-18.21" style="fill: #fff"/>
  <path d="M453.86,422.21H351.48c0-21.64-3.94-43.95,1.2-63.78,4.35-16.76,4.26-32.65,4.6-49,.57-26.64.32-53.31.16-80,0-6.65-1.48-13.29-1.41-19.92.05-4.43.81-12.17,2.68-12.66,6.69-1.75,15.16-3.49,20.77-.67,8.45,4.24,15,12.33,22.91,19.19,7.13-6.14,14-11.26,19.87-17.37,5.17-5.36,10.84-5.57,17-4,24.71,6.18,39.38,23.38,40.19,50,.83,27-.22,54-.35,81.06,0,4,.95,8,.68,11.9-.71,10.36-6.9,17.71-17.38,19.69-6.92,1.31-8.83,4.8-8.68,11.62C454.12,385.89,453.86,403.54,453.86,422.21Z" style="fill: #fff"/>
  <path d="M34.37,421.79V359.27c-11.24-1.9-21.77-4.91-24.24-18-1-5.45-1-11.16-1-16.75-.11-27.67-1.72-55.48.33-83,2.19-29.3,13-39.88,38.87-46.64,9.26-2.41,15.29,1.93,21.67,7.62,15.32,13.67,16.27,14.33,30.49-.16,10.57-10.79,20.49-10,29.71-5.23,0,44.2-.23,87.07.19,129.93.09,8.45,2.82,16.86,4.11,25.32,1.09,7.2,2.46,14.44,2.64,21.69.4,15.62.13,31.27.13,47.74Z" style="fill: #fff"/>
  <path d="M190.46,86.6c0-31,23.47-55.24,53.66-55.34,30-.1,54.1,24.47,54.1,55.08s-24,55.41-53.85,55.43C214.31,141.8,190.44,117.37,190.46,86.6Z" style="fill: #fff"/>
  <path d="M401.48,179.77A43.21,43.21,0,0,1,359.1,135.7C359.41,111,379,91.42,403,91.71c24.79.29,42.58,19.89,42,46.21C444.31,163.61,427.05,180.25,401.48,179.77Z" style="fill: #fff"/>
  <path d="M128.54,135.8c-1.19,27.33-21.39,46.46-47.26,44.76-20.13-1.31-39.5-22.51-38.6-42.23,1.3-28.55,20.2-47.81,45.64-46.54A42.23,42.23,0,0,1,128.54,135.8Z" style="fill: #fff"/>
  <path d="M311.88,421.77c-35.15,0-95.06-.72-129.18-.72,0-21.63,22.85-43.22,28-63.06,4.34-16.76,4.25-32.65,4.6-49,.56-26.65.31-53.31.15-80,0-6.64-1.48-13.29-1.41-19.92.05-4.43.81-12.17,2.68-12.66,6.69-1.74,15.16-3.48,20.78-.66,8.44,4.23,15,12.32,22.9,19.19,7.13-6.15,14-11.26,19.88-17.37,5.16-5.37,10.83-5.57,17-4,24.72,6.18,39.38,23.38,40.19,50,.83,27-.21,54-.34,81.07,0,4,1.2,14.59.93,18.52-.7,10.36-7.16,11.09-17.64,13.07-6.92,1.31-8.83,4.79-8.68,11.62C312.13,385.46,311.88,403.1,311.88,421.77Z" style="fill: #fff"/>
</svg>
