<?xml version="1.0" encoding="utf-8"?>
<!-- Generator: Adobe Illustrator 25.0.1, SVG Export Plug-In . SVG Version: 6.00 Build 0)  -->
<svg version="1.1" id="Ebene_1" xmlns="http://www.w3.org/2000/svg" xmlns:xlink="http://www.w3.org/1999/xlink" x="0px" y="0px"
	 viewBox="0 0 60 67.3" enable-background="new 0 0 60 67.3" xml:space="preserve">
<g>
	<g>
		<path fill="#C8102E" d="M12.4,57.5c6.6,5.9,14,8.7,16.9,9.6c0.3,0.1,0.5,0.2,0.7,0.2c0.2-0.1,0.4-0.1,0.7-0.2
			c0.8-0.3,2-0.8,3.5-1.4c2.9-1.3,6.8-3.4,10.6-6.4c7.7-6,15.2-15.5,15.2-30.6l0-24.2C50.2,1.5,40.1,0,30,0C19.9,0,9.7,1.5,0,4.5
			l0,24.2C0.1,42.6,5.8,51.5,12.4,57.5z"/>
	</g>
</g>
<g>
	<g>
		<path fill="#FFFFFF" d="M13.7,28.9c-0.3-1.7-0.8-2.6-1.9-3v-5.3h10.8v5.3c-1.1,0.1-1.4,0.6-1.4,1.6c0,0.5,0,1,0.1,1.4l2.5,15.2
			l4-23.5h5.8L37.9,44l1.9-14.8c0.1-0.8,0.2-1.3,0.2-1.6c0-1-0.4-1.4-1.4-1.7v-5.3H48v5.3c-1.4,0.6-1.6,1.6-1.9,3.3l-3.8,24.1h-8.9
			l-3.4-17.9l-2.9,17.9h-9L13.7,28.9z"/>
	</g>
</g>
<g>
	<polygon fill="#FFFFFF" points="43.4,11.6 44.7,7.7 46,11.6 50.2,11.6 46.8,14.1 48.1,18.1 44.7,15.6 41.3,18.1 42.6,14.1 
		39.2,11.6 	"/>
	<polygon fill="#FFFFFF" points="28.6,9.8 29.9,5.8 31.2,9.8 35.4,9.8 32,12.2 33.3,16.2 29.9,13.7 26.5,16.2 27.8,12.2 24.4,9.8 	
		"/>
	<polygon fill="#FFFFFF" points="13.8,11.6 15.1,7.7 16.4,11.6 20.6,11.6 17.2,14.1 18.5,18.1 15.1,15.6 11.7,18.1 13,14.1 
		9.6,11.6 	"/>
</g>
</svg>
