<svg id="analyse" xmlns="http://www.w3.org/2000/svg" viewBox="0 0 419.88 386.44">
  <path d="M65,105.48c0,10.16,0,19.65,0,29.14q.09,64.32.22,128.65c0,5.88.55,11.79.17,17.64s1.44,7.67,7.21,7.59c22.48-.31,45-.12,67.46-.12h64.59c11.17,0,11.17,0,14.47,12.6-2.12.15-4.14.43-6.16.43q-71.41,0-142.82,0c-12.4,0-17.4-5.05-17.34-17.88.15-26.9.64-53.81.69-80.72,0-17.63-.63-35.26-.7-52.9-.12-31.35-.05-62.69,0-94,0-12.69,5.12-18,17.33-18q132.41,0,264.82,0c11.2,0,17.21,4.93,17.24,15,.15,49.77.07,99.55.07,149.43-9.6-3.61-12.64-7.82-12.64-17.29q0-35.33,0-70.64v-8.88Zm37.22-51.21L78.37,72.85l23.86,18.57ZM144,72.81,120.22,54.54V91.05Z" style="fill: #fff"/>
  <path d="M244.52,312.91c-17.87-15.93-25.12-47.37-17-71.47,9.3-27.72,31.12-45.08,59.2-48.43.17,2.58.47,5.13.47,7.68q0,28.91-.19,57.8c0,1.37-.16,3.09-.94,4.05Q265.38,287.8,244.52,312.91Z" style="fill: #fff"/>
  <path d="M254.36,321.48c13.46-16.49,26.61-32.66,39.89-48.7a5.31,5.31,0,0,1,4.2-1.69c20,3.55,40,7.3,59.94,11,.4.08.72.6,1.08.92C351.93,327.29,290,350.49,254.36,321.48Z" style="fill: #fff"/>
  <path d="M300.2,258V194.82c29.38-2.08,67,31.7,61.7,74.19l-30.63-5.47Z" style="fill: #fff"/>
  <path d="M156.32,148.67V253.52h-22c0-14.92,0-29.54,0-44.16q0-22.73-.07-45.45c0-1.47,0-2.94,0-4.4.37-10.84.38-10.84,10.75-10.84Z" style="fill: #fff"/>
  <path d="M173.81,254.09c0-21.32,0-41.51,0-61.69a12.13,12.13,0,0,1,.3-1.43c.59-4.72-.09-12.7,2-13.55,5.62-2.28,12.41-1.53,19.23-2v15.1c0,18.8-.11,37.61.16,56.4.08,5.24-2.27,7.06-6.73,7.16C184.07,254.18,179.35,254.09,173.81,254.09Z" style="fill: #fff"/>
  <path d="M319.48,133.22c-.22,6.13-3,9.41-8.62,10.26C303,144.66,296.25,153.12,295,161a13.84,13.84,0,0,1-6.54,8.94c-4.5,2.18-8.71-.25-11.18-5.08-4-7.82-16.25-11.58-23.53-7.34a3.37,3.37,0,0,1-1.28.62c-14.31,1-19.27,11.71-23.39,23.42-2,5.57-6.57,7.79-11.42,5.75a13.61,13.61,0,0,1-7-8.47c-1.19-5.49,2.47-9.43,7.79-10.43,12.05-2.28,16.73-11.4,20.82-21.71,1.28-3.23,4.25-7.11,7.18-7.93,2.76-.77,7.64,1.11,9.6,3.52,11.67,14.34,35.65,12.75,44-3.47.93-1.8.63-4.24,1-6.37,1-5.81,4.74-8.65,10.08-8.19C316.14,124.71,319.17,128.13,319.48,133.22Z" style="fill: #fff"/>
  <path d="M116.51,192v61.47H95.66V192Z" style="fill: #fff"/>
  <path d="M102.23,54.27V91.42L78.37,72.85Z" style="fill: #fff"/>
  <path d="M144,72.81,120.22,91.05V54.54Z" style="fill: #fff"/>
</svg>
