<svg id="Ebene_1" data-name="Ebene 1" xmlns="http://www.w3.org/2000/svg" viewBox="0 0 442.9 401.71">
  <g>
    <path d="M123.18,49.38C143,67.39,165.69,80.59,192,88c.29,6.39.86,12.69.81,19-.09,8.68-.8,17.38-3.2,25.77a225.16,225.16,0,0,1-7.1,21.59,98.82,98.82,0,0,1-17.12,27.57,107.19,107.19,0,0,1-26.43,22.59c-4.83,2.89-10.08,5.1-15.17,7.54a3,3,0,0,1-2.09-.05,104,104,0,0,1-30.18-18.68,109.14,109.14,0,0,1-24.1-30,120,120,0,0,1-12.61-35.63c-2-10.68-1.75-21.52-1.62-32.33A20.87,20.87,0,0,1,53.75,90,4.37,4.37,0,0,1,56,87.4c6.86-2.6,14.1-4.4,20.63-7.63a267.09,267.09,0,0,0,26.59-15.34C110.12,60,116.41,54.54,123.18,49.38Zm36.35,46-.83-.85c-.86.5-2,.78-2.56,1.51-12.9,16.49-25.85,32.95-38.51,49.63-1.84,2.43-2.9,1.84-4.51.52-7.15-5.83-14.24-11.73-21.42-17.52a11.05,11.05,0,0,0-3.07-1.25c.15,1.16-.1,2.61.5,3.45q11.16,15.71,22.56,31.23a6.71,6.71,0,0,0,2.58,2.08c3.84,1.73,6.26.5,9.13-4.51q17.53-30.62,35-61.25A18.86,18.86,0,0,0,159.53,95.4Z" style="fill: #fff"/>
    <path d="M180.68,97.63c.36-3-1.26-3.85-3.78-4.36a66.8,66.8,0,0,1-8.09-2.64c41.57-20.16,101.73-9.4,132.16,40.61,5.16-1,10.2-2.16,15.3-2.81a72,72,0,0,1,11.19-.26c3.46.1,6.91.5,10.35.88a66.71,66.71,0,0,1,17.43,4.73,77.75,77.75,0,0,1,19.86,11.47,82.05,82.05,0,0,1,23.29,29.16,77.55,77.55,0,0,1,7.17,24.83,79.18,79.18,0,0,1-.62,22.94,80.2,80.2,0,0,1-7.69,23.22,79,79,0,0,1-16.61,21.88,81.41,81.41,0,0,1-31.94,18.35,65.4,65.4,0,0,1-17.61,3.2c-12.62.21-25.24.32-37.86.41-8.25.06-16.51,0-24.77,0H266V278c.59,0,1.23-.13,1.88-.13q15.25,0,30.51,0c10.6,0,21.21.32,31.79-.13,10.07-.44,19.54-3.57,28.42-8.39a66.72,66.72,0,0,0,16.79-12.73,69.19,69.19,0,0,0,18-34,68.58,68.58,0,0,0-12.07-54.68,69.71,69.71,0,0,0-35.58-25.49,70.91,70.91,0,0,0-26.46-3,68.46,68.46,0,0,0-20.51,4.91c-.93.36-1.87.7-3,1.12-10.39-21.32-26.44-36.93-48.3-46.05S203.39,89.94,180.68,97.63Z" style="fill: #fff"/>
    <path d="M239.17,243.31l-27.68,8.56,41-77.62c13.73,25.93,27.21,51.38,41.08,77.59l-27.5-8.48v9.22c0,29.7-.05,59.41,0,89.11,0,8.52-4.75,13.27-12.59,14.06-7.31.75-14.49-5-14.45-12.52.14-32.1.06-64.19.06-96.28Z" style="fill: #fff"/>
    <path d="M138.48,321.22l29,9v-4c0-33.24.11-66.48-.08-99.72,0-7.8,4.94-10.82,9.64-12.33a14.28,14.28,0,0,1,16,5.68,10.16,10.16,0,0,1,1.68,5.15c.2,6.19.08,12.38.07,18.57q0,42.29-.07,84.58a18.58,18.58,0,0,0,.26,2l28.55-8.84-42.47,80.45C166.79,374.72,152.83,348.34,138.48,321.22Z" style="fill: #fff"/>
    <path d="M83.2,169.62l7.62,8.78c-2.62,1.45-5.33,2.77-7.84,4.39A51.17,51.17,0,0,0,61.89,209.5,49.21,49.21,0,0,0,59,227.2a52,52,0,0,0,33,47.19,49.07,49.07,0,0,0,18.77,3.48c12.35-.16,24.72-.05,37.08-.05h19.68v11.23a5,5,0,0,1-.93.19c-19.39,0-38.79.32-58.17-.08a59.79,59.79,0,0,1-36.58-13.47,63,63,0,0,1-20.41-28.21,62.91,62.91,0,0,1,9.61-59.74C67.08,180,74.59,174.24,83.2,169.62Z" style="fill: #fff"/>
    <path d="M194.22,289.07c0-3.19.1-6.19,0-9.19-.08-1.72.61-2,2.15-2,11.4,0,22.8,0,34.2,0,2.25,0,4.51.05,6.76,0,1.43,0,2.1.33,2,1.95-.12,3.06,0,6.12,0,9.26Z" style="fill: #fff"/>
  </g>
</svg>
