<svg id="Layer_1" data-name="Layer 1" xmlns="http://www.w3.org/2000/svg" viewBox="0 0 372 282.4">
  <g id="Bussines_Learning" data-name="Bussines Learning">
    <g id="Projector">
      <path d="M188,210.8h0a3.48,3.48,0,0,1,3.5,3.5v22.3c.1.1.1.2.2.3l22.9,39.6a2.53,2.53,0,0,1-1,3.5h0a2.58,2.58,0,0,1-3.5-.9L191.6,247v29.9a3.48,3.48,0,0,1-3.5,3.5h0a3.56,3.56,0,0,1-3.6-3.5V247L166,279.1a2.5,2.5,0,0,1-3.5.9h0a2.62,2.62,0,0,1-1-3.5l22.9-39.6c.1-.1.1-.2.2-.3V214.3a3.39,3.39,0,0,1,3.4-3.5Z" style="fill: #ffffff;stroke: #ffffff;stroke-miterlimit: 10;stroke-width: 4px;fill-rule: evenodd"/>
      <path d="M71.3,54.3H304.7a8.07,8.07,0,0,1,8.1,8.1V209.8a8.07,8.07,0,0,1-8.1,8.1H71.3a8.07,8.07,0,0,1-8.1-8.1V62.4a8.13,8.13,0,0,1,8.1-8.1Z" style="fill: none;stroke: #ffffff;stroke-miterlimit: 10;stroke-width: 4px;fill-rule: evenodd"/>
    </g>
    <g id="Gears">
      <path d="M87.5,4.5a18.77,18.77,0,0,1,4.8,1.2h0c.2.1.3.1.5.2h.1c.1,0,.2.1.4.2l.2.1c.1,0,.2.1.3.1l.3.1.2.1c.1.1.2.1.3.2h.1c.1.1.3.1.4.2h.1a22.64,22.64,0,0,1,4.2,2.6l3.4-3.4,5.4,5.4-3.4,3.4a31.92,31.92,0,0,1,2.6,4.2v.1c.1.1.1.3.2.4l.1.1c.1.1.1.2.2.4l.1.2c0,.1.1.2.1.3s.1.2.2.3v.2c.1.1.1.3.2.4h0c.1.2.1.3.2.5h0a28.09,28.09,0,0,1,1.2,4.8h4.8v7.7h-4.8a24.09,24.09,0,0,1-1.2,4.8h0c-.1.2-.1.3-.2.5l-.1.1c0,.1-.1.2-.1.4l-.1.2c0,.1-.1.2-.1.3a.37.37,0,0,0-.1.3l-.1.2c-.1.1-.1.2-.2.4l-.1.1c-.1.2-.1.3-.2.5h0a22.64,22.64,0,0,1-2.6,4.2l3.4,3.4-5.4,5.4-3.4-3.4a27.34,27.34,0,0,1-4.3,2.6h0c-.2.1-.3.1-.4.2h-.1c-.1.1-.2.1-.4.2L94,55c-.1,0-.2.1-.3.1a7867464773627.42,7867464773627.42,0,0,1-.4.2.37.37,0,0,1-.3.1l-.2.1c-.1.1-.3.1-.4.2h0a42.09,42.09,0,0,1-4.8,1.2v4.8H80V56.9a18.77,18.77,0,0,1-4.8-1.2h0c-.2-.1-.3-.1-.5-.2h-.1c-.1-.1-.2-.1-.4-.2l-.2-.1a.37.37,0,0,0-.3-.1l-.3-.1-.2-.1c-.1,0-.2-.1-.3-.2h-.1a.76.76,0,0,0-.4-.2h-.1a22.64,22.64,0,0,1-4.2-2.6l-3.4,3.4-5.4-5.4,3.4-3.4a26.49,26.49,0,0,1-2.6-4.2h0c-.1-.2-.1-.3-.2-.4l-.1-.1c-.1-.1-.1-.2-.2-.4l-.1-.2a.35.35,0,0,0-.1-.2c-.1-.1-.1-.2-.2-.3v-.1c-.1-.2-.1-.3-.2-.4v-.1c-.1-.2-.1-.3-.2-.5h0a25.94,25.94,0,0,1-1.2-4.8H52.8V27.1h4.8a24.09,24.09,0,0,1,1.2-4.8h0c.1-.1.1-.3.2-.4l.1-.1c0-.1.1-.2.1-.4l.1-.2c0-.1.1-.2.1-.3a.37.37,0,0,0,.1-.3l.1-.2c.1-.1.1-.2.2-.4l.1-.1c.1-.2.1-.3.2-.5h0a27.34,27.34,0,0,1,2.6-4.3l-3.4-3.4,5.4-5.4,3.4,3.4a27.34,27.34,0,0,1,4.3-2.6h0c.2-.1.3-.2.4-.2h.1c.1-.1.2-.1.4-.2l.2-.1a.37.37,0,0,1,.3-.1.35.35,0,0,0,.2-.1.35.35,0,0,0,.2-.1c.1,0,.2-.1.3-.1h.2c.1-.1.3-.1.4-.2h0a42.09,42.09,0,0,1,4.8-1.2V0h7.6ZM83.7,22.2a8.3,8.3,0,1,1-8.3,8.3,8.28,8.28,0,0,1,8.3-8.3Zm0-6.6A14.8,14.8,0,1,1,68.9,30.4,14.85,14.85,0,0,1,83.7,15.6Z" style="fill: #ffffff;fill-rule: evenodd"/>
      <path d="M163.1,23.9a32.46,32.46,0,0,1,5.2,2.8h0c.2.1.3.2.5.3l.1.1a1.38,1.38,0,0,1,.4.3l.2.2c.1.1.2.1.3.2l.3.2.2.2a1.38,1.38,0,0,0,.4.3l.1.1a.78.78,0,0,1,.4.4h0a40.66,40.66,0,0,1,4.1,4.2l4.9-2.8,4.5,7.8L179.8,41a28.71,28.71,0,0,1,1.7,5.7v.1c0,.2.1.3.1.5v.1c0,.2.1.3.1.5l.1.2v.3c0,.2,0,.3.1.4V49a4.33,4.33,0,0,0,.1.5v.1a1.27,1.27,0,0,0,.1.6h0a29.1,29.1,0,0,1-.1,5.9l5.5,1.5-2.3,8.7-5.5-1.5a32.46,32.46,0,0,1-2.8,5.2h0c-.1.2-.2.3-.3.5l-.1.1a1.38,1.38,0,0,0-.3.4l-.2.2c-.1.1-.2.2-.2.3s-.2.2-.2.3l-.1.2a1.38,1.38,0,0,0-.3.4l-.1.1c-.1.2-.3.3-.4.5h0a40.66,40.66,0,0,1-4.2,4.1l2.8,4.9-7.8,4.5-2.9-4.9a26.85,26.85,0,0,1-5.7,1.7h0c-.2,0-.4.1-.6.1h-.1c-.2,0-.3.1-.5.1h-.6a.37.37,0,0,0-.3.1h-1.5a29.21,29.21,0,0,1-5.9-.1L145.9,89l-8.7-2.3,1.5-5.5a23.22,23.22,0,0,1-5.1-2.9h-.1c-.2-.1-.3-.2-.5-.3l-.1-.1a1.38,1.38,0,0,0-.4-.3l-.2-.2c-.1-.1-.2-.2-.3-.2l-.3-.2-.2-.2a1.38,1.38,0,0,0-.4-.3l-.1-.1c-.1-.1-.3-.2-.4-.4h-.1a40.66,40.66,0,0,1-4.1-4.2l-4.9,2.8L117,66.8l4.9-2.8a30.4,30.4,0,0,1-1.6-5.7v-.1a1.09,1.09,0,0,1-.1-.5v-.2c0-.2-.1-.3-.1-.5v-.5c0-.2-.1-.3-.1-.4v-.2a.9.9,0,0,0-.1-.5v-.7h0a29.1,29.1,0,0,1,.1-5.9l-5.5-1.5,2.3-8.7,5.5,1.5a32.46,32.46,0,0,1,2.8-5.2h0c.1-.2.2-.3.3-.5l.1-.1a1.38,1.38,0,0,0,.3-.4l.2-.2c.1-.1.1-.2.2-.3s.2-.2.2-.3l.2-.2a1.38,1.38,0,0,0,.3-.4l.1-.1a1.76,1.76,0,0,1,.4-.5h0a27.82,27.82,0,0,1,4.3-4.1l-2.8-4.9,7.8-4.5,2.8,4.9a30.83,30.83,0,0,1,5.7-1.7h0c.2,0,.4-.1.6-.1h.1c.2,0,.3-.1.5-.1h.6a.37.37,0,0,0,.3-.1h1.4a29.21,29.21,0,0,1,5.9.1l1.4-5.5,8.7,2.3ZM153.3,43a9.79,9.79,0,1,1-12,6.9,9.77,9.77,0,0,1,12-6.9Zm2-7.5a17.55,17.55,0,1,1-21.5,12.4,17.51,17.51,0,0,1,21.5-12.4Z" style="fill: #ffffff;fill-rule: evenodd"/>
    </g>
    <g id="Graph">
      <path d="M245.3,227h9.8v47.5H235.4V236.9a9.92,9.92,0,0,1,9.9-9.9Z" style="fill: #ffffff;fill-rule: evenodd"/>
      <path d="M271.5,196.8h9.8v77.7H261.6V206.6a10,10,0,0,1,9.9-9.8Z" style="fill: #ffffff;fill-rule: evenodd"/>
      <path d="M297.8,168h9.8V274.5H287.9V177.8a9.84,9.84,0,0,1,9.9-9.8Z" style="fill: #ffffff;fill-rule: evenodd"/>
    </g>
    <g id="Lines">
      <path d="M95.2,177.5a4.2,4.2,0,0,1,0-8.4h61.7L185.2,120a4.15,4.15,0,0,1,3.7-2.1h86.7l55-72a4.21,4.21,0,1,1,6.7,5.1l-56.1,73.5a4.49,4.49,0,0,1-3.6,1.9H191.3L163.2,175a4.2,4.2,0,0,1-3.9,2.5Z" style="fill: #ffffff"/>
      <path d="M199.4,33.3a2.05,2.05,0,0,1-2.1-2.1,2.11,2.11,0,0,1,2.1-2.1H299.8a2.1,2.1,0,0,1,0,4.2Z" style="fill: #ffffff"/>
      <path d="M178.4,21.1a2.05,2.05,0,0,1-2.1-2.1,2.11,2.11,0,0,1,2.1-2.1H278.8a2.11,2.11,0,0,1,2.1,2.1,2.05,2.05,0,0,1-2.1,2.1Z" style="fill: #ffffff"/>
    </g>
    <g id="Circles">
      <path d="M188.1,115.6a7.73,7.73,0,0,1,7.9,7.6,7.9,7.9,0,0,1-15.8,0,7.73,7.73,0,0,1,7.9-7.6Zm0-7.3a15,15,0,1,1-15.5,15,15.22,15.22,0,0,1,15.5-15Zm0-3.2c10.4,0,18.8,8.1,18.8,18.2s-8.4,18.2-18.8,18.2-18.8-8.1-18.8-18.2,8.4-18.2,18.8-18.2Z" style="fill: #ffffff;fill-rule: evenodd"/>
      <path d="M340.8,26.7c7.2,0,13.1,5.7,13.1,12.6a12.85,12.85,0,0,1-13.1,12.6c-7.2,0-13.1-5.7-13.1-12.6s5.9-12.6,13.1-12.6Zm0-12.2c14.2,0,25.8,11.1,25.8,24.9s-11.5,24.9-25.8,24.9-25.7-11.1-25.7-24.9,11.5-24.9,25.7-24.9Zm0-5.3C358,9.2,372,22.7,372,39.3s-13.9,30.1-31.2,30.1-31.1-13.5-31.1-30.1S323.6,9.2,340.8,9.2Z" style="fill: #ffffff;fill-rule: evenodd"/>
    </g>
  </g>
</svg>
