
<svg version="1.1" xmlns="http://www.w3.org/2000/svg" width="24" height="24" viewBox="0 0 24 24">

<path d="M21.269 4c0.090 0 0.176 0.022 0.257 0.053 0.026 0.010 0.047 0.023 0.071 0.035 0.054 0.028 0.103 0.062 0.149 0.103 0.022 0.018 0.041 0.036 0.060 0.057 0.043 0.048 0.078 0.102 0.107 0.161 0.011 0.021 0.025 0.038 0.032 0.059v0l0.010 0.017c0.028 0.080 0.041 0.162 0.042 0.243 0 0.005 0.003 0.009 0.003 0.014v0 13.517c0 0.955-0.766 1.731-1.706 1.731v0l-16.593 0.010c-0.94-0.005-1.701-0.782-1.701-1.731v0-13.527c0-0.41 0.328-0.742 0.731-0.742 0.012 0 0.022 0.006 0.034 0.007 0.014-0.001 0.027-0.007 0.041-0.007v0zM3.462 6.18v12.089c0 0.134 0.109 0.246 0.243 0.247v0l16.589-0.010c0.135 0 0.244-0.11 0.244-0.247v0-11.903l-7.987 6.948c-0.137 0.12-0.307 0.18-0.476 0.18-0.176 0-0.352-0.065-0.491-0.193-0.058-0.053-5.132-4.71-8.122-7.111v0zM19.293 5.484h-14.348c2.494 2.052 5.891 5.129 7.141 6.27v0l7.207-6.27z" style="fill: #f59300"></path>
</svg>
