<svg id="gemeinsam" xmlns="http://www.w3.org/2000/svg" viewBox="0 0 419.88 386.44">
  <path d="M138.39,374.62H126.12c0-13.05-.51-25.76.28-38.38a22.29,22.29,0,0,1,5.87-13c4.47-4.61,6.51-9.81,8.26-15.69,5.83-19.56,20.11-29.4,38.87-30.72a438.49,438.49,0,0,1,61.62,0c22,1.58,34.23,13.84,40.1,35.88.7,2.62,2.91,4.78,4.19,7.28,3.14,6.16,8,12.16,8.8,18.66,1.44,11.55.4,23.43.4,35.77H281.43c0-9.23,0-18.46,0-27.68-.06-13.89-4.67-18.71-18-18.72q-53.83,0-107.67,0c-12.39,0-17.32,5.11-17.37,17.87C138.36,355.18,138.39,364.47,138.39,374.62Z" style="fill: #f59300"/>
  <path d="M392.74,273c-13.45,0-24.87.08-36.3-.11-1.33,0-2.66-1.55-3.93-2.47-.35-.26-.41-.89-.7-1.27-7.79-10.57-10.77-21.44-2.23-33.2a15.83,15.83,0,0,0,1.63-4.06,8,8,0,0,0,0-2l-7.92-2.6c-4.69,9.8-9.93,19.13-13.7,29C324.54,269.65,316,275.16,302,274c-11.88-1-23.91-.08-35.87-.28-9.2-.15-13.89-4.22-14.43-11.88-.65-9.23,2.79-13.53,12.68-15q13.84-2,27.79-3.26c4.1-.37,6.3-2.15,7.84-6,5.25-13.16,10.59-26.28,16.33-39.22,5.87-13.23,15.44-21.69,30.28-22.26,15.89-.62,29.57,6.67,33.32,22.34C385.69,222.47,388.49,247.32,392.74,273Z" style="fill: #f59300"/>
  <path d="M67.5,236.46c1.73,4.22,3.25,8.56,5.25,12.66a15.27,15.27,0,0,1,.58,13.68C68.58,275,61.18,280.11,48.32,278c-6.48-1.05-13.25-.19-21.18-.19,1.54-12.9,2.95-24.94,4.45-37,.9-7.27,2.36-14.49,2.83-21.78,1.69-26.19,22.47-43.34,45.23-37,12.14,3.39,19.17,12.35,23.95,23.57,4.49,10.55,9,21.11,13,31.85,1.63,4.34,4.11,6.07,8.43,6.33,5.65.35,11.27,1.16,18,1.89-1.6-4.28-3.49-7.39-3.72-10.61-.18-2.58,1.66-5.3,2.6-8,2.47,1.3,5.67,2,7.22,4,2,2.59,2.26,6.45,3.89,9.39a41.36,41.36,0,0,0,6.59,9c4.22,4.28,6.07,9.66,3.69,14.66-1.82,3.81-6.32,8.62-9.86,8.83a391.84,391.84,0,0,1-50.13.06c-4.51-.32-9.73-5.79-12.68-10.25C86,255.83,83,247.66,79.28,240,75.81,232.79,75.81,232.79,67.5,236.46Z" style="fill: #f59300"/>
  <path d="M190.08,14.56c3.28,3.12,6.46,5.3,8.49,8.29,3.06,4.5,6.29,7,11.86,5.22a10.48,10.48,0,0,1,5.69-.14c6.42,1.72,10-1.37,13.32-6.64,4.46-7.08,7.8-7.58,15.07-3.62,4.64,2.54,9.13,5.35,13.81,7.8,6,3.11,8.09,7.77,4.81,13.84s-2.21,10.6,1.19,16.64c4.3,7.65,8.55,12.62,17.81,12.24,4.51-.18,7.13,3.4,7.26,8.37.15,6.12.56,12.24.67,18.36.15,8.18-2.22,11.32-10.29,11.8-6.27.38-10.35,2.48-12,9a14.51,14.51,0,0,1-3.11,5.73c-3.37,3.83-3.21,7.43-1.1,12,4.89,10.57,4.17,12.3-5.45,18.23-3.89,2.39-7.89,4.64-11.66,7.22-5.67,3.89-10.65,3.11-14.1-2.71-3.69-6.24-8.22-9-15.32-6.84a11.82,11.82,0,0,1-5.7,0c-4.33-.93-7,.7-9.45,4.44-6.82,10.2-8.59,10.44-19.26,4.49-3.57-2-7.13-4-10.65-6.07-7.22-4.24-9-7.52-4.88-14.85,4.23-7.53.14-12-3-17.69s-5.66-10.74-13.63-10c-6.82.62-10.5-3.66-10.46-10.94,0-5.63,0-11.28-.27-16.9-.35-7,2.76-11,9.42-11.08,6.91-.06,11.17-2.74,13-9.68a15.07,15.07,0,0,1,3.26-5.66c2.89-3.4,2.86-6.53,1-10.62-5.35-11.77-4.88-12.82,6.24-19.71C178.15,21.61,183.7,18.38,190.08,14.56ZM151.41,81.64c0,4.67-.52,8.42.21,11.89.39,1.86,2.95,4.64,4.49,4.61,8.59-.14,14.14,3.18,16,12.13a7.3,7.3,0,0,0,1.69,3.2c7.34,8.3,12.24,17,3.2,27.79l14.42,8.38c4.25-13.08,13.63-12.3,24.56-12.55s19.87-1.16,24.49,11.49L254.58,140c-9.25-10.7-3.22-18.82,2-28.76,5.05-9.52,8.73-17.72,21.53-15.47,0-4.92.36-8.83-.18-12.61-.21-1.53-2.46-4.06-3.62-4-9.87.81-14.92-4.36-17.28-13.48a7.09,7.09,0,0,0-1.89-3.09c-7.92-7.69-9.39-16.27-3.63-26,.17-.29-.19-.9-.37-1.67a53.86,53.86,0,0,1-6-3.59c-4.68-3.63-8.11-2.83-10.65,2.6C231.79,40,227.38,42,221,40.21c-2.7-.75-6-1.29-8.49-.43-10.56,3.62-17.84-.17-23.12-9.56-.18-.32-.84-.37-1.74-.74l-12.64,8.07c8.75,9.84,6.1,18.49-1.59,26.57a2.84,2.84,0,0,0-.66,1.29C170.29,76.79,164.05,83.43,151.41,81.64Z" style="fill: #f59300"/>
  <path d="M209.72,264.66c-22.67-.16-40.82-19.08-40.64-42.36s18.75-41.78,41.46-41.57c22.33.21,40.62,18.93,40.7,41.68C251.33,246,232.82,264.83,209.72,264.66Z" style="fill: #f59300"/>
  <path d="M364.92,136.56c-.11,18.21-14.87,33.24-32.52,33.13A33.14,33.14,0,0,1,299.65,136c.33-18.42,14.78-33.11,32.57-33.13C350.36,102.86,365.05,118,364.92,136.56Z" style="fill: #f59300"/>
  <path d="M99.67,111.68c17.9,0,32.49,14.8,32.62,33,.13,18.58-14.71,33.91-32.67,33.74a33.19,33.19,0,0,1-32.69-33.79C67.13,126.45,81.84,111.64,99.67,111.68Z" style="fill: #f59300"/>
  <path d="M123.63,312.8c-2.83,10.71-9.11,12.66-17.74,12-10.21-.72-20.51-.07-30.77-.19-7.8-.1-10.18-3.79-6.76-10.62,5.88-11.72,12-23.32,18.29-35.55,3.25,2,6.21,3.77,9.74,5.9L82.13,312.8Z" style="fill: #f59300"/>
  <path d="M336.24,313.23l-14.49-29.18,9.24-7.16c6.7,13.35,13.46,26.13,19.51,39.26,2.14,4.63-.39,8.37-5.64,8.46-13.11.21-26.27.7-39.3-.4-3.45-.29-6.48-5.91-9.7-9.08.28-.63.57-1.26.85-1.9Z" style="fill: #f59300"/>
  <path d="M162.54,197.18c-.53,9.9-5,13.39-13.1,11.73-10.86-2.21-17.7,2.1-20.83,12.91A14,14,0,0,1,126.9,225a12.81,12.81,0,0,1-1.79,1.73c-2-5.31-6.92-9.45-3.86-15.74,3.36-6.92,5.11-15.5,16.2-14.05C145.6,198,154,197.18,162.54,197.18Z" style="fill: #f59300"/>
  <path d="M257.79,197.24c9.82,0,19.52-.3,29.2.11,5.24.22,11.66,11.81,9.86,17.08-1.09,3.2-2.57,6.26-4.16,10.08-1.19-1.42-2.3-2.17-2.57-3.16-2.95-10.91-10.11-13.58-20.47-12.62C259.88,209.63,259.82,208.9,257.79,197.24Z" style="fill: #f59300"/>
  <path d="M184,88.27c0-17.6,14-31.57,31.23-31.37S246,71.29,245.9,89a31.21,31.21,0,0,1-31.38,31.31C197.32,120.27,184,106.25,184,88.27Zm30.93,20.37c10.67,0,19.56-9.15,19.54-20.06a20,20,0,0,0-19.66-19.92,20,20,0,0,0,.12,40Z" style="fill: #f59300"/>
</svg>
