<svg id="idee" xmlns="http://www.w3.org/2000/svg" viewBox="0 0 419.88 386.44">
  <path d="M0,386.3C1.11,366,7.21,347.93,17.17,331.21c13.36-22.43,32.23-38.45,55.53-49.3,4.53-2.11,8.08-1.63,12,.9a68.74,68.74,0,0,0,8.13,4.44c11.24,5.32,14,4.61,22.28-5.23,1.53-1.83,3.56-3.24,5-5.13,8.07-10.65,20.25-15.07,30.84-22,16.34-10.67,29.9-24.29,38.23-42.74,4.49-10,11.81-13.46,20.85-10.52,7.25,2.35,11.7,11.8,10,21.26a17.73,17.73,0,0,1-1.12,4.25,135.39,135.39,0,0,1-48.77,56.37c-8,5.24-17.09,8.6-25.34,13.45-2,1.17-3.62,4.86-3.64,7.41-.29,24.27-.19,48.54-.2,72.81v9.12H58.81V333.16c-15.58,15.71-22.21,33.45-25.3,53.14Z" style="fill: #fff"/>
  <path d="M419.88,386.44h-35c-2.88-19.74-10-37.26-24.83-53.32v53.06H277.55v-9.51c0-23.78-.17-47.57.07-71.35.05-5.15-1.38-7.65-6.26-9.66a134.69,134.69,0,0,1-50.68-35.89c-3-3.45-3.59-5.87-.91-10.06,5.32-8.34,9.8-17.25,14.54-25.77,5.54,5.92,11.18,12.7,17.6,18.59,5.84,5.36,11.93,11.13,19,14.26,13.83,6.15,23.72,17,34.27,27.07,10.35,9.9,10.34,10.34,22.45,2.58,8.41-5.39,16-6.58,25.24-1.22,26.52,15.33,46.91,36.16,57.66,65.64C414.54,362,416.61,373.81,419.88,386.44Z" style="fill: #fff"/>
  <path d="M101.3,192.66c18-.65,33.31,14.72,34.11,34.2.88,21.36-14,38.33-34.18,39.11-19.84.76-36.75-15.28-37.38-35.46C63.15,208.27,77.75,193.52,101.3,192.66Z" style="fill: #fff"/>
  <path d="M319,192.15c18.78.17,35.46,17.45,35.43,36.71,0,22-16.43,37.39-39.4,36.91-16.23-.34-32.89-18.21-32.66-35C282.68,208.11,298,192,319,192.15Z" style="fill: #fff"/>
  <path d="M213.72,162c-8.11,0-16.21-.08-24.31,0-7,.09-11.53-2.95-11.78-9.92-.48-13.17-6.7-23.84-13-34.48-14.06-23.73-10.82-51.87,8.4-70.39,19-18.31,50-20.8,70.77-5.67,21,15.32,28.56,44.75,17.66,69.54-2.25,5.12-5.69,9.69-7.75,14.87a251,251,0,0,0-8.37,24.66c-1.78,6.32-4.51,10.69-11.56,10.64-6.68,0-13.37,0-20.06,0Zm-21.66-11.12c10.68,0,23.77-.12,36.84.07,4.5.06,5.11-2.54,6.15-6.22a232.3,232.3,0,0,1,8.34-24c2.1-5.17,5.56-9.74,7.74-14.88,7.64-18,4.43-34.68-8-49.15C232,43.67,212.48,39.85,195.61,46.36c-25.91,10-35.19,39-21.44,65.68C180.23,123.81,185.31,136.11,192.06,150.86Z" style="fill: #fff"/>
  <path d="M189.56,169.22c14.27,0,28.55-.09,42.83.09,2.12,0,4.22,1.3,6.33,2-.89,2.33-1.25,5.15-2.78,6.89a127.19,127.19,0,0,1-12.22,12.13c-7.86,6.84-21.41,5.33-28.35-2.62-3.28-3.77-7.3-6.9-10.4-10.8a8.14,8.14,0,0,1-1.1-6.65c.4-1.19,3.61-1.37,5.55-2C189.47,168.58,189.51,168.9,189.56,169.22Z" style="fill: #fff"/>
  <path d="M179.29,0c2.84,2.47,4.73,3.4,5.49,4.92a47,47,0,0,1,4.48,11.48c.39,2-1,5.68-2.49,6.34s-5.25-.75-6.26-2.39a35,35,0,0,1-4.74-12.11C175.4,6.09,177.72,3.45,179.29,0Z" style="fill: #fff"/>
  <path d="M275.42,63.32c-1.59-1.45-3.7-2.54-4.37-4.24-.54-1.4.08-4.56,1.12-5.11a79,79,0,0,1,14.42-6.1c1.25-.38,3.94,1.65,4.78,3.24.63,1.17-.13,4.39-1.21,5C285.65,58.77,280.79,60.78,275.42,63.32Z" style="fill: #fff"/>
  <path d="M275.91,106.48c5,2.23,9.36,3.69,13.13,6.11,1.39.9,2.42,4.52,1.76,6s-3.93,3.22-5.54,2.8a44.75,44.75,0,0,1-12.39-5.33c-1.42-.89-2.43-4.41-1.86-6.11S274.37,107.49,275.91,106.48Z" style="fill: #fff"/>
  <path d="M152.74,58.43c-2.16,1.11-4.61,3.53-6.43,3.1a50.07,50.07,0,0,1-13.14-5.46c-1.28-.73-2-3.81-1.75-5.58.24-1.39,2.89-3.69,3.78-3.4a144.38,144.38,0,0,1,15.7,6.47C151.65,53.91,151.76,55.71,152.74,58.43Z" style="fill: #fff"/>
  <path d="M232.61,18.23c2.21-5.1,3.66-9.54,6-13.39.91-1.47,4.3-2.64,5.84-2s3.29,3.92,2.9,5.53A47.49,47.49,0,0,1,242.21,21c-.88,1.48-4.19,2.57-5.91,2.08S233.74,19.84,232.61,18.23Z" style="fill: #fff"/>
  <path d="M134.83,121.41c-1.56-1.43-3.57-2.41-3.9-3.81-.37-1.56.27-4.52,1.36-5.1a79.4,79.4,0,0,1,14.34-6c1.25-.37,3.88,1.61,4.72,3.17.62,1.14-.12,4.38-1.14,4.92C145.43,117.14,140.34,119.05,134.83,121.41Z" style="fill: #fff"/>
  <path d="M192.06,150.86c-6.75-14.75-11.83-27.05-17.89-38.82-13.75-26.68-4.47-55.68,21.44-65.68,16.87-6.51,36.38-2.69,47.56,10.37,12.39,14.47,15.6,31.1,8,49.15-2.18,5.14-5.64,9.71-7.74,14.88a232.3,232.3,0,0,0-8.34,24c-1,3.68-1.65,6.28-6.15,6.22C215.83,150.74,202.74,150.86,192.06,150.86ZM178.17,88.48l4.19,5.24c2-2.11,5.44-3.94,5.92-6.38,3-14.87,8.35-20.44,23.19-23.7,2.31-.51,4.08-3.58,6.11-5.47-2.52-1.56-5.06-4.49-7.54-4.45C193.55,54,178.72,69.54,178.17,88.48Z" style="fill: #fff"/>
  <path d="M178.17,88.48C178.72,69.54,193.55,54,210,53.72c2.48,0,5,2.89,7.54,4.45-2,1.89-3.8,5-6.11,5.47-14.84,3.26-20.23,8.83-23.19,23.7-.48,2.44-3.87,4.27-5.92,6.38Z" style="fill: #fff"/>
</svg>
