<svg preserveAspectRatio="xMidYMid meet" data-bbox="35.5 45 129.001 110" viewBox="35.5 45 129.001 110" height="200" width="200" xmlns="http://www.w3.org/2000/svg" data-type="color" role="presentation" aria-hidden="true" aria-labelledby="svgcid-4pzsqo2mane6"><defs><style>#comp-kkb355312 svg [data-color="1"] {fill: #ffffff;}</style></defs><title id="svgcid-4pzsqo2mane6"></title>
    <g>
        <path d="M160.95 59.058a2.24 2.24 0 0 0-2.009.61l-11.555 11.545-7.195-1.926-1.927-7.189 11.555-11.545a2.229 2.229 0 0 0 .611-2.007 2.227 2.227 0 0 0-1.331-1.623c-9.379-3.889-20.078-1.774-27.254 5.396-7.566 7.559-9.251 18.8-5.064 28.004l-14.993 13.205-15.182-13.351a16.362 16.362 0 0 0 2.979-7.424c1.199-8.844 5.706-14.768 12.056-15.844 2.579-.438 4.564-2.685 4.621-5.349.057-2.662-1.887-4.985-4.521-5.407-6.649-1.058-19.774-.874-33.008 12.264l-14.645 14.54a5.331 5.331 0 0 0-1.586 3.791 5.329 5.329 0 0 0 1.561 3.801.916.916 0 0 1-.005 1.296L52.895 83a.915.915 0 0 1-1.296-.003 5.331 5.331 0 0 0-3.794-1.585h-.017a5.345 5.345 0 0 0-3.786 1.559l-6.384 6.338a7.063 7.063 0 0 0-.987 8.877 40.175 40.175 0 0 0 5.336 6.696 40.213 40.213 0 0 0 6.669 5.375 7.122 7.122 0 0 0 3.877 1.155 7.099 7.099 0 0 0 5.013-2.084l6.384-6.337a5.331 5.331 0 0 0 1.586-3.791 5.329 5.329 0 0 0-1.561-3.801.914.914 0 0 1 .004-1.294l1.165-1.156a.917.917 0 0 1 1.297.004 5.383 5.383 0 0 0 7.597.025l.254-.252 12.44 14.101L59.017 131.2a13.46 13.46 0 0 0-4.604 9.773 13.46 13.46 0 0 0 3.98 10.044C60.974 153.594 64.371 155 68 155a13.487 13.487 0 0 0 10.228-4.608l23.432-26.597 23.44 26.568A13.576 13.576 0 0 0 135.395 155c3.655 0 7.075-1.414 9.672-4.01a13.554 13.554 0 0 0 4.006-10.11c-.12-3.818-1.767-7.313-4.635-9.841l-27.7-24.362c.015-.016.032-.031.047-.048l12.312-13.973a25.064 25.064 0 0 0 10.413 2.262c6.397 0 12.795-2.433 17.665-7.299 7.176-7.169 9.295-17.859 5.401-27.231a2.23 2.23 0 0 0-1.626-1.33zM69.559 89.814a5.386 5.386 0 0 0-7.597-.025l-1.165 1.158a5.37 5.37 0 0 0-.023 7.59.905.905 0 0 1 .266.648.907.907 0 0 1-.27.646l-6.384 6.338a2.653 2.653 0 0 1-3.328.351 35.6 35.6 0 0 1-5.93-4.778c-1.737-1.745-3.332-3.749-4.742-5.954a2.644 2.644 0 0 1 .372-3.323l6.384-6.337a.912.912 0 0 1 .647-.267h.002c.142 0 .414.036.648.271a5.379 5.379 0 0 0 7.597.023L57.199 85a5.331 5.331 0 0 0 1.586-3.791 5.329 5.329 0 0 0-1.561-3.801.905.905 0 0 1-.266-.648c0-.142.036-.414.27-.646l14.645-14.54C83.712 49.825 95.23 49.62 101.039 50.55c.455.072.778.458.766 1.036-.009.41-.442.855-.909.935-8.248 1.397-14.274 8.922-15.726 19.635-.349 2.572-1.525 4.966-3.312 6.74L70.855 89.819a.916.916 0 0 1-1.296-.005zm5.326 57.635a9.065 9.065 0 0 1-6.58 3.094c-2.568.1-4.956-.868-6.762-2.674a9.06 9.06 0 0 1-2.677-6.756 9.066 9.066 0 0 1 3.096-6.575l27.673-24.374 9.055 10.263-23.805 27.022zm69.733-6.43a9.15 9.15 0 0 1-2.702 6.824c-1.826 1.823-4.252 2.807-6.829 2.7a9.16 9.16 0 0 1-6.645-3.124L77.416 89.582l6.173-6.128 57.903 50.926a9.143 9.143 0 0 1 3.126 6.639zm-31.178-37.331c-.015.017-.025.037-.039.055l-8.242-7.249 13.881-12.225a24.953 24.953 0 0 0 2.805 3.351 25.066 25.066 0 0 0 3.31 2.773l-11.715 13.295zm40.584-19.216c-8.003 7.996-21.027 7.996-29.03 0s-8.003-21.009 0-29.005a20.473 20.473 0 0 1 19.099-5.488l-9.888 9.88a2.222 2.222 0 0 0-.577 2.149l2.593 9.671a2.226 2.226 0 0 0 1.576 1.575l9.679 2.591a2.231 2.231 0 0 0 2.151-.577l9.888-9.88a20.424 20.424 0 0 1-5.491 19.084z" fill="#ffffff" data-color="1"></path>
    </g>
</svg>