<?xml version="1.0" encoding="UTF-8"?>
<svg id="Ebene_1" data-name="Ebene 1" xmlns="http://www.w3.org/2000/svg" viewBox="0 0 200 170.54">
  <path d="M194.49,21.79c-1.13-.22-2.3,.13-3.11,.95l-17.91,17.9-11.15-2.99-2.99-11.15,17.91-17.9c.81-.81,1.17-1.98,.95-3.11-.22-1.13-1-2.07-2.06-2.52-14.54-6.03-31.13-2.75-42.25,8.37-11.73,11.72-14.34,29.15-7.85,43.42l-23.24,20.47-23.54-20.7c2.47-3.4,4.06-7.35,4.62-11.51,1.86-13.71,8.85-22.9,18.69-24.56,4-.68,7.08-4.16,7.16-8.29,.09-4.13-2.93-7.73-7.01-8.38C92.39,.15,72.04,.43,51.52,20.8l-22.71,22.54c-1.57,1.55-2.46,3.67-2.46,5.88-.01,2.21,.86,4.33,2.42,5.89,.55,.56,.55,1.46,0,2.01h0l-1.8,1.79c-.55,.55-1.45,.55-2.01,0h0c-1.55-1.58-3.67-2.46-5.88-2.46h-.03c-2.2,0-4.31,.86-5.87,2.42l-9.9,9.83c-3.71,3.64-4.35,9.39-1.53,13.76,2.38,3.75,5.15,7.23,8.27,10.38,3.14,3.14,6.61,5.93,10.34,8.33,1.79,1.17,3.88,1.79,6.01,1.79,2.92,0,5.71-1.17,7.77-3.23l9.9-9.82c1.57-1.55,2.46-3.67,2.46-5.88,.01-2.21-.86-4.33-2.42-5.89-.55-.55-.55-1.45,0-2h0l1.81-1.79c.56-.55,1.46-.55,2.01,0h0c3.25,3.25,8.51,3.27,11.78,.04l.39-.39,19.29,21.86-42.91,37.79c-4.39,3.83-6.98,9.33-7.14,15.15-.21,5.82,2.03,11.47,6.17,15.57,4,4,9.27,6.18,14.89,6.18,6.07,.03,11.86-2.57,15.86-7.14l36.33-41.24,36.34,41.19c4.02,4.6,9.85,7.22,15.96,7.19,5.67,0,10.97-2.19,15-6.22,4.17-4.13,6.42-9.81,6.21-15.67-.19-5.92-2.74-11.34-7.19-15.26l-42.95-37.77s.05-.05,.07-.07l19.09-21.66c5.07,2.31,10.57,3.51,16.14,3.51,9.92,0,19.84-3.77,27.39-11.32,11.13-11.11,14.41-27.69,8.37-42.22-.44-1.06-1.39-1.84-2.52-2.06h0ZM52.8,69.48c-3.25-3.25-8.51-3.27-11.78-.04l-1.81,1.8c-3.26,3.24-3.27,8.51-.04,11.77,.27,.27,.42,.63,.41,1,0,.38-.15,.74-.42,1l-9.9,9.83c-1.37,1.38-3.53,1.61-5.16,.54-3.32-2.13-6.4-4.62-9.19-7.41-2.69-2.71-5.17-5.81-7.35-9.23-1.06-1.64-.81-3.79,.58-5.15l9.9-9.82c.27-.27,.63-.41,1-.41h0c.22,0,.64,.06,1,.42,3.25,3.26,8.51,3.27,11.78,.04l1.8-1.79c1.57-1.55,2.46-3.67,2.46-5.88,.01-2.21-.86-4.33-2.42-5.89-.27-.27-.42-.63-.41-1,0-.22,.06-.64,.42-1l22.71-22.54C74.75,7.48,92.6,7.16,101.61,8.6c.71,.11,1.21,.71,1.19,1.61-.01,.64-.69,1.33-1.41,1.45-12.79,2.17-22.13,13.83-24.38,30.44-.54,3.99-2.36,7.7-5.13,10.45l-17.06,16.93c-.56,.55-1.46,.55-2.01,0h0Zm8.26,89.35c-2.58,2.95-6.28,4.69-10.2,4.8-3.98,.16-7.68-1.35-10.48-4.15-2.78-2.76-4.29-6.56-4.15-10.47,.11-3.92,1.85-7.61,4.8-10.19l42.9-37.79,14.04,15.91-36.91,41.89Zm108.11-9.97c.14,3.96-1.38,7.79-4.19,10.58-2.83,2.83-6.59,4.35-10.59,4.19-3.96-.11-7.69-1.86-10.3-4.84L64.99,69.12l9.57-9.5,89.77,78.95c2.98,2.6,4.74,6.34,4.85,10.29h0Zm-48.34-57.88s-.04,.06-.06,.09l-12.78-11.24,21.52-18.95c1.29,1.86,2.75,3.59,4.35,5.2,1.58,1.58,3.3,3.02,5.13,4.3l-18.16,20.61h0Zm62.92-29.79c-12.41,12.4-32.6,12.4-45.01,0s-12.41-32.57,0-44.97c7.74-7.76,18.93-10.97,29.61-8.51l-15.33,15.32c-.87,.87-1.21,2.14-.89,3.33l4.02,14.99c.32,1.19,1.25,2.12,2.44,2.44l15.01,4.02c1.19,.32,2.46-.02,3.33-.89l15.33-15.32c2.47,10.67-.75,21.86-8.51,29.59h0Z" style="fill: #fff;"/>
</svg>