
<svg version="1.1" xmlns="http://www.w3.org/2000/svg" width="24" height="24" viewBox="0 0 24 24">

<path d="M12.986 3.001c1.567 0.003 1.912 0.016 2.725 0.054 0.746 0.014 1.485 0.155 2.185 0.418 0.6 0.225 1.144 0.58 1.593 1.038 0.458 0.449 0.813 0.993 1.038 1.594 0.262 0.699 0.404 1.438 0.419 2.185 0.038 0.848 0.051 1.186 0.054 2.945l-0 1.557c-0.003 1.735-0.016 2.074-0.053 2.919-0.015 0.746-0.157 1.485-0.419 2.185-0.467 1.208-1.423 2.164-2.631 2.631-0.7 0.262-1.439 0.404-2.185 0.418-0.849 0.039-1.187 0.052-2.946 0.055h-1.53c-1.758-0.003-2.096-0.016-2.945-0.055-0.747-0.014-1.486-0.156-2.185-0.418-0.601-0.225-1.145-0.58-1.594-1.038-0.458-0.449-0.812-0.993-1.038-1.593-0.262-0.7-0.404-1.439-0.419-2.185-0.037-0.812-0.050-1.157-0.053-2.725v-1.973c0.003-1.567 0.016-1.912 0.053-2.724 0.015-0.747 0.156-1.486 0.418-2.186 0.226-0.6 0.581-1.144 1.039-1.593 0.449-0.458 0.993-0.812 1.594-1.038 0.699-0.263 1.438-0.404 2.185-0.419 0.811-0.037 1.156-0.050 2.724-0.053zM12.537 4.622h-1.075c-1.915 0.001-2.226 0.012-3.1 0.052-0.571 0.007-1.136 0.112-1.671 0.31-0.391 0.144-0.744 0.374-1.035 0.673-0.299 0.291-0.529 0.644-0.673 1.035-0.198 0.536-0.303 1.1-0.31 1.671-0.040 0.873-0.050 1.184-0.052 3.1v1.075c0.001 1.915 0.012 2.226 0.052 3.1 0.007 0.571 0.112 1.136 0.31 1.672 0.144 0.39 0.374 0.744 0.673 1.034 0.29 0.299 0.644 0.529 1.035 0.674 0.535 0.198 1.1 0.302 1.671 0.309 0.835 0.038 1.156 0.050 2.859 0.053h1.557c1.703-0.002 2.024-0.015 2.859-0.053 0.57-0.007 1.135-0.111 1.671-0.309 0.785-0.303 1.405-0.924 1.708-1.708 0.198-0.536 0.303-1.101 0.31-1.672 0.036-0.797 0.048-1.126 0.051-2.635v-2.004c-0.003-1.509-0.015-1.838-0.051-2.635-0.007-0.571-0.111-1.135-0.31-1.671-0.144-0.391-0.374-0.744-0.673-1.035-0.29-0.299-0.644-0.529-1.035-0.673-0.536-0.198-1.1-0.303-1.671-0.31-0.873-0.040-1.184-0.050-3.1-0.052zM12 7.378c2.553 0 4.621 2.070 4.621 4.622 0 2.553-2.069 4.622-4.621 4.621s-4.622-2.068-4.622-4.621 2.070-4.622 4.622-4.622zM12 9c-1.657 0-3 1.343-3 3s1.343 3 3 3c1.657 0 3-1.343 3-3s-1.343-3-3-3zM16.804 6.116c0.597 0 1.080 0.483 1.080 1.080s-0.483 1.080-1.080 1.080c-0.596 0-1.079-0.483-1.079-1.080s0.483-1.080 1.079-1.080z" style="fill: #f59300"></path>
</svg>
