
<svg version="1.1" xmlns="http://www.w3.org/2000/svg" width="24" height="24" viewBox="0 0 24 24">

<path d="M19.668 3c0.734 0 1.332 0.581 1.332 1.298v0 15.403c0 0.717-0.598 1.299-1.332 1.299v0h-15.34c-0.733 0-1.328-0.582-1.328-1.299v0-15.403c0-0.717 0.595-1.298 1.328-1.298v0zM15 9.562c-1.299 0-2.081 0.685-2.437 1.36v0-1.172h-2.626v8.625h2.626v-4.285c0-1.121 0.33-2.207 1.719-2.207 1.37 0 1.468 1.282 1.468 2.278v0 4.214h2.625v-4.748c0-2.314-0.672-4.065-3.375-4.065zM8.25 9.75h-2.625v8.625h2.625v-8.625zM6.941 5.478c-0.822 0-1.486 0.666-1.486 1.486s0.664 1.486 1.486 1.486c0.82 0 1.485-0.666 1.485-1.486s-0.665-1.486-1.485-1.486z" style="fill: #f59300"></path>
</svg>
