<?xml version="1.0" encoding="utf-8"?>
<!-- Generator: Adobe Illustrator 26.3.1, SVG Export Plug-In . SVG Version: 6.00 Build 0)  -->
<svg version="1.1" xmlns="http://www.w3.org/2000/svg" xmlns:xlink="http://www.w3.org/1999/xlink" x="0px" y="0px"
	 viewBox="0 0 500 500" style="enable-background:new 0 0 500 500;" xml:space="preserve">
<style type="text/css">
	.st0{display:none;}
	.st1{fill:#1FAAAA;}
	.st2{display:inline;}
	.st3{fill-rule:evenodd;clip-rule:evenodd;fill:#2C2C2C;stroke:#000000;stroke-width:4;stroke-miterlimit:10;}
	.st4{display:none;fill-rule:evenodd;clip-rule:evenodd;fill:#2C2C2C;}
	.st5{fill-rule:evenodd;clip-rule:evenodd;fill:none;stroke:#000000;stroke-width:4;stroke-miterlimit:10;}
	.st6{display:inline;fill-rule:evenodd;clip-rule:evenodd;fill:#2C2C2C;}
	.st7{fill-rule:evenodd;clip-rule:evenodd;fill:#2C2C2C;}
	.st8{fill:#2C2C2C;}
	.st9{fill:#FFFFFF;}
	.st10{display:none;fill:#FFFFFF;}
</style>
<g id="Layer_1" class="st0">
	<rect x="0.3" class="st1" width="500" height="500"/>
	<g id="Bussines_Learning_2_" class="st2">
		<g id="Projector">
			<path class="st3" d="M238.6,338.8L238.6,338.8c2,0,3.5,1.6,3.5,3.5v22.3c0.1,0.1,0.1,0.2,0.2,0.3l22.9,39.6
				c0.7,1.2,0.3,2.8-1,3.5l0,0c-1.2,0.7-2.8,0.3-3.5-0.9L242.2,375v29.9c0,2-1.6,3.5-3.5,3.5l0,0c-2,0-3.6-1.6-3.6-3.5V375
				l-18.5,32.1c-0.7,1.2-2.3,1.7-3.5,0.9l0,0c-1.2-0.7-1.7-2.3-1-3.5l22.9-39.6c0.1-0.1,0.1-0.2,0.2-0.3v-22.3
				C235.1,340.4,236.7,338.8,238.6,338.8L238.6,338.8z"/>
			<path class="st4" d="M118.6,175.4h240.1c6.4,0,11.7,5.3,11.7,11.7v154.1c0,6.4-5.2,11.7-11.7,11.7H118.6
				c-6.4,0-11.7-5.3-11.7-11.7V187.1C106.9,180.7,112.1,175.4,118.6,175.4L118.6,175.4z"/>
			<path class="st5" d="M121.9,182.3h233.4c4.5,0,8.1,3.6,8.1,8.1v147.4c0,4.5-3.6,8.1-8.1,8.1H121.9c-4.5,0-8.1-3.6-8.1-8.1V190.4
				C113.8,186,117.4,182.3,121.9,182.3L121.9,182.3z"/>
			<path class="st4" d="M121.9,182.3h233.4c4.5,0,8.1,3.6,8.1,8.1v79H113.8v-79C113.8,186,117.4,182.3,121.9,182.3L121.9,182.3z"/>
		</g>
		<g id="Man" class="st0">
			<path class="st6" d="M93.9,321.6h39.8c14.6,0,26.5,11.9,26.5,26.5v56.7H67.3v-56.7C67.3,333.5,79.3,321.6,93.9,321.6L93.9,321.6z
				"/>
			<path class="st6" d="M98.1,321.7l15.6,58.8l15.6-58.8C118.9,321.6,108.6,321.6,98.1,321.7L98.1,321.7z"/>
			<path class="st6" d="M108.7,303h10.1c3.3,0,6,2.7,6,6v12.9c0,3.3-2.7,6-6,6h-10.1c-3.3,0-6-2.7-6-6V309
				C102.7,305.7,105.4,303,108.7,303L108.7,303z"/>
			<path class="st6" d="M115.2,202.3c29.5,0,53.6,23.1,55.2,52.2c3.8,1.3,6.5,4.7,6.5,8.7c0,4.6-3.6,8.4-8.4,9.2
				c-6.4,23.4-27.9,40.6-53.3,40.6s-46.8-17.2-53.3-40.5c-0.4,0.1-0.8,0.1-1.2,0.1c-5.6,0-10.1-4.2-10.1-9.3c0-4.9,4.2-8.9,9.4-9.3
				C61.9,225.1,85.9,202.3,115.2,202.3L115.2,202.3z"/>
			<path class="st6" d="M73.3,174C44.8,210.3,54,250.4,62.2,278.1c4.2-38.4,46.1-32.2,68.9-48.9c17.4,2.6,24.7,28.9,36,42.6
				c2.9-25.4,15.3-42.3,5.2-65.6c-14.1-32.3-40.1-10.5-84.1-45.9c0.6,4.2,1.1,8.5,1.7,12.7c-4.4-2.5-10-5.9-16.5-15.4
				C71.1,168,72.2,171.6,73.3,174L73.3,174z"/>
			<polygon class="st6" points="113.7,380.5 109.7,365.3 105.7,334.9 112.7,327.9 113.7,327.9 114.7,327.9 121.8,334.9 117.8,365.3 
							"/>
		</g>
		<g id="Gears">
			<path class="st7" d="M138.1,132.5c1.7,0.2,3.3,0.6,4.8,1.2l0,0c0.2,0.1,0.3,0.1,0.5,0.2h0.1c0.1,0,0.2,0.1,0.4,0.2l0.2,0.1
				c0.1,0,0.2,0.1,0.3,0.1l0.3,0.1l0.2,0.1c0.1,0.1,0.2,0.1,0.3,0.2h0.1c0.1,0.1,0.3,0.1,0.4,0.2h0.1c1.5,0.7,2.9,1.6,4.2,2.6
				l3.4-3.4l5.4,5.4l-3.4,3.4c1,1.4,1.9,2.8,2.6,4.2v0.1c0.1,0.1,0.1,0.3,0.2,0.4l0.1,0.1c0.1,0.1,0.1,0.2,0.2,0.4l0.1,0.2
				c0,0.1,0.1,0.2,0.1,0.3c0.1,0.1,0.1,0.2,0.2,0.3v0.2c0.1,0.1,0.1,0.3,0.2,0.4l0,0c0.1,0.2,0.1,0.3,0.2,0.5l0,0
				c0.5,1.6,1,3.2,1.2,4.8h4.8v7.7h-4.8c-0.2,1.7-0.7,3.3-1.2,4.8l0,0c-0.1,0.2-0.1,0.3-0.2,0.5l-0.1,0.1c0,0.1-0.1,0.2-0.1,0.4
				l-0.1,0.2c0,0.1-0.1,0.2-0.1,0.3c-0.1,0.1-0.1,0.2-0.1,0.3l-0.1,0.2c-0.1,0.1-0.1,0.2-0.2,0.4l-0.1,0.1c-0.1,0.2-0.1,0.3-0.2,0.5
				l0,0c-0.7,1.5-1.6,2.9-2.6,4.2l3.4,3.4l-5.4,5.4l-3.4-3.4c-1.4,1-2.8,1.9-4.3,2.6l0,0c-0.2,0.1-0.3,0.1-0.4,0.2h-0.1
				c-0.1,0.1-0.2,0.1-0.4,0.2l-0.2,0.1c-0.1,0-0.2,0.1-0.3,0.1s-0.2,0.1-0.2,0.1c-0.1,0-0.2,0.1-0.2,0.1c-0.1,0.1-0.2,0.1-0.3,0.1
				l-0.2,0.1c-0.1,0.1-0.3,0.1-0.4,0.2l0,0c-1.6,0.5-3.2,0.9-4.8,1.2v4.8h-7.6v-4.8c-1.7-0.2-3.3-0.6-4.8-1.2l0,0
				c-0.2-0.1-0.3-0.1-0.5-0.2h-0.1c-0.1-0.1-0.2-0.1-0.4-0.2l-0.2-0.1c-0.1-0.1-0.2-0.1-0.3-0.1L124,183l-0.2-0.1
				c-0.1,0-0.2-0.1-0.3-0.2h-0.1c-0.1-0.1-0.3-0.2-0.4-0.2h-0.1c-1.5-0.7-2.9-1.6-4.2-2.6l-3.4,3.4l-5.4-5.4l3.4-3.4
				c-1-1.3-1.9-2.8-2.6-4.2l0,0c-0.1-0.2-0.1-0.3-0.2-0.4l-0.1-0.1c-0.1-0.1-0.1-0.2-0.2-0.4l-0.1-0.2c0-0.1-0.1-0.2-0.1-0.2
				c-0.1-0.1-0.1-0.2-0.2-0.3v-0.1c-0.1-0.2-0.1-0.3-0.2-0.4v-0.1c-0.1-0.2-0.1-0.3-0.2-0.5l0,0c-0.5-1.5-1-3.2-1.2-4.8h-4.8v-7.7
				h4.8c0.2-1.7,0.7-3.3,1.2-4.8l0,0c0.1-0.1,0.1-0.3,0.2-0.4l0.1-0.1c0-0.1,0.1-0.2,0.1-0.4l0.1-0.2c0-0.1,0.1-0.2,0.1-0.3
				c0.1-0.1,0.1-0.2,0.1-0.3l0.1-0.2c0.1-0.1,0.1-0.2,0.2-0.4l0.1-0.1c0.1-0.2,0.1-0.3,0.2-0.5l0,0c0.7-1.5,1.6-2.9,2.6-4.3
				l-3.4-3.4l5.4-5.4l3.4,3.4c1.4-1,2.8-1.9,4.3-2.6l0,0c0.2-0.1,0.3-0.2,0.4-0.2h0.1c0.1-0.1,0.2-0.1,0.4-0.2l0.2-0.1
				c0.1-0.1,0.2-0.1,0.3-0.1s0.2-0.1,0.2-0.1c0.1,0,0.2-0.1,0.2-0.1c0.1,0,0.2-0.1,0.3-0.1h0.2c0.1-0.1,0.3-0.1,0.4-0.2l0,0
				c1.6-0.5,3.2-0.9,4.8-1.2V128h7.6V132.5z M134.3,150.2c4.6,0,8.3,3.7,8.3,8.3s-3.7,8.3-8.3,8.3c-4.5,0-8.3-3.7-8.3-8.3
				S129.7,150.2,134.3,150.2L134.3,150.2z M134.3,143.6c8.2,0,14.9,6.6,14.9,14.8s-6.7,14.8-14.9,14.8s-14.8-6.7-14.8-14.8
				C119.4,150.3,126.1,143.6,134.3,143.6L134.3,143.6z"/>
			<path class="st7" d="M213.7,151.9c1.8,0.8,3.6,1.7,5.2,2.8l0,0c0.2,0.1,0.3,0.2,0.5,0.3l0.1,0.1c0.2,0.1,0.3,0.2,0.4,0.3l0.2,0.2
				c0.1,0.1,0.2,0.1,0.3,0.2l0.3,0.2l0.2,0.2c0.1,0.1,0.2,0.2,0.4,0.3l0.1,0.1c0.2,0.1,0.3,0.2,0.4,0.4l0,0c1.5,1.3,2.8,2.7,4.1,4.2
				l4.9-2.8l4.5,7.8l-4.9,2.8c0.8,1.9,1.3,3.7,1.7,5.7v0.1c0,0.2,0.1,0.3,0.1,0.5v0.1c0,0.2,0.1,0.3,0.1,0.5l0.1,0.2
				c0,0.1,0,0.2,0,0.3c0,0.2,0,0.3,0.1,0.4v0.2c0,0.2,0.1,0.4,0.1,0.5v0.1c0,0.2,0,0.4,0.1,0.6l0,0c0.2,2,0.1,3.9-0.1,5.9l5.5,1.5
				l-2.3,8.7l-5.5-1.5c-0.8,1.8-1.7,3.6-2.8,5.2l0,0c-0.1,0.2-0.2,0.3-0.3,0.5l-0.1,0.1c-0.1,0.1-0.2,0.2-0.3,0.4l-0.2,0.2
				c-0.1,0.1-0.2,0.2-0.2,0.3c-0.1,0.1-0.2,0.2-0.2,0.3l-0.1,0.2c-0.1,0.1-0.2,0.2-0.3,0.4l-0.1,0.1c-0.1,0.2-0.3,0.3-0.4,0.5l0,0
				c-1.3,1.5-2.7,2.8-4.2,4.1l2.8,4.9l-7.8,4.5l-2.9-4.9c-1.8,0.8-3.7,1.3-5.7,1.7l0,0c-0.2,0-0.4,0.1-0.6,0.1h-0.1
				c-0.2,0-0.3,0.1-0.5,0.1h-0.2c-0.1,0-0.3,0-0.4,0c-0.1,0-0.2,0-0.3,0.1c-0.1,0-0.2,0-0.3,0s-0.3,0-0.4,0h-0.2c-0.2,0-0.3,0-0.5,0
				h-0.1c-1.9,0.2-3.9,0.1-5.9-0.1l-1.5,5.5l-8.7-2.3l1.5-5.5c-1.8-0.8-3.6-1.7-5.1-2.9h-0.1c-0.2-0.1-0.3-0.2-0.5-0.3l-0.1-0.1
				c-0.1-0.1-0.2-0.2-0.4-0.3l-0.2-0.2c-0.1-0.1-0.2-0.2-0.3-0.2l-0.3-0.2l-0.2-0.2c-0.1-0.1-0.2-0.2-0.4-0.3l-0.1-0.1
				c-0.1-0.1-0.3-0.2-0.4-0.4h-0.1c-1.5-1.3-2.8-2.7-4.1-4.2l-4.9,2.8l-4.5-7.8l4.9-2.8c-0.7-1.9-1.3-3.8-1.6-5.7v-0.1
				c-0.1-0.2-0.1-0.4-0.1-0.5v-0.2c0-0.2-0.1-0.3-0.1-0.5v-0.2c0-0.1,0-0.2,0-0.3c0-0.2-0.1-0.3-0.1-0.4v-0.2c0-0.2,0-0.3-0.1-0.5
				v-0.1c0-0.2,0-0.4,0-0.6l0,0c-0.2-2-0.1-3.9,0.1-5.9l-5.5-1.5l2.3-8.7l5.5,1.5c0.8-1.8,1.7-3.6,2.8-5.2l0,0
				c0.1-0.2,0.2-0.3,0.3-0.5l0.1-0.1c0.1-0.1,0.2-0.2,0.3-0.4l0.2-0.2c0.1-0.1,0.1-0.2,0.2-0.3c0.1-0.1,0.2-0.2,0.2-0.3l0.2-0.2
				c0.1-0.1,0.2-0.2,0.3-0.4l0.1-0.1c0.1-0.2,0.2-0.3,0.4-0.5l0,0c1.3-1.5,2.7-2.9,4.3-4.1l-2.8-4.9l7.8-4.5l2.8,4.9
				c1.9-0.8,3.8-1.3,5.7-1.7l0,0c0.2,0,0.4-0.1,0.6-0.1h0.1c0.2,0,0.3-0.1,0.5-0.1h0.2c0.2,0,0.3,0,0.4,0c0.1,0,0.2,0,0.3-0.1
				c0.1,0,0.2,0,0.3,0s0.3,0,0.4,0h0.2c0.2,0,0.4,0,0.5,0l0,0c1.9-0.2,3.9-0.1,5.9,0.1l1.4-5.5l8.7,2.3L213.7,151.9z M203.9,171
				c5.2,1.4,8.3,6.7,6.9,12c-1.4,5.2-6.8,8.3-12,6.9c-5.2-1.4-8.3-6.7-6.9-12C193.3,172.7,198.7,169.6,203.9,171L203.9,171z
				 M205.9,163.5c9.4,2.5,14.9,12.1,12.4,21.5s-12.1,14.9-21.5,12.4c-9.3-2.5-14.9-12.1-12.4-21.5
				C186.9,166.6,196.5,161,205.9,163.5L205.9,163.5z"/>
		</g>
		<g id="Graph">
			<path class="st7" d="M295.9,355h9.8v47.5H286v-37.6C286,359.5,290.4,355,295.9,355L295.9,355z"/>
			<path class="st7" d="M322.1,324.8h9.8v77.7h-19.7v-67.9C312.3,329.2,316.7,324.8,322.1,324.8L322.1,324.8z"/>
			<path class="st7" d="M348.4,296h9.8v106.5h-19.7v-96.7C338.5,300.4,342.9,296,348.4,296L348.4,296z"/>
		</g>
		<g id="Lines">
			<path class="st8" d="M145.8,305.5c-2.3,0-4.2-1.9-4.2-4.2c0-2.3,1.9-4.2,4.2-4.2h61.7l28.3-49.1c0.8-1.4,2.2-2.1,3.7-2.1l0,0
				h86.7l55-72c1.4-1.9,4.1-2.2,5.9-0.8c1.9,1.4,2.2,4.1,0.8,5.9l-56.1,73.5c-0.8,1.1-2.1,1.9-3.6,1.9h-86.3L213.8,303
				c-0.7,1.5-2.1,2.5-3.9,2.5H145.8z"/>
			<path class="st8" d="M250,161.3c-1.2,0-2.1-0.9-2.1-2.1c0-1.2,1-2.1,2.1-2.1h100.4c1.2,0,2.1,1,2.1,2.1c0,1.2-1,2.1-2.1,2.1H250z
				"/>
			<path class="st8" d="M229,149.1c-1.2,0-2.1-0.9-2.1-2.1c0-1.2,1-2.1,2.1-2.1h100.4c1.2,0,2.1,1,2.1,2.1c0,1.2-0.9,2.1-2.1,2.1
				H229z"/>
		</g>
		<g id="Circles">
			<path class="st7" d="M238.7,243.6c4.4,0,7.9,3.4,7.9,7.6c0,4.2-3.5,7.7-7.9,7.7s-7.9-3.4-7.9-7.7
				C230.8,247,234.3,243.6,238.7,243.6L238.7,243.6z M238.7,236.3c8.6,0,15.5,6.7,15.5,15s-6.9,15-15.5,15s-15.5-6.7-15.5-15
				S230.1,236.3,238.7,236.3L238.7,236.3z M238.7,233.1c10.4,0,18.8,8.1,18.8,18.2c0,10-8.4,18.2-18.8,18.2s-18.8-8.1-18.8-18.2
				C219.9,241.2,228.3,233.1,238.7,233.1L238.7,233.1z"/>
			<path class="st7" d="M391.4,154.7c7.2,0,13.1,5.7,13.1,12.6c0,7-5.9,12.6-13.1,12.6s-13.1-5.7-13.1-12.6S384.2,154.7,391.4,154.7
				L391.4,154.7z M391.4,142.5c14.2,0,25.8,11.1,25.8,24.9c0,13.7-11.5,24.9-25.8,24.9c-14.2,0-25.7-11.1-25.7-24.9
				C365.7,153.6,377.2,142.5,391.4,142.5L391.4,142.5z M391.4,137.2c17.2,0,31.2,13.5,31.2,30.1s-13.9,30.1-31.2,30.1
				c-17.2,0-31.1-13.5-31.1-30.1S374.2,137.2,391.4,137.2L391.4,137.2z"/>
		</g>
	</g>
</g>
<g id="Ebene_2">
	<path class="st9" d="M90.2,316.6c2.6-1.2,5.1-2.4,8.3-3.9c4.4,9.8,9,19.1,12.6,28.8c4,10.8,10.1,15.9,21.8,15
		c13-1,26.1-0.2,39.1-0.3c4.3,0,8.6-0.7,9.6-6.1c0.9-4.9,0.1-9.2-5.9-9.8c-11.6-1.2-23.2-2.9-34.8-3.8c-5.1-0.4-7.8-2.3-9.7-7.2
		c-5.2-13.5-10.6-27-16.3-40.3c-4.7-11-12.3-18.4-24.5-19c-14.9-0.7-25.9,7.2-29.3,23.5c-3.7,18-5.5,36.4-8.2,54.6
		c-0.4,3-1,6-1.6,9.4c-3.2-0.5-5.9-1-9.6-1.6c1-7.3,1.9-14.4,2.8-21.4c1.8-13.3,3.2-26.6,5.6-39.8c3.9-21.2,16.2-33.2,35.3-35.2
		c17.2-1.8,31.6,8,39.5,26.9c2.2,5.4,4.5,10.8,7.4,17.9c4.6-12.9,8.5-24,12.5-35.1c4.9-13.9,9.9-27.8,14.6-41.8
		c1.5-4.6,4.1-6.4,8.7-6.2c7.5,0.3,15.1,0.1,23.8,0.1c0-3.5-0.1-6.5,0-9.4c0.3-7.4,0.3-14.9,1.3-22.2c1.6-11.9,6.8-21.7,17.3-27.8
		c13.5-7.8,21.5-7,33.4,3.3c1.7,1.5,3.6,2.9,5.8,4.8c3.6-3.1,7.4-5.8,10.5-9.1c4-4.2,8.5-4.9,13.8-4.1c19.8,3.2,31.3,16.4,32.8,38.8
		c0.6,8.1,0.1,16.2,0.1,25.7c7.6,0,14.6,0.3,21.5-0.1c5.7-0.3,8.6,1.8,10.6,7.6c7.8,22.7,16.1,45.3,24.2,67.9
		c0.8,2.4,1.8,4.7,3.3,8.5c3.2-7.8,5.6-14.1,8.4-20.3c8.7-19.3,23.3-27.9,42.6-24.8c14.2,2.3,25,10.7,28.4,24.8
		c5.4,23.1,8.4,46.8,12.6,70.8c-4.5,0.8-7.3,1.2-10.7,1.8c-2.5-18.3-4.8-36.1-7.3-53.8c-0.5-3.8-1.3-7.5-2.3-11.2
		c-4.1-13.9-12.5-21.5-24.6-22.5c-13.1-1-22.9,5-28.9,18.5c-5,11.3-10.2,22.6-13.8,34.4c-3.2,10.2-8.6,14.4-18.8,14.3
		c-8.9-0.1-17.7,1.9-26.6,2.6c-5.1,0.4-8.2,2.4-8,8.3c0.3,5.9,4,7.8,8.7,7.9c12.1,0.2,24.4-1,36.4,0.4c14.7,1.7,22.7-4.5,27.2-18.5
		c2.8-8.5,7.1-16.5,10.9-25.3c3.2,1.5,5.8,2.7,9.9,4.6c-7.5,14.8-14.8,29-21.8,43.3c-0.9,1.8-1.3,4.4-0.8,6.3
		c1.9,6.4,4.4,12.6,6.6,18.9c2.8,8.1,1.2,10.6-7,10.6c-27.5,0-54.9,0-82.4,0c-64.3,0-128.7,0-193,0c-10.2,0-12.5-2.3-8-11.7
		c6.7-13.9,7.2-26-1.8-39.3c-5.3-7.9-8.1-17.6-11.9-26.6C90.2,318.6,90.3,318,90.2,316.6z M138,321.8c8.1-3.8,14.4-7.1,21-9.8
		c4-1.6,5.6-4.2,6.3-8.3c1.9-11.3,4.2-22.6,6.1-33.9c1-6,3.8-8.2,9.6-6.4c15.8,4.9,31.6,9.6,47.5,14.2c5,1.5,6.5,4.5,5.5,9.6
		c-2.6,13.6-4.8,27.3-7.7,40.8c-0.6,2.9-3.3,6.2-5.9,7.7c-7.7,4.2-15.8,7.5-23.7,11.4c-1.9,0.9-4.1,2.6-4.8,4.4
		c-4.9,12.3-8.3,15-21,15c-14.9,0.1-29.8-0.1-44.6,0.2c-2.1,0-5.2,1.3-6,2.9c-2.3,4.8-3.7,10.1-5.6,15.6c89.9,0,178.9,0,268.6,0
		c-1.3-4-2.7-7-3.4-10.2c-1.4-6.8-5-8.8-11.6-8.5c-13.9,0.6-27.9,0.2-41.9,0.2c-7.3,0-14.8-2-16.9-9.6c-2.2-7.8-7.2-10.2-13.1-12.9
		c-5.7-2.5-11.6-4.8-16.8-8.1c-2.9-1.8-5.9-5.3-6.7-8.6c-3-13.3-4.9-26.8-7.6-40.1c-1.1-5.3,0.5-8.2,5.4-9.6
		c15.8-4.7,31.7-9.4,47.5-14.3c5.6-1.7,8.6,0.1,9.6,6.3c1.9,11.6,4.2,23,6.4,34.5c0.3,1.6,0.4,4.1,1.4,4.6
		c7.8,4.3,15.9,8.2,23.8,12.2c-9-29.7-18.9-57.8-29.1-85.7c-0.6-1.6-3.2-3.5-4.9-3.5c-10.5-0.3-21.1-0.2-31.6-0.1
		c-1.4,0-2.9,1.1-4.8,1.9c1.3,1.4,1.7,2.2,2.2,2.4c8.7,3.1,9.1,4.1,4.2,12.3c-1.2,2-2.7,3.9-3.7,6c-2.5,5.5-6.5,7-12.2,6.9
		c-17.9-0.3-35.8-0.9-53.6,0.2c-11.6,0.7-18.9-2.8-23.9-13.9c-3.4-7.4-3.4-8.8,4.4-11.4c0.8-0.3,1.4-1.5,3.1-3.5
		c-3.3-0.4-5.4-0.9-7.5-0.9c-9.2-0.1-18.3,0.2-27.5-0.1c-4.4-0.1-6.4,1.5-7.9,5.8c-8.8,25.7-17.9,51.3-26.8,76.9
		C139.1,316,138.9,317.9,138,321.8z M201.5,205.5c0.2,0,0.4,0.1,0.6,0.1c0,4.1-0.3,8.2,0.2,12.2c0.1,1.2,2,2.3,3.2,3.4
		c0.9-1.1,2.5-2.1,2.6-3.3c0.4-3.8,0.3-7.6,0.1-11.5c-0.3-5.7,1.8-8.3,7.5-8.3c22.2,0.2,44.4,0.1,66.5,0c5.4,0,7.5,2.4,7.3,7.8
		c-0.1,4.1-0.3,8.2,0.2,12.2c0.1,1.2,2.3,2.9,3.5,2.9c1.3,0,3.7-1.9,3.6-2.8c-1-12.3-0.6-25.1-4.2-36.6c-4.4-14.3-20.4-17.3-31.3-8
		c-13.3,11.3-9.8,12-23.8-0.2c-8.4-7.4-14.8-8.3-23.6-1.2c-4.2,3.5-7.7,8.9-9.6,14.2C202.3,192.4,202.4,199.1,201.5,205.5z
		 M279.1,250.1c0-14.2,0-27.4,0-41.4c-19.4,0-38.3-0.1-57.2,0.1c-1.2,0-3.4,2.1-3.4,3.2c-0.2,12.6-0.2,25.2-0.2,38.5
		c18.7,0,36.5,0,54.3,0C274.6,250.5,276.6,250.3,279.1,250.1z M282,323c14.6-4.7,28.2-9,42.5-13.6c-2.2-11.8-4.2-23.1-6.4-34.9
		c-13.8,4.1-26.5,7.8-39.1,11.8c-1.3,0.4-2.9,3.1-2.7,4.5C278,301.2,279.9,311.4,282,323z M180.9,274.5c-2.2,12.3-4.3,23.6-6.3,35
		c14.9,4.7,28.5,9,42.5,13.4c2.1-11.2,4.1-21.2,5.7-31.3c0.2-1.6-1.3-4.7-2.7-5.1C207.4,282.3,194.7,278.6,180.9,274.5z
		 M294.6,330.1c0,0.6,0,1.1,0,1.7c3.7,1.7,7.4,3.6,11.2,5.1c1.2,0.5,3.5,0.3,4.1-0.5c4.5-6.4,11.3-6.5,17.8-7.3
		c5.4-0.7,10.8-1.4,16.2-2.1c0.1-0.7,0.1-1.3,0.2-2c-5.2-1.9-10.9-6.1-15.7-5.2C317,322,305.9,326.5,294.6,330.1z M153.9,326.9
		c3.2,0.4,4.7,0.5,6.2,0.8c10.2,2.3,21.9-0.9,29.8,9.4c0.4,0.5,2.2,0.3,3.1-0.1c3.9-1.7,7.8-3.6,13.3-6.3
		c-10.1-3.3-18.8-5.2-26.9-8.9C170.2,317.7,162.8,320.6,153.9,326.9z"/>
	<path class="st9" d="M75.8,218.1c-0.2-21.6,16-39.1,36.5-39.5c20.7-0.4,37.7,17,37.9,38.8c0.3,21.3-16.2,39.1-36.6,39.5
		C92.9,257.3,76,240,75.8,218.1z M112.6,246.2c15.4,0.1,27.5-12.5,27.4-28.6c-0.1-15.7-12.1-28.2-27.1-28.3
		c-14.9,0-26.9,12.6-27.1,28.3C85.7,233.2,97.8,246.1,112.6,246.2z"/>
	<path class="st9" d="M385.8,256.9c-20.3-0.2-36.9-17.7-36.9-39.2c0-21.7,17.1-39.4,37.6-39.1c20.4,0.3,37,17.8,36.9,39.2
		C423.5,239.5,406.5,257.1,385.8,256.9z M413.2,217.6c-0.1-15.7-12.2-28.4-27-28.4c-15,0-27.1,12.6-27.1,28.2
		c-0.1,16.1,12,28.7,27.4,28.6C401.4,246.1,413.3,233.4,413.2,217.6z"/>
	<path class="st9" d="M284.1,114.1c-0.1,20-15.5,35.9-34.6,35.8c-19.2-0.1-34.5-16-34.5-36c0-20.3,15.6-36.4,35-36.2
		C269,77.9,284.2,94.1,284.1,114.1z M249.3,139.4c13.4,0.1,24.6-11.5,24.7-25.4c0.1-14-10.9-25.6-24.3-25.8
		c-13.2-0.2-24.5,11.4-24.7,25.4C224.8,127.5,236,139.3,249.3,139.4z"/>
	<path class="st10" d="M138,321.8c0.9-3.9,1.2-5.7,1.8-7.4c9-25.6,18-51.2,26.8-76.9c1.5-4.3,3.5-6,7.9-5.8c9.1,0.3,18.3,0,27.5,0.1
		c2.1,0,4.2,0.5,7.5,0.9c-1.8,2-2.3,3.2-3.1,3.5c-7.8,2.7-7.8,4-4.4,11.4c5,11,12.3,14.6,23.9,13.9c17.8-1.1,35.7-0.5,53.6-0.2
		c5.7,0.1,9.7-1.4,12.2-6.9c1-2.1,2.5-4,3.7-6c4.9-8.1,4.6-9.2-4.2-12.3c-0.6-0.2-0.9-1-2.2-2.4c2-0.8,3.4-1.9,4.8-1.9
		c10.5-0.1,21.1-0.2,31.6,0.1c1.7,0.1,4.3,1.9,4.9,3.5c10.2,27.9,20.1,56,29.1,85.7c-8-4-16-7.9-23.8-12.2c-1-0.5-1.1-3-1.4-4.6
		c-2.2-11.5-4.5-23-6.4-34.5c-1-6.3-4-8.1-9.6-6.3c-15.8,4.8-31.6,9.6-47.5,14.3c-4.9,1.4-6.5,4.3-5.4,9.6
		c2.7,13.3,4.6,26.9,7.6,40.1c0.7,3.3,3.8,6.8,6.7,8.6c5.2,3.3,11.1,5.6,16.8,8.1c5.9,2.6,10.9,5.1,13.1,12.9
		c2.1,7.6,9.6,9.6,16.9,9.6c14,0,27.9,0.4,41.9-0.2c6.6-0.3,10.3,1.7,11.6,8.5c0.6,3.2,2,6.3,3.4,10.2c-89.7,0-178.7,0-268.6,0
		c1.9-5.5,3.3-10.8,5.6-15.6c0.8-1.6,3.9-2.9,6-2.9c14.9-0.2,29.8-0.1,44.6-0.2c12.6-0.1,16.1-2.8,21-15c0.7-1.9,2.9-3.5,4.8-4.4
		c7.8-3.9,16-7.2,23.7-11.4c2.6-1.4,5.3-4.7,5.9-7.7c3-13.5,5.1-27.2,7.7-40.8c1-5.1-0.5-8.2-5.5-9.6c-15.9-4.6-31.7-9.4-47.5-14.2
		c-5.8-1.8-8.6,0.4-9.6,6.4c-1.9,11.3-4.2,22.6-6.1,33.9c-0.7,4.1-2.4,6.7-6.3,8.3C152.4,314.6,146.1,317.9,138,321.8z"/>
	<path class="st10" d="M201.5,205.5c0.9-6.4,0.8-13.1,2.9-19c1.9-5.3,5.3-10.8,9.6-14.2c8.7-7.1,15.1-6.2,23.6,1.2
		c14,12.2,10.5,11.5,23.8,0.2c10.9-9.3,26.9-6.2,31.3,8c3.6,11.5,3.1,24.3,4.2,36.6c0.1,0.9-2.3,2.8-3.6,2.8c-1.2,0-3.4-1.7-3.5-2.9
		c-0.4-4-0.3-8.1-0.2-12.2c0.1-5.3-2-7.8-7.3-7.8c-22.2,0.1-44.4,0.2-66.5,0c-5.7,0-7.8,2.6-7.5,8.3c0.2,3.8,0.2,7.7-0.1,11.5
		c-0.1,1.2-1.7,2.2-2.6,3.3c-1.1-1.1-3-2.2-3.2-3.4c-0.4-4-0.2-8.1-0.2-12.2C201.9,205.6,201.7,205.5,201.5,205.5z"/>
	<path class="st10" d="M279.1,250.1c-2.5,0.2-4.5,0.4-6.5,0.4c-17.8,0-35.6,0-54.3,0c0-13.3-0.1-25.9,0.2-38.5
		c0-1.1,2.2-3.2,3.4-3.2c18.9-0.2,37.8-0.1,57.2-0.1C279.1,222.7,279.1,235.9,279.1,250.1z M257,230c-3.7-2.7-5.8-5.3-7.7-5.2
		c-2,0.1-3.8,2.8-5.8,4.4c1.8,1.9,3.4,4.9,5.5,5.4C250.7,235.1,253.1,232.5,257,230z"/>
	<path class="st10" d="M282,323c-2.1-11.5-4.1-21.8-5.6-32.1c-0.2-1.4,1.4-4.1,2.7-4.5c12.6-4,25.3-7.7,39.1-11.8
		c2.2,11.8,4.2,23.1,6.4,34.9C310.2,314,296.6,318.3,282,323z"/>
	<path class="st10" d="M180.9,274.5c13.8,4.1,26.5,7.8,39.1,11.9c1.3,0.4,2.9,3.6,2.7,5.1c-1.5,10.1-3.6,20.1-5.7,31.3
		c-14-4.4-27.6-8.7-42.5-13.4C176.6,298.1,178.6,286.8,180.9,274.5z"/>
	<path class="st10" d="M294.6,330.1c11.3-3.6,22.3-8.2,33.8-10.3c4.8-0.9,10.4,3.3,15.7,5.2c-0.1,0.7-0.1,1.3-0.2,2
		c-5.4,0.7-10.8,1.4-16.2,2.1c-6.5,0.9-13.3,1-17.8,7.3c-0.6,0.8-2.9,1-4.1,0.5c-3.8-1.5-7.5-3.4-11.2-5.1
		C294.6,331.2,294.6,330.7,294.6,330.1z"/>
	<path class="st10" d="M153.9,326.9c8.9-6.3,16.3-9.2,25.5-5c8,3.7,16.8,5.6,26.9,8.9c-5.5,2.6-9.4,4.6-13.3,6.3
		c-0.9,0.4-2.7,0.6-3.1,0.1c-7.9-10.3-19.6-7.1-29.8-9.4C158.7,327.4,157.1,327.3,153.9,326.9z"/>
	<path class="st10" d="M112.6,246.2c-14.8-0.1-26.9-12.9-26.8-28.5c0.1-15.7,12.2-28.3,27.1-28.3c15,0,27,12.6,27.1,28.3
		C140.1,233.6,128,246.2,112.6,246.2z"/>
	<path class="st10" d="M413.2,217.6c0.1,15.8-11.8,28.4-26.8,28.5c-15.4,0.1-27.4-12.5-27.4-28.6c0.1-15.6,12.2-28.2,27.1-28.2
		C401,189.2,413.1,201.9,413.2,217.6z"/>
	<path class="st10" d="M249.3,139.4c-13.3-0.1-24.5-11.9-24.3-25.8c0.2-14,11.5-25.6,24.7-25.4c13.4,0.2,24.4,11.8,24.3,25.8
		C274,128,262.7,139.5,249.3,139.4z"/>
	<path class="st9" d="M257,230c-3.9,2.4-6.3,5.1-8,4.7c-2.1-0.5-3.7-3.5-5.5-5.4c1.9-1.6,3.8-4.3,5.8-4.4
		C251.2,224.7,253.2,227.3,257,230z"/>
</g>
</svg>
