<!-- Generated by IcoMoon.io -->
<svg version="1.1" xmlns="http://www.w3.org/2000/svg" width="24" height="24" viewBox="0 0 24 24">

<path d="M3.928 3c9.428 0.012 17.066 7.792 17.072 17.39v0 0.61h-1.241v-0.61c-0.005-8.902-7.087-16.12-15.831-16.135v0h-0.928v-1.255zM5.29 16.338c1.263 0.002 2.288 1.044 2.289 2.331 0 1.287-1.025 2.331-2.289 2.331s-2.29-1.044-2.29-2.331 1.025-2.331 2.29-2.331zM3.955 10.257c5.476 0.021 9.898 4.559 9.878 10.133v0 0.61h-1.176v-0.61c-0.006-4.922-3.924-8.91-8.758-8.916v0h-0.899v-1.217zM5.29 17.476c-0.648 0-1.173 0.534-1.173 1.193s0.525 1.193 1.173 1.193c0.647-0.001 1.171-0.534 1.172-1.193s-0.525-1.193-1.172-1.193z" style="fill: #f59300;"></path>
</svg>
