<svg id="Ebene_5" data-name="Ebene 5" xmlns="http://www.w3.org/2000/svg" viewBox="0 0 479.84 442.49">
  <path d="M240.07,332.52c9.91-9.28,19.11-17.51,27.83-26.23,4.47-4.46,8.56-5.6,14.48-3,12.22,5.37,24.95,9,35.69,18.09,11.92,10.14,19.84,22.39,21,37.61,1.42,18.54.34,37.28.34,56.58H304c-.63-9.81-1.81-19.37-1.69-28.91.11-8.67-2.71-12-12.29-8.9v37.95h-99.3v-38.3H178.67c-.65,10.65-1.59,21.08-1.82,31.53-.12,5.76-2.21,7.6-7.69,7.38-9.36-.37-18.76-.1-29.36-.1.93-23.39-3.52-46.32,3.84-68.42,6.48-19.43,21.06-31.27,39.08-39,1-.45,2.38-.36,3.25-1,15.11-11.15,26.05-3.5,36.52,8C227.69,321.5,233.66,326.47,240.07,332.52Z"/>
  <path d="M212.6,1.32c1.84,2.13,4.08,3.93,5.33,6.29,4.13,7.8,9.66,11.9,18.64,9a7.75,7.75,0,0,1,4.24-.16c10.79,3.1,18.54-.25,23.89-10.56.81-1.58,5.05-2.09,7.51-1.73s4.44,2.48,6.67,3.79c14,8.22,13.82,8.16,8.53,23.26-.86,2.44,0,5.86.92,8.51.83,2.38,3.34,4.14,4.22,6.52,4.16,11.33,10.55,17.33,23.6,19.16,9.47,1.33,2.77,13.45,4,20.57.51,3-2.78,9.61-3.81,9.5-13.94-1.53-18,8.4-24.25,18.2-5.54,8.71-7.48,15.47-1.94,24.11,2.93,4.57,1.2,7.6-3.24,9.68-1.29.61-2.47,1.47-3.73,2.15-5,2.74-10.4,8.08-15,7.42-4.2-.61-7.52-7.66-11.22-11.87-2.31-2.64-32.14-2.76-34.51-.14-3.77,4.17-7.18,11.19-11.41,11.75-4.55.6-9.69-5.24-14.87-7.58-7.69-3.47-10.69-8-5.24-15.86,4.29-6.16,3.52-11.83-1.83-17a7.59,7.59,0,0,1-1.87-2.91c-3.91-11.08-9.5-19.6-23-18-1.28.15-4.12-3.19-4.24-5a106.94,106.94,0,0,1,.2-21c.28-2.15,4.41-5.4,6.73-5.37,9.86.15,16-3.86,18.39-13.8a7.82,7.82,0,0,1,2.1-3.78c8.22-7.53,7.59-15.66,2.67-24.86-1-1.84.57-6.84,2.45-8.22C198.53,9,205.25,5.6,212.6,1.32ZM240.1,50c-16.18-.09-29.29,13.34-29.32,30S224,110.2,240.07,110.13,269.43,96.52,269.43,80,256.45,50.1,240.1,50Z"/>
  <path d="M295.63,232c-.45,31.66-25.15,56.4-56.06,56.13-30.63-.27-55.69-26.08-55.44-57.12.24-30.74,26-56.23,56.46-55.91C271.92,175.46,296.07,200.44,295.63,232Z"/>
  <path d="M444.44,415.8H413.65c-.85-11.54-1.68-22.75-2.54-34.43H399.74v34.2H355.37c0-13.6-.34-27,.09-40.3.59-18.37-3.4-35.29-13.55-50.54-2-3.05-4.33-5.91-7.35-10,33.55-3.56,65.23-3,92.38,19.7,11.13,9.3,17.08,21.87,17.43,36.68C444.71,385.67,444.44,400.24,444.44,415.8Z"/>
  <path d="M124.47,415.82H81.41V381.46H68.87c-.74,11.23-1.46,22.21-2.24,34H35.4c1.24-21.22-4-43.05,5-63.59,9.41-21.41,28.36-31.09,49.23-35.14,17.61-3.42,35.91-3.21,55.21-3C117.94,344,125.75,380.36,124.47,415.82Z"/>
  <path d="M121.82,303.82c-28.91-.17-47.72-21.22-47.49-53.16.16-22.58,24.16-45.54,47.54-44.91,30.22.8,46.55,23,47.73,50.28C170.74,282.15,147.83,304,121.82,303.82Z"/>
  <path d="M359.54,303.74C335,304.83,312.7,285,311,261.67c-2.19-30,16.5-53,45.69-55.89,25.58-2.53,48.24,20.2,49.64,47.3C407.7,279.54,385,304.94,359.54,303.74Z"/>
  <path d="M240.1,50c16.35.1,29.32,13.37,29.33,30s-13.2,30-29.36,30.11S210.75,96.59,210.78,80,223.92,49.91,240.1,50Z" style="fill: #fff"/>
</svg>
