<svg id="training" xmlns="http://www.w3.org/2000/svg" viewBox="0 0 419.88 386.44">
  <path d="M186.23,211.53c-4.81-9.14-9-17.26-13.33-25.24-2.27-4.15-2-7.29,2.19-9.88,7.55-4.72,15-9.58,22.4-14.31,9.39,5.72,11.9,4.49,13.86-6.08a14.05,14.05,0,0,1,3-5.54c6.44-8.33,6.24-16.08.59-24.94a15.28,15.28,0,0,1-1.42-11.2c1.67-5.58,2.16-10.86-2.85-13.63a13.9,13.9,0,0,0-11.71,0c-5,2.78-5.3,8.31-2.56,13.55,2.15,4.13.3,6-3.33,7.84-8.93,4.64-17.62,9.77-27.12,15.09,1.41,2.86,2.63,5.34,4.2,8.51,8.53-4.83,16.67-9.3,24.67-14,5.12-3,10-4,13.92,1.5,3.24,4.52,1.29,9.63-5.15,13.84-11.49,7.51-22.82,15.35-34.75,22-4.1,2.3-10.29,3.2-14.67,1.85-5.76-1.78-6.29-8.58-5.31-13.9,3.11-16.77,6-33.66,10.61-50,3.86-13.8,14.62-20.06,28.49-20.26,11.23-.17,22.48-.24,33.72,0,19.85.48,30.46,10.06,31.63,30.35,1.1,19.06.7,38.22.61,57.34,0,2.2-1.77,5-3.55,6.49-8.26,7-13.89,15.54-15.72,26.37-.75,4.44-3.08,5.57-6.45,4-13-5.94-25.91-5.82-38.9.09A4.68,4.68,0,0,1,186.23,211.53Z" style="fill: #fff"/>
  <path d="M403.2,368.93H390.7c0-8.89-.25-17.4.1-25.88.22-5.45-1.65-7.28-7-7.24q-40.51.3-81.05,0c-5.77,0-8.25,1.73-7.79,8s.1,12.62.1,19.44H283.49c0-9.77-2.26-20,.56-28.54,3.61-10.89,10.31-21.21,17.54-30.21,6.71-8.35,17.46-11.52,27.86-11.63,13-.15,26.28.22,39,2.77,13.15,2.64,22.39,11.67,26,25.63.24.95.21,2.22.81,2.79C408.84,337,400,353.57,403.2,368.93Z" style="fill: #fff"/>
  <path d="M268,363.41H256.43c0-7.42-.09-14.64,0-21.86.06-3.43-.66-5.67-4.62-5.66q-44.06.19-88.11.29c-.44,0-.87.34-2.29.94v26.05H149.52c-4.16-25.23,2.9-47.8,22.24-61.47,22.43-15.87,49.83-15.71,72.73-1C265.24,314.07,271.65,337.28,268,363.41Z" style="fill: #fff"/>
  <path d="M122.63,363.13c0-7.39-.18-14.22.07-21,.16-4.37-1.34-6.22-5.71-6.21q-42.31.14-84.64,0c-4,0-5.53,1.72-5.43,5.76.17,7.05,0,14.1,0,21.63H15.75c-4.71-24.69,2.56-46.83,20.7-60.66,22.26-17,50-16.63,73.35-2.31,21.44,13.14,27.48,36.79,24.28,62.82Z" style="fill: #fff"/>
  <path d="M105.55,251.47c.07,17.71-13.47,31.77-30.75,31.92-16.84.14-31-14.47-30.91-31.92a31.19,31.19,0,0,1,30.55-31.41C91.69,219.81,105.48,233.73,105.55,251.47Z" style="fill: #fff"/>
  <path d="M312.07,251.49c.08-17.64,14-31.69,31.16-31.44s30.81,14.54,30.58,32.12c-.22,17.08-14.33,31.32-30.89,31.2C325.72,283.25,312,269.05,312.07,251.49Z" style="fill: #fff"/>
  <path d="M178.11,251.86c-.14-17.74,13.42-31.78,30.72-31.8,16.88,0,30.6,13.7,31,31s-13.5,32-30.57,32.33S178.26,269.53,178.11,251.86Z" style="fill: #fff"/>
  <path d="M204.87,17.58c16.62.06,30,14,29.77,31.12C234.4,65.47,221,79,204.72,78.92S175.07,65.31,174.9,48.54C174.73,31.53,188.3,17.52,204.87,17.58Z" style="fill: #fff"/>
  <path d="M305.07,215.26c0,17-12.92,30.27-29.46,30.16-16-.11-29.26-13.7-29.19-29.92.08-16.83,13.3-30.29,29.66-30.19C292.21,185.4,305,198.65,305.07,215.26Z" style="fill: #fff"/>
  <path d="M171.19,215.27c0,16.6-13,30.06-29.07,30.15-16.55.09-29.66-13.34-29.58-30.32.07-16.51,13.22-29.85,29.38-29.79S171.2,198.81,171.19,215.27Z" style="fill: #fff"/>
  <path d="M173.66,283.25c-15.37,6-25.3,17.88-31.93,34.35-6.23-16.56-16.35-28.27-31.6-34.28,3.27-8.25,6.24-16.1,9.56-23.79.5-1.16,2.59-2.25,4-2.27,12.12-.17,24.24-.22,36.35.08,1.53,0,3.66,2,4.38,3.57C167.56,267.93,170.34,275.15,173.66,283.25Z" style="fill: #fff"/>
  <path d="M307.56,283.26c-15,5.86-25.05,17.66-31.73,34.29-6.25-16.52-16.53-28.32-31.67-34.27,3.2-8.11,6.05-15.77,9.32-23.24a5.81,5.81,0,0,1,4.37-2.77c11.88-.26,23.77-.4,35.65,0,1.84.06,4.31,2.58,5.25,4.57C301.82,268.38,304.31,275.21,307.56,283.26Z" style="fill: #fff"/>
</svg>
