<svg id="up" xmlns="http://www.w3.org/2000/svg" viewBox="0 0 419.88 386.44">
  <path d="M290.76,146.46c2.93,3.48,5.86,7,8.82,10.43,6.1,7.15,6.16,8.24-1.09,14.65-17.33,15.34-34.86,30.43-52.16,45.8q-18.4,16.36-36.39,33.22c-4.39,4.11-8.06,4.64-12.15-.11-9.13-10.63-18.34-21.19-28.16-32.51l-30.57,27.21c-13.82-15.36-29.7-14.15-47-5.2-1-32,3.3-61,30.54-80,9.88-6.89,21.79-10.82,33-15.51,1.94-.81,5.55.68,7.53,2.25,10.76,8.5,21.25,17.37,32.12,26.35,11.11-8.54,21.67-16.43,31.94-24.69,3.57-2.87,6.69-3.77,11.09-2.07,15,5.82,29.86,11.91,40.54,25.86L289.25,163c-5.82-6.53-11.53-12.35-16.48-18.79-1.92-2.49-3.43-6.79-2.64-9.5.55-1.87,5.42-3.52,8.27-3.39,31.06,1.39,62.11,3.14,93.15,4.83,5.42.29,9.1,1.91,8.41,8.87-3,30.46-5.72,60.94-8.66,91.4-.3,3.08-.59,6.78-2.35,9-3.3,4.1-7.14,2.72-10.3-1-4.83-5.74-9.71-11.43-14.78-17.4L338,230l-8.51-9.51c5.65-3.45,11.11-9.49,15.79-8.91,4.9.61,9,7.58,14.44,12.64,2.54-25.26,5-49.66,7.56-75.08l-75.62-5.06Z" style="fill: #f59300"/>
  <path d="M195.89,130.23c-32.15.16-58.85-27-59.23-60.16-.39-33.38,26.22-60.77,59.12-60.85,32.57-.09,58.85,26.76,59.21,60C255.38,104.88,225.52,130.19,195.89,130.23Z" style="fill: #f59300"/>
  <path d="M58.13,299.48c2.48,4,4.49,7.27,6.7,10.84L54.91,320l37.76,43.28c12.92-11.39,25.39-22.36,37.84-33.36,12.69-11.2,25.32-22.46,38.05-33.61,6.64-5.83,8.43-5.66,14.14,1.05,8.62,10.13,17.17,20.32,26.27,31.11l48-42.6,9.3,8.63c-2.74,2.59-4.73,4.57-6.82,6.43q-20.3,18.12-40.64,36.18c-8.56,7.57-13.18,7.21-20.48-1.36l-23.53-27.62c-10.79,9.48-21.11,18.5-31.38,27.58-13.77,12.16-27.48,24.4-41.26,36.55-7.86,6.93-12.79,6.69-19.54-1q-18.51-21-36.9-42.16c-6.52-7.49-6.24-13,.89-19.54C50.19,306.33,53.87,303.22,58.13,299.48Z" style="fill: #f59300"/>
  <path d="M325.44,234.36c4.94,6.56,4.17,13.5,1.53,19.76-6.27,14.84-17,26.17-30.46,34.13-11.4,6.76-21.37,1.7-29.71-11.92-11.29-18.44,1-44.51,22.17-49.13,7.13-1.56,13.08,1,18.59,5.47S318.8,240.27,325.44,234.36Z" style="fill: #f59300"/>
  <path d="M125.2,250.32c-6.22,6.72-2.86,12.79,1.23,18.95,7.76,11.71,7,21.31-2.3,31.87a62.49,62.49,0,0,1-6.73,6.59c-16.79,14-39.42,7.79-46.59-13.27a20.43,20.43,0,0,1,1.33-14.63c7.11-13,17.87-22.85,30.42-30.23C110.85,244.72,117.5,245.43,125.2,250.32Z" style="fill: #f59300"/>
</svg>
