<svg id="Ebene_4" data-name="Ebene 4" xmlns="http://www.w3.org/2000/svg" viewBox="0 0 479.84 442.49">
  <path d="M180.81,414.4V356.46c-3.74-.66-6.64-.79-9.31-1.69-15.54-5.22-23.69-14.13-23.46-31,.43-31.33,0-62.68,0-94,0-18.45.71-36.64,11.57-52.74,11.69-17.32,28.09-25.22,47.93-26.67,2.34-.18,5,.95,7.13,2.24a51.15,51.15,0,0,1,7.56,6.3c27.66,25.55,16.73,24.07,45.68-.94,5.52-4.78,9.75-8.45,17.71-7.24,33.85,5.15,51.83,24,53.07,60.77,1.35,40,.54,80,.46,120.09,0,3.43-1.62,6.86-2,8.25-17.43-.83-32.5-1.66-47.59-2.23-6.15-.23-12.69-1.2-18.38.53s-14,5.71-14.68,9.87c-2.3,13.38-5.45,27.79,4.51,40.49l-18.24,18.36c-5.69-6.19-11.1-12.33-16.78-18.21"/>
  <path d="M453.86,415.55H351.48c0-21.63-3.94-43.94,1.2-63.78,4.35-16.76,4.26-32.65,4.6-49,.57-26.65.32-53.31.16-80,0-6.64-1.48-13.29-1.41-19.92.05-4.43.81-12.17,2.68-12.66,6.69-1.74,15.16-3.48,20.77-.66,8.45,4.23,15,12.32,22.91,19.19,7.13-6.15,14-11.26,19.87-17.37,5.17-5.37,10.84-5.57,17-4,24.71,6.18,39.38,23.38,40.19,50,.83,27-.22,54-.35,81.07,0,4,.95,8,.68,11.9-.71,10.35-6.9,17.71-17.38,19.69-6.92,1.31-8.83,4.79-8.68,11.62C454.12,379.24,453.86,396.88,453.86,415.55Z"/>
  <path d="M34.37,415.13V352.62c-11.24-1.91-21.77-4.92-24.24-18-1-5.45-1-11.16-1-16.76-.11-27.67-1.72-55.47.33-83,2.19-29.31,13-39.88,38.87-46.64,9.26-2.42,15.29,1.92,21.67,7.62,15.32,13.67,16.27,14.32,30.49-.17,10.57-10.78,20.49-10,29.71-5.22,0,44.2-.23,87.06.19,129.92.09,8.45,2.82,16.86,4.11,25.32,1.09,7.2,2.46,14.44,2.64,21.69.4,15.63.13,31.27.13,47.74Z"/>
  <path d="M190.46,80c0-31.06,23.47-55.25,53.66-55.35,30-.09,54.1,24.47,54.1,55.09s-24,55.4-53.85,55.42C214.31,135.14,190.44,110.71,190.46,80Z"/>
  <path d="M401.48,173.11a43.19,43.19,0,0,1-42.38-44.06c.31-24.67,19.85-44.28,43.85-44,24.79.3,42.58,19.89,42,46.21C444.31,157,427.05,173.59,401.48,173.11Z"/>
  <path d="M128.54,129.14c-1.19,27.33-21.39,46.46-47.26,44.77-20.13-1.32-39.5-22.52-38.6-42.24,1.3-28.54,20.2-47.81,45.64-46.53A42.21,42.21,0,0,1,128.54,129.14Z"/>
  <path d="M311.88,415.12c-35.15,0-95.06-.72-129.18-.72,0-21.64,22.85-43.23,28-63.06,4.34-16.77,4.25-32.66,4.6-49,.56-26.64.31-53.31.15-80,0-6.64-1.48-13.28-1.41-19.92.05-4.42.81-12.16,2.68-12.65,6.69-1.75,15.16-3.49,20.78-.67,8.44,4.24,15,12.33,22.9,19.19,7.13-6.14,14-11.26,19.88-17.37,5.16-5.36,10.83-5.57,17-4,24.72,6.18,39.38,23.38,40.19,50,.83,27-.21,54-.34,81.07,0,4,1.2,14.59.93,18.52-.7,10.36-7.16,11.09-17.64,13.07-6.92,1.31-8.83,4.8-8.68,11.62C312.13,378.8,311.88,396.44,311.88,415.12Z"/>
</svg>
