
<svg version="1.1" xmlns="http://www.w3.org/2000/svg" width="24" height="24" viewBox="0 0 24 24">
<path d="M21 3c-2.087 3.68-4.171 7.362-6.268 11.036-0.149 0.262-0.169 0.45-0.012 0.722 1.271 2.209 2.524 4.428 3.779 6.645 0.064 0.113 0.103 0.24 0.155 0.361h-4.325c-0.381-0.692-0.756-1.389-1.145-2.077-0.94-1.668-1.884-3.334-2.834-4.996-0.105-0.184-0.144-0.326-0.026-0.531 2.122-3.718 4.235-7.439 6.351-11.16h4.325zM7.656 6.537c0.113 0.002 0.271 0.098 0.328 0.195 0.751 1.273 1.493 2.552 2.222 3.839 0.054 0.094 0.044 0.275-0.014 0.37-0.985 1.593-2.018 3.212-3.021 4.795-0.058 0.091-0.195 0.194-0.297 0.195-1.279 0.013-2.523-0.001-3.874-0.001 0.846-1.35 1.651-2.653 2.456-3.936 0.171-0.273 0.316-0.567 0.521-0.814 0.258-0.31 0.201-0.558 0.006-0.881-0.736-1.225-1.44-2.471-2.17-3.734 0.063-0.015 0.104-0.034 0.145-0.034 1.233-0.002 2.466-0.007 3.698 0.006z" style="fill: #f59300"></path>
</svg>
